G04 #@! TF.FileFunction,Profile,NP*
%FSLAX46Y46*%
G04 Gerber Fmt 4.6, Leading zero omitted, Abs format (unit mm)*
G04 Created by KiCad (PCBNEW 4.0.7-e2-6376~58~ubuntu16.04.1) date Mon Sep 25 15:39:33 2017*
%MOMM*%
%LPD*%
G01*
G04 APERTURE LIST*
%ADD10C,0.100000*%
%ADD11C,0.150000*%
G04 APERTURE END LIST*
D10*
D11*
X129520000Y-103140000D02*
G75*
G03X126520000Y-100140000I-3000000J0D01*
G01*
X92020000Y-122140000D02*
G75*
G03X95520000Y-119640000I500000J3000000D01*
G01*
X107520000Y-100140000D02*
G75*
G03X104520000Y-102140000I-500000J-2500000D01*
G01*
X69020000Y-122140000D02*
G75*
G03X66020000Y-125140000I0J-3000000D01*
G01*
X66020000Y-172140000D02*
G75*
G03X69020000Y-175140000I3000000J0D01*
G01*
X126520000Y-175140000D02*
G75*
G03X129520000Y-172140000I0J3000000D01*
G01*
X126520000Y-100140000D02*
X107520000Y-100140000D01*
X104520000Y-102140000D02*
X95520000Y-119640000D01*
X92020000Y-122140000D02*
X69020000Y-122140000D01*
X66020000Y-125140000D02*
X66020000Y-172140000D01*
X69020000Y-175140000D02*
X126520000Y-175140000D01*
X129520000Y-172140000D02*
X129520000Y-103140000D01*
X98520000Y-148640000D02*
G75*
G03X98520000Y-148640000I-4000000J0D01*
G01*
X103790000Y-68530000D02*
G75*
G03X103790000Y-68530000I-4000000J0D01*
G01*
X64790000Y-45030000D02*
X64790000Y-114030000D01*
X125290000Y-42030000D02*
X67790000Y-42030000D01*
X128290000Y-92030000D02*
X128290000Y-45030000D01*
X102290000Y-95030000D02*
X125290000Y-95030000D01*
X89790000Y-115030000D02*
X98790000Y-97530000D01*
X67790000Y-117030000D02*
X86790000Y-117030000D01*
X67790000Y-42030000D02*
G75*
G03X64790000Y-45030000I0J-3000000D01*
G01*
X128290000Y-45030000D02*
G75*
G03X125290000Y-42030000I-3000000J0D01*
G01*
X125290000Y-95030000D02*
G75*
G03X128290000Y-92030000I0J3000000D01*
G01*
X86790000Y-117030000D02*
G75*
G03X89790000Y-115030000I500000J2500000D01*
G01*
X102290000Y-95030000D02*
G75*
G03X98790000Y-97530000I-500000J-3000000D01*
G01*
X64790000Y-114030000D02*
G75*
G03X67790000Y-117030000I3000000J0D01*
G01*
M02*
