G04 #@! TF.FileFunction,Legend,Top*
%FSLAX46Y46*%
G04 Gerber Fmt 4.6, Leading zero omitted, Abs format (unit mm)*
G04 Created by KiCad (PCBNEW 4.0.7-e2-6376~58~ubuntu16.04.1) date Mon Sep 25 15:39:33 2017*
%MOMM*%
%LPD*%
G01*
G04 APERTURE LIST*
%ADD10C,0.100000*%
%ADD11C,0.120000*%
%ADD12C,0.150000*%
G04 APERTURE END LIST*
D10*
D11*
X119440000Y-109414000D02*
X116780000Y-109414000D01*
X119440000Y-109474000D02*
X119440000Y-109414000D01*
X116780000Y-109474000D02*
X116780000Y-109414000D01*
X119440000Y-109474000D02*
X116780000Y-109474000D01*
X119440000Y-110744000D02*
X119440000Y-112074000D01*
X119440000Y-112074000D02*
X118110000Y-112074000D01*
X85150000Y-130750000D02*
X82490000Y-130750000D01*
X85150000Y-130810000D02*
X85150000Y-130750000D01*
X82490000Y-130810000D02*
X82490000Y-130750000D01*
X85150000Y-130810000D02*
X82490000Y-130810000D01*
X85150000Y-132080000D02*
X85150000Y-133410000D01*
X85150000Y-133410000D02*
X83820000Y-133410000D01*
X87690000Y-130750000D02*
X85030000Y-130750000D01*
X87690000Y-130810000D02*
X87690000Y-130750000D01*
X85030000Y-130810000D02*
X85030000Y-130750000D01*
X87690000Y-130810000D02*
X85030000Y-130810000D01*
X87690000Y-132080000D02*
X87690000Y-133410000D01*
X87690000Y-133410000D02*
X86360000Y-133410000D01*
X87690000Y-133290000D02*
X85030000Y-133290000D01*
X87690000Y-133350000D02*
X87690000Y-133290000D01*
X85030000Y-133350000D02*
X85030000Y-133290000D01*
X87690000Y-133350000D02*
X85030000Y-133350000D01*
X87690000Y-134620000D02*
X87690000Y-135950000D01*
X87690000Y-135950000D02*
X86360000Y-135950000D01*
X90230000Y-133290000D02*
X87570000Y-133290000D01*
X90230000Y-133350000D02*
X90230000Y-133290000D01*
X87570000Y-133350000D02*
X87570000Y-133290000D01*
X90230000Y-133350000D02*
X87570000Y-133350000D01*
X90230000Y-134620000D02*
X90230000Y-135950000D01*
X90230000Y-135950000D02*
X88900000Y-135950000D01*
D12*
X89959272Y-143383000D02*
X89588041Y-143011769D01*
X79883000Y-153459272D02*
X79458736Y-153035008D01*
X69806728Y-143383000D02*
X70230992Y-143807264D01*
X79883000Y-133306728D02*
X80307264Y-133730992D01*
X89959272Y-143383000D02*
X89535008Y-143807264D01*
X79883000Y-133306728D02*
X79458736Y-133730992D01*
X69806728Y-143383000D02*
X70230992Y-142958736D01*
X79883000Y-153459272D02*
X80307264Y-153035008D01*
X89588041Y-143011769D02*
X90666378Y-141933431D01*
X103045000Y-113490000D02*
X100995000Y-113490000D01*
X103750000Y-116790000D02*
X100995000Y-116790000D01*
D11*
X72127000Y-153578000D02*
X72127000Y-154778000D01*
X70367000Y-154778000D02*
X70367000Y-153578000D01*
X74159000Y-153578000D02*
X74159000Y-154778000D01*
X72399000Y-154778000D02*
X72399000Y-153578000D01*
X73936000Y-157926000D02*
X73936000Y-156526000D01*
X73936000Y-156526000D02*
X71136000Y-156526000D01*
X73936000Y-157926000D02*
X71136000Y-157926000D01*
X78000000Y-157926000D02*
X78000000Y-156526000D01*
X78000000Y-156526000D02*
X75200000Y-156526000D01*
X78000000Y-157926000D02*
X75200000Y-157926000D01*
D12*
X70739000Y-162433000D02*
X69977000Y-163195000D01*
X70739000Y-162941000D02*
X69977000Y-163703000D01*
X70993000Y-163195000D02*
X70231000Y-163957000D01*
X72009000Y-163703000D02*
X71755000Y-163957000D01*
X72009000Y-163195000D02*
X71247000Y-163957000D01*
X72009000Y-162687000D02*
X71247000Y-163449000D01*
X71247000Y-163449000D02*
X70739000Y-163957000D01*
X72009000Y-162179000D02*
X71247000Y-162941000D01*
X72009000Y-161671000D02*
X71247000Y-162433000D01*
X72009000Y-161163000D02*
X71247000Y-161925000D01*
X70739000Y-161925000D02*
X69977000Y-162687000D01*
X72009000Y-160655000D02*
X71247000Y-161417000D01*
X71501000Y-160655000D02*
X70739000Y-161417000D01*
X70739000Y-161417000D02*
X69977000Y-162179000D01*
X70993000Y-160655000D02*
X69977000Y-161671000D01*
X70485000Y-160655000D02*
X69977000Y-161163000D01*
X73025000Y-160655000D02*
X72517000Y-161163000D01*
X73279000Y-160909000D02*
X72771000Y-161417000D01*
X74295000Y-160655000D02*
X73787000Y-161163000D01*
X74549000Y-160909000D02*
X73787000Y-161671000D01*
X74549000Y-161417000D02*
X73787000Y-162179000D01*
X74549000Y-161925000D02*
X73787000Y-162687000D01*
X74549000Y-162433000D02*
X73787000Y-163195000D01*
X74549000Y-162941000D02*
X73787000Y-163703000D01*
X74803000Y-163195000D02*
X74041000Y-163957000D01*
X75057000Y-163449000D02*
X74549000Y-163957000D01*
X67691000Y-164973000D02*
X67183000Y-164465000D01*
X67691000Y-165481000D02*
X66929000Y-164719000D01*
X67691000Y-165989000D02*
X66929000Y-165227000D01*
X67437000Y-167767000D02*
X66929000Y-167259000D01*
X67691000Y-167513000D02*
X66929000Y-166751000D01*
X67945000Y-167259000D02*
X66929000Y-166243000D01*
X68199000Y-167005000D02*
X67691000Y-166497000D01*
X67691000Y-166497000D02*
X66929000Y-165735000D01*
X68453000Y-166751000D02*
X68199000Y-166497000D01*
X68961000Y-166751000D02*
X68199000Y-165989000D01*
X69215000Y-166497000D02*
X68707000Y-165989000D01*
X69469000Y-167259000D02*
X69215000Y-167005000D01*
X70485000Y-167767000D02*
X69215000Y-166497000D01*
X70739000Y-167513000D02*
X69723000Y-166497000D01*
X70739000Y-167005000D02*
X69977000Y-166243000D01*
X70739000Y-166497000D02*
X69977000Y-165735000D01*
X70739000Y-165989000D02*
X69977000Y-165227000D01*
X70739000Y-165481000D02*
X69977000Y-164719000D01*
X70739000Y-164973000D02*
X70231000Y-164465000D01*
X71755000Y-167767000D02*
X71247000Y-167259000D01*
X72263000Y-167767000D02*
X71247000Y-166751000D01*
X72009000Y-167005000D02*
X71247000Y-166243000D01*
X72771000Y-167767000D02*
X72009000Y-167005000D01*
X72517000Y-167005000D02*
X73279000Y-167767000D01*
X71247000Y-165735000D02*
X72009000Y-166497000D01*
X72517000Y-166497000D02*
X71755000Y-165735000D01*
X73787000Y-167767000D02*
X73025000Y-167005000D01*
X73025000Y-166497000D02*
X72263000Y-165735000D01*
X74041000Y-167513000D02*
X73279000Y-166751000D01*
X74041000Y-167005000D02*
X72771000Y-165735000D01*
X74041000Y-166497000D02*
X73279000Y-165735000D01*
X74041000Y-165989000D02*
X73279000Y-165227000D01*
X74041000Y-165481000D02*
X73279000Y-164719000D01*
X74041000Y-164973000D02*
X73533000Y-164465000D01*
X75311000Y-164973000D02*
X74803000Y-164465000D01*
X75311000Y-165481000D02*
X74549000Y-164719000D01*
X76073000Y-166243000D02*
X75819000Y-165989000D01*
X75057000Y-167767000D02*
X74549000Y-167259000D01*
X75311000Y-167513000D02*
X74549000Y-166751000D01*
X75311000Y-167005000D02*
X74549000Y-166243000D01*
X75565000Y-166751000D02*
X74549000Y-165735000D01*
X76073000Y-167259000D02*
X75819000Y-167005000D01*
X75311000Y-165989000D02*
X74549000Y-165227000D01*
X77089000Y-167767000D02*
X75311000Y-165989000D01*
X77343000Y-167513000D02*
X76327000Y-166497000D01*
X77343000Y-167005000D02*
X76581000Y-166243000D01*
X77343000Y-166497000D02*
X76581000Y-165735000D01*
X77343000Y-165989000D02*
X76581000Y-165227000D01*
X77343000Y-165481000D02*
X76581000Y-164719000D01*
X77343000Y-164973000D02*
X76835000Y-164465000D01*
X78359000Y-167767000D02*
X77851000Y-167259000D01*
X78867000Y-167767000D02*
X78105000Y-167005000D01*
X79375000Y-167767000D02*
X78613000Y-167005000D01*
X79883000Y-167767000D02*
X79121000Y-167005000D01*
X79375000Y-166751000D02*
X80137000Y-167513000D01*
X80137000Y-165989000D02*
X79883000Y-165735000D01*
X80137000Y-166497000D02*
X79375000Y-165735000D01*
X78867000Y-165735000D02*
X80137000Y-167005000D01*
X78613000Y-166497000D02*
X77851000Y-165735000D01*
X79121000Y-166497000D02*
X77851000Y-165227000D01*
X78613000Y-165481000D02*
X77851000Y-164719000D01*
X78867000Y-165227000D02*
X78105000Y-164465000D01*
X79375000Y-165227000D02*
X78613000Y-164465000D01*
X79883000Y-165227000D02*
X79121000Y-164465000D01*
X80137000Y-164973000D02*
X79629000Y-164465000D01*
X70485000Y-159639000D02*
X69977000Y-159639000D01*
X70485000Y-159385000D02*
X70485000Y-160147000D01*
X70485000Y-160147000D02*
X69977000Y-160147000D01*
X69977000Y-160147000D02*
X69977000Y-159385000D01*
X71501000Y-159385000D02*
X70993000Y-159385000D01*
X72009000Y-159385000D02*
X72009000Y-160147000D01*
X68453000Y-166751000D02*
X68199000Y-166751000D01*
X68453000Y-165989000D02*
X68199000Y-165989000D01*
X69469000Y-166497000D02*
X69215000Y-166497000D01*
X69469000Y-167259000D02*
X69215000Y-167259000D01*
X72009000Y-163957000D02*
X69977000Y-163957000D01*
X69977000Y-163957000D02*
X69977000Y-160655000D01*
X69977000Y-160655000D02*
X72009000Y-160655000D01*
X71247000Y-163195000D02*
X71247000Y-161417000D01*
X71247000Y-161417000D02*
X70739000Y-161417000D01*
X70739000Y-161417000D02*
X70739000Y-163195000D01*
X70739000Y-163195000D02*
X71247000Y-163195000D01*
X72009000Y-160655000D02*
X72009000Y-163957000D01*
X73279000Y-160655000D02*
X73279000Y-161417000D01*
X73279000Y-161417000D02*
X72517000Y-161417000D01*
X72517000Y-161417000D02*
X72517000Y-160655000D01*
X72517000Y-160655000D02*
X73279000Y-160655000D01*
X73787000Y-163957000D02*
X73787000Y-160655000D01*
X73787000Y-160655000D02*
X74549000Y-160655000D01*
X74549000Y-160655000D02*
X74549000Y-163195000D01*
X74549000Y-163195000D02*
X75057000Y-163195000D01*
X75057000Y-163195000D02*
X75057000Y-163957000D01*
X75057000Y-163957000D02*
X74549000Y-163957000D01*
X74549000Y-163957000D02*
X73787000Y-163957000D01*
X69977000Y-167259000D02*
X69469000Y-167259000D01*
X69215000Y-167259000D02*
X69215000Y-166751000D01*
X69215000Y-166751000D02*
X68961000Y-166751000D01*
X69977000Y-166497000D02*
X69469000Y-166497000D01*
X69215000Y-166497000D02*
X69215000Y-165989000D01*
X69215000Y-165989000D02*
X68961000Y-165989000D01*
X70739000Y-167767000D02*
X69977000Y-167767000D01*
X69977000Y-167767000D02*
X69977000Y-167259000D01*
X68961000Y-166751000D02*
X68453000Y-166751000D01*
X68199000Y-166751000D02*
X68199000Y-167259000D01*
X68199000Y-167259000D02*
X67691000Y-167259000D01*
X67691000Y-167259000D02*
X67691000Y-167767000D01*
X67691000Y-167767000D02*
X66929000Y-167767000D01*
X66929000Y-167767000D02*
X66929000Y-164465000D01*
X66929000Y-164465000D02*
X67691000Y-164465000D01*
X67691000Y-164465000D02*
X67691000Y-166497000D01*
X67691000Y-166497000D02*
X68199000Y-166497000D01*
X68199000Y-166497000D02*
X68199000Y-165989000D01*
X68453000Y-165989000D02*
X68961000Y-165989000D01*
X69977000Y-166497000D02*
X69977000Y-164465000D01*
X69977000Y-164465000D02*
X70739000Y-164465000D01*
X70739000Y-167767000D02*
X70739000Y-164465000D01*
X73279000Y-167005000D02*
X73279000Y-166497000D01*
X73279000Y-166497000D02*
X72009000Y-166497000D01*
X72009000Y-166497000D02*
X72009000Y-167005000D01*
X72009000Y-167005000D02*
X73279000Y-167005000D01*
X74041000Y-164465000D02*
X74041000Y-167767000D01*
X74041000Y-167767000D02*
X71247000Y-167767000D01*
X71247000Y-167767000D02*
X71247000Y-165735000D01*
X71247000Y-165735000D02*
X73279000Y-165735000D01*
X73279000Y-165735000D02*
X73279000Y-164465000D01*
X73279000Y-164465000D02*
X74041000Y-164465000D01*
X76581000Y-166497000D02*
X76581000Y-164465000D01*
X76581000Y-164465000D02*
X76835000Y-164465000D01*
X77343000Y-164465000D02*
X77343000Y-167767000D01*
X77343000Y-167767000D02*
X76581000Y-167767000D01*
X76581000Y-167767000D02*
X76581000Y-167259000D01*
X76581000Y-167259000D02*
X75819000Y-167259000D01*
X75819000Y-167259000D02*
X75819000Y-166751000D01*
X75819000Y-166751000D02*
X75311000Y-166751000D01*
X75311000Y-166751000D02*
X75311000Y-167767000D01*
X75311000Y-167767000D02*
X74549000Y-167767000D01*
X74549000Y-167767000D02*
X74549000Y-164465000D01*
X74549000Y-164465000D02*
X75311000Y-164465000D01*
X75311000Y-164465000D02*
X75311000Y-165989000D01*
X75311000Y-165989000D02*
X76073000Y-165989000D01*
X76073000Y-165989000D02*
X76073000Y-166243000D01*
X76073000Y-166243000D02*
X76073000Y-166497000D01*
X76073000Y-166497000D02*
X76581000Y-166497000D01*
X76835000Y-164465000D02*
X77343000Y-164465000D01*
X77851000Y-167767000D02*
X77851000Y-167005000D01*
X77851000Y-167005000D02*
X79375000Y-167005000D01*
X79375000Y-167005000D02*
X79375000Y-166497000D01*
X79375000Y-166497000D02*
X77851000Y-166497000D01*
X77851000Y-166497000D02*
X77851000Y-164465000D01*
X77851000Y-164465000D02*
X80137000Y-164465000D01*
X80137000Y-164465000D02*
X80137000Y-165227000D01*
X80137000Y-165227000D02*
X78613000Y-165227000D01*
X78613000Y-165227000D02*
X78613000Y-165735000D01*
X78613000Y-165735000D02*
X80137000Y-165735000D01*
X80137000Y-165735000D02*
X80137000Y-167767000D01*
X80137000Y-167767000D02*
X77851000Y-167767000D01*
X67691000Y-168783000D02*
X66929000Y-168783000D01*
X66929000Y-169545000D02*
X67691000Y-169545000D01*
X67691000Y-169545000D02*
X67691000Y-168275000D01*
X67691000Y-168275000D02*
X66929000Y-168275000D01*
X67945000Y-168275000D02*
X68707000Y-168275000D01*
X68707000Y-168275000D02*
X68707000Y-169545000D01*
X68707000Y-169545000D02*
X67945000Y-169545000D01*
X69723000Y-168783000D02*
X68961000Y-168783000D01*
X69723000Y-168275000D02*
X69723000Y-169545000D01*
X69723000Y-169545000D02*
X68961000Y-169545000D01*
X68961000Y-169545000D02*
X68961000Y-168275000D01*
X70739000Y-168275000D02*
X70739000Y-169545000D01*
X70739000Y-169545000D02*
X69977000Y-169545000D01*
X69977000Y-169545000D02*
X69977000Y-168783000D01*
X69977000Y-168783000D02*
X70739000Y-168783000D01*
X70993000Y-169545000D02*
X71755000Y-169545000D01*
X71755000Y-169545000D02*
X71755000Y-168783000D01*
X71755000Y-168783000D02*
X70993000Y-168783000D01*
X70993000Y-168783000D02*
X70993000Y-168275000D01*
X70993000Y-168275000D02*
X71755000Y-168275000D01*
X72517000Y-168783000D02*
X72009000Y-168275000D01*
X72771000Y-169545000D02*
X72009000Y-169545000D01*
X72009000Y-169545000D02*
X72009000Y-168783000D01*
X72009000Y-168783000D02*
X72771000Y-168783000D01*
X72771000Y-169545000D02*
X72771000Y-168275000D01*
X73279000Y-168783000D02*
X73025000Y-168783000D01*
X73787000Y-168783000D02*
X73279000Y-168783000D01*
X73787000Y-169545000D02*
X73025000Y-169545000D01*
X73787000Y-169545000D02*
X73787000Y-168275000D01*
X73787000Y-168275000D02*
X73025000Y-168275000D01*
X74549000Y-168783000D02*
X74041000Y-168275000D01*
X74803000Y-168783000D02*
X74549000Y-168783000D01*
X74549000Y-168783000D02*
X74041000Y-169545000D01*
X74803000Y-169545000D02*
X74803000Y-168275000D01*
X75057000Y-169545000D02*
X75819000Y-169545000D01*
X75819000Y-169545000D02*
X75819000Y-168275000D01*
X75819000Y-168275000D02*
X75057000Y-168275000D01*
X76073000Y-168783000D02*
X76835000Y-168783000D01*
X76835000Y-168275000D02*
X76835000Y-169545000D01*
X76835000Y-169545000D02*
X76073000Y-169545000D01*
X76073000Y-169545000D02*
X76073000Y-168275000D01*
X77089000Y-169545000D02*
X77089000Y-168275000D01*
X77851000Y-168783000D02*
X77089000Y-168783000D01*
X77851000Y-169545000D02*
X77851000Y-168275000D01*
X66929000Y-170307000D02*
X67691000Y-170307000D01*
X67691000Y-169799000D02*
X67691000Y-171069000D01*
X67691000Y-171069000D02*
X66929000Y-171069000D01*
X66929000Y-171069000D02*
X66929000Y-169799000D01*
X68453000Y-170307000D02*
X67945000Y-169799000D01*
X68707000Y-170307000D02*
X68453000Y-170307000D01*
X68453000Y-170307000D02*
X67945000Y-171069000D01*
X68707000Y-171069000D02*
X68707000Y-169799000D01*
X69723000Y-170307000D02*
X68961000Y-170307000D01*
X69723000Y-171069000D02*
X69723000Y-169799000D01*
X69723000Y-169799000D02*
X68961000Y-169799000D01*
X68961000Y-169799000D02*
X68961000Y-170561000D01*
X68961000Y-170561000D02*
X68961000Y-171069000D01*
X68961000Y-171069000D02*
X69723000Y-171069000D01*
X69977000Y-170307000D02*
X70739000Y-170307000D01*
X70739000Y-169799000D02*
X70739000Y-171069000D01*
X70739000Y-171069000D02*
X69977000Y-171069000D01*
X69977000Y-171069000D02*
X69977000Y-169799000D01*
X71755000Y-171069000D02*
X71755000Y-169799000D01*
X71755000Y-169799000D02*
X70993000Y-169799000D01*
D11*
X71991600Y-131228200D02*
X72991600Y-131228200D01*
X72991600Y-129528200D02*
X71991600Y-129528200D01*
D12*
X90989000Y-127377000D02*
X90989000Y-126877000D01*
X91739000Y-126827000D02*
X91039000Y-126827000D01*
X91939000Y-124877000D02*
X89189000Y-124877000D01*
X89189000Y-124877000D02*
X89189000Y-127427000D01*
X89189000Y-127427000D02*
X91939000Y-127427000D01*
X91939000Y-127427000D02*
X91939000Y-124877000D01*
D11*
X126315000Y-164405000D02*
X126315000Y-165795000D01*
X126315000Y-164405000D02*
X126440000Y-164405000D01*
X126315000Y-165795000D02*
X126440000Y-165795000D01*
X126315000Y-164405000D02*
X126315000Y-164491724D01*
X126315000Y-165708276D02*
X126315000Y-165795000D01*
X127000000Y-164405000D02*
X127685000Y-164405000D01*
X127685000Y-164405000D02*
X127685000Y-165100000D01*
X90893000Y-131818000D02*
X90893000Y-130818000D01*
X89193000Y-130818000D02*
X89193000Y-131818000D01*
X91475000Y-142884000D02*
X92675000Y-142884000D01*
X92675000Y-144644000D02*
X91475000Y-144644000D01*
X93591000Y-141009000D02*
X92591000Y-141009000D01*
X92591000Y-142709000D02*
X93591000Y-142709000D01*
X93591000Y-139104000D02*
X92591000Y-139104000D01*
X92591000Y-140804000D02*
X93591000Y-140804000D01*
X97850000Y-135830000D02*
X95190000Y-135830000D01*
X97850000Y-135890000D02*
X97850000Y-135830000D01*
X95190000Y-135890000D02*
X95190000Y-135830000D01*
X97850000Y-135890000D02*
X95190000Y-135890000D01*
X97850000Y-137160000D02*
X97850000Y-138490000D01*
X97850000Y-138490000D02*
X96520000Y-138490000D01*
X77530000Y-158690000D02*
X74870000Y-158690000D01*
X77530000Y-158750000D02*
X77530000Y-158690000D01*
X74870000Y-158750000D02*
X74870000Y-158690000D01*
X77530000Y-158750000D02*
X74870000Y-158750000D01*
X77530000Y-160020000D02*
X77530000Y-161350000D01*
X77530000Y-161350000D02*
X76200000Y-161350000D01*
X72450000Y-133290000D02*
X69790000Y-133290000D01*
X72450000Y-133350000D02*
X72450000Y-133290000D01*
X69790000Y-133350000D02*
X69790000Y-133290000D01*
X72450000Y-133350000D02*
X69790000Y-133350000D01*
X72450000Y-134620000D02*
X72450000Y-135950000D01*
X72450000Y-135950000D02*
X71120000Y-135950000D01*
X80070000Y-161230000D02*
X77410000Y-161230000D01*
X80070000Y-161290000D02*
X80070000Y-161230000D01*
X77410000Y-161290000D02*
X77410000Y-161230000D01*
X80070000Y-161290000D02*
X77410000Y-161290000D01*
X80070000Y-162560000D02*
X80070000Y-163890000D01*
X80070000Y-163890000D02*
X78740000Y-163890000D01*
X95190000Y-128330000D02*
X97850000Y-128330000D01*
X95190000Y-128270000D02*
X95190000Y-128330000D01*
X97850000Y-128270000D02*
X97850000Y-128330000D01*
X95190000Y-128270000D02*
X97850000Y-128270000D01*
X95190000Y-127000000D02*
X95190000Y-125670000D01*
X95190000Y-125670000D02*
X96520000Y-125670000D01*
X123816000Y-135036000D02*
X123816000Y-136236000D01*
X122056000Y-136236000D02*
X122056000Y-135036000D01*
X99406000Y-144390000D02*
X98206000Y-144390000D01*
X98206000Y-142630000D02*
X99406000Y-142630000D01*
X99406000Y-142358000D02*
X98206000Y-142358000D01*
X98206000Y-140598000D02*
X99406000Y-140598000D01*
X99406000Y-146168000D02*
X98206000Y-146168000D01*
X98206000Y-144408000D02*
X99406000Y-144408000D01*
X102520000Y-111890000D02*
X104520000Y-111890000D01*
X104520000Y-111890000D02*
X104520000Y-107990000D01*
X102520000Y-111890000D02*
X102520000Y-107990000D01*
X89115000Y-159885000D02*
X89115000Y-158885000D01*
X87415000Y-158885000D02*
X87415000Y-159885000D01*
X100545000Y-164838000D02*
X100545000Y-163838000D01*
X98845000Y-163838000D02*
X98845000Y-164838000D01*
X102450000Y-166743000D02*
X102450000Y-165743000D01*
X100750000Y-165743000D02*
X100750000Y-166743000D01*
X76573000Y-153963000D02*
X75573000Y-153963000D01*
X75573000Y-155663000D02*
X76573000Y-155663000D01*
X67603000Y-138819000D02*
X67603000Y-139819000D01*
X69303000Y-139819000D02*
X69303000Y-138819000D01*
X75684000Y-131484000D02*
X74684000Y-131484000D01*
X74684000Y-133184000D02*
X75684000Y-133184000D01*
X88652513Y-147508406D02*
X87945406Y-148215513D01*
X89147487Y-149417594D02*
X89854594Y-148710487D01*
X126871000Y-137216000D02*
X126871000Y-136286000D01*
X126871000Y-134056000D02*
X126871000Y-134986000D01*
X126871000Y-134056000D02*
X124711000Y-134056000D01*
X126871000Y-137216000D02*
X125411000Y-137216000D01*
X122012000Y-139564000D02*
X120812000Y-139564000D01*
X120812000Y-137804000D02*
X122012000Y-137804000D01*
D12*
X122464000Y-162373000D02*
X122464000Y-164773000D01*
X122464000Y-164773000D02*
X120064000Y-164773000D01*
X104364000Y-164773000D02*
X101964000Y-164773000D01*
X101964000Y-164773000D02*
X101964000Y-162373000D01*
X104364000Y-140573000D02*
X101964000Y-140573000D01*
X101964000Y-140573000D02*
X101964000Y-142973000D01*
X122464000Y-142973000D02*
X122464000Y-140573000D01*
X122464000Y-140573000D02*
X120064000Y-140573000D01*
D11*
X128220000Y-141840000D02*
X126820000Y-141840000D01*
X126820000Y-141840000D02*
X126820000Y-144640000D01*
X128220000Y-141840000D02*
X128220000Y-144640000D01*
X118355000Y-167421000D02*
X118355000Y-168621000D01*
X116595000Y-168621000D02*
X116595000Y-167421000D01*
X126640000Y-140240000D02*
X126640000Y-139040000D01*
X128400000Y-139040000D02*
X128400000Y-140240000D01*
X105820000Y-110590000D02*
X105820000Y-112090000D01*
X105820000Y-112090000D02*
X106770000Y-112090000D01*
X106770000Y-112090000D02*
X106770000Y-117215000D01*
X116220000Y-110590000D02*
X116220000Y-112090000D01*
X116220000Y-112090000D02*
X115270000Y-112090000D01*
X115270000Y-112090000D02*
X115270000Y-113190000D01*
X90432983Y-137131634D02*
G75*
G03X91776551Y-138474449I1224266J-118615D01*
G01*
X91538634Y-136025983D02*
G75*
G02X92881449Y-137369551I118615J-1224266D01*
G01*
D12*
X96612000Y-170626000D02*
X95312000Y-170626000D01*
X95312000Y-170626000D02*
X95312000Y-169226000D01*
X89712000Y-169226000D02*
X89712000Y-175026000D01*
X89712000Y-175026000D02*
X96712000Y-175026000D01*
X96712000Y-175026000D02*
X96712000Y-169226000D01*
X96712000Y-169226000D02*
X89712000Y-169226000D01*
X98313000Y-164707000D02*
X98413000Y-164557000D01*
X98463000Y-164357000D02*
X98113000Y-164757000D01*
X89463000Y-164757000D02*
X89463000Y-155757000D01*
X89463000Y-155757000D02*
X98463000Y-155757000D01*
X98463000Y-155757000D02*
X98463000Y-164757000D01*
X98463000Y-164757000D02*
X89463000Y-164757000D01*
X74846000Y-129321000D02*
X74846000Y-129271000D01*
X70696000Y-129321000D02*
X70696000Y-129176000D01*
X70696000Y-124171000D02*
X70696000Y-124316000D01*
X74846000Y-124171000D02*
X74846000Y-124316000D01*
X74846000Y-129321000D02*
X70696000Y-129321000D01*
X74846000Y-124171000D02*
X70696000Y-124171000D01*
X74846000Y-129271000D02*
X76246000Y-129271000D01*
X124320300Y-174891700D02*
X104000300Y-174891700D01*
X98920300Y-136791700D02*
X98920300Y-169811700D01*
X124320300Y-131711700D02*
X104000300Y-131711700D01*
X129400300Y-169811700D02*
X129400300Y-136791700D01*
X124320300Y-131711700D02*
X129400300Y-136791700D01*
X104000300Y-131711700D02*
X98920300Y-136791700D01*
X104000300Y-174891700D02*
X98920300Y-169811700D01*
X129400300Y-169811700D02*
X124320300Y-174891700D01*
D11*
X100127000Y-134885000D02*
X94437000Y-134885000D01*
X94437000Y-134885000D02*
X94437000Y-130545000D01*
X94437000Y-130545000D02*
X100127000Y-130545000D01*
X100127000Y-130545000D02*
X100127000Y-131445000D01*
X99092000Y-133350000D02*
X99092000Y-132080000D01*
X99092000Y-132080000D02*
X95472000Y-132080000D01*
X95472000Y-132080000D02*
X95472000Y-133350000D01*
X95472000Y-133350000D02*
X99092000Y-133350000D01*
X97282000Y-133350000D02*
X97282000Y-132080000D01*
X91163700Y-129505600D02*
X89963700Y-129505600D01*
X89963700Y-127745600D02*
X91163700Y-127745600D01*
X83829000Y-125060000D02*
X83829000Y-123860000D01*
X85589000Y-123860000D02*
X85589000Y-125060000D01*
X92312600Y-126799900D02*
X92312600Y-125599900D01*
X94072600Y-125599900D02*
X94072600Y-126799900D01*
X109390000Y-122990000D02*
X109390000Y-121790000D01*
X111150000Y-121790000D02*
X111150000Y-122990000D01*
X69180000Y-131918600D02*
X67980000Y-131918600D01*
X67980000Y-130158600D02*
X69180000Y-130158600D01*
X86776000Y-164347000D02*
X87976000Y-164347000D01*
X87976000Y-166107000D02*
X86776000Y-166107000D01*
D12*
X114975000Y-175101000D02*
X114975000Y-169601000D01*
X114975000Y-169601000D02*
X119975000Y-169601000D01*
X119975000Y-169601000D02*
X119975000Y-175101000D01*
X119975000Y-175101000D02*
X114975000Y-175101000D01*
D11*
X92040000Y-166869000D02*
X90840000Y-166869000D01*
X90840000Y-165109000D02*
X92040000Y-165109000D01*
X92040000Y-169028000D02*
X90840000Y-169028000D01*
X90840000Y-167268000D02*
X92040000Y-167268000D01*
X89653000Y-153324000D02*
X89653000Y-154524000D01*
X87893000Y-154524000D02*
X87893000Y-153324000D01*
X92066000Y-153324000D02*
X92066000Y-154524000D01*
X90306000Y-154524000D02*
X90306000Y-153324000D01*
X120120000Y-103780000D02*
X120120000Y-94980000D01*
X120120000Y-94980000D02*
X129320000Y-94980000D01*
X122820000Y-109680000D02*
X120120000Y-109680000D01*
X120120000Y-109680000D02*
X120120000Y-107780000D01*
X129320000Y-94980000D02*
X129320000Y-109680000D01*
X129320000Y-109680000D02*
X126720000Y-109680000D01*
X66615000Y-163382000D02*
X69275000Y-163382000D01*
X66615000Y-150622000D02*
X66615000Y-163382000D01*
X69275000Y-150622000D02*
X69275000Y-163382000D01*
X66615000Y-150622000D02*
X69275000Y-150622000D01*
X66615000Y-149352000D02*
X66615000Y-148022000D01*
X66615000Y-148022000D02*
X67945000Y-148022000D01*
X112345000Y-135957000D02*
X112345000Y-137347000D01*
X112345000Y-135957000D02*
X112470000Y-135957000D01*
X112345000Y-137347000D02*
X112470000Y-137347000D01*
X112345000Y-135957000D02*
X112345000Y-136043724D01*
X112345000Y-137260276D02*
X112345000Y-137347000D01*
X113030000Y-135957000D02*
X113715000Y-135957000D01*
X113715000Y-135957000D02*
X113715000Y-136652000D01*
X114885000Y-135957000D02*
X114885000Y-137347000D01*
X114885000Y-135957000D02*
X115010000Y-135957000D01*
X114885000Y-137347000D02*
X115010000Y-137347000D01*
X114885000Y-135957000D02*
X114885000Y-136043724D01*
X114885000Y-137260276D02*
X114885000Y-137347000D01*
X115570000Y-135957000D02*
X116255000Y-135957000D01*
X116255000Y-135957000D02*
X116255000Y-136652000D01*
X126315000Y-166945000D02*
X126315000Y-168335000D01*
X126315000Y-166945000D02*
X126440000Y-166945000D01*
X126315000Y-168335000D02*
X126440000Y-168335000D01*
X126315000Y-166945000D02*
X126315000Y-167031724D01*
X126315000Y-168248276D02*
X126315000Y-168335000D01*
X127000000Y-166945000D02*
X127685000Y-166945000D01*
X127685000Y-166945000D02*
X127685000Y-167640000D01*
X126315000Y-169485000D02*
X126315000Y-170875000D01*
X126315000Y-169485000D02*
X126440000Y-169485000D01*
X126315000Y-170875000D02*
X126440000Y-170875000D01*
X126315000Y-169485000D02*
X126315000Y-169571724D01*
X126315000Y-170788276D02*
X126315000Y-170875000D01*
X127000000Y-169485000D02*
X127685000Y-169485000D01*
X127685000Y-169485000D02*
X127685000Y-170180000D01*
X105220000Y-121690000D02*
X105220000Y-123090000D01*
X105220000Y-123090000D02*
X108020000Y-123090000D01*
X105220000Y-121690000D02*
X108020000Y-121690000D01*
X81639000Y-164527000D02*
X81639000Y-165927000D01*
X81639000Y-165927000D02*
X84439000Y-165927000D01*
X81639000Y-164527000D02*
X84439000Y-164527000D01*
X121720000Y-128240000D02*
X121720000Y-130240000D01*
X121720000Y-130240000D02*
X125620000Y-130240000D01*
X121720000Y-128240000D02*
X125620000Y-128240000D01*
X93257000Y-166505000D02*
X93257000Y-167505000D01*
X94957000Y-167505000D02*
X94957000Y-166505000D01*
X112520000Y-119990000D02*
X113520000Y-119990000D01*
X113520000Y-118290000D02*
X112520000Y-118290000D01*
X112520000Y-122490000D02*
X113520000Y-122490000D01*
X113520000Y-120790000D02*
X112520000Y-120790000D01*
X102520000Y-117790000D02*
X101520000Y-117790000D01*
X101520000Y-119490000D02*
X102520000Y-119490000D01*
X102520000Y-120540000D02*
X101520000Y-120540000D01*
X101520000Y-122240000D02*
X102520000Y-122240000D01*
X87972000Y-126992000D02*
X87972000Y-125992000D01*
X86272000Y-125992000D02*
X86272000Y-126992000D01*
X111720000Y-130680000D02*
X111720000Y-129260000D01*
X118320000Y-131440000D02*
X118320000Y-129260000D01*
X118320000Y-124840000D02*
X118320000Y-127020000D01*
X111720000Y-125600000D02*
X111720000Y-127020000D01*
X118320000Y-131440000D02*
X112480000Y-131440000D01*
X112480000Y-131440000D02*
X111720000Y-130680000D01*
X111720000Y-125600000D02*
X112480000Y-124840000D01*
X112480000Y-124840000D02*
X118320000Y-124840000D01*
X85225000Y-155155000D02*
X86225000Y-155155000D01*
X86225000Y-153455000D02*
X85225000Y-153455000D01*
X94861000Y-153455000D02*
X93861000Y-153455000D01*
X93861000Y-155155000D02*
X94861000Y-155155000D01*
X125770000Y-126740000D02*
X126770000Y-126740000D01*
X126770000Y-125040000D02*
X125770000Y-125040000D01*
X98718000Y-155329000D02*
X98718000Y-156329000D01*
X100418000Y-156329000D02*
X100418000Y-155329000D01*
X120023000Y-169887000D02*
X121023000Y-169887000D01*
X121023000Y-168187000D02*
X120023000Y-168187000D01*
X120023000Y-167728000D02*
X121023000Y-167728000D01*
X121023000Y-166028000D02*
X120023000Y-166028000D01*
X105672000Y-138391000D02*
X106672000Y-138391000D01*
X106672000Y-136691000D02*
X105672000Y-136691000D01*
X127900000Y-112460000D02*
X125010000Y-112460000D01*
X119000000Y-112460000D02*
X121890000Y-112460000D01*
X118240000Y-122880000D02*
X121890000Y-122880000D01*
X128660000Y-122880000D02*
X125010000Y-122880000D01*
X118240000Y-122880000D02*
X118240000Y-113220000D01*
X118240000Y-113220000D02*
X119000000Y-112460000D01*
X127900000Y-112460000D02*
X128660000Y-113220000D01*
X128660000Y-113220000D02*
X128660000Y-122880000D01*
X66410000Y-104710000D02*
X69300000Y-104710000D01*
X75310000Y-104710000D02*
X72420000Y-104710000D01*
X76070000Y-94290000D02*
X72420000Y-94290000D01*
X65650000Y-94290000D02*
X69300000Y-94290000D01*
X76070000Y-94290000D02*
X76070000Y-103950000D01*
X76070000Y-103950000D02*
X75310000Y-104710000D01*
X66410000Y-104710000D02*
X65650000Y-103950000D01*
X65650000Y-103950000D02*
X65650000Y-94290000D01*
X88638000Y-78779000D02*
X87638000Y-78779000D01*
X87638000Y-80479000D02*
X88638000Y-80479000D01*
X74287000Y-49442000D02*
X73287000Y-49442000D01*
X73287000Y-51142000D02*
X74287000Y-51142000D01*
X74287000Y-47283000D02*
X73287000Y-47283000D01*
X73287000Y-48983000D02*
X74287000Y-48983000D01*
X95592000Y-61841000D02*
X95592000Y-60841000D01*
X93892000Y-60841000D02*
X93892000Y-61841000D01*
X68540000Y-90430000D02*
X67540000Y-90430000D01*
X67540000Y-92130000D02*
X68540000Y-92130000D01*
X99449000Y-63715000D02*
X100449000Y-63715000D01*
X100449000Y-62015000D02*
X99449000Y-62015000D01*
X109085000Y-62015000D02*
X108085000Y-62015000D01*
X108085000Y-63715000D02*
X109085000Y-63715000D01*
X82590000Y-86490000D02*
X82590000Y-87910000D01*
X75990000Y-85730000D02*
X75990000Y-87910000D01*
X75990000Y-92330000D02*
X75990000Y-90150000D01*
X82590000Y-91570000D02*
X82590000Y-90150000D01*
X75990000Y-85730000D02*
X81830000Y-85730000D01*
X81830000Y-85730000D02*
X82590000Y-86490000D01*
X82590000Y-91570000D02*
X81830000Y-92330000D01*
X81830000Y-92330000D02*
X75990000Y-92330000D01*
X106338000Y-90178000D02*
X106338000Y-91178000D01*
X108038000Y-91178000D02*
X108038000Y-90178000D01*
X91790000Y-96630000D02*
X92790000Y-96630000D01*
X92790000Y-94930000D02*
X91790000Y-94930000D01*
X91790000Y-99380000D02*
X92790000Y-99380000D01*
X92790000Y-97680000D02*
X91790000Y-97680000D01*
X81790000Y-94680000D02*
X80790000Y-94680000D01*
X80790000Y-96380000D02*
X81790000Y-96380000D01*
X81790000Y-97180000D02*
X80790000Y-97180000D01*
X80790000Y-98880000D02*
X81790000Y-98880000D01*
X101053000Y-50665000D02*
X101053000Y-49665000D01*
X99353000Y-49665000D02*
X99353000Y-50665000D01*
X72590000Y-88930000D02*
X72590000Y-86930000D01*
X72590000Y-86930000D02*
X68690000Y-86930000D01*
X72590000Y-88930000D02*
X68690000Y-88930000D01*
X112671000Y-52643000D02*
X112671000Y-51243000D01*
X112671000Y-51243000D02*
X109871000Y-51243000D01*
X112671000Y-52643000D02*
X109871000Y-52643000D01*
X89090000Y-95480000D02*
X89090000Y-94080000D01*
X89090000Y-94080000D02*
X86290000Y-94080000D01*
X89090000Y-95480000D02*
X86290000Y-95480000D01*
X67995000Y-47685000D02*
X67995000Y-46295000D01*
X67995000Y-47685000D02*
X67870000Y-47685000D01*
X67995000Y-46295000D02*
X67870000Y-46295000D01*
X67995000Y-47685000D02*
X67995000Y-47598276D01*
X67995000Y-46381724D02*
X67995000Y-46295000D01*
X67310000Y-47685000D02*
X66625000Y-47685000D01*
X66625000Y-47685000D02*
X66625000Y-46990000D01*
X67995000Y-50225000D02*
X67995000Y-48835000D01*
X67995000Y-50225000D02*
X67870000Y-50225000D01*
X67995000Y-48835000D02*
X67870000Y-48835000D01*
X67995000Y-50225000D02*
X67995000Y-50138276D01*
X67995000Y-48921724D02*
X67995000Y-48835000D01*
X67310000Y-50225000D02*
X66625000Y-50225000D01*
X66625000Y-50225000D02*
X66625000Y-49530000D01*
X79425000Y-81213000D02*
X79425000Y-79823000D01*
X79425000Y-81213000D02*
X79300000Y-81213000D01*
X79425000Y-79823000D02*
X79300000Y-79823000D01*
X79425000Y-81213000D02*
X79425000Y-81126276D01*
X79425000Y-79909724D02*
X79425000Y-79823000D01*
X78740000Y-81213000D02*
X78055000Y-81213000D01*
X78055000Y-81213000D02*
X78055000Y-80518000D01*
X81965000Y-81213000D02*
X81965000Y-79823000D01*
X81965000Y-81213000D02*
X81840000Y-81213000D01*
X81965000Y-79823000D02*
X81840000Y-79823000D01*
X81965000Y-81213000D02*
X81965000Y-81126276D01*
X81965000Y-79909724D02*
X81965000Y-79823000D01*
X81280000Y-81213000D02*
X80595000Y-81213000D01*
X80595000Y-81213000D02*
X80595000Y-80518000D01*
X127695000Y-53788000D02*
X125035000Y-53788000D01*
X127695000Y-66548000D02*
X127695000Y-53788000D01*
X125035000Y-66548000D02*
X125035000Y-53788000D01*
X127695000Y-66548000D02*
X125035000Y-66548000D01*
X127695000Y-67818000D02*
X127695000Y-69148000D01*
X127695000Y-69148000D02*
X126365000Y-69148000D01*
X74190000Y-113390000D02*
X74190000Y-122190000D01*
X74190000Y-122190000D02*
X64990000Y-122190000D01*
X71490000Y-107490000D02*
X74190000Y-107490000D01*
X74190000Y-107490000D02*
X74190000Y-109390000D01*
X64990000Y-122190000D02*
X64990000Y-107490000D01*
X64990000Y-107490000D02*
X67590000Y-107490000D01*
X102244000Y-63846000D02*
X102244000Y-62646000D01*
X104004000Y-62646000D02*
X104004000Y-63846000D01*
X104657000Y-63846000D02*
X104657000Y-62646000D01*
X106417000Y-62646000D02*
X106417000Y-63846000D01*
X102270000Y-48142000D02*
X103470000Y-48142000D01*
X103470000Y-49902000D02*
X102270000Y-49902000D01*
X102270000Y-50301000D02*
X103470000Y-50301000D01*
X103470000Y-52061000D02*
X102270000Y-52061000D01*
D12*
X79335000Y-42069000D02*
X79335000Y-47569000D01*
X79335000Y-47569000D02*
X74335000Y-47569000D01*
X74335000Y-47569000D02*
X74335000Y-42069000D01*
X74335000Y-42069000D02*
X79335000Y-42069000D01*
D11*
X107534000Y-52823000D02*
X106334000Y-52823000D01*
X106334000Y-51063000D02*
X107534000Y-51063000D01*
X125130000Y-85251400D02*
X126330000Y-85251400D01*
X126330000Y-87011400D02*
X125130000Y-87011400D01*
X84920000Y-94180000D02*
X84920000Y-95380000D01*
X83160000Y-95380000D02*
X83160000Y-94180000D01*
X101997400Y-90370100D02*
X101997400Y-91570100D01*
X100237400Y-91570100D02*
X100237400Y-90370100D01*
X110481000Y-92110000D02*
X110481000Y-93310000D01*
X108721000Y-93310000D02*
X108721000Y-92110000D01*
X103146300Y-87664400D02*
X104346300Y-87664400D01*
X104346300Y-89424400D02*
X103146300Y-89424400D01*
X94183000Y-82285000D02*
X99873000Y-82285000D01*
X99873000Y-82285000D02*
X99873000Y-86625000D01*
X99873000Y-86625000D02*
X94183000Y-86625000D01*
X94183000Y-86625000D02*
X94183000Y-85725000D01*
X95218000Y-83820000D02*
X95218000Y-85090000D01*
X95218000Y-85090000D02*
X98838000Y-85090000D01*
X98838000Y-85090000D02*
X98838000Y-83820000D01*
X98838000Y-83820000D02*
X95218000Y-83820000D01*
X97028000Y-83820000D02*
X97028000Y-85090000D01*
D12*
X69989700Y-42278300D02*
X90309700Y-42278300D01*
X95389700Y-80378300D02*
X95389700Y-47358300D01*
X69989700Y-85458300D02*
X90309700Y-85458300D01*
X64909700Y-47358300D02*
X64909700Y-80378300D01*
X69989700Y-85458300D02*
X64909700Y-80378300D01*
X90309700Y-85458300D02*
X95389700Y-80378300D01*
X90309700Y-42278300D02*
X95389700Y-47358300D01*
X64909700Y-47358300D02*
X69989700Y-42278300D01*
X119464000Y-87849000D02*
X119464000Y-87899000D01*
X123614000Y-87849000D02*
X123614000Y-87994000D01*
X123614000Y-92999000D02*
X123614000Y-92854000D01*
X119464000Y-92999000D02*
X119464000Y-92854000D01*
X119464000Y-87849000D02*
X123614000Y-87849000D01*
X119464000Y-92999000D02*
X123614000Y-92999000D01*
X119464000Y-87899000D02*
X118064000Y-87899000D01*
X95997000Y-52463000D02*
X95897000Y-52613000D01*
X95847000Y-52813000D02*
X96197000Y-52413000D01*
X104847000Y-52413000D02*
X104847000Y-61413000D01*
X104847000Y-61413000D02*
X95847000Y-61413000D01*
X95847000Y-61413000D02*
X95847000Y-52413000D01*
X95847000Y-52413000D02*
X104847000Y-52413000D01*
X97698000Y-46544000D02*
X98998000Y-46544000D01*
X98998000Y-46544000D02*
X98998000Y-47944000D01*
X104598000Y-47944000D02*
X104598000Y-42144000D01*
X104598000Y-42144000D02*
X97598000Y-42144000D01*
X97598000Y-42144000D02*
X97598000Y-47944000D01*
X97598000Y-47944000D02*
X104598000Y-47944000D01*
D11*
X103877017Y-80038366D02*
G75*
G03X102533449Y-78695551I-1224266J118615D01*
G01*
X102771366Y-81144017D02*
G75*
G02X101428551Y-79800449I-118615J1224266D01*
G01*
X88490000Y-106580000D02*
X88490000Y-105080000D01*
X88490000Y-105080000D02*
X87540000Y-105080000D01*
X87540000Y-105080000D02*
X87540000Y-99955000D01*
X78090000Y-106580000D02*
X78090000Y-105080000D01*
X78090000Y-105080000D02*
X79040000Y-105080000D01*
X79040000Y-105080000D02*
X79040000Y-103980000D01*
X67670000Y-76930000D02*
X67670000Y-78130000D01*
X65910000Y-78130000D02*
X65910000Y-76930000D01*
X75955000Y-49749000D02*
X75955000Y-48549000D01*
X77715000Y-48549000D02*
X77715000Y-49749000D01*
X66090000Y-75330000D02*
X67490000Y-75330000D01*
X67490000Y-75330000D02*
X67490000Y-72530000D01*
X66090000Y-75330000D02*
X66090000Y-72530000D01*
D12*
X71846000Y-54797000D02*
X71846000Y-52397000D01*
X71846000Y-52397000D02*
X74246000Y-52397000D01*
X89946000Y-52397000D02*
X92346000Y-52397000D01*
X92346000Y-52397000D02*
X92346000Y-54797000D01*
X89946000Y-76597000D02*
X92346000Y-76597000D01*
X92346000Y-76597000D02*
X92346000Y-74197000D01*
X71846000Y-74197000D02*
X71846000Y-76597000D01*
X71846000Y-76597000D02*
X74246000Y-76597000D01*
D11*
X72298000Y-77606000D02*
X73498000Y-77606000D01*
X73498000Y-79366000D02*
X72298000Y-79366000D01*
X67439000Y-79954000D02*
X67439000Y-80884000D01*
X67439000Y-83114000D02*
X67439000Y-82184000D01*
X67439000Y-83114000D02*
X69599000Y-83114000D01*
X67439000Y-79954000D02*
X68899000Y-79954000D01*
X105657487Y-69661594D02*
X106364594Y-68954487D01*
X105162513Y-67752406D02*
X104455406Y-68459513D01*
X118626000Y-85686000D02*
X119626000Y-85686000D01*
X119626000Y-83986000D02*
X118626000Y-83986000D01*
X126707000Y-78351000D02*
X126707000Y-77351000D01*
X125007000Y-77351000D02*
X125007000Y-78351000D01*
X117737000Y-63207000D02*
X118737000Y-63207000D01*
X118737000Y-61507000D02*
X117737000Y-61507000D01*
X91860000Y-50427000D02*
X91860000Y-51427000D01*
X93560000Y-51427000D02*
X93560000Y-50427000D01*
X93765000Y-52332000D02*
X93765000Y-53332000D01*
X95465000Y-53332000D02*
X95465000Y-52332000D01*
X105195000Y-57285000D02*
X105195000Y-58285000D01*
X106895000Y-58285000D02*
X106895000Y-57285000D01*
X91790000Y-105280000D02*
X89790000Y-105280000D01*
X89790000Y-105280000D02*
X89790000Y-109180000D01*
X91790000Y-105280000D02*
X91790000Y-109180000D01*
X94904000Y-71002000D02*
X96104000Y-71002000D01*
X96104000Y-72762000D02*
X94904000Y-72762000D01*
X94904000Y-74812000D02*
X96104000Y-74812000D01*
X96104000Y-76572000D02*
X94904000Y-76572000D01*
X94904000Y-72780000D02*
X96104000Y-72780000D01*
X96104000Y-74540000D02*
X94904000Y-74540000D01*
X70494000Y-82134000D02*
X70494000Y-80934000D01*
X72254000Y-80934000D02*
X72254000Y-82134000D01*
X99120000Y-88840000D02*
X96460000Y-88840000D01*
X99120000Y-88900000D02*
X99120000Y-88840000D01*
X96460000Y-88900000D02*
X96460000Y-88840000D01*
X99120000Y-88900000D02*
X96460000Y-88900000D01*
X99120000Y-90170000D02*
X99120000Y-91500000D01*
X99120000Y-91500000D02*
X97790000Y-91500000D01*
X114240000Y-55940000D02*
X116900000Y-55940000D01*
X114240000Y-55880000D02*
X114240000Y-55940000D01*
X116900000Y-55880000D02*
X116900000Y-55940000D01*
X114240000Y-55880000D02*
X116900000Y-55880000D01*
X114240000Y-54610000D02*
X114240000Y-53280000D01*
X114240000Y-53280000D02*
X115570000Y-53280000D01*
X121860000Y-83880000D02*
X124520000Y-83880000D01*
X121860000Y-83820000D02*
X121860000Y-83880000D01*
X124520000Y-83820000D02*
X124520000Y-83880000D01*
X121860000Y-83820000D02*
X124520000Y-83820000D01*
X121860000Y-82550000D02*
X121860000Y-81220000D01*
X121860000Y-81220000D02*
X123190000Y-81220000D01*
X116780000Y-58480000D02*
X119440000Y-58480000D01*
X116780000Y-58420000D02*
X116780000Y-58480000D01*
X119440000Y-58420000D02*
X119440000Y-58480000D01*
X116780000Y-58420000D02*
X119440000Y-58420000D01*
X116780000Y-57150000D02*
X116780000Y-55820000D01*
X116780000Y-55820000D02*
X118110000Y-55820000D01*
X96460000Y-81340000D02*
X99120000Y-81340000D01*
X96460000Y-81280000D02*
X96460000Y-81340000D01*
X99120000Y-81280000D02*
X99120000Y-81340000D01*
X96460000Y-81280000D02*
X99120000Y-81280000D01*
X96460000Y-80010000D02*
X96460000Y-78680000D01*
X96460000Y-78680000D02*
X97790000Y-78680000D01*
X100719000Y-78066000D02*
X101719000Y-78066000D01*
X101719000Y-76366000D02*
X100719000Y-76366000D01*
X100719000Y-76161000D02*
X101719000Y-76161000D01*
X101719000Y-74461000D02*
X100719000Y-74461000D01*
X102835000Y-74286000D02*
X101635000Y-74286000D01*
X101635000Y-72526000D02*
X102835000Y-72526000D01*
X103417000Y-85352000D02*
X103417000Y-86352000D01*
X105117000Y-86352000D02*
X105117000Y-85352000D01*
X67995000Y-52765000D02*
X67995000Y-51375000D01*
X67995000Y-52765000D02*
X67870000Y-52765000D01*
X67995000Y-51375000D02*
X67870000Y-51375000D01*
X67995000Y-52765000D02*
X67995000Y-52678276D01*
X67995000Y-51461724D02*
X67995000Y-51375000D01*
X67310000Y-52765000D02*
X66625000Y-52765000D01*
X66625000Y-52765000D02*
X66625000Y-52070000D01*
D12*
X103321000Y-89793000D02*
X103321000Y-90293000D01*
X102571000Y-90343000D02*
X103271000Y-90343000D01*
X102371000Y-92293000D02*
X105121000Y-92293000D01*
X105121000Y-92293000D02*
X105121000Y-89743000D01*
X105121000Y-89743000D02*
X102371000Y-89743000D01*
X102371000Y-89743000D02*
X102371000Y-92293000D01*
D11*
X122318400Y-85941800D02*
X121318400Y-85941800D01*
X121318400Y-87641800D02*
X122318400Y-87641800D01*
D12*
X123571000Y-54737000D02*
X124333000Y-53975000D01*
X123571000Y-54229000D02*
X124333000Y-53467000D01*
X123317000Y-53975000D02*
X124079000Y-53213000D01*
X122301000Y-53467000D02*
X122555000Y-53213000D01*
X122301000Y-53975000D02*
X123063000Y-53213000D01*
X122301000Y-54483000D02*
X123063000Y-53721000D01*
X123063000Y-53721000D02*
X123571000Y-53213000D01*
X122301000Y-54991000D02*
X123063000Y-54229000D01*
X122301000Y-55499000D02*
X123063000Y-54737000D01*
X122301000Y-56007000D02*
X123063000Y-55245000D01*
X123571000Y-55245000D02*
X124333000Y-54483000D01*
X122301000Y-56515000D02*
X123063000Y-55753000D01*
X122809000Y-56515000D02*
X123571000Y-55753000D01*
X123571000Y-55753000D02*
X124333000Y-54991000D01*
X123317000Y-56515000D02*
X124333000Y-55499000D01*
X123825000Y-56515000D02*
X124333000Y-56007000D01*
X121285000Y-56515000D02*
X121793000Y-56007000D01*
X121031000Y-56261000D02*
X121539000Y-55753000D01*
X120015000Y-56515000D02*
X120523000Y-56007000D01*
X119761000Y-56261000D02*
X120523000Y-55499000D01*
X119761000Y-55753000D02*
X120523000Y-54991000D01*
X119761000Y-55245000D02*
X120523000Y-54483000D01*
X119761000Y-54737000D02*
X120523000Y-53975000D01*
X119761000Y-54229000D02*
X120523000Y-53467000D01*
X119507000Y-53975000D02*
X120269000Y-53213000D01*
X119253000Y-53721000D02*
X119761000Y-53213000D01*
X126619000Y-52197000D02*
X127127000Y-52705000D01*
X126619000Y-51689000D02*
X127381000Y-52451000D01*
X126619000Y-51181000D02*
X127381000Y-51943000D01*
X126873000Y-49403000D02*
X127381000Y-49911000D01*
X126619000Y-49657000D02*
X127381000Y-50419000D01*
X126365000Y-49911000D02*
X127381000Y-50927000D01*
X126111000Y-50165000D02*
X126619000Y-50673000D01*
X126619000Y-50673000D02*
X127381000Y-51435000D01*
X125857000Y-50419000D02*
X126111000Y-50673000D01*
X125349000Y-50419000D02*
X126111000Y-51181000D01*
X125095000Y-50673000D02*
X125603000Y-51181000D01*
X124841000Y-49911000D02*
X125095000Y-50165000D01*
X123825000Y-49403000D02*
X125095000Y-50673000D01*
X123571000Y-49657000D02*
X124587000Y-50673000D01*
X123571000Y-50165000D02*
X124333000Y-50927000D01*
X123571000Y-50673000D02*
X124333000Y-51435000D01*
X123571000Y-51181000D02*
X124333000Y-51943000D01*
X123571000Y-51689000D02*
X124333000Y-52451000D01*
X123571000Y-52197000D02*
X124079000Y-52705000D01*
X122555000Y-49403000D02*
X123063000Y-49911000D01*
X122047000Y-49403000D02*
X123063000Y-50419000D01*
X122301000Y-50165000D02*
X123063000Y-50927000D01*
X121539000Y-49403000D02*
X122301000Y-50165000D01*
X121793000Y-50165000D02*
X121031000Y-49403000D01*
X123063000Y-51435000D02*
X122301000Y-50673000D01*
X121793000Y-50673000D02*
X122555000Y-51435000D01*
X120523000Y-49403000D02*
X121285000Y-50165000D01*
X121285000Y-50673000D02*
X122047000Y-51435000D01*
X120269000Y-49657000D02*
X121031000Y-50419000D01*
X120269000Y-50165000D02*
X121539000Y-51435000D01*
X120269000Y-50673000D02*
X121031000Y-51435000D01*
X120269000Y-51181000D02*
X121031000Y-51943000D01*
X120269000Y-51689000D02*
X121031000Y-52451000D01*
X120269000Y-52197000D02*
X120777000Y-52705000D01*
X118999000Y-52197000D02*
X119507000Y-52705000D01*
X118999000Y-51689000D02*
X119761000Y-52451000D01*
X118237000Y-50927000D02*
X118491000Y-51181000D01*
X119253000Y-49403000D02*
X119761000Y-49911000D01*
X118999000Y-49657000D02*
X119761000Y-50419000D01*
X118999000Y-50165000D02*
X119761000Y-50927000D01*
X118745000Y-50419000D02*
X119761000Y-51435000D01*
X118237000Y-49911000D02*
X118491000Y-50165000D01*
X118999000Y-51181000D02*
X119761000Y-51943000D01*
X117221000Y-49403000D02*
X118999000Y-51181000D01*
X116967000Y-49657000D02*
X117983000Y-50673000D01*
X116967000Y-50165000D02*
X117729000Y-50927000D01*
X116967000Y-50673000D02*
X117729000Y-51435000D01*
X116967000Y-51181000D02*
X117729000Y-51943000D01*
X116967000Y-51689000D02*
X117729000Y-52451000D01*
X116967000Y-52197000D02*
X117475000Y-52705000D01*
X115951000Y-49403000D02*
X116459000Y-49911000D01*
X115443000Y-49403000D02*
X116205000Y-50165000D01*
X114935000Y-49403000D02*
X115697000Y-50165000D01*
X114427000Y-49403000D02*
X115189000Y-50165000D01*
X114935000Y-50419000D02*
X114173000Y-49657000D01*
X114173000Y-51181000D02*
X114427000Y-51435000D01*
X114173000Y-50673000D02*
X114935000Y-51435000D01*
X115443000Y-51435000D02*
X114173000Y-50165000D01*
X115697000Y-50673000D02*
X116459000Y-51435000D01*
X115189000Y-50673000D02*
X116459000Y-51943000D01*
X115697000Y-51689000D02*
X116459000Y-52451000D01*
X115443000Y-51943000D02*
X116205000Y-52705000D01*
X114935000Y-51943000D02*
X115697000Y-52705000D01*
X114427000Y-51943000D02*
X115189000Y-52705000D01*
X114173000Y-52197000D02*
X114681000Y-52705000D01*
X123825000Y-57531000D02*
X124333000Y-57531000D01*
X123825000Y-57785000D02*
X123825000Y-57023000D01*
X123825000Y-57023000D02*
X124333000Y-57023000D01*
X124333000Y-57023000D02*
X124333000Y-57785000D01*
X122809000Y-57785000D02*
X123317000Y-57785000D01*
X122301000Y-57785000D02*
X122301000Y-57023000D01*
X125857000Y-50419000D02*
X126111000Y-50419000D01*
X125857000Y-51181000D02*
X126111000Y-51181000D01*
X124841000Y-50673000D02*
X125095000Y-50673000D01*
X124841000Y-49911000D02*
X125095000Y-49911000D01*
X122301000Y-53213000D02*
X124333000Y-53213000D01*
X124333000Y-53213000D02*
X124333000Y-56515000D01*
X124333000Y-56515000D02*
X122301000Y-56515000D01*
X123063000Y-53975000D02*
X123063000Y-55753000D01*
X123063000Y-55753000D02*
X123571000Y-55753000D01*
X123571000Y-55753000D02*
X123571000Y-53975000D01*
X123571000Y-53975000D02*
X123063000Y-53975000D01*
X122301000Y-56515000D02*
X122301000Y-53213000D01*
X121031000Y-56515000D02*
X121031000Y-55753000D01*
X121031000Y-55753000D02*
X121793000Y-55753000D01*
X121793000Y-55753000D02*
X121793000Y-56515000D01*
X121793000Y-56515000D02*
X121031000Y-56515000D01*
X120523000Y-53213000D02*
X120523000Y-56515000D01*
X120523000Y-56515000D02*
X119761000Y-56515000D01*
X119761000Y-56515000D02*
X119761000Y-53975000D01*
X119761000Y-53975000D02*
X119253000Y-53975000D01*
X119253000Y-53975000D02*
X119253000Y-53213000D01*
X119253000Y-53213000D02*
X119761000Y-53213000D01*
X119761000Y-53213000D02*
X120523000Y-53213000D01*
X124333000Y-49911000D02*
X124841000Y-49911000D01*
X125095000Y-49911000D02*
X125095000Y-50419000D01*
X125095000Y-50419000D02*
X125349000Y-50419000D01*
X124333000Y-50673000D02*
X124841000Y-50673000D01*
X125095000Y-50673000D02*
X125095000Y-51181000D01*
X125095000Y-51181000D02*
X125349000Y-51181000D01*
X123571000Y-49403000D02*
X124333000Y-49403000D01*
X124333000Y-49403000D02*
X124333000Y-49911000D01*
X125349000Y-50419000D02*
X125857000Y-50419000D01*
X126111000Y-50419000D02*
X126111000Y-49911000D01*
X126111000Y-49911000D02*
X126619000Y-49911000D01*
X126619000Y-49911000D02*
X126619000Y-49403000D01*
X126619000Y-49403000D02*
X127381000Y-49403000D01*
X127381000Y-49403000D02*
X127381000Y-52705000D01*
X127381000Y-52705000D02*
X126619000Y-52705000D01*
X126619000Y-52705000D02*
X126619000Y-50673000D01*
X126619000Y-50673000D02*
X126111000Y-50673000D01*
X126111000Y-50673000D02*
X126111000Y-51181000D01*
X125857000Y-51181000D02*
X125349000Y-51181000D01*
X124333000Y-50673000D02*
X124333000Y-52705000D01*
X124333000Y-52705000D02*
X123571000Y-52705000D01*
X123571000Y-49403000D02*
X123571000Y-52705000D01*
X121031000Y-50165000D02*
X121031000Y-50673000D01*
X121031000Y-50673000D02*
X122301000Y-50673000D01*
X122301000Y-50673000D02*
X122301000Y-50165000D01*
X122301000Y-50165000D02*
X121031000Y-50165000D01*
X120269000Y-52705000D02*
X120269000Y-49403000D01*
X120269000Y-49403000D02*
X123063000Y-49403000D01*
X123063000Y-49403000D02*
X123063000Y-51435000D01*
X123063000Y-51435000D02*
X121031000Y-51435000D01*
X121031000Y-51435000D02*
X121031000Y-52705000D01*
X121031000Y-52705000D02*
X120269000Y-52705000D01*
X117729000Y-50673000D02*
X117729000Y-52705000D01*
X117729000Y-52705000D02*
X117475000Y-52705000D01*
X116967000Y-52705000D02*
X116967000Y-49403000D01*
X116967000Y-49403000D02*
X117729000Y-49403000D01*
X117729000Y-49403000D02*
X117729000Y-49911000D01*
X117729000Y-49911000D02*
X118491000Y-49911000D01*
X118491000Y-49911000D02*
X118491000Y-50419000D01*
X118491000Y-50419000D02*
X118999000Y-50419000D01*
X118999000Y-50419000D02*
X118999000Y-49403000D01*
X118999000Y-49403000D02*
X119761000Y-49403000D01*
X119761000Y-49403000D02*
X119761000Y-52705000D01*
X119761000Y-52705000D02*
X118999000Y-52705000D01*
X118999000Y-52705000D02*
X118999000Y-51181000D01*
X118999000Y-51181000D02*
X118237000Y-51181000D01*
X118237000Y-51181000D02*
X118237000Y-50927000D01*
X118237000Y-50927000D02*
X118237000Y-50673000D01*
X118237000Y-50673000D02*
X117729000Y-50673000D01*
X117475000Y-52705000D02*
X116967000Y-52705000D01*
X116459000Y-49403000D02*
X116459000Y-50165000D01*
X116459000Y-50165000D02*
X114935000Y-50165000D01*
X114935000Y-50165000D02*
X114935000Y-50673000D01*
X114935000Y-50673000D02*
X116459000Y-50673000D01*
X116459000Y-50673000D02*
X116459000Y-52705000D01*
X116459000Y-52705000D02*
X114173000Y-52705000D01*
X114173000Y-52705000D02*
X114173000Y-51943000D01*
X114173000Y-51943000D02*
X115697000Y-51943000D01*
X115697000Y-51943000D02*
X115697000Y-51435000D01*
X115697000Y-51435000D02*
X114173000Y-51435000D01*
X114173000Y-51435000D02*
X114173000Y-49403000D01*
X114173000Y-49403000D02*
X116459000Y-49403000D01*
X126619000Y-48387000D02*
X127381000Y-48387000D01*
X127381000Y-47625000D02*
X126619000Y-47625000D01*
X126619000Y-47625000D02*
X126619000Y-48895000D01*
X126619000Y-48895000D02*
X127381000Y-48895000D01*
X126365000Y-48895000D02*
X125603000Y-48895000D01*
X125603000Y-48895000D02*
X125603000Y-47625000D01*
X125603000Y-47625000D02*
X126365000Y-47625000D01*
X124587000Y-48387000D02*
X125349000Y-48387000D01*
X124587000Y-48895000D02*
X124587000Y-47625000D01*
X124587000Y-47625000D02*
X125349000Y-47625000D01*
X125349000Y-47625000D02*
X125349000Y-48895000D01*
X123571000Y-48895000D02*
X123571000Y-47625000D01*
X123571000Y-47625000D02*
X124333000Y-47625000D01*
X124333000Y-47625000D02*
X124333000Y-48387000D01*
X124333000Y-48387000D02*
X123571000Y-48387000D01*
X123317000Y-47625000D02*
X122555000Y-47625000D01*
X122555000Y-47625000D02*
X122555000Y-48387000D01*
X122555000Y-48387000D02*
X123317000Y-48387000D01*
X123317000Y-48387000D02*
X123317000Y-48895000D01*
X123317000Y-48895000D02*
X122555000Y-48895000D01*
X121793000Y-48387000D02*
X122301000Y-48895000D01*
X121539000Y-47625000D02*
X122301000Y-47625000D01*
X122301000Y-47625000D02*
X122301000Y-48387000D01*
X122301000Y-48387000D02*
X121539000Y-48387000D01*
X121539000Y-47625000D02*
X121539000Y-48895000D01*
X121031000Y-48387000D02*
X121285000Y-48387000D01*
X120523000Y-48387000D02*
X121031000Y-48387000D01*
X120523000Y-47625000D02*
X121285000Y-47625000D01*
X120523000Y-47625000D02*
X120523000Y-48895000D01*
X120523000Y-48895000D02*
X121285000Y-48895000D01*
X119761000Y-48387000D02*
X120269000Y-48895000D01*
X119507000Y-48387000D02*
X119761000Y-48387000D01*
X119761000Y-48387000D02*
X120269000Y-47625000D01*
X119507000Y-47625000D02*
X119507000Y-48895000D01*
X119253000Y-47625000D02*
X118491000Y-47625000D01*
X118491000Y-47625000D02*
X118491000Y-48895000D01*
X118491000Y-48895000D02*
X119253000Y-48895000D01*
X118237000Y-48387000D02*
X117475000Y-48387000D01*
X117475000Y-48895000D02*
X117475000Y-47625000D01*
X117475000Y-47625000D02*
X118237000Y-47625000D01*
X118237000Y-47625000D02*
X118237000Y-48895000D01*
X117221000Y-47625000D02*
X117221000Y-48895000D01*
X116459000Y-48387000D02*
X117221000Y-48387000D01*
X116459000Y-47625000D02*
X116459000Y-48895000D01*
X127381000Y-46863000D02*
X126619000Y-46863000D01*
X126619000Y-47371000D02*
X126619000Y-46101000D01*
X126619000Y-46101000D02*
X127381000Y-46101000D01*
X127381000Y-46101000D02*
X127381000Y-47371000D01*
X125857000Y-46863000D02*
X126365000Y-47371000D01*
X125603000Y-46863000D02*
X125857000Y-46863000D01*
X125857000Y-46863000D02*
X126365000Y-46101000D01*
X125603000Y-46101000D02*
X125603000Y-47371000D01*
X124587000Y-46863000D02*
X125349000Y-46863000D01*
X124587000Y-46101000D02*
X124587000Y-47371000D01*
X124587000Y-47371000D02*
X125349000Y-47371000D01*
X125349000Y-47371000D02*
X125349000Y-46609000D01*
X125349000Y-46609000D02*
X125349000Y-46101000D01*
X125349000Y-46101000D02*
X124587000Y-46101000D01*
X124333000Y-46863000D02*
X123571000Y-46863000D01*
X123571000Y-47371000D02*
X123571000Y-46101000D01*
X123571000Y-46101000D02*
X124333000Y-46101000D01*
X124333000Y-46101000D02*
X124333000Y-47371000D01*
X122555000Y-46101000D02*
X122555000Y-47371000D01*
X122555000Y-47371000D02*
X123317000Y-47371000D01*
D11*
X116310000Y-59244000D02*
X116310000Y-60644000D01*
X116310000Y-60644000D02*
X119110000Y-60644000D01*
X116310000Y-59244000D02*
X119110000Y-59244000D01*
X120374000Y-59244000D02*
X120374000Y-60644000D01*
X120374000Y-60644000D02*
X123174000Y-60644000D01*
X120374000Y-59244000D02*
X123174000Y-59244000D01*
X120151000Y-63592000D02*
X120151000Y-62392000D01*
X121911000Y-62392000D02*
X121911000Y-63592000D01*
X122183000Y-63592000D02*
X122183000Y-62392000D01*
X123943000Y-62392000D02*
X123943000Y-63592000D01*
D12*
X91265000Y-103680000D02*
X93315000Y-103680000D01*
X90560000Y-100380000D02*
X93315000Y-100380000D01*
X104350728Y-73787000D02*
X104721959Y-74158231D01*
X114427000Y-63710728D02*
X114851264Y-64134992D01*
X124503272Y-73787000D02*
X124079008Y-73362736D01*
X114427000Y-83863272D02*
X114002736Y-83439008D01*
X104350728Y-73787000D02*
X104774992Y-73362736D01*
X114427000Y-83863272D02*
X114851264Y-83439008D01*
X124503272Y-73787000D02*
X124079008Y-74211264D01*
X114427000Y-63710728D02*
X114002736Y-64134992D01*
X104721959Y-74158231D02*
X103643622Y-75236569D01*
D11*
X104080000Y-83880000D02*
X106740000Y-83880000D01*
X104080000Y-83820000D02*
X104080000Y-83880000D01*
X106740000Y-83820000D02*
X106740000Y-83880000D01*
X104080000Y-83820000D02*
X106740000Y-83820000D01*
X104080000Y-82550000D02*
X104080000Y-81220000D01*
X104080000Y-81220000D02*
X105410000Y-81220000D01*
X106620000Y-83880000D02*
X109280000Y-83880000D01*
X106620000Y-83820000D02*
X106620000Y-83880000D01*
X109280000Y-83820000D02*
X109280000Y-83880000D01*
X106620000Y-83820000D02*
X109280000Y-83820000D01*
X106620000Y-82550000D02*
X106620000Y-81220000D01*
X106620000Y-81220000D02*
X107950000Y-81220000D01*
X106620000Y-86420000D02*
X109280000Y-86420000D01*
X106620000Y-86360000D02*
X106620000Y-86420000D01*
X109280000Y-86360000D02*
X109280000Y-86420000D01*
X106620000Y-86360000D02*
X109280000Y-86360000D01*
X106620000Y-85090000D02*
X106620000Y-83760000D01*
X106620000Y-83760000D02*
X107950000Y-83760000D01*
X109160000Y-86420000D02*
X111820000Y-86420000D01*
X109160000Y-86360000D02*
X109160000Y-86420000D01*
X111820000Y-86360000D02*
X111820000Y-86420000D01*
X109160000Y-86360000D02*
X111820000Y-86360000D01*
X109160000Y-85090000D02*
X109160000Y-83760000D01*
X109160000Y-83760000D02*
X110490000Y-83760000D01*
X74870000Y-107756000D02*
X77530000Y-107756000D01*
X74870000Y-107696000D02*
X74870000Y-107756000D01*
X77530000Y-107696000D02*
X77530000Y-107756000D01*
X74870000Y-107696000D02*
X77530000Y-107696000D01*
X74870000Y-106426000D02*
X74870000Y-105096000D01*
X74870000Y-105096000D02*
X76200000Y-105096000D01*
D12*
X120094477Y-110831381D02*
X120094477Y-111545667D01*
X120046857Y-111688524D01*
X119951619Y-111783762D01*
X119808762Y-111831381D01*
X119713524Y-111831381D01*
X120523048Y-110926619D02*
X120570667Y-110879000D01*
X120665905Y-110831381D01*
X120904001Y-110831381D01*
X120999239Y-110879000D01*
X121046858Y-110926619D01*
X121094477Y-111021857D01*
X121094477Y-111117095D01*
X121046858Y-111259952D01*
X120475429Y-111831381D01*
X121094477Y-111831381D01*
X121665905Y-111259952D02*
X121570667Y-111212333D01*
X121523048Y-111164714D01*
X121475429Y-111069476D01*
X121475429Y-111021857D01*
X121523048Y-110926619D01*
X121570667Y-110879000D01*
X121665905Y-110831381D01*
X121856382Y-110831381D01*
X121951620Y-110879000D01*
X121999239Y-110926619D01*
X122046858Y-111021857D01*
X122046858Y-111069476D01*
X121999239Y-111164714D01*
X121951620Y-111212333D01*
X121856382Y-111259952D01*
X121665905Y-111259952D01*
X121570667Y-111307571D01*
X121523048Y-111355190D01*
X121475429Y-111450429D01*
X121475429Y-111640905D01*
X121523048Y-111736143D01*
X121570667Y-111783762D01*
X121665905Y-111831381D01*
X121856382Y-111831381D01*
X121951620Y-111783762D01*
X121999239Y-111736143D01*
X122046858Y-111640905D01*
X122046858Y-111450429D01*
X121999239Y-111355190D01*
X121951620Y-111307571D01*
X121856382Y-111259952D01*
X82756477Y-129373381D02*
X82756477Y-130087667D01*
X82708857Y-130230524D01*
X82613619Y-130325762D01*
X82470762Y-130373381D01*
X82375524Y-130373381D01*
X83185048Y-129468619D02*
X83232667Y-129421000D01*
X83327905Y-129373381D01*
X83566001Y-129373381D01*
X83661239Y-129421000D01*
X83708858Y-129468619D01*
X83756477Y-129563857D01*
X83756477Y-129659095D01*
X83708858Y-129801952D01*
X83137429Y-130373381D01*
X83756477Y-130373381D01*
X84613620Y-129373381D02*
X84423143Y-129373381D01*
X84327905Y-129421000D01*
X84280286Y-129468619D01*
X84185048Y-129611476D01*
X84137429Y-129801952D01*
X84137429Y-130182905D01*
X84185048Y-130278143D01*
X84232667Y-130325762D01*
X84327905Y-130373381D01*
X84518382Y-130373381D01*
X84613620Y-130325762D01*
X84661239Y-130278143D01*
X84708858Y-130182905D01*
X84708858Y-129944810D01*
X84661239Y-129849571D01*
X84613620Y-129801952D01*
X84518382Y-129754333D01*
X84327905Y-129754333D01*
X84232667Y-129801952D01*
X84185048Y-129849571D01*
X84137429Y-129944810D01*
X85931477Y-129373381D02*
X85931477Y-130087667D01*
X85883857Y-130230524D01*
X85788619Y-130325762D01*
X85645762Y-130373381D01*
X85550524Y-130373381D01*
X86360048Y-129468619D02*
X86407667Y-129421000D01*
X86502905Y-129373381D01*
X86741001Y-129373381D01*
X86836239Y-129421000D01*
X86883858Y-129468619D01*
X86931477Y-129563857D01*
X86931477Y-129659095D01*
X86883858Y-129801952D01*
X86312429Y-130373381D01*
X86931477Y-130373381D01*
X87836239Y-129373381D02*
X87360048Y-129373381D01*
X87312429Y-129849571D01*
X87360048Y-129801952D01*
X87455286Y-129754333D01*
X87693382Y-129754333D01*
X87788620Y-129801952D01*
X87836239Y-129849571D01*
X87883858Y-129944810D01*
X87883858Y-130182905D01*
X87836239Y-130278143D01*
X87788620Y-130325762D01*
X87693382Y-130373381D01*
X87455286Y-130373381D01*
X87360048Y-130325762D01*
X87312429Y-130278143D01*
X87328477Y-136358381D02*
X87328477Y-137072667D01*
X87280857Y-137215524D01*
X87185619Y-137310762D01*
X87042762Y-137358381D01*
X86947524Y-137358381D01*
X87757048Y-136453619D02*
X87804667Y-136406000D01*
X87899905Y-136358381D01*
X88138001Y-136358381D01*
X88233239Y-136406000D01*
X88280858Y-136453619D01*
X88328477Y-136548857D01*
X88328477Y-136644095D01*
X88280858Y-136786952D01*
X87709429Y-137358381D01*
X88328477Y-137358381D01*
X89185620Y-136691714D02*
X89185620Y-137358381D01*
X88947524Y-136310762D02*
X88709429Y-137025048D01*
X89328477Y-137025048D01*
X90884477Y-134072381D02*
X90884477Y-134786667D01*
X90836857Y-134929524D01*
X90741619Y-135024762D01*
X90598762Y-135072381D01*
X90503524Y-135072381D01*
X91313048Y-134167619D02*
X91360667Y-134120000D01*
X91455905Y-134072381D01*
X91694001Y-134072381D01*
X91789239Y-134120000D01*
X91836858Y-134167619D01*
X91884477Y-134262857D01*
X91884477Y-134358095D01*
X91836858Y-134500952D01*
X91265429Y-135072381D01*
X91884477Y-135072381D01*
X92217810Y-134072381D02*
X92836858Y-134072381D01*
X92503524Y-134453333D01*
X92646382Y-134453333D01*
X92741620Y-134500952D01*
X92789239Y-134548571D01*
X92836858Y-134643810D01*
X92836858Y-134881905D01*
X92789239Y-134977143D01*
X92741620Y-135024762D01*
X92646382Y-135072381D01*
X92360667Y-135072381D01*
X92265429Y-135024762D01*
X92217810Y-134977143D01*
X78499827Y-154824823D02*
X79072247Y-155397243D01*
X79173262Y-155430915D01*
X79240605Y-155430915D01*
X79341620Y-155397243D01*
X79476308Y-155262555D01*
X79509980Y-155161540D01*
X79509980Y-155094197D01*
X79476308Y-154993182D01*
X78903888Y-154420762D01*
X79274277Y-154185060D02*
X79274277Y-154117716D01*
X79307949Y-154016701D01*
X79476308Y-153848342D01*
X79577323Y-153814670D01*
X79644667Y-153814670D01*
X79745682Y-153848342D01*
X79813025Y-153915685D01*
X79880369Y-154050372D01*
X79880369Y-154858495D01*
X80318102Y-154420762D01*
X98336195Y-115809781D02*
X98336195Y-116619305D01*
X98383814Y-116714543D01*
X98431433Y-116762162D01*
X98526671Y-116809781D01*
X98717148Y-116809781D01*
X98812386Y-116762162D01*
X98860005Y-116714543D01*
X98907624Y-116619305D01*
X98907624Y-115809781D01*
X99526671Y-116238352D02*
X99431433Y-116190733D01*
X99383814Y-116143114D01*
X99336195Y-116047876D01*
X99336195Y-116000257D01*
X99383814Y-115905019D01*
X99431433Y-115857400D01*
X99526671Y-115809781D01*
X99717148Y-115809781D01*
X99812386Y-115857400D01*
X99860005Y-115905019D01*
X99907624Y-116000257D01*
X99907624Y-116047876D01*
X99860005Y-116143114D01*
X99812386Y-116190733D01*
X99717148Y-116238352D01*
X99526671Y-116238352D01*
X99431433Y-116285971D01*
X99383814Y-116333590D01*
X99336195Y-116428829D01*
X99336195Y-116619305D01*
X99383814Y-116714543D01*
X99431433Y-116762162D01*
X99526671Y-116809781D01*
X99717148Y-116809781D01*
X99812386Y-116762162D01*
X99860005Y-116714543D01*
X99907624Y-116619305D01*
X99907624Y-116428829D01*
X99860005Y-116333590D01*
X99812386Y-116285971D01*
X99717148Y-116238352D01*
X71826381Y-151899857D02*
X71350190Y-152233191D01*
X71826381Y-152471286D02*
X70826381Y-152471286D01*
X70826381Y-152090333D01*
X70874000Y-151995095D01*
X70921619Y-151947476D01*
X71016857Y-151899857D01*
X71159714Y-151899857D01*
X71254952Y-151947476D01*
X71302571Y-151995095D01*
X71350190Y-152090333D01*
X71350190Y-152471286D01*
X71826381Y-150947476D02*
X71826381Y-151518905D01*
X71826381Y-151233191D02*
X70826381Y-151233191D01*
X70969238Y-151328429D01*
X71064476Y-151423667D01*
X71112095Y-151518905D01*
X70826381Y-150090333D02*
X70826381Y-150280810D01*
X70874000Y-150376048D01*
X70921619Y-150423667D01*
X71064476Y-150518905D01*
X71254952Y-150566524D01*
X71635905Y-150566524D01*
X71731143Y-150518905D01*
X71778762Y-150471286D01*
X71826381Y-150376048D01*
X71826381Y-150185571D01*
X71778762Y-150090333D01*
X71731143Y-150042714D01*
X71635905Y-149995095D01*
X71397810Y-149995095D01*
X71302571Y-150042714D01*
X71254952Y-150090333D01*
X71207333Y-150185571D01*
X71207333Y-150376048D01*
X71254952Y-150471286D01*
X71302571Y-150518905D01*
X71397810Y-150566524D01*
X73604381Y-151899857D02*
X73128190Y-152233191D01*
X73604381Y-152471286D02*
X72604381Y-152471286D01*
X72604381Y-152090333D01*
X72652000Y-151995095D01*
X72699619Y-151947476D01*
X72794857Y-151899857D01*
X72937714Y-151899857D01*
X73032952Y-151947476D01*
X73080571Y-151995095D01*
X73128190Y-152090333D01*
X73128190Y-152471286D01*
X73604381Y-150947476D02*
X73604381Y-151518905D01*
X73604381Y-151233191D02*
X72604381Y-151233191D01*
X72747238Y-151328429D01*
X72842476Y-151423667D01*
X72890095Y-151518905D01*
X72604381Y-150042714D02*
X72604381Y-150518905D01*
X73080571Y-150566524D01*
X73032952Y-150518905D01*
X72985333Y-150423667D01*
X72985333Y-150185571D01*
X73032952Y-150090333D01*
X73080571Y-150042714D01*
X73175810Y-149995095D01*
X73413905Y-149995095D01*
X73509143Y-150042714D01*
X73556762Y-150090333D01*
X73604381Y-150185571D01*
X73604381Y-150423667D01*
X73556762Y-150518905D01*
X73509143Y-150566524D01*
X69365905Y-157678381D02*
X69365905Y-156678381D01*
X69604000Y-156678381D01*
X69746858Y-156726000D01*
X69842096Y-156821238D01*
X69889715Y-156916476D01*
X69937334Y-157106952D01*
X69937334Y-157249810D01*
X69889715Y-157440286D01*
X69842096Y-157535524D01*
X69746858Y-157630762D01*
X69604000Y-157678381D01*
X69365905Y-157678381D01*
X70270667Y-156678381D02*
X70937334Y-156678381D01*
X70508762Y-157678381D01*
X78509905Y-157678381D02*
X78509905Y-156678381D01*
X78748000Y-156678381D01*
X78890858Y-156726000D01*
X78986096Y-156821238D01*
X79033715Y-156916476D01*
X79081334Y-157106952D01*
X79081334Y-157249810D01*
X79033715Y-157440286D01*
X78986096Y-157535524D01*
X78890858Y-157630762D01*
X78748000Y-157678381D01*
X78509905Y-157678381D01*
X79938477Y-156678381D02*
X79748000Y-156678381D01*
X79652762Y-156726000D01*
X79605143Y-156773619D01*
X79509905Y-156916476D01*
X79462286Y-157106952D01*
X79462286Y-157487905D01*
X79509905Y-157583143D01*
X79557524Y-157630762D01*
X79652762Y-157678381D01*
X79843239Y-157678381D01*
X79938477Y-157630762D01*
X79986096Y-157583143D01*
X80033715Y-157487905D01*
X80033715Y-157249810D01*
X79986096Y-157154571D01*
X79938477Y-157106952D01*
X79843239Y-157059333D01*
X79652762Y-157059333D01*
X79557524Y-157106952D01*
X79509905Y-157154571D01*
X79462286Y-157249810D01*
X71328043Y-132360943D02*
X71280424Y-132408562D01*
X71137567Y-132456181D01*
X71042329Y-132456181D01*
X70899471Y-132408562D01*
X70804233Y-132313324D01*
X70756614Y-132218086D01*
X70708995Y-132027610D01*
X70708995Y-131884752D01*
X70756614Y-131694276D01*
X70804233Y-131599038D01*
X70899471Y-131503800D01*
X71042329Y-131456181D01*
X71137567Y-131456181D01*
X71280424Y-131503800D01*
X71328043Y-131551419D01*
X71708995Y-131551419D02*
X71756614Y-131503800D01*
X71851852Y-131456181D01*
X72089948Y-131456181D01*
X72185186Y-131503800D01*
X72232805Y-131551419D01*
X72280424Y-131646657D01*
X72280424Y-131741895D01*
X72232805Y-131884752D01*
X71661376Y-132456181D01*
X72280424Y-132456181D01*
X72756614Y-132456181D02*
X72947090Y-132456181D01*
X73042329Y-132408562D01*
X73089948Y-132360943D01*
X73185186Y-132218086D01*
X73232805Y-132027610D01*
X73232805Y-131646657D01*
X73185186Y-131551419D01*
X73137567Y-131503800D01*
X73042329Y-131456181D01*
X72851852Y-131456181D01*
X72756614Y-131503800D01*
X72708995Y-131551419D01*
X72661376Y-131646657D01*
X72661376Y-131884752D01*
X72708995Y-131979990D01*
X72756614Y-132027610D01*
X72851852Y-132075229D01*
X73042329Y-132075229D01*
X73137567Y-132027610D01*
X73185186Y-131979990D01*
X73232805Y-131884752D01*
X89338305Y-123556781D02*
X89338305Y-124366305D01*
X89385924Y-124461543D01*
X89433543Y-124509162D01*
X89528781Y-124556781D01*
X89719258Y-124556781D01*
X89814496Y-124509162D01*
X89862115Y-124461543D01*
X89909734Y-124366305D01*
X89909734Y-123556781D01*
X90909734Y-124556781D02*
X90338305Y-124556781D01*
X90624019Y-124556781D02*
X90624019Y-123556781D01*
X90528781Y-123699638D01*
X90433543Y-123794876D01*
X90338305Y-123842495D01*
X91528781Y-123556781D02*
X91624020Y-123556781D01*
X91719258Y-123604400D01*
X91766877Y-123652019D01*
X91814496Y-123747257D01*
X91862115Y-123937733D01*
X91862115Y-124175829D01*
X91814496Y-124366305D01*
X91766877Y-124461543D01*
X91719258Y-124509162D01*
X91624020Y-124556781D01*
X91528781Y-124556781D01*
X91433543Y-124509162D01*
X91385924Y-124461543D01*
X91338305Y-124366305D01*
X91290686Y-124175829D01*
X91290686Y-123937733D01*
X91338305Y-123747257D01*
X91385924Y-123652019D01*
X91433543Y-123604400D01*
X91528781Y-123556781D01*
X128012381Y-165909523D02*
X128726667Y-165909523D01*
X128869524Y-165957143D01*
X128964762Y-166052381D01*
X129012381Y-166195238D01*
X129012381Y-166290476D01*
X129012381Y-164909523D02*
X129012381Y-165480952D01*
X129012381Y-165195238D02*
X128012381Y-165195238D01*
X128155238Y-165290476D01*
X128250476Y-165385714D01*
X128298095Y-165480952D01*
X128012381Y-164576190D02*
X128012381Y-163909523D01*
X129012381Y-164338095D01*
X91900143Y-131960857D02*
X91947762Y-132008476D01*
X91995381Y-132151333D01*
X91995381Y-132246571D01*
X91947762Y-132389429D01*
X91852524Y-132484667D01*
X91757286Y-132532286D01*
X91566810Y-132579905D01*
X91423952Y-132579905D01*
X91233476Y-132532286D01*
X91138238Y-132484667D01*
X91043000Y-132389429D01*
X90995381Y-132246571D01*
X90995381Y-132151333D01*
X91043000Y-132008476D01*
X91090619Y-131960857D01*
X91090619Y-131579905D02*
X91043000Y-131532286D01*
X90995381Y-131437048D01*
X90995381Y-131198952D01*
X91043000Y-131103714D01*
X91090619Y-131056095D01*
X91185857Y-131008476D01*
X91281095Y-131008476D01*
X91423952Y-131056095D01*
X91995381Y-131627524D01*
X91995381Y-131008476D01*
X91423952Y-130437048D02*
X91376333Y-130532286D01*
X91328714Y-130579905D01*
X91233476Y-130627524D01*
X91185857Y-130627524D01*
X91090619Y-130579905D01*
X91043000Y-130532286D01*
X90995381Y-130437048D01*
X90995381Y-130246571D01*
X91043000Y-130151333D01*
X91090619Y-130103714D01*
X91185857Y-130056095D01*
X91233476Y-130056095D01*
X91328714Y-130103714D01*
X91376333Y-130151333D01*
X91423952Y-130246571D01*
X91423952Y-130437048D01*
X91471571Y-130532286D01*
X91519190Y-130579905D01*
X91614429Y-130627524D01*
X91804905Y-130627524D01*
X91900143Y-130579905D01*
X91947762Y-130532286D01*
X91995381Y-130437048D01*
X91995381Y-130246571D01*
X91947762Y-130151333D01*
X91900143Y-130103714D01*
X91804905Y-130056095D01*
X91614429Y-130056095D01*
X91519190Y-130103714D01*
X91471571Y-130151333D01*
X91423952Y-130246571D01*
X94165000Y-144080667D02*
X93931666Y-143747333D01*
X93765000Y-144080667D02*
X93765000Y-143380667D01*
X94031666Y-143380667D01*
X94098333Y-143414000D01*
X94131666Y-143447333D01*
X94165000Y-143514000D01*
X94165000Y-143614000D01*
X94131666Y-143680667D01*
X94098333Y-143714000D01*
X94031666Y-143747333D01*
X93765000Y-143747333D01*
X94831666Y-144080667D02*
X94431666Y-144080667D01*
X94631666Y-144080667D02*
X94631666Y-143380667D01*
X94565000Y-143480667D01*
X94498333Y-143547333D01*
X94431666Y-143580667D01*
X95431667Y-143614000D02*
X95431667Y-144080667D01*
X95265000Y-143347333D02*
X95098333Y-143847333D01*
X95531667Y-143847333D01*
X95464334Y-141962143D02*
X95416715Y-142009762D01*
X95273858Y-142057381D01*
X95178620Y-142057381D01*
X95035762Y-142009762D01*
X94940524Y-141914524D01*
X94892905Y-141819286D01*
X94845286Y-141628810D01*
X94845286Y-141485952D01*
X94892905Y-141295476D01*
X94940524Y-141200238D01*
X95035762Y-141105000D01*
X95178620Y-141057381D01*
X95273858Y-141057381D01*
X95416715Y-141105000D01*
X95464334Y-141152619D01*
X95797667Y-141057381D02*
X96416715Y-141057381D01*
X96083381Y-141438333D01*
X96226239Y-141438333D01*
X96321477Y-141485952D01*
X96369096Y-141533571D01*
X96416715Y-141628810D01*
X96416715Y-141866905D01*
X96369096Y-141962143D01*
X96321477Y-142009762D01*
X96226239Y-142057381D01*
X95940524Y-142057381D01*
X95845286Y-142009762D01*
X95797667Y-141962143D01*
X95604034Y-140361943D02*
X95556415Y-140409562D01*
X95413558Y-140457181D01*
X95318320Y-140457181D01*
X95175462Y-140409562D01*
X95080224Y-140314324D01*
X95032605Y-140219086D01*
X94984986Y-140028610D01*
X94984986Y-139885752D01*
X95032605Y-139695276D01*
X95080224Y-139600038D01*
X95175462Y-139504800D01*
X95318320Y-139457181D01*
X95413558Y-139457181D01*
X95556415Y-139504800D01*
X95604034Y-139552419D01*
X96556415Y-140457181D02*
X95984986Y-140457181D01*
X96270700Y-140457181D02*
X96270700Y-139457181D01*
X96175462Y-139600038D01*
X96080224Y-139695276D01*
X95984986Y-139742895D01*
X93851481Y-137906023D02*
X94565767Y-137906023D01*
X94708624Y-137953643D01*
X94803862Y-138048881D01*
X94851481Y-138191738D01*
X94851481Y-138286976D01*
X94851481Y-136906023D02*
X94851481Y-137477452D01*
X94851481Y-137191738D02*
X93851481Y-137191738D01*
X93994338Y-137286976D01*
X94089576Y-137382214D01*
X94137195Y-137477452D01*
X93851481Y-136048880D02*
X93851481Y-136239357D01*
X93899100Y-136334595D01*
X93946719Y-136382214D01*
X94089576Y-136477452D01*
X94280052Y-136525071D01*
X94661005Y-136525071D01*
X94756243Y-136477452D01*
X94803862Y-136429833D01*
X94851481Y-136334595D01*
X94851481Y-136144118D01*
X94803862Y-136048880D01*
X94756243Y-136001261D01*
X94661005Y-135953642D01*
X94422910Y-135953642D01*
X94327671Y-136001261D01*
X94280052Y-136048880D01*
X94232433Y-136144118D01*
X94232433Y-136334595D01*
X94280052Y-136429833D01*
X94327671Y-136477452D01*
X94422910Y-136525071D01*
X78184477Y-159091381D02*
X78184477Y-159805667D01*
X78136857Y-159948524D01*
X78041619Y-160043762D01*
X77898762Y-160091381D01*
X77803524Y-160091381D01*
X79184477Y-160091381D02*
X78613048Y-160091381D01*
X78898762Y-160091381D02*
X78898762Y-159091381D01*
X78803524Y-159234238D01*
X78708286Y-159329476D01*
X78613048Y-159377095D01*
X80089239Y-159091381D02*
X79613048Y-159091381D01*
X79565429Y-159567571D01*
X79613048Y-159519952D01*
X79708286Y-159472333D01*
X79946382Y-159472333D01*
X80041620Y-159519952D01*
X80089239Y-159567571D01*
X80136858Y-159662810D01*
X80136858Y-159900905D01*
X80089239Y-159996143D01*
X80041620Y-160043762D01*
X79946382Y-160091381D01*
X79708286Y-160091381D01*
X79613048Y-160043762D01*
X79565429Y-159996143D01*
X70310477Y-136402381D02*
X70310477Y-137116667D01*
X70262857Y-137259524D01*
X70167619Y-137354762D01*
X70024762Y-137402381D01*
X69929524Y-137402381D01*
X71310477Y-137402381D02*
X70739048Y-137402381D01*
X71024762Y-137402381D02*
X71024762Y-136402381D01*
X70929524Y-136545238D01*
X70834286Y-136640476D01*
X70739048Y-136688095D01*
X72167620Y-136735714D02*
X72167620Y-137402381D01*
X71929524Y-136354762D02*
X71691429Y-137069048D01*
X72310477Y-137069048D01*
X80737177Y-161669481D02*
X80737177Y-162383767D01*
X80689557Y-162526624D01*
X80594319Y-162621862D01*
X80451462Y-162669481D01*
X80356224Y-162669481D01*
X81737177Y-162669481D02*
X81165748Y-162669481D01*
X81451462Y-162669481D02*
X81451462Y-161669481D01*
X81356224Y-161812338D01*
X81260986Y-161907576D01*
X81165748Y-161955195D01*
X82118129Y-161764719D02*
X82165748Y-161717100D01*
X82260986Y-161669481D01*
X82499082Y-161669481D01*
X82594320Y-161717100D01*
X82641939Y-161764719D01*
X82689558Y-161859957D01*
X82689558Y-161955195D01*
X82641939Y-162098052D01*
X82070510Y-162669481D01*
X82689558Y-162669481D01*
X96351767Y-123874281D02*
X96351767Y-124588567D01*
X96304147Y-124731424D01*
X96208909Y-124826662D01*
X96066052Y-124874281D01*
X95970814Y-124874281D01*
X96970814Y-124302852D02*
X96875576Y-124255233D01*
X96827957Y-124207614D01*
X96780338Y-124112376D01*
X96780338Y-124064757D01*
X96827957Y-123969519D01*
X96875576Y-123921900D01*
X96970814Y-123874281D01*
X97161291Y-123874281D01*
X97256529Y-123921900D01*
X97304148Y-123969519D01*
X97351767Y-124064757D01*
X97351767Y-124112376D01*
X97304148Y-124207614D01*
X97256529Y-124255233D01*
X97161291Y-124302852D01*
X96970814Y-124302852D01*
X96875576Y-124350471D01*
X96827957Y-124398090D01*
X96780338Y-124493329D01*
X96780338Y-124683805D01*
X96827957Y-124779043D01*
X96875576Y-124826662D01*
X96970814Y-124874281D01*
X97161291Y-124874281D01*
X97256529Y-124826662D01*
X97304148Y-124779043D01*
X97351767Y-124683805D01*
X97351767Y-124493329D01*
X97304148Y-124398090D01*
X97256529Y-124350471D01*
X97161291Y-124302852D01*
X121696243Y-133776981D02*
X121362909Y-133300790D01*
X121124814Y-133776981D02*
X121124814Y-132776981D01*
X121505767Y-132776981D01*
X121601005Y-132824600D01*
X121648624Y-132872219D01*
X121696243Y-132967457D01*
X121696243Y-133110314D01*
X121648624Y-133205552D01*
X121601005Y-133253171D01*
X121505767Y-133300790D01*
X121124814Y-133300790D01*
X122648624Y-133776981D02*
X122077195Y-133776981D01*
X122362909Y-133776981D02*
X122362909Y-132776981D01*
X122267671Y-132919838D01*
X122172433Y-133015076D01*
X122077195Y-133062695D01*
X123029576Y-132872219D02*
X123077195Y-132824600D01*
X123172433Y-132776981D01*
X123410529Y-132776981D01*
X123505767Y-132824600D01*
X123553386Y-132872219D01*
X123601005Y-132967457D01*
X123601005Y-133062695D01*
X123553386Y-133205552D01*
X122981957Y-133776981D01*
X123601005Y-133776981D01*
X100944443Y-138856981D02*
X100611109Y-138380790D01*
X100373014Y-138856981D02*
X100373014Y-137856981D01*
X100753967Y-137856981D01*
X100849205Y-137904600D01*
X100896824Y-137952219D01*
X100944443Y-138047457D01*
X100944443Y-138190314D01*
X100896824Y-138285552D01*
X100849205Y-138333171D01*
X100753967Y-138380790D01*
X100373014Y-138380790D01*
X101896824Y-138856981D02*
X101325395Y-138856981D01*
X101611109Y-138856981D02*
X101611109Y-137856981D01*
X101515871Y-137999838D01*
X101420633Y-138095076D01*
X101325395Y-138142695D01*
X102515871Y-137856981D02*
X102611110Y-137856981D01*
X102706348Y-137904600D01*
X102753967Y-137952219D01*
X102801586Y-138047457D01*
X102849205Y-138237933D01*
X102849205Y-138476029D01*
X102801586Y-138666505D01*
X102753967Y-138761743D01*
X102706348Y-138809362D01*
X102611110Y-138856981D01*
X102515871Y-138856981D01*
X102420633Y-138809362D01*
X102373014Y-138761743D01*
X102325395Y-138666505D01*
X102277776Y-138476029D01*
X102277776Y-138237933D01*
X102325395Y-138047457D01*
X102373014Y-137952219D01*
X102420633Y-137904600D01*
X102515871Y-137856981D01*
X101890534Y-137510781D02*
X101557200Y-137034590D01*
X101319105Y-137510781D02*
X101319105Y-136510781D01*
X101700058Y-136510781D01*
X101795296Y-136558400D01*
X101842915Y-136606019D01*
X101890534Y-136701257D01*
X101890534Y-136844114D01*
X101842915Y-136939352D01*
X101795296Y-136986971D01*
X101700058Y-137034590D01*
X101319105Y-137034590D01*
X102366724Y-137510781D02*
X102557200Y-137510781D01*
X102652439Y-137463162D01*
X102700058Y-137415543D01*
X102795296Y-137272686D01*
X102842915Y-137082210D01*
X102842915Y-136701257D01*
X102795296Y-136606019D01*
X102747677Y-136558400D01*
X102652439Y-136510781D01*
X102461962Y-136510781D01*
X102366724Y-136558400D01*
X102319105Y-136606019D01*
X102271486Y-136701257D01*
X102271486Y-136939352D01*
X102319105Y-137034590D01*
X102366724Y-137082210D01*
X102461962Y-137129829D01*
X102652439Y-137129829D01*
X102747677Y-137082210D01*
X102795296Y-137034590D01*
X102842915Y-136939352D01*
X101877834Y-140152381D02*
X101544500Y-139676190D01*
X101306405Y-140152381D02*
X101306405Y-139152381D01*
X101687358Y-139152381D01*
X101782596Y-139200000D01*
X101830215Y-139247619D01*
X101877834Y-139342857D01*
X101877834Y-139485714D01*
X101830215Y-139580952D01*
X101782596Y-139628571D01*
X101687358Y-139676190D01*
X101306405Y-139676190D01*
X102449262Y-139580952D02*
X102354024Y-139533333D01*
X102306405Y-139485714D01*
X102258786Y-139390476D01*
X102258786Y-139342857D01*
X102306405Y-139247619D01*
X102354024Y-139200000D01*
X102449262Y-139152381D01*
X102639739Y-139152381D01*
X102734977Y-139200000D01*
X102782596Y-139247619D01*
X102830215Y-139342857D01*
X102830215Y-139390476D01*
X102782596Y-139485714D01*
X102734977Y-139533333D01*
X102639739Y-139580952D01*
X102449262Y-139580952D01*
X102354024Y-139628571D01*
X102306405Y-139676190D01*
X102258786Y-139771429D01*
X102258786Y-139961905D01*
X102306405Y-140057143D01*
X102354024Y-140104762D01*
X102449262Y-140152381D01*
X102639739Y-140152381D01*
X102734977Y-140104762D01*
X102782596Y-140057143D01*
X102830215Y-139961905D01*
X102830215Y-139771429D01*
X102782596Y-139676190D01*
X102734977Y-139628571D01*
X102639739Y-139580952D01*
X101950781Y-111786895D02*
X100950781Y-111786895D01*
X100950781Y-111548800D01*
X100998400Y-111405942D01*
X101093638Y-111310704D01*
X101188876Y-111263085D01*
X101379352Y-111215466D01*
X101522210Y-111215466D01*
X101712686Y-111263085D01*
X101807924Y-111310704D01*
X101903162Y-111405942D01*
X101950781Y-111548800D01*
X101950781Y-111786895D01*
X100950781Y-110882133D02*
X100950781Y-110263085D01*
X101331733Y-110596419D01*
X101331733Y-110453561D01*
X101379352Y-110358323D01*
X101426971Y-110310704D01*
X101522210Y-110263085D01*
X101760305Y-110263085D01*
X101855543Y-110310704D01*
X101903162Y-110358323D01*
X101950781Y-110453561D01*
X101950781Y-110739276D01*
X101903162Y-110834514D01*
X101855543Y-110882133D01*
X86856843Y-160065957D02*
X86904462Y-160113576D01*
X86952081Y-160256433D01*
X86952081Y-160351671D01*
X86904462Y-160494529D01*
X86809224Y-160589767D01*
X86713986Y-160637386D01*
X86523510Y-160685005D01*
X86380652Y-160685005D01*
X86190176Y-160637386D01*
X86094938Y-160589767D01*
X85999700Y-160494529D01*
X85952081Y-160351671D01*
X85952081Y-160256433D01*
X85999700Y-160113576D01*
X86047319Y-160065957D01*
X86047319Y-159685005D02*
X85999700Y-159637386D01*
X85952081Y-159542148D01*
X85952081Y-159304052D01*
X85999700Y-159208814D01*
X86047319Y-159161195D01*
X86142557Y-159113576D01*
X86237795Y-159113576D01*
X86380652Y-159161195D01*
X86952081Y-159732624D01*
X86952081Y-159113576D01*
X85952081Y-158494529D02*
X85952081Y-158399290D01*
X85999700Y-158304052D01*
X86047319Y-158256433D01*
X86142557Y-158208814D01*
X86333033Y-158161195D01*
X86571129Y-158161195D01*
X86761605Y-158208814D01*
X86856843Y-158256433D01*
X86904462Y-158304052D01*
X86952081Y-158399290D01*
X86952081Y-158494529D01*
X86904462Y-158589767D01*
X86856843Y-158637386D01*
X86761605Y-158685005D01*
X86571129Y-158732624D01*
X86333033Y-158732624D01*
X86142557Y-158685005D01*
X86047319Y-158637386D01*
X85999700Y-158589767D01*
X85952081Y-158494529D01*
X100229943Y-168308257D02*
X100277562Y-168355876D01*
X100325181Y-168498733D01*
X100325181Y-168593971D01*
X100277562Y-168736829D01*
X100182324Y-168832067D01*
X100087086Y-168879686D01*
X99896610Y-168927305D01*
X99753752Y-168927305D01*
X99563276Y-168879686D01*
X99468038Y-168832067D01*
X99372800Y-168736829D01*
X99325181Y-168593971D01*
X99325181Y-168498733D01*
X99372800Y-168355876D01*
X99420419Y-168308257D01*
X100325181Y-167355876D02*
X100325181Y-167927305D01*
X100325181Y-167641591D02*
X99325181Y-167641591D01*
X99468038Y-167736829D01*
X99563276Y-167832067D01*
X99610895Y-167927305D01*
X99658514Y-166498733D02*
X100325181Y-166498733D01*
X99277562Y-166736829D02*
X99991848Y-166974924D01*
X99991848Y-166355876D01*
X101693743Y-169076643D02*
X101646124Y-169124262D01*
X101503267Y-169171881D01*
X101408029Y-169171881D01*
X101265171Y-169124262D01*
X101169933Y-169029024D01*
X101122314Y-168933786D01*
X101074695Y-168743310D01*
X101074695Y-168600452D01*
X101122314Y-168409976D01*
X101169933Y-168314738D01*
X101265171Y-168219500D01*
X101408029Y-168171881D01*
X101503267Y-168171881D01*
X101646124Y-168219500D01*
X101693743Y-168267119D01*
X102646124Y-169171881D02*
X102074695Y-169171881D01*
X102360409Y-169171881D02*
X102360409Y-168171881D01*
X102265171Y-168314738D01*
X102169933Y-168409976D01*
X102074695Y-168457595D01*
X103027076Y-168267119D02*
X103074695Y-168219500D01*
X103169933Y-168171881D01*
X103408029Y-168171881D01*
X103503267Y-168219500D01*
X103550886Y-168267119D01*
X103598505Y-168362357D01*
X103598505Y-168457595D01*
X103550886Y-168600452D01*
X102979457Y-169171881D01*
X103598505Y-169171881D01*
X75652334Y-153519143D02*
X75604715Y-153566762D01*
X75461858Y-153614381D01*
X75366620Y-153614381D01*
X75223762Y-153566762D01*
X75128524Y-153471524D01*
X75080905Y-153376286D01*
X75033286Y-153185810D01*
X75033286Y-153042952D01*
X75080905Y-152852476D01*
X75128524Y-152757238D01*
X75223762Y-152662000D01*
X75366620Y-152614381D01*
X75461858Y-152614381D01*
X75604715Y-152662000D01*
X75652334Y-152709619D01*
X76128524Y-153614381D02*
X76319000Y-153614381D01*
X76414239Y-153566762D01*
X76461858Y-153519143D01*
X76557096Y-153376286D01*
X76604715Y-153185810D01*
X76604715Y-152804857D01*
X76557096Y-152709619D01*
X76509477Y-152662000D01*
X76414239Y-152614381D01*
X76223762Y-152614381D01*
X76128524Y-152662000D01*
X76080905Y-152709619D01*
X76033286Y-152804857D01*
X76033286Y-153042952D01*
X76080905Y-153138190D01*
X76128524Y-153185810D01*
X76223762Y-153233429D01*
X76414239Y-153233429D01*
X76509477Y-153185810D01*
X76557096Y-153138190D01*
X76604715Y-153042952D01*
X67310143Y-139485666D02*
X67357762Y-139533285D01*
X67405381Y-139676142D01*
X67405381Y-139771380D01*
X67357762Y-139914238D01*
X67262524Y-140009476D01*
X67167286Y-140057095D01*
X66976810Y-140104714D01*
X66833952Y-140104714D01*
X66643476Y-140057095D01*
X66548238Y-140009476D01*
X66453000Y-139914238D01*
X66405381Y-139771380D01*
X66405381Y-139676142D01*
X66453000Y-139533285D01*
X66500619Y-139485666D01*
X66833952Y-138914238D02*
X66786333Y-139009476D01*
X66738714Y-139057095D01*
X66643476Y-139104714D01*
X66595857Y-139104714D01*
X66500619Y-139057095D01*
X66453000Y-139009476D01*
X66405381Y-138914238D01*
X66405381Y-138723761D01*
X66453000Y-138628523D01*
X66500619Y-138580904D01*
X66595857Y-138533285D01*
X66643476Y-138533285D01*
X66738714Y-138580904D01*
X66786333Y-138628523D01*
X66833952Y-138723761D01*
X66833952Y-138914238D01*
X66881571Y-139009476D01*
X66929190Y-139057095D01*
X67024429Y-139104714D01*
X67214905Y-139104714D01*
X67310143Y-139057095D01*
X67357762Y-139009476D01*
X67405381Y-138914238D01*
X67405381Y-138723761D01*
X67357762Y-138628523D01*
X67310143Y-138580904D01*
X67214905Y-138533285D01*
X67024429Y-138533285D01*
X66929190Y-138580904D01*
X66881571Y-138628523D01*
X66833952Y-138723761D01*
X75144334Y-131002043D02*
X75096715Y-131049662D01*
X74953858Y-131097281D01*
X74858620Y-131097281D01*
X74715762Y-131049662D01*
X74620524Y-130954424D01*
X74572905Y-130859186D01*
X74525286Y-130668710D01*
X74525286Y-130525852D01*
X74572905Y-130335376D01*
X74620524Y-130240138D01*
X74715762Y-130144900D01*
X74858620Y-130097281D01*
X74953858Y-130097281D01*
X75096715Y-130144900D01*
X75144334Y-130192519D01*
X76001477Y-130097281D02*
X75811000Y-130097281D01*
X75715762Y-130144900D01*
X75668143Y-130192519D01*
X75572905Y-130335376D01*
X75525286Y-130525852D01*
X75525286Y-130906805D01*
X75572905Y-131002043D01*
X75620524Y-131049662D01*
X75715762Y-131097281D01*
X75906239Y-131097281D01*
X76001477Y-131049662D01*
X76049096Y-131002043D01*
X76096715Y-130906805D01*
X76096715Y-130668710D01*
X76049096Y-130573471D01*
X76001477Y-130525852D01*
X75906239Y-130478233D01*
X75715762Y-130478233D01*
X75620524Y-130525852D01*
X75572905Y-130573471D01*
X75525286Y-130668710D01*
X89618888Y-150344689D02*
X89618888Y-150412032D01*
X89551544Y-150546719D01*
X89484201Y-150614063D01*
X89349513Y-150681407D01*
X89214826Y-150681407D01*
X89113811Y-150647735D01*
X88945453Y-150546720D01*
X88844437Y-150445704D01*
X88743422Y-150277345D01*
X88709750Y-150176330D01*
X88709750Y-150041643D01*
X88777094Y-149906956D01*
X88844437Y-149839612D01*
X88979124Y-149772269D01*
X89046468Y-149772269D01*
X89618888Y-149065162D02*
X89282170Y-149401880D01*
X89585215Y-149772269D01*
X89585215Y-149704926D01*
X89618887Y-149603910D01*
X89787246Y-149435551D01*
X89888261Y-149401879D01*
X89955605Y-149401879D01*
X90056621Y-149435552D01*
X90224979Y-149603910D01*
X90258651Y-149704926D01*
X90258651Y-149772269D01*
X90224979Y-149873284D01*
X90056620Y-150041643D01*
X89955605Y-150075315D01*
X89888261Y-150075315D01*
X127577862Y-133732519D02*
X127482624Y-133684900D01*
X127387386Y-133589662D01*
X127244529Y-133446805D01*
X127149290Y-133399186D01*
X127054052Y-133399186D01*
X127101671Y-133637281D02*
X127006433Y-133589662D01*
X126911195Y-133494424D01*
X126863576Y-133303948D01*
X126863576Y-132970614D01*
X126911195Y-132780138D01*
X127006433Y-132684900D01*
X127101671Y-132637281D01*
X127292148Y-132637281D01*
X127387386Y-132684900D01*
X127482624Y-132780138D01*
X127530243Y-132970614D01*
X127530243Y-133303948D01*
X127482624Y-133494424D01*
X127387386Y-133589662D01*
X127292148Y-133637281D01*
X127101671Y-133637281D01*
X128482624Y-133637281D02*
X127911195Y-133637281D01*
X128196909Y-133637281D02*
X128196909Y-132637281D01*
X128101671Y-132780138D01*
X128006433Y-132875376D01*
X127911195Y-132922995D01*
X117733843Y-138945881D02*
X117400509Y-138469690D01*
X117162414Y-138945881D02*
X117162414Y-137945881D01*
X117543367Y-137945881D01*
X117638605Y-137993500D01*
X117686224Y-138041119D01*
X117733843Y-138136357D01*
X117733843Y-138279214D01*
X117686224Y-138374452D01*
X117638605Y-138422071D01*
X117543367Y-138469690D01*
X117162414Y-138469690D01*
X118686224Y-138945881D02*
X118114795Y-138945881D01*
X118400509Y-138945881D02*
X118400509Y-137945881D01*
X118305271Y-138088738D01*
X118210033Y-138183976D01*
X118114795Y-138231595D01*
X119019557Y-137945881D02*
X119638605Y-137945881D01*
X119305271Y-138326833D01*
X119448129Y-138326833D01*
X119543367Y-138374452D01*
X119590986Y-138422071D01*
X119638605Y-138517310D01*
X119638605Y-138755405D01*
X119590986Y-138850643D01*
X119543367Y-138898262D01*
X119448129Y-138945881D01*
X119162414Y-138945881D01*
X119067176Y-138898262D01*
X119019557Y-138850643D01*
X103809895Y-165047681D02*
X103809895Y-165857205D01*
X103857514Y-165952443D01*
X103905133Y-166000062D01*
X104000371Y-166047681D01*
X104190848Y-166047681D01*
X104286086Y-166000062D01*
X104333705Y-165952443D01*
X104381324Y-165857205D01*
X104381324Y-165047681D01*
X104762276Y-165047681D02*
X105381324Y-165047681D01*
X105047990Y-165428633D01*
X105190848Y-165428633D01*
X105286086Y-165476252D01*
X105333705Y-165523871D01*
X105381324Y-165619110D01*
X105381324Y-165857205D01*
X105333705Y-165952443D01*
X105286086Y-166000062D01*
X105190848Y-166047681D01*
X104905133Y-166047681D01*
X104809895Y-166000062D01*
X104762276Y-165952443D01*
X128023881Y-147384995D02*
X127023881Y-147384995D01*
X127023881Y-147146900D01*
X127071500Y-147004042D01*
X127166738Y-146908804D01*
X127261976Y-146861185D01*
X127452452Y-146813566D01*
X127595310Y-146813566D01*
X127785786Y-146861185D01*
X127881024Y-146908804D01*
X127976262Y-147004042D01*
X128023881Y-147146900D01*
X128023881Y-147384995D01*
X127023881Y-145908804D02*
X127023881Y-146384995D01*
X127500071Y-146432614D01*
X127452452Y-146384995D01*
X127404833Y-146289757D01*
X127404833Y-146051661D01*
X127452452Y-145956423D01*
X127500071Y-145908804D01*
X127595310Y-145861185D01*
X127833405Y-145861185D01*
X127928643Y-145908804D01*
X127976262Y-145956423D01*
X128023881Y-146051661D01*
X128023881Y-146289757D01*
X127976262Y-146384995D01*
X127928643Y-146432614D01*
X116277381Y-168663857D02*
X115801190Y-168997191D01*
X116277381Y-169235286D02*
X115277381Y-169235286D01*
X115277381Y-168854333D01*
X115325000Y-168759095D01*
X115372619Y-168711476D01*
X115467857Y-168663857D01*
X115610714Y-168663857D01*
X115705952Y-168711476D01*
X115753571Y-168759095D01*
X115801190Y-168854333D01*
X115801190Y-169235286D01*
X116277381Y-167711476D02*
X116277381Y-168282905D01*
X116277381Y-167997191D02*
X115277381Y-167997191D01*
X115420238Y-168092429D01*
X115515476Y-168187667D01*
X115563095Y-168282905D01*
X116277381Y-166759095D02*
X116277381Y-167330524D01*
X116277381Y-167044810D02*
X115277381Y-167044810D01*
X115420238Y-167140048D01*
X115515476Y-167235286D01*
X115563095Y-167330524D01*
X126233181Y-139777766D02*
X125756990Y-140111100D01*
X126233181Y-140349195D02*
X125233181Y-140349195D01*
X125233181Y-139968242D01*
X125280800Y-139873004D01*
X125328419Y-139825385D01*
X125423657Y-139777766D01*
X125566514Y-139777766D01*
X125661752Y-139825385D01*
X125709371Y-139873004D01*
X125756990Y-139968242D01*
X125756990Y-140349195D01*
X125233181Y-139444433D02*
X125233181Y-138777766D01*
X126233181Y-139206338D01*
X115646295Y-112444281D02*
X115646295Y-113253805D01*
X115693914Y-113349043D01*
X115741533Y-113396662D01*
X115836771Y-113444281D01*
X116027248Y-113444281D01*
X116122486Y-113396662D01*
X116170105Y-113349043D01*
X116217724Y-113253805D01*
X116217724Y-112444281D01*
X116741533Y-113444281D02*
X116932009Y-113444281D01*
X117027248Y-113396662D01*
X117074867Y-113349043D01*
X117170105Y-113206186D01*
X117217724Y-113015710D01*
X117217724Y-112634757D01*
X117170105Y-112539519D01*
X117122486Y-112491900D01*
X117027248Y-112444281D01*
X116836771Y-112444281D01*
X116741533Y-112491900D01*
X116693914Y-112539519D01*
X116646295Y-112634757D01*
X116646295Y-112872852D01*
X116693914Y-112968090D01*
X116741533Y-113015710D01*
X116836771Y-113063329D01*
X117027248Y-113063329D01*
X117122486Y-113015710D01*
X117170105Y-112968090D01*
X117217724Y-112872852D01*
X90027918Y-138889247D02*
X89691200Y-139225965D01*
X90162605Y-138283156D02*
X90027918Y-138889247D01*
X90634010Y-138754561D01*
X90532995Y-140067759D02*
X90128933Y-139663698D01*
X90330964Y-139865728D02*
X91038071Y-139158621D01*
X90869712Y-139192293D01*
X90735025Y-139192293D01*
X90634010Y-139158621D01*
X97064381Y-173264095D02*
X97873905Y-173264095D01*
X97969143Y-173216476D01*
X98016762Y-173168857D01*
X98064381Y-173073619D01*
X98064381Y-172883142D01*
X98016762Y-172787904D01*
X97969143Y-172740285D01*
X97873905Y-172692666D01*
X97064381Y-172692666D01*
X98064381Y-171692666D02*
X98064381Y-172264095D01*
X98064381Y-171978381D02*
X97064381Y-171978381D01*
X97207238Y-172073619D01*
X97302476Y-172168857D01*
X97350095Y-172264095D01*
X98064381Y-170740285D02*
X98064381Y-171311714D01*
X98064381Y-171026000D02*
X97064381Y-171026000D01*
X97207238Y-171121238D01*
X97302476Y-171216476D01*
X97350095Y-171311714D01*
X96634395Y-165212781D02*
X96634395Y-166022305D01*
X96682014Y-166117543D01*
X96729633Y-166165162D01*
X96824871Y-166212781D01*
X97015348Y-166212781D01*
X97110586Y-166165162D01*
X97158205Y-166117543D01*
X97205824Y-166022305D01*
X97205824Y-165212781D01*
X97586776Y-165212781D02*
X98253443Y-165212781D01*
X97824871Y-166212781D01*
X72009095Y-129698381D02*
X72009095Y-130507905D01*
X72056714Y-130603143D01*
X72104333Y-130650762D01*
X72199571Y-130698381D01*
X72390048Y-130698381D01*
X72485286Y-130650762D01*
X72532905Y-130603143D01*
X72580524Y-130507905D01*
X72580524Y-129698381D01*
X73485286Y-129698381D02*
X73294809Y-129698381D01*
X73199571Y-129746000D01*
X73151952Y-129793619D01*
X73056714Y-129936476D01*
X73009095Y-130126952D01*
X73009095Y-130507905D01*
X73056714Y-130603143D01*
X73104333Y-130650762D01*
X73199571Y-130698381D01*
X73390048Y-130698381D01*
X73485286Y-130650762D01*
X73532905Y-130603143D01*
X73580524Y-130507905D01*
X73580524Y-130269810D01*
X73532905Y-130174571D01*
X73485286Y-130126952D01*
X73390048Y-130079333D01*
X73199571Y-130079333D01*
X73104333Y-130126952D01*
X73056714Y-130174571D01*
X73009095Y-130269810D01*
X113398395Y-129640081D02*
X113398395Y-130449605D01*
X113446014Y-130544843D01*
X113493633Y-130592462D01*
X113588871Y-130640081D01*
X113779348Y-130640081D01*
X113874586Y-130592462D01*
X113922205Y-130544843D01*
X113969824Y-130449605D01*
X113969824Y-129640081D01*
X114969824Y-130640081D02*
X114398395Y-130640081D01*
X114684109Y-130640081D02*
X114684109Y-129640081D01*
X114588871Y-129782938D01*
X114493633Y-129878176D01*
X114398395Y-129925795D01*
X100076167Y-129728862D02*
X100219024Y-129776481D01*
X100457120Y-129776481D01*
X100552358Y-129728862D01*
X100599977Y-129681243D01*
X100647596Y-129586005D01*
X100647596Y-129490767D01*
X100599977Y-129395529D01*
X100552358Y-129347910D01*
X100457120Y-129300290D01*
X100266643Y-129252671D01*
X100171405Y-129205052D01*
X100123786Y-129157433D01*
X100076167Y-129062195D01*
X100076167Y-128966957D01*
X100123786Y-128871719D01*
X100171405Y-128824100D01*
X100266643Y-128776481D01*
X100504739Y-128776481D01*
X100647596Y-128824100D01*
X100980929Y-128776481D02*
X101219024Y-129776481D01*
X101409501Y-129062195D01*
X101599977Y-129776481D01*
X101838072Y-128776481D01*
X102742834Y-129776481D02*
X102171405Y-129776481D01*
X102457119Y-129776481D02*
X102457119Y-128776481D01*
X102361881Y-128919338D01*
X102266643Y-129014576D01*
X102171405Y-129062195D01*
X66760866Y-124844933D02*
X66860866Y-124878267D01*
X67027533Y-124878267D01*
X67094200Y-124844933D01*
X67127533Y-124811600D01*
X67160866Y-124744933D01*
X67160866Y-124678267D01*
X67127533Y-124611600D01*
X67094200Y-124578267D01*
X67027533Y-124544933D01*
X66894200Y-124511600D01*
X66827533Y-124478267D01*
X66794200Y-124444933D01*
X66760866Y-124378267D01*
X66760866Y-124311600D01*
X66794200Y-124244933D01*
X66827533Y-124211600D01*
X66894200Y-124178267D01*
X67060866Y-124178267D01*
X67160866Y-124211600D01*
X67660867Y-124178267D02*
X67660867Y-124678267D01*
X67627533Y-124778267D01*
X67560867Y-124844933D01*
X67460867Y-124878267D01*
X67394200Y-124878267D01*
X68360866Y-124878267D02*
X67960866Y-124878267D01*
X68160866Y-124878267D02*
X68160866Y-124178267D01*
X68094200Y-124278267D01*
X68027533Y-124344933D01*
X67960866Y-124378267D01*
X68960867Y-124178267D02*
X68827533Y-124178267D01*
X68760867Y-124211600D01*
X68727533Y-124244933D01*
X68660867Y-124344933D01*
X68627533Y-124478267D01*
X68627533Y-124744933D01*
X68660867Y-124811600D01*
X68694200Y-124844933D01*
X68760867Y-124878267D01*
X68894200Y-124878267D01*
X68960867Y-124844933D01*
X68994200Y-124811600D01*
X69027533Y-124744933D01*
X69027533Y-124578267D01*
X68994200Y-124511600D01*
X68960867Y-124478267D01*
X68894200Y-124444933D01*
X68760867Y-124444933D01*
X68694200Y-124478267D01*
X68660867Y-124511600D01*
X68627533Y-124578267D01*
X92797334Y-129128781D02*
X92464000Y-128652590D01*
X92225905Y-129128781D02*
X92225905Y-128128781D01*
X92606858Y-128128781D01*
X92702096Y-128176400D01*
X92749715Y-128224019D01*
X92797334Y-128319257D01*
X92797334Y-128462114D01*
X92749715Y-128557352D01*
X92702096Y-128604971D01*
X92606858Y-128652590D01*
X92225905Y-128652590D01*
X93654477Y-128128781D02*
X93464000Y-128128781D01*
X93368762Y-128176400D01*
X93321143Y-128224019D01*
X93225905Y-128366876D01*
X93178286Y-128557352D01*
X93178286Y-128938305D01*
X93225905Y-129033543D01*
X93273524Y-129081162D01*
X93368762Y-129128781D01*
X93559239Y-129128781D01*
X93654477Y-129081162D01*
X93702096Y-129033543D01*
X93749715Y-128938305D01*
X93749715Y-128700210D01*
X93702096Y-128604971D01*
X93654477Y-128557352D01*
X93559239Y-128509733D01*
X93368762Y-128509733D01*
X93273524Y-128557352D01*
X93225905Y-128604971D01*
X93178286Y-128700210D01*
X86460034Y-123528081D02*
X86126700Y-123051890D01*
X85888605Y-123528081D02*
X85888605Y-122528081D01*
X86269558Y-122528081D01*
X86364796Y-122575700D01*
X86412415Y-122623319D01*
X86460034Y-122718557D01*
X86460034Y-122861414D01*
X86412415Y-122956652D01*
X86364796Y-123004271D01*
X86269558Y-123051890D01*
X85888605Y-123051890D01*
X87364796Y-122528081D02*
X86888605Y-122528081D01*
X86840986Y-123004271D01*
X86888605Y-122956652D01*
X86983843Y-122909033D01*
X87221939Y-122909033D01*
X87317177Y-122956652D01*
X87364796Y-123004271D01*
X87412415Y-123099510D01*
X87412415Y-123337605D01*
X87364796Y-123432843D01*
X87317177Y-123480462D01*
X87221939Y-123528081D01*
X86983843Y-123528081D01*
X86888605Y-123480462D01*
X86840986Y-123432843D01*
X93759281Y-123851966D02*
X93283090Y-124185300D01*
X93759281Y-124423395D02*
X92759281Y-124423395D01*
X92759281Y-124042442D01*
X92806900Y-123947204D01*
X92854519Y-123899585D01*
X92949757Y-123851966D01*
X93092614Y-123851966D01*
X93187852Y-123899585D01*
X93235471Y-123947204D01*
X93283090Y-124042442D01*
X93283090Y-124423395D01*
X93092614Y-122994823D02*
X93759281Y-122994823D01*
X92711662Y-123232919D02*
X93425948Y-123471014D01*
X93425948Y-122851966D01*
X109485134Y-125090181D02*
X109151800Y-124613990D01*
X108913705Y-125090181D02*
X108913705Y-124090181D01*
X109294658Y-124090181D01*
X109389896Y-124137800D01*
X109437515Y-124185419D01*
X109485134Y-124280657D01*
X109485134Y-124423514D01*
X109437515Y-124518752D01*
X109389896Y-124566371D01*
X109294658Y-124613990D01*
X108913705Y-124613990D01*
X109818467Y-124090181D02*
X110437515Y-124090181D01*
X110104181Y-124471133D01*
X110247039Y-124471133D01*
X110342277Y-124518752D01*
X110389896Y-124566371D01*
X110437515Y-124661610D01*
X110437515Y-124899705D01*
X110389896Y-124994943D01*
X110342277Y-125042562D01*
X110247039Y-125090181D01*
X109961324Y-125090181D01*
X109866086Y-125042562D01*
X109818467Y-124994943D01*
X67981534Y-133091181D02*
X67648200Y-132614990D01*
X67410105Y-133091181D02*
X67410105Y-132091181D01*
X67791058Y-132091181D01*
X67886296Y-132138800D01*
X67933915Y-132186419D01*
X67981534Y-132281657D01*
X67981534Y-132424514D01*
X67933915Y-132519752D01*
X67886296Y-132567371D01*
X67791058Y-132614990D01*
X67410105Y-132614990D01*
X68362486Y-132186419D02*
X68410105Y-132138800D01*
X68505343Y-132091181D01*
X68743439Y-132091181D01*
X68838677Y-132138800D01*
X68886296Y-132186419D01*
X68933915Y-132281657D01*
X68933915Y-132376895D01*
X68886296Y-132519752D01*
X68314867Y-133091181D01*
X68933915Y-133091181D01*
X87171234Y-163990281D02*
X86837900Y-163514090D01*
X86599805Y-163990281D02*
X86599805Y-162990281D01*
X86980758Y-162990281D01*
X87075996Y-163037900D01*
X87123615Y-163085519D01*
X87171234Y-163180757D01*
X87171234Y-163323614D01*
X87123615Y-163418852D01*
X87075996Y-163466471D01*
X86980758Y-163514090D01*
X86599805Y-163514090D01*
X88123615Y-163990281D02*
X87552186Y-163990281D01*
X87837900Y-163990281D02*
X87837900Y-162990281D01*
X87742662Y-163133138D01*
X87647424Y-163228376D01*
X87552186Y-163275995D01*
X120419905Y-174315381D02*
X120419905Y-173315381D01*
X120800858Y-173315381D01*
X120896096Y-173363000D01*
X120943715Y-173410619D01*
X120991334Y-173505857D01*
X120991334Y-173648714D01*
X120943715Y-173743952D01*
X120896096Y-173791571D01*
X120800858Y-173839190D01*
X120419905Y-173839190D01*
X121943715Y-174315381D02*
X121372286Y-174315381D01*
X121658000Y-174315381D02*
X121658000Y-173315381D01*
X121562762Y-173458238D01*
X121467524Y-173553476D01*
X121372286Y-173601095D01*
X88415834Y-167533581D02*
X87939643Y-167533581D01*
X87939643Y-166533581D01*
X89225358Y-166533581D02*
X88749167Y-166533581D01*
X88701548Y-167009771D01*
X88749167Y-166962152D01*
X88844405Y-166914533D01*
X89082501Y-166914533D01*
X89177739Y-166962152D01*
X89225358Y-167009771D01*
X89272977Y-167105010D01*
X89272977Y-167343105D01*
X89225358Y-167438343D01*
X89177739Y-167485962D01*
X89082501Y-167533581D01*
X88844405Y-167533581D01*
X88749167Y-167485962D01*
X88701548Y-167438343D01*
X88453934Y-169159181D02*
X87977743Y-169159181D01*
X87977743Y-168159181D01*
X89215839Y-168492514D02*
X89215839Y-169159181D01*
X88977743Y-168111562D02*
X88739648Y-168825848D01*
X89358696Y-168825848D01*
X87891881Y-151588766D02*
X87891881Y-152064957D01*
X86891881Y-152064957D01*
X86891881Y-151350671D02*
X86891881Y-150731623D01*
X87272833Y-151064957D01*
X87272833Y-150922099D01*
X87320452Y-150826861D01*
X87368071Y-150779242D01*
X87463310Y-150731623D01*
X87701405Y-150731623D01*
X87796643Y-150779242D01*
X87844262Y-150826861D01*
X87891881Y-150922099D01*
X87891881Y-151207814D01*
X87844262Y-151303052D01*
X87796643Y-151350671D01*
X90711281Y-151588766D02*
X90711281Y-152064957D01*
X89711281Y-152064957D01*
X89806519Y-151303052D02*
X89758900Y-151255433D01*
X89711281Y-151160195D01*
X89711281Y-150922099D01*
X89758900Y-150826861D01*
X89806519Y-150779242D01*
X89901757Y-150731623D01*
X89996995Y-150731623D01*
X90139852Y-150779242D01*
X90711281Y-151350671D01*
X90711281Y-150731623D01*
X127282677Y-109980481D02*
X127282677Y-110694767D01*
X127235057Y-110837624D01*
X127139819Y-110932862D01*
X126996962Y-110980481D01*
X126901724Y-110980481D01*
X128282677Y-110980481D02*
X127711248Y-110980481D01*
X127996962Y-110980481D02*
X127996962Y-109980481D01*
X127901724Y-110123338D01*
X127806486Y-110218576D01*
X127711248Y-110266195D01*
X128616010Y-109980481D02*
X129235058Y-109980481D01*
X128901724Y-110361433D01*
X129044582Y-110361433D01*
X129139820Y-110409052D01*
X129187439Y-110456671D01*
X129235058Y-110551910D01*
X129235058Y-110790005D01*
X129187439Y-110885243D01*
X129139820Y-110932862D01*
X129044582Y-110980481D01*
X128758867Y-110980481D01*
X128663629Y-110932862D01*
X128616010Y-110885243D01*
X67611667Y-146474381D02*
X67611667Y-147188667D01*
X67564047Y-147331524D01*
X67468809Y-147426762D01*
X67325952Y-147474381D01*
X67230714Y-147474381D01*
X67992619Y-146474381D02*
X68659286Y-146474381D01*
X68230714Y-147474381D01*
X110893267Y-136066281D02*
X110893267Y-136780567D01*
X110845647Y-136923424D01*
X110750409Y-137018662D01*
X110607552Y-137066281D01*
X110512314Y-137066281D01*
X111798029Y-136399614D02*
X111798029Y-137066281D01*
X111559933Y-136018662D02*
X111321838Y-136732948D01*
X111940886Y-136732948D01*
X117040067Y-136104381D02*
X117040067Y-136818667D01*
X116992447Y-136961524D01*
X116897209Y-137056762D01*
X116754352Y-137104381D01*
X116659114Y-137104381D01*
X117421019Y-136104381D02*
X118040067Y-136104381D01*
X117706733Y-136485333D01*
X117849591Y-136485333D01*
X117944829Y-136532952D01*
X117992448Y-136580571D01*
X118040067Y-136675810D01*
X118040067Y-136913905D01*
X117992448Y-137009143D01*
X117944829Y-137056762D01*
X117849591Y-137104381D01*
X117563876Y-137104381D01*
X117468638Y-137056762D01*
X117421019Y-137009143D01*
X128012381Y-167973333D02*
X128726667Y-167973333D01*
X128869524Y-168020953D01*
X128964762Y-168116191D01*
X129012381Y-168259048D01*
X129012381Y-168354286D01*
X128107619Y-167544762D02*
X128060000Y-167497143D01*
X128012381Y-167401905D01*
X128012381Y-167163809D01*
X128060000Y-167068571D01*
X128107619Y-167020952D01*
X128202857Y-166973333D01*
X128298095Y-166973333D01*
X128440952Y-167020952D01*
X129012381Y-167592381D01*
X129012381Y-166973333D01*
X128012381Y-170513333D02*
X128726667Y-170513333D01*
X128869524Y-170560953D01*
X128964762Y-170656191D01*
X129012381Y-170799048D01*
X129012381Y-170894286D01*
X129012381Y-169513333D02*
X129012381Y-170084762D01*
X129012381Y-169799048D02*
X128012381Y-169799048D01*
X128155238Y-169894286D01*
X128250476Y-169989524D01*
X128298095Y-170084762D01*
X104811605Y-121254781D02*
X104811605Y-120254781D01*
X105049700Y-120254781D01*
X105192558Y-120302400D01*
X105287796Y-120397638D01*
X105335415Y-120492876D01*
X105383034Y-120683352D01*
X105383034Y-120826210D01*
X105335415Y-121016686D01*
X105287796Y-121111924D01*
X105192558Y-121207162D01*
X105049700Y-121254781D01*
X104811605Y-121254781D01*
X106240177Y-120588114D02*
X106240177Y-121254781D01*
X106002081Y-120207162D02*
X105763986Y-120921448D01*
X106383034Y-120921448D01*
X82713605Y-163952181D02*
X82713605Y-162952181D01*
X82951700Y-162952181D01*
X83094558Y-162999800D01*
X83189796Y-163095038D01*
X83237415Y-163190276D01*
X83285034Y-163380752D01*
X83285034Y-163523610D01*
X83237415Y-163714086D01*
X83189796Y-163809324D01*
X83094558Y-163904562D01*
X82951700Y-163952181D01*
X82713605Y-163952181D01*
X83665986Y-163047419D02*
X83713605Y-162999800D01*
X83808843Y-162952181D01*
X84046939Y-162952181D01*
X84142177Y-162999800D01*
X84189796Y-163047419D01*
X84237415Y-163142657D01*
X84237415Y-163237895D01*
X84189796Y-163380752D01*
X83618367Y-163952181D01*
X84237415Y-163952181D01*
X126579405Y-129776481D02*
X126579405Y-128776481D01*
X126817500Y-128776481D01*
X126960358Y-128824100D01*
X127055596Y-128919338D01*
X127103215Y-129014576D01*
X127150834Y-129205052D01*
X127150834Y-129347910D01*
X127103215Y-129538386D01*
X127055596Y-129633624D01*
X126960358Y-129728862D01*
X126817500Y-129776481D01*
X126579405Y-129776481D01*
X128103215Y-129776481D02*
X127531786Y-129776481D01*
X127817500Y-129776481D02*
X127817500Y-128776481D01*
X127722262Y-128919338D01*
X127627024Y-129014576D01*
X127531786Y-129062195D01*
X96089743Y-167711357D02*
X96137362Y-167758976D01*
X96184981Y-167901833D01*
X96184981Y-167997071D01*
X96137362Y-168139929D01*
X96042124Y-168235167D01*
X95946886Y-168282786D01*
X95756410Y-168330405D01*
X95613552Y-168330405D01*
X95423076Y-168282786D01*
X95327838Y-168235167D01*
X95232600Y-168139929D01*
X95184981Y-167997071D01*
X95184981Y-167901833D01*
X95232600Y-167758976D01*
X95280219Y-167711357D01*
X95280219Y-167330405D02*
X95232600Y-167282786D01*
X95184981Y-167187548D01*
X95184981Y-166949452D01*
X95232600Y-166854214D01*
X95280219Y-166806595D01*
X95375457Y-166758976D01*
X95470695Y-166758976D01*
X95613552Y-166806595D01*
X96184981Y-167378024D01*
X96184981Y-166758976D01*
X95184981Y-166425643D02*
X95184981Y-165758976D01*
X96184981Y-166187548D01*
X115549443Y-119343443D02*
X115501824Y-119391062D01*
X115358967Y-119438681D01*
X115263729Y-119438681D01*
X115120871Y-119391062D01*
X115025633Y-119295824D01*
X114978014Y-119200586D01*
X114930395Y-119010110D01*
X114930395Y-118867252D01*
X114978014Y-118676776D01*
X115025633Y-118581538D01*
X115120871Y-118486300D01*
X115263729Y-118438681D01*
X115358967Y-118438681D01*
X115501824Y-118486300D01*
X115549443Y-118533919D01*
X115930395Y-118533919D02*
X115978014Y-118486300D01*
X116073252Y-118438681D01*
X116311348Y-118438681D01*
X116406586Y-118486300D01*
X116454205Y-118533919D01*
X116501824Y-118629157D01*
X116501824Y-118724395D01*
X116454205Y-118867252D01*
X115882776Y-119438681D01*
X116501824Y-119438681D01*
X117358967Y-118438681D02*
X117168490Y-118438681D01*
X117073252Y-118486300D01*
X117025633Y-118533919D01*
X116930395Y-118676776D01*
X116882776Y-118867252D01*
X116882776Y-119248205D01*
X116930395Y-119343443D01*
X116978014Y-119391062D01*
X117073252Y-119438681D01*
X117263729Y-119438681D01*
X117358967Y-119391062D01*
X117406586Y-119343443D01*
X117454205Y-119248205D01*
X117454205Y-119010110D01*
X117406586Y-118914871D01*
X117358967Y-118867252D01*
X117263729Y-118819633D01*
X117073252Y-118819633D01*
X116978014Y-118867252D01*
X116930395Y-118914871D01*
X116882776Y-119010110D01*
X112476043Y-123534443D02*
X112428424Y-123582062D01*
X112285567Y-123629681D01*
X112190329Y-123629681D01*
X112047471Y-123582062D01*
X111952233Y-123486824D01*
X111904614Y-123391586D01*
X111856995Y-123201110D01*
X111856995Y-123058252D01*
X111904614Y-122867776D01*
X111952233Y-122772538D01*
X112047471Y-122677300D01*
X112190329Y-122629681D01*
X112285567Y-122629681D01*
X112428424Y-122677300D01*
X112476043Y-122724919D01*
X112856995Y-122724919D02*
X112904614Y-122677300D01*
X112999852Y-122629681D01*
X113237948Y-122629681D01*
X113333186Y-122677300D01*
X113380805Y-122724919D01*
X113428424Y-122820157D01*
X113428424Y-122915395D01*
X113380805Y-123058252D01*
X112809376Y-123629681D01*
X113428424Y-123629681D01*
X114333186Y-122629681D02*
X113856995Y-122629681D01*
X113809376Y-123105871D01*
X113856995Y-123058252D01*
X113952233Y-123010633D01*
X114190329Y-123010633D01*
X114285567Y-123058252D01*
X114333186Y-123105871D01*
X114380805Y-123201110D01*
X114380805Y-123439205D01*
X114333186Y-123534443D01*
X114285567Y-123582062D01*
X114190329Y-123629681D01*
X113952233Y-123629681D01*
X113856995Y-123582062D01*
X113809376Y-123534443D01*
X98175843Y-119013243D02*
X98128224Y-119060862D01*
X97985367Y-119108481D01*
X97890129Y-119108481D01*
X97747271Y-119060862D01*
X97652033Y-118965624D01*
X97604414Y-118870386D01*
X97556795Y-118679910D01*
X97556795Y-118537052D01*
X97604414Y-118346576D01*
X97652033Y-118251338D01*
X97747271Y-118156100D01*
X97890129Y-118108481D01*
X97985367Y-118108481D01*
X98128224Y-118156100D01*
X98175843Y-118203719D01*
X98556795Y-118203719D02*
X98604414Y-118156100D01*
X98699652Y-118108481D01*
X98937748Y-118108481D01*
X99032986Y-118156100D01*
X99080605Y-118203719D01*
X99128224Y-118298957D01*
X99128224Y-118394195D01*
X99080605Y-118537052D01*
X98509176Y-119108481D01*
X99128224Y-119108481D01*
X99985367Y-118441814D02*
X99985367Y-119108481D01*
X99747271Y-118060862D02*
X99509176Y-118775148D01*
X100128224Y-118775148D01*
X98150443Y-121642143D02*
X98102824Y-121689762D01*
X97959967Y-121737381D01*
X97864729Y-121737381D01*
X97721871Y-121689762D01*
X97626633Y-121594524D01*
X97579014Y-121499286D01*
X97531395Y-121308810D01*
X97531395Y-121165952D01*
X97579014Y-120975476D01*
X97626633Y-120880238D01*
X97721871Y-120785000D01*
X97864729Y-120737381D01*
X97959967Y-120737381D01*
X98102824Y-120785000D01*
X98150443Y-120832619D01*
X98531395Y-120832619D02*
X98579014Y-120785000D01*
X98674252Y-120737381D01*
X98912348Y-120737381D01*
X99007586Y-120785000D01*
X99055205Y-120832619D01*
X99102824Y-120927857D01*
X99102824Y-121023095D01*
X99055205Y-121165952D01*
X98483776Y-121737381D01*
X99102824Y-121737381D01*
X99436157Y-120737381D02*
X100055205Y-120737381D01*
X99721871Y-121118333D01*
X99864729Y-121118333D01*
X99959967Y-121165952D01*
X100007586Y-121213571D01*
X100055205Y-121308810D01*
X100055205Y-121546905D01*
X100007586Y-121642143D01*
X99959967Y-121689762D01*
X99864729Y-121737381D01*
X99579014Y-121737381D01*
X99483776Y-121689762D01*
X99436157Y-121642143D01*
X85955143Y-128277857D02*
X86002762Y-128325476D01*
X86050381Y-128468333D01*
X86050381Y-128563571D01*
X86002762Y-128706429D01*
X85907524Y-128801667D01*
X85812286Y-128849286D01*
X85621810Y-128896905D01*
X85478952Y-128896905D01*
X85288476Y-128849286D01*
X85193238Y-128801667D01*
X85098000Y-128706429D01*
X85050381Y-128563571D01*
X85050381Y-128468333D01*
X85098000Y-128325476D01*
X85145619Y-128277857D01*
X85145619Y-127896905D02*
X85098000Y-127849286D01*
X85050381Y-127754048D01*
X85050381Y-127515952D01*
X85098000Y-127420714D01*
X85145619Y-127373095D01*
X85240857Y-127325476D01*
X85336095Y-127325476D01*
X85478952Y-127373095D01*
X86050381Y-127944524D01*
X86050381Y-127325476D01*
X86050381Y-126373095D02*
X86050381Y-126944524D01*
X86050381Y-126658810D02*
X85050381Y-126658810D01*
X85193238Y-126754048D01*
X85288476Y-126849286D01*
X85336095Y-126944524D01*
X109793043Y-128912857D02*
X109840662Y-128960476D01*
X109888281Y-129103333D01*
X109888281Y-129198571D01*
X109840662Y-129341429D01*
X109745424Y-129436667D01*
X109650186Y-129484286D01*
X109459710Y-129531905D01*
X109316852Y-129531905D01*
X109126376Y-129484286D01*
X109031138Y-129436667D01*
X108935900Y-129341429D01*
X108888281Y-129198571D01*
X108888281Y-129103333D01*
X108935900Y-128960476D01*
X108983519Y-128912857D01*
X109888281Y-127960476D02*
X109888281Y-128531905D01*
X109888281Y-128246191D02*
X108888281Y-128246191D01*
X109031138Y-128341429D01*
X109126376Y-128436667D01*
X109173995Y-128531905D01*
X109888281Y-127484286D02*
X109888281Y-127293810D01*
X109840662Y-127198571D01*
X109793043Y-127150952D01*
X109650186Y-127055714D01*
X109459710Y-127008095D01*
X109078757Y-127008095D01*
X108983519Y-127055714D01*
X108935900Y-127103333D01*
X108888281Y-127198571D01*
X108888281Y-127389048D01*
X108935900Y-127484286D01*
X108983519Y-127531905D01*
X109078757Y-127579524D01*
X109316852Y-127579524D01*
X109412090Y-127531905D01*
X109459710Y-127484286D01*
X109507329Y-127389048D01*
X109507329Y-127198571D01*
X109459710Y-127103333D01*
X109412090Y-127055714D01*
X109316852Y-127008095D01*
X110359048Y-131121429D02*
X111120953Y-131121429D01*
X110740001Y-131502381D02*
X110740001Y-130740476D01*
X85183743Y-156313143D02*
X85136124Y-156360762D01*
X84993267Y-156408381D01*
X84898029Y-156408381D01*
X84755171Y-156360762D01*
X84659933Y-156265524D01*
X84612314Y-156170286D01*
X84564695Y-155979810D01*
X84564695Y-155836952D01*
X84612314Y-155646476D01*
X84659933Y-155551238D01*
X84755171Y-155456000D01*
X84898029Y-155408381D01*
X84993267Y-155408381D01*
X85136124Y-155456000D01*
X85183743Y-155503619D01*
X86136124Y-156408381D02*
X85564695Y-156408381D01*
X85850409Y-156408381D02*
X85850409Y-155408381D01*
X85755171Y-155551238D01*
X85659933Y-155646476D01*
X85564695Y-155694095D01*
X86707552Y-155836952D02*
X86612314Y-155789333D01*
X86564695Y-155741714D01*
X86517076Y-155646476D01*
X86517076Y-155598857D01*
X86564695Y-155503619D01*
X86612314Y-155456000D01*
X86707552Y-155408381D01*
X86898029Y-155408381D01*
X86993267Y-155456000D01*
X87040886Y-155503619D01*
X87088505Y-155598857D01*
X87088505Y-155646476D01*
X87040886Y-155741714D01*
X86993267Y-155789333D01*
X86898029Y-155836952D01*
X86707552Y-155836952D01*
X86612314Y-155884571D01*
X86564695Y-155932190D01*
X86517076Y-156027429D01*
X86517076Y-156217905D01*
X86564695Y-156313143D01*
X86612314Y-156360762D01*
X86707552Y-156408381D01*
X86898029Y-156408381D01*
X86993267Y-156360762D01*
X87040886Y-156313143D01*
X87088505Y-156217905D01*
X87088505Y-156027429D01*
X87040886Y-155932190D01*
X86993267Y-155884571D01*
X86898029Y-155836952D01*
X96397843Y-154598643D02*
X96350224Y-154646262D01*
X96207367Y-154693881D01*
X96112129Y-154693881D01*
X95969271Y-154646262D01*
X95874033Y-154551024D01*
X95826414Y-154455786D01*
X95778795Y-154265310D01*
X95778795Y-154122452D01*
X95826414Y-153931976D01*
X95874033Y-153836738D01*
X95969271Y-153741500D01*
X96112129Y-153693881D01*
X96207367Y-153693881D01*
X96350224Y-153741500D01*
X96397843Y-153789119D01*
X97350224Y-154693881D02*
X96778795Y-154693881D01*
X97064509Y-154693881D02*
X97064509Y-153693881D01*
X96969271Y-153836738D01*
X96874033Y-153931976D01*
X96778795Y-153979595D01*
X97683557Y-153693881D02*
X98350224Y-153693881D01*
X97921652Y-154693881D01*
X121975643Y-125998243D02*
X121928024Y-126045862D01*
X121785167Y-126093481D01*
X121689929Y-126093481D01*
X121547071Y-126045862D01*
X121451833Y-125950624D01*
X121404214Y-125855386D01*
X121356595Y-125664910D01*
X121356595Y-125522052D01*
X121404214Y-125331576D01*
X121451833Y-125236338D01*
X121547071Y-125141100D01*
X121689929Y-125093481D01*
X121785167Y-125093481D01*
X121928024Y-125141100D01*
X121975643Y-125188719D01*
X122928024Y-126093481D02*
X122356595Y-126093481D01*
X122642309Y-126093481D02*
X122642309Y-125093481D01*
X122547071Y-125236338D01*
X122451833Y-125331576D01*
X122356595Y-125379195D01*
X123832786Y-125093481D02*
X123356595Y-125093481D01*
X123308976Y-125569671D01*
X123356595Y-125522052D01*
X123451833Y-125474433D01*
X123689929Y-125474433D01*
X123785167Y-125522052D01*
X123832786Y-125569671D01*
X123880405Y-125664910D01*
X123880405Y-125903005D01*
X123832786Y-125998243D01*
X123785167Y-126045862D01*
X123689929Y-126093481D01*
X123451833Y-126093481D01*
X123356595Y-126045862D01*
X123308976Y-125998243D01*
X99975943Y-153080957D02*
X100023562Y-153128576D01*
X100071181Y-153271433D01*
X100071181Y-153366671D01*
X100023562Y-153509529D01*
X99928324Y-153604767D01*
X99833086Y-153652386D01*
X99642610Y-153700005D01*
X99499752Y-153700005D01*
X99309276Y-153652386D01*
X99214038Y-153604767D01*
X99118800Y-153509529D01*
X99071181Y-153366671D01*
X99071181Y-153271433D01*
X99118800Y-153128576D01*
X99166419Y-153080957D01*
X100071181Y-152128576D02*
X100071181Y-152700005D01*
X100071181Y-152414291D02*
X99071181Y-152414291D01*
X99214038Y-152509529D01*
X99309276Y-152604767D01*
X99356895Y-152700005D01*
X99071181Y-151795243D02*
X99071181Y-151176195D01*
X99452133Y-151509529D01*
X99452133Y-151366671D01*
X99499752Y-151271433D01*
X99547371Y-151223814D01*
X99642610Y-151176195D01*
X99880705Y-151176195D01*
X99975943Y-151223814D01*
X100023562Y-151271433D01*
X100071181Y-151366671D01*
X100071181Y-151652386D01*
X100023562Y-151747624D01*
X99975943Y-151795243D01*
X122890043Y-169356043D02*
X122842424Y-169403662D01*
X122699567Y-169451281D01*
X122604329Y-169451281D01*
X122461471Y-169403662D01*
X122366233Y-169308424D01*
X122318614Y-169213186D01*
X122270995Y-169022710D01*
X122270995Y-168879852D01*
X122318614Y-168689376D01*
X122366233Y-168594138D01*
X122461471Y-168498900D01*
X122604329Y-168451281D01*
X122699567Y-168451281D01*
X122842424Y-168498900D01*
X122890043Y-168546519D01*
X123842424Y-169451281D02*
X123270995Y-169451281D01*
X123556709Y-169451281D02*
X123556709Y-168451281D01*
X123461471Y-168594138D01*
X123366233Y-168689376D01*
X123270995Y-168736995D01*
X124794805Y-169451281D02*
X124223376Y-169451281D01*
X124509090Y-169451281D02*
X124509090Y-168451281D01*
X124413852Y-168594138D01*
X124318614Y-168689376D01*
X124223376Y-168736995D01*
X123004343Y-167298643D02*
X122956724Y-167346262D01*
X122813867Y-167393881D01*
X122718629Y-167393881D01*
X122575771Y-167346262D01*
X122480533Y-167251024D01*
X122432914Y-167155786D01*
X122385295Y-166965310D01*
X122385295Y-166822452D01*
X122432914Y-166631976D01*
X122480533Y-166536738D01*
X122575771Y-166441500D01*
X122718629Y-166393881D01*
X122813867Y-166393881D01*
X122956724Y-166441500D01*
X123004343Y-166489119D01*
X123956724Y-167393881D02*
X123385295Y-167393881D01*
X123671009Y-167393881D02*
X123671009Y-166393881D01*
X123575771Y-166536738D01*
X123480533Y-166631976D01*
X123385295Y-166679595D01*
X124575771Y-166393881D02*
X124671010Y-166393881D01*
X124766248Y-166441500D01*
X124813867Y-166489119D01*
X124861486Y-166584357D01*
X124909105Y-166774833D01*
X124909105Y-167012929D01*
X124861486Y-167203405D01*
X124813867Y-167298643D01*
X124766248Y-167346262D01*
X124671010Y-167393881D01*
X124575771Y-167393881D01*
X124480533Y-167346262D01*
X124432914Y-167298643D01*
X124385295Y-167203405D01*
X124337676Y-167012929D01*
X124337676Y-166774833D01*
X124385295Y-166584357D01*
X124432914Y-166489119D01*
X124480533Y-166441500D01*
X124575771Y-166393881D01*
X105992634Y-136132843D02*
X105945015Y-136180462D01*
X105802158Y-136228081D01*
X105706920Y-136228081D01*
X105564062Y-136180462D01*
X105468824Y-136085224D01*
X105421205Y-135989986D01*
X105373586Y-135799510D01*
X105373586Y-135656652D01*
X105421205Y-135466176D01*
X105468824Y-135370938D01*
X105564062Y-135275700D01*
X105706920Y-135228081D01*
X105802158Y-135228081D01*
X105945015Y-135275700D01*
X105992634Y-135323319D01*
X106325967Y-135228081D02*
X106992634Y-135228081D01*
X106564062Y-136228081D01*
X117527343Y-122791457D02*
X117574962Y-122839076D01*
X117622581Y-122981933D01*
X117622581Y-123077171D01*
X117574962Y-123220029D01*
X117479724Y-123315267D01*
X117384486Y-123362886D01*
X117194010Y-123410505D01*
X117051152Y-123410505D01*
X116860676Y-123362886D01*
X116765438Y-123315267D01*
X116670200Y-123220029D01*
X116622581Y-123077171D01*
X116622581Y-122981933D01*
X116670200Y-122839076D01*
X116717819Y-122791457D01*
X117622581Y-121839076D02*
X117622581Y-122410505D01*
X117622581Y-122124791D02*
X116622581Y-122124791D01*
X116765438Y-122220029D01*
X116860676Y-122315267D01*
X116908295Y-122410505D01*
X116622581Y-120981933D02*
X116622581Y-121172410D01*
X116670200Y-121267648D01*
X116717819Y-121315267D01*
X116860676Y-121410505D01*
X117051152Y-121458124D01*
X117432105Y-121458124D01*
X117527343Y-121410505D01*
X117574962Y-121362886D01*
X117622581Y-121267648D01*
X117622581Y-121077171D01*
X117574962Y-120981933D01*
X117527343Y-120934314D01*
X117432105Y-120886695D01*
X117194010Y-120886695D01*
X117098771Y-120934314D01*
X117051152Y-120981933D01*
X117003533Y-121077171D01*
X117003533Y-121267648D01*
X117051152Y-121362886D01*
X117098771Y-121410505D01*
X117194010Y-121458124D01*
X118551429Y-112270952D02*
X118551429Y-111509047D01*
X118932381Y-111889999D02*
X118170476Y-111889999D01*
X77496943Y-95664257D02*
X77544562Y-95711876D01*
X77592181Y-95854733D01*
X77592181Y-95949971D01*
X77544562Y-96092829D01*
X77449324Y-96188067D01*
X77354086Y-96235686D01*
X77163610Y-96283305D01*
X77020752Y-96283305D01*
X76830276Y-96235686D01*
X76735038Y-96188067D01*
X76639800Y-96092829D01*
X76592181Y-95949971D01*
X76592181Y-95854733D01*
X76639800Y-95711876D01*
X76687419Y-95664257D01*
X77592181Y-94711876D02*
X77592181Y-95283305D01*
X77592181Y-94997591D02*
X76592181Y-94997591D01*
X76735038Y-95092829D01*
X76830276Y-95188067D01*
X76877895Y-95283305D01*
X76592181Y-93854733D02*
X76592181Y-94045210D01*
X76639800Y-94140448D01*
X76687419Y-94188067D01*
X76830276Y-94283305D01*
X77020752Y-94330924D01*
X77401705Y-94330924D01*
X77496943Y-94283305D01*
X77544562Y-94235686D01*
X77592181Y-94140448D01*
X77592181Y-93949971D01*
X77544562Y-93854733D01*
X77496943Y-93807114D01*
X77401705Y-93759495D01*
X77163610Y-93759495D01*
X77068371Y-93807114D01*
X77020752Y-93854733D01*
X76973133Y-93949971D01*
X76973133Y-94140448D01*
X77020752Y-94235686D01*
X77068371Y-94283305D01*
X77163610Y-94330924D01*
X75901429Y-105660952D02*
X75901429Y-104899047D01*
X76282381Y-105279999D02*
X75520476Y-105279999D01*
X87984034Y-81751443D02*
X87936415Y-81799062D01*
X87793558Y-81846681D01*
X87698320Y-81846681D01*
X87555462Y-81799062D01*
X87460224Y-81703824D01*
X87412605Y-81608586D01*
X87364986Y-81418110D01*
X87364986Y-81275252D01*
X87412605Y-81084776D01*
X87460224Y-80989538D01*
X87555462Y-80894300D01*
X87698320Y-80846681D01*
X87793558Y-80846681D01*
X87936415Y-80894300D01*
X87984034Y-80941919D01*
X88317367Y-80846681D02*
X88984034Y-80846681D01*
X88555462Y-81846681D01*
X70019943Y-50585643D02*
X69972324Y-50633262D01*
X69829467Y-50680881D01*
X69734229Y-50680881D01*
X69591371Y-50633262D01*
X69496133Y-50538024D01*
X69448514Y-50442786D01*
X69400895Y-50252310D01*
X69400895Y-50109452D01*
X69448514Y-49918976D01*
X69496133Y-49823738D01*
X69591371Y-49728500D01*
X69734229Y-49680881D01*
X69829467Y-49680881D01*
X69972324Y-49728500D01*
X70019943Y-49776119D01*
X70972324Y-50680881D02*
X70400895Y-50680881D01*
X70686609Y-50680881D02*
X70686609Y-49680881D01*
X70591371Y-49823738D01*
X70496133Y-49918976D01*
X70400895Y-49966595D01*
X71591371Y-49680881D02*
X71686610Y-49680881D01*
X71781848Y-49728500D01*
X71829467Y-49776119D01*
X71877086Y-49871357D01*
X71924705Y-50061833D01*
X71924705Y-50299929D01*
X71877086Y-50490405D01*
X71829467Y-50585643D01*
X71781848Y-50633262D01*
X71686610Y-50680881D01*
X71591371Y-50680881D01*
X71496133Y-50633262D01*
X71448514Y-50585643D01*
X71400895Y-50490405D01*
X71353276Y-50299929D01*
X71353276Y-50061833D01*
X71400895Y-49871357D01*
X71448514Y-49776119D01*
X71496133Y-49728500D01*
X71591371Y-49680881D01*
X70134243Y-48528243D02*
X70086624Y-48575862D01*
X69943767Y-48623481D01*
X69848529Y-48623481D01*
X69705671Y-48575862D01*
X69610433Y-48480624D01*
X69562814Y-48385386D01*
X69515195Y-48194910D01*
X69515195Y-48052052D01*
X69562814Y-47861576D01*
X69610433Y-47766338D01*
X69705671Y-47671100D01*
X69848529Y-47623481D01*
X69943767Y-47623481D01*
X70086624Y-47671100D01*
X70134243Y-47718719D01*
X71086624Y-48623481D02*
X70515195Y-48623481D01*
X70800909Y-48623481D02*
X70800909Y-47623481D01*
X70705671Y-47766338D01*
X70610433Y-47861576D01*
X70515195Y-47909195D01*
X72039005Y-48623481D02*
X71467576Y-48623481D01*
X71753290Y-48623481D02*
X71753290Y-47623481D01*
X71658052Y-47766338D01*
X71562814Y-47861576D01*
X71467576Y-47909195D01*
X95048343Y-65374757D02*
X95095962Y-65422376D01*
X95143581Y-65565233D01*
X95143581Y-65660471D01*
X95095962Y-65803329D01*
X95000724Y-65898567D01*
X94905486Y-65946186D01*
X94715010Y-65993805D01*
X94572152Y-65993805D01*
X94381676Y-65946186D01*
X94286438Y-65898567D01*
X94191200Y-65803329D01*
X94143581Y-65660471D01*
X94143581Y-65565233D01*
X94191200Y-65422376D01*
X94238819Y-65374757D01*
X95143581Y-64422376D02*
X95143581Y-64993805D01*
X95143581Y-64708091D02*
X94143581Y-64708091D01*
X94286438Y-64803329D01*
X94381676Y-64898567D01*
X94429295Y-64993805D01*
X94143581Y-64089043D02*
X94143581Y-63469995D01*
X94524533Y-63803329D01*
X94524533Y-63660471D01*
X94572152Y-63565233D01*
X94619771Y-63517614D01*
X94715010Y-63469995D01*
X94953105Y-63469995D01*
X95048343Y-63517614D01*
X95095962Y-63565233D01*
X95143581Y-63660471D01*
X95143581Y-63946186D01*
X95095962Y-64041424D01*
X95048343Y-64089043D01*
X71048643Y-91886043D02*
X71001024Y-91933662D01*
X70858167Y-91981281D01*
X70762929Y-91981281D01*
X70620071Y-91933662D01*
X70524833Y-91838424D01*
X70477214Y-91743186D01*
X70429595Y-91552710D01*
X70429595Y-91409852D01*
X70477214Y-91219376D01*
X70524833Y-91124138D01*
X70620071Y-91028900D01*
X70762929Y-90981281D01*
X70858167Y-90981281D01*
X71001024Y-91028900D01*
X71048643Y-91076519D01*
X72001024Y-91981281D02*
X71429595Y-91981281D01*
X71715309Y-91981281D02*
X71715309Y-90981281D01*
X71620071Y-91124138D01*
X71524833Y-91219376D01*
X71429595Y-91266995D01*
X72905786Y-90981281D02*
X72429595Y-90981281D01*
X72381976Y-91457471D01*
X72429595Y-91409852D01*
X72524833Y-91362233D01*
X72762929Y-91362233D01*
X72858167Y-91409852D01*
X72905786Y-91457471D01*
X72953405Y-91552710D01*
X72953405Y-91790805D01*
X72905786Y-91886043D01*
X72858167Y-91933662D01*
X72762929Y-91981281D01*
X72524833Y-91981281D01*
X72429595Y-91933662D01*
X72381976Y-91886043D01*
X96626443Y-63285643D02*
X96578824Y-63333262D01*
X96435967Y-63380881D01*
X96340729Y-63380881D01*
X96197871Y-63333262D01*
X96102633Y-63238024D01*
X96055014Y-63142786D01*
X96007395Y-62952310D01*
X96007395Y-62809452D01*
X96055014Y-62618976D01*
X96102633Y-62523738D01*
X96197871Y-62428500D01*
X96340729Y-62380881D01*
X96435967Y-62380881D01*
X96578824Y-62428500D01*
X96626443Y-62476119D01*
X97578824Y-63380881D02*
X97007395Y-63380881D01*
X97293109Y-63380881D02*
X97293109Y-62380881D01*
X97197871Y-62523738D01*
X97102633Y-62618976D01*
X97007395Y-62666595D01*
X97912157Y-62380881D02*
X98578824Y-62380881D01*
X98150252Y-63380881D01*
X107840543Y-61571143D02*
X107792924Y-61618762D01*
X107650067Y-61666381D01*
X107554829Y-61666381D01*
X107411971Y-61618762D01*
X107316733Y-61523524D01*
X107269114Y-61428286D01*
X107221495Y-61237810D01*
X107221495Y-61094952D01*
X107269114Y-60904476D01*
X107316733Y-60809238D01*
X107411971Y-60714000D01*
X107554829Y-60666381D01*
X107650067Y-60666381D01*
X107792924Y-60714000D01*
X107840543Y-60761619D01*
X108792924Y-61666381D02*
X108221495Y-61666381D01*
X108507209Y-61666381D02*
X108507209Y-60666381D01*
X108411971Y-60809238D01*
X108316733Y-60904476D01*
X108221495Y-60952095D01*
X109364352Y-61094952D02*
X109269114Y-61047333D01*
X109221495Y-60999714D01*
X109173876Y-60904476D01*
X109173876Y-60856857D01*
X109221495Y-60761619D01*
X109269114Y-60714000D01*
X109364352Y-60666381D01*
X109554829Y-60666381D01*
X109650067Y-60714000D01*
X109697686Y-60761619D01*
X109745305Y-60856857D01*
X109745305Y-60904476D01*
X109697686Y-60999714D01*
X109650067Y-61047333D01*
X109554829Y-61094952D01*
X109364352Y-61094952D01*
X109269114Y-61142571D01*
X109221495Y-61190190D01*
X109173876Y-61285429D01*
X109173876Y-61475905D01*
X109221495Y-61571143D01*
X109269114Y-61618762D01*
X109364352Y-61666381D01*
X109554829Y-61666381D01*
X109650067Y-61618762D01*
X109697686Y-61571143D01*
X109745305Y-61475905D01*
X109745305Y-61285429D01*
X109697686Y-61190190D01*
X109650067Y-61142571D01*
X109554829Y-61094952D01*
X85231243Y-89542857D02*
X85278862Y-89590476D01*
X85326481Y-89733333D01*
X85326481Y-89828571D01*
X85278862Y-89971429D01*
X85183624Y-90066667D01*
X85088386Y-90114286D01*
X84897910Y-90161905D01*
X84755052Y-90161905D01*
X84564576Y-90114286D01*
X84469338Y-90066667D01*
X84374100Y-89971429D01*
X84326481Y-89828571D01*
X84326481Y-89733333D01*
X84374100Y-89590476D01*
X84421719Y-89542857D01*
X85326481Y-88590476D02*
X85326481Y-89161905D01*
X85326481Y-88876191D02*
X84326481Y-88876191D01*
X84469338Y-88971429D01*
X84564576Y-89066667D01*
X84612195Y-89161905D01*
X85326481Y-88114286D02*
X85326481Y-87923810D01*
X85278862Y-87828571D01*
X85231243Y-87780952D01*
X85088386Y-87685714D01*
X84897910Y-87638095D01*
X84516957Y-87638095D01*
X84421719Y-87685714D01*
X84374100Y-87733333D01*
X84326481Y-87828571D01*
X84326481Y-88019048D01*
X84374100Y-88114286D01*
X84421719Y-88161905D01*
X84516957Y-88209524D01*
X84755052Y-88209524D01*
X84850290Y-88161905D01*
X84897910Y-88114286D01*
X84945529Y-88019048D01*
X84945529Y-87828571D01*
X84897910Y-87733333D01*
X84850290Y-87685714D01*
X84755052Y-87638095D01*
X83189048Y-86191429D02*
X83950953Y-86191429D01*
X83570001Y-86572381D02*
X83570001Y-85810476D01*
X109069143Y-90177857D02*
X109116762Y-90225476D01*
X109164381Y-90368333D01*
X109164381Y-90463571D01*
X109116762Y-90606429D01*
X109021524Y-90701667D01*
X108926286Y-90749286D01*
X108735810Y-90796905D01*
X108592952Y-90796905D01*
X108402476Y-90749286D01*
X108307238Y-90701667D01*
X108212000Y-90606429D01*
X108164381Y-90463571D01*
X108164381Y-90368333D01*
X108212000Y-90225476D01*
X108259619Y-90177857D01*
X108259619Y-89796905D02*
X108212000Y-89749286D01*
X108164381Y-89654048D01*
X108164381Y-89415952D01*
X108212000Y-89320714D01*
X108259619Y-89273095D01*
X108354857Y-89225476D01*
X108450095Y-89225476D01*
X108592952Y-89273095D01*
X109164381Y-89844524D01*
X109164381Y-89225476D01*
X109164381Y-88273095D02*
X109164381Y-88844524D01*
X109164381Y-88558810D02*
X108164381Y-88558810D01*
X108307238Y-88654048D01*
X108402476Y-88749286D01*
X108450095Y-88844524D01*
X94873843Y-96242143D02*
X94826224Y-96289762D01*
X94683367Y-96337381D01*
X94588129Y-96337381D01*
X94445271Y-96289762D01*
X94350033Y-96194524D01*
X94302414Y-96099286D01*
X94254795Y-95908810D01*
X94254795Y-95765952D01*
X94302414Y-95575476D01*
X94350033Y-95480238D01*
X94445271Y-95385000D01*
X94588129Y-95337381D01*
X94683367Y-95337381D01*
X94826224Y-95385000D01*
X94873843Y-95432619D01*
X95254795Y-95432619D02*
X95302414Y-95385000D01*
X95397652Y-95337381D01*
X95635748Y-95337381D01*
X95730986Y-95385000D01*
X95778605Y-95432619D01*
X95826224Y-95527857D01*
X95826224Y-95623095D01*
X95778605Y-95765952D01*
X95207176Y-96337381D01*
X95826224Y-96337381D01*
X96159557Y-95337381D02*
X96778605Y-95337381D01*
X96445271Y-95718333D01*
X96588129Y-95718333D01*
X96683367Y-95765952D01*
X96730986Y-95813571D01*
X96778605Y-95908810D01*
X96778605Y-96146905D01*
X96730986Y-96242143D01*
X96683367Y-96289762D01*
X96588129Y-96337381D01*
X96302414Y-96337381D01*
X96207176Y-96289762D01*
X96159557Y-96242143D01*
X94848443Y-98871043D02*
X94800824Y-98918662D01*
X94657967Y-98966281D01*
X94562729Y-98966281D01*
X94419871Y-98918662D01*
X94324633Y-98823424D01*
X94277014Y-98728186D01*
X94229395Y-98537710D01*
X94229395Y-98394852D01*
X94277014Y-98204376D01*
X94324633Y-98109138D01*
X94419871Y-98013900D01*
X94562729Y-97966281D01*
X94657967Y-97966281D01*
X94800824Y-98013900D01*
X94848443Y-98061519D01*
X95229395Y-98061519D02*
X95277014Y-98013900D01*
X95372252Y-97966281D01*
X95610348Y-97966281D01*
X95705586Y-98013900D01*
X95753205Y-98061519D01*
X95800824Y-98156757D01*
X95800824Y-98251995D01*
X95753205Y-98394852D01*
X95181776Y-98966281D01*
X95800824Y-98966281D01*
X96657967Y-98299614D02*
X96657967Y-98966281D01*
X96419871Y-97918662D02*
X96181776Y-98632948D01*
X96800824Y-98632948D01*
X80548243Y-94349843D02*
X80500624Y-94397462D01*
X80357767Y-94445081D01*
X80262529Y-94445081D01*
X80119671Y-94397462D01*
X80024433Y-94302224D01*
X79976814Y-94206986D01*
X79929195Y-94016510D01*
X79929195Y-93873652D01*
X79976814Y-93683176D01*
X80024433Y-93587938D01*
X80119671Y-93492700D01*
X80262529Y-93445081D01*
X80357767Y-93445081D01*
X80500624Y-93492700D01*
X80548243Y-93540319D01*
X80929195Y-93540319D02*
X80976814Y-93492700D01*
X81072052Y-93445081D01*
X81310148Y-93445081D01*
X81405386Y-93492700D01*
X81453005Y-93540319D01*
X81500624Y-93635557D01*
X81500624Y-93730795D01*
X81453005Y-93873652D01*
X80881576Y-94445081D01*
X81500624Y-94445081D01*
X82405386Y-93445081D02*
X81929195Y-93445081D01*
X81881576Y-93921271D01*
X81929195Y-93873652D01*
X82024433Y-93826033D01*
X82262529Y-93826033D01*
X82357767Y-93873652D01*
X82405386Y-93921271D01*
X82453005Y-94016510D01*
X82453005Y-94254605D01*
X82405386Y-94349843D01*
X82357767Y-94397462D01*
X82262529Y-94445081D01*
X82024433Y-94445081D01*
X81929195Y-94397462D01*
X81881576Y-94349843D01*
X77474843Y-98540843D02*
X77427224Y-98588462D01*
X77284367Y-98636081D01*
X77189129Y-98636081D01*
X77046271Y-98588462D01*
X76951033Y-98493224D01*
X76903414Y-98397986D01*
X76855795Y-98207510D01*
X76855795Y-98064652D01*
X76903414Y-97874176D01*
X76951033Y-97778938D01*
X77046271Y-97683700D01*
X77189129Y-97636081D01*
X77284367Y-97636081D01*
X77427224Y-97683700D01*
X77474843Y-97731319D01*
X77855795Y-97731319D02*
X77903414Y-97683700D01*
X77998652Y-97636081D01*
X78236748Y-97636081D01*
X78331986Y-97683700D01*
X78379605Y-97731319D01*
X78427224Y-97826557D01*
X78427224Y-97921795D01*
X78379605Y-98064652D01*
X77808176Y-98636081D01*
X78427224Y-98636081D01*
X79284367Y-97636081D02*
X79093890Y-97636081D01*
X78998652Y-97683700D01*
X78951033Y-97731319D01*
X78855795Y-97874176D01*
X78808176Y-98064652D01*
X78808176Y-98445605D01*
X78855795Y-98540843D01*
X78903414Y-98588462D01*
X78998652Y-98636081D01*
X79189129Y-98636081D01*
X79284367Y-98588462D01*
X79331986Y-98540843D01*
X79379605Y-98445605D01*
X79379605Y-98207510D01*
X79331986Y-98112271D01*
X79284367Y-98064652D01*
X79189129Y-98017033D01*
X78998652Y-98017033D01*
X78903414Y-98064652D01*
X78855795Y-98112271D01*
X78808176Y-98207510D01*
X98934543Y-50744357D02*
X98982162Y-50791976D01*
X99029781Y-50934833D01*
X99029781Y-51030071D01*
X98982162Y-51172929D01*
X98886924Y-51268167D01*
X98791686Y-51315786D01*
X98601210Y-51363405D01*
X98458352Y-51363405D01*
X98267876Y-51315786D01*
X98172638Y-51268167D01*
X98077400Y-51172929D01*
X98029781Y-51030071D01*
X98029781Y-50934833D01*
X98077400Y-50791976D01*
X98125019Y-50744357D01*
X98125019Y-50363405D02*
X98077400Y-50315786D01*
X98029781Y-50220548D01*
X98029781Y-49982452D01*
X98077400Y-49887214D01*
X98125019Y-49839595D01*
X98220257Y-49791976D01*
X98315495Y-49791976D01*
X98458352Y-49839595D01*
X99029781Y-50411024D01*
X99029781Y-49791976D01*
X98029781Y-49458643D02*
X98029781Y-48791976D01*
X99029781Y-49220548D01*
X66254405Y-88298281D02*
X66254405Y-87298281D01*
X66492500Y-87298281D01*
X66635358Y-87345900D01*
X66730596Y-87441138D01*
X66778215Y-87536376D01*
X66825834Y-87726852D01*
X66825834Y-87869710D01*
X66778215Y-88060186D01*
X66730596Y-88155424D01*
X66635358Y-88250662D01*
X66492500Y-88298281D01*
X66254405Y-88298281D01*
X67778215Y-88298281D02*
X67206786Y-88298281D01*
X67492500Y-88298281D02*
X67492500Y-87298281D01*
X67397262Y-87441138D01*
X67302024Y-87536376D01*
X67206786Y-87583995D01*
X110120205Y-54122581D02*
X110120205Y-53122581D01*
X110358300Y-53122581D01*
X110501158Y-53170200D01*
X110596396Y-53265438D01*
X110644015Y-53360676D01*
X110691634Y-53551152D01*
X110691634Y-53694010D01*
X110644015Y-53884486D01*
X110596396Y-53979724D01*
X110501158Y-54074962D01*
X110358300Y-54122581D01*
X110120205Y-54122581D01*
X111072586Y-53217819D02*
X111120205Y-53170200D01*
X111215443Y-53122581D01*
X111453539Y-53122581D01*
X111548777Y-53170200D01*
X111596396Y-53217819D01*
X111644015Y-53313057D01*
X111644015Y-53408295D01*
X111596396Y-53551152D01*
X111024967Y-54122581D01*
X111644015Y-54122581D01*
X88022205Y-96819981D02*
X88022205Y-95819981D01*
X88260300Y-95819981D01*
X88403158Y-95867600D01*
X88498396Y-95962838D01*
X88546015Y-96058076D01*
X88593634Y-96248552D01*
X88593634Y-96391410D01*
X88546015Y-96581886D01*
X88498396Y-96677124D01*
X88403158Y-96772362D01*
X88260300Y-96819981D01*
X88022205Y-96819981D01*
X89450777Y-96153314D02*
X89450777Y-96819981D01*
X89212681Y-95772362D02*
X88974586Y-96486648D01*
X89593634Y-96486648D01*
X65202381Y-47323333D02*
X65916667Y-47323333D01*
X66059524Y-47370953D01*
X66154762Y-47466191D01*
X66202381Y-47609048D01*
X66202381Y-47704286D01*
X66202381Y-46323333D02*
X66202381Y-46894762D01*
X66202381Y-46609048D02*
X65202381Y-46609048D01*
X65345238Y-46704286D01*
X65440476Y-46799524D01*
X65488095Y-46894762D01*
X65202381Y-49863333D02*
X65916667Y-49863333D01*
X66059524Y-49910953D01*
X66154762Y-50006191D01*
X66202381Y-50149048D01*
X66202381Y-50244286D01*
X65297619Y-49434762D02*
X65250000Y-49387143D01*
X65202381Y-49291905D01*
X65202381Y-49053809D01*
X65250000Y-48958571D01*
X65297619Y-48910952D01*
X65392857Y-48863333D01*
X65488095Y-48863333D01*
X65630952Y-48910952D01*
X66202381Y-49482381D01*
X66202381Y-48863333D01*
X76603267Y-79970381D02*
X76603267Y-80684667D01*
X76555647Y-80827524D01*
X76460409Y-80922762D01*
X76317552Y-80970381D01*
X76222314Y-80970381D01*
X76984219Y-79970381D02*
X77603267Y-79970381D01*
X77269933Y-80351333D01*
X77412791Y-80351333D01*
X77508029Y-80398952D01*
X77555648Y-80446571D01*
X77603267Y-80541810D01*
X77603267Y-80779905D01*
X77555648Y-80875143D01*
X77508029Y-80922762D01*
X77412791Y-80970381D01*
X77127076Y-80970381D01*
X77031838Y-80922762D01*
X76984219Y-80875143D01*
X82750067Y-80008481D02*
X82750067Y-80722767D01*
X82702447Y-80865624D01*
X82607209Y-80960862D01*
X82464352Y-81008481D01*
X82369114Y-81008481D01*
X83654829Y-80341814D02*
X83654829Y-81008481D01*
X83416733Y-79960862D02*
X83178638Y-80675148D01*
X83797686Y-80675148D01*
X126031667Y-69600381D02*
X126031667Y-70314667D01*
X125984047Y-70457524D01*
X125888809Y-70552762D01*
X125745952Y-70600381D01*
X125650714Y-70600381D01*
X126412619Y-69600381D02*
X127079286Y-69600381D01*
X126650714Y-70600381D01*
X65408277Y-106094281D02*
X65408277Y-106808567D01*
X65360657Y-106951424D01*
X65265419Y-107046662D01*
X65122562Y-107094281D01*
X65027324Y-107094281D01*
X66408277Y-107094281D02*
X65836848Y-107094281D01*
X66122562Y-107094281D02*
X66122562Y-106094281D01*
X66027324Y-106237138D01*
X65932086Y-106332376D01*
X65836848Y-106379995D01*
X66741610Y-106094281D02*
X67360658Y-106094281D01*
X67027324Y-106475233D01*
X67170182Y-106475233D01*
X67265420Y-106522852D01*
X67313039Y-106570471D01*
X67360658Y-106665710D01*
X67360658Y-106903805D01*
X67313039Y-106999043D01*
X67265420Y-107046662D01*
X67170182Y-107094281D01*
X66884467Y-107094281D01*
X66789229Y-107046662D01*
X66741610Y-106999043D01*
X104503481Y-65914566D02*
X104503481Y-66390757D01*
X103503481Y-66390757D01*
X103598719Y-65628852D02*
X103551100Y-65581233D01*
X103503481Y-65485995D01*
X103503481Y-65247899D01*
X103551100Y-65152661D01*
X103598719Y-65105042D01*
X103693957Y-65057423D01*
X103789195Y-65057423D01*
X103932052Y-65105042D01*
X104503481Y-65676471D01*
X104503481Y-65057423D01*
X107322881Y-65914566D02*
X107322881Y-66390757D01*
X106322881Y-66390757D01*
X106322881Y-65676471D02*
X106322881Y-65057423D01*
X106703833Y-65390757D01*
X106703833Y-65247899D01*
X106751452Y-65152661D01*
X106799071Y-65105042D01*
X106894310Y-65057423D01*
X107132405Y-65057423D01*
X107227643Y-65105042D01*
X107275262Y-65152661D01*
X107322881Y-65247899D01*
X107322881Y-65533614D01*
X107275262Y-65628852D01*
X107227643Y-65676471D01*
X105522734Y-48915581D02*
X105046543Y-48915581D01*
X105046543Y-47915581D01*
X106284639Y-48248914D02*
X106284639Y-48915581D01*
X106046543Y-47867962D02*
X105808448Y-48582248D01*
X106427496Y-48582248D01*
X105560834Y-50541181D02*
X105084643Y-50541181D01*
X105084643Y-49541181D01*
X106370358Y-49541181D02*
X105894167Y-49541181D01*
X105846548Y-50017371D01*
X105894167Y-49969752D01*
X105989405Y-49922133D01*
X106227501Y-49922133D01*
X106322739Y-49969752D01*
X106370358Y-50017371D01*
X106417977Y-50112610D01*
X106417977Y-50350705D01*
X106370358Y-50445943D01*
X106322739Y-50493562D01*
X106227501Y-50541181D01*
X105989405Y-50541181D01*
X105894167Y-50493562D01*
X105846548Y-50445943D01*
X72413905Y-43759381D02*
X72413905Y-42759381D01*
X72794858Y-42759381D01*
X72890096Y-42807000D01*
X72937715Y-42854619D01*
X72985334Y-42949857D01*
X72985334Y-43092714D01*
X72937715Y-43187952D01*
X72890096Y-43235571D01*
X72794858Y-43283190D01*
X72413905Y-43283190D01*
X73937715Y-43759381D02*
X73366286Y-43759381D01*
X73652000Y-43759381D02*
X73652000Y-42759381D01*
X73556762Y-42902238D01*
X73461524Y-42997476D01*
X73366286Y-43045095D01*
X106805434Y-54084481D02*
X106472100Y-53608290D01*
X106234005Y-54084481D02*
X106234005Y-53084481D01*
X106614958Y-53084481D01*
X106710196Y-53132100D01*
X106757815Y-53179719D01*
X106805434Y-53274957D01*
X106805434Y-53417814D01*
X106757815Y-53513052D01*
X106710196Y-53560671D01*
X106614958Y-53608290D01*
X106234005Y-53608290D01*
X107757815Y-54084481D02*
X107186386Y-54084481D01*
X107472100Y-54084481D02*
X107472100Y-53084481D01*
X107376862Y-53227338D01*
X107281624Y-53322576D01*
X107186386Y-53370195D01*
X125995134Y-84983581D02*
X125661800Y-84507390D01*
X125423705Y-84983581D02*
X125423705Y-83983581D01*
X125804658Y-83983581D01*
X125899896Y-84031200D01*
X125947515Y-84078819D01*
X125995134Y-84174057D01*
X125995134Y-84316914D01*
X125947515Y-84412152D01*
X125899896Y-84459771D01*
X125804658Y-84507390D01*
X125423705Y-84507390D01*
X126376086Y-84078819D02*
X126423705Y-84031200D01*
X126518943Y-83983581D01*
X126757039Y-83983581D01*
X126852277Y-84031200D01*
X126899896Y-84078819D01*
X126947515Y-84174057D01*
X126947515Y-84269295D01*
X126899896Y-84412152D01*
X126328467Y-84983581D01*
X126947515Y-84983581D01*
X84491534Y-92984581D02*
X84158200Y-92508390D01*
X83920105Y-92984581D02*
X83920105Y-91984581D01*
X84301058Y-91984581D01*
X84396296Y-92032200D01*
X84443915Y-92079819D01*
X84491534Y-92175057D01*
X84491534Y-92317914D01*
X84443915Y-92413152D01*
X84396296Y-92460771D01*
X84301058Y-92508390D01*
X83920105Y-92508390D01*
X84824867Y-91984581D02*
X85443915Y-91984581D01*
X85110581Y-92365533D01*
X85253439Y-92365533D01*
X85348677Y-92413152D01*
X85396296Y-92460771D01*
X85443915Y-92556010D01*
X85443915Y-92794105D01*
X85396296Y-92889343D01*
X85348677Y-92936962D01*
X85253439Y-92984581D01*
X84967724Y-92984581D01*
X84872486Y-92936962D01*
X84824867Y-92889343D01*
X101455481Y-93651366D02*
X100979290Y-93984700D01*
X101455481Y-94222795D02*
X100455481Y-94222795D01*
X100455481Y-93841842D01*
X100503100Y-93746604D01*
X100550719Y-93698985D01*
X100645957Y-93651366D01*
X100788814Y-93651366D01*
X100884052Y-93698985D01*
X100931671Y-93746604D01*
X100979290Y-93841842D01*
X100979290Y-94222795D01*
X100788814Y-92794223D02*
X101455481Y-92794223D01*
X100407862Y-93032319D02*
X101122148Y-93270414D01*
X101122148Y-92651366D01*
X107516634Y-94546681D02*
X107183300Y-94070490D01*
X106945205Y-94546681D02*
X106945205Y-93546681D01*
X107326158Y-93546681D01*
X107421396Y-93594300D01*
X107469015Y-93641919D01*
X107516634Y-93737157D01*
X107516634Y-93880014D01*
X107469015Y-93975252D01*
X107421396Y-94022871D01*
X107326158Y-94070490D01*
X106945205Y-94070490D01*
X108421396Y-93546681D02*
X107945205Y-93546681D01*
X107897586Y-94022871D01*
X107945205Y-93975252D01*
X108040443Y-93927633D01*
X108278539Y-93927633D01*
X108373777Y-93975252D01*
X108421396Y-94022871D01*
X108469015Y-94118110D01*
X108469015Y-94356205D01*
X108421396Y-94451443D01*
X108373777Y-94499062D01*
X108278539Y-94546681D01*
X108040443Y-94546681D01*
X107945205Y-94499062D01*
X107897586Y-94451443D01*
X101179334Y-88945981D02*
X100846000Y-88469790D01*
X100607905Y-88945981D02*
X100607905Y-87945981D01*
X100988858Y-87945981D01*
X101084096Y-87993600D01*
X101131715Y-88041219D01*
X101179334Y-88136457D01*
X101179334Y-88279314D01*
X101131715Y-88374552D01*
X101084096Y-88422171D01*
X100988858Y-88469790D01*
X100607905Y-88469790D01*
X102036477Y-87945981D02*
X101846000Y-87945981D01*
X101750762Y-87993600D01*
X101703143Y-88041219D01*
X101607905Y-88184076D01*
X101560286Y-88374552D01*
X101560286Y-88755505D01*
X101607905Y-88850743D01*
X101655524Y-88898362D01*
X101750762Y-88945981D01*
X101941239Y-88945981D01*
X102036477Y-88898362D01*
X102084096Y-88850743D01*
X102131715Y-88755505D01*
X102131715Y-88517410D01*
X102084096Y-88422171D01*
X102036477Y-88374552D01*
X101941239Y-88326933D01*
X101750762Y-88326933D01*
X101655524Y-88374552D01*
X101607905Y-88422171D01*
X101560286Y-88517410D01*
X125282466Y-92891733D02*
X125382466Y-92925067D01*
X125549133Y-92925067D01*
X125615800Y-92891733D01*
X125649133Y-92858400D01*
X125682466Y-92791733D01*
X125682466Y-92725067D01*
X125649133Y-92658400D01*
X125615800Y-92625067D01*
X125549133Y-92591733D01*
X125415800Y-92558400D01*
X125349133Y-92525067D01*
X125315800Y-92491733D01*
X125282466Y-92425067D01*
X125282466Y-92358400D01*
X125315800Y-92291733D01*
X125349133Y-92258400D01*
X125415800Y-92225067D01*
X125582466Y-92225067D01*
X125682466Y-92258400D01*
X126182467Y-92225067D02*
X126182467Y-92725067D01*
X126149133Y-92825067D01*
X126082467Y-92891733D01*
X125982467Y-92925067D01*
X125915800Y-92925067D01*
X126882466Y-92925067D02*
X126482466Y-92925067D01*
X126682466Y-92925067D02*
X126682466Y-92225067D01*
X126615800Y-92325067D01*
X126549133Y-92391733D01*
X126482466Y-92425067D01*
X127482467Y-92225067D02*
X127349133Y-92225067D01*
X127282467Y-92258400D01*
X127249133Y-92291733D01*
X127182467Y-92391733D01*
X127149133Y-92525067D01*
X127149133Y-92791733D01*
X127182467Y-92858400D01*
X127215800Y-92891733D01*
X127282467Y-92925067D01*
X127415800Y-92925067D01*
X127482467Y-92891733D01*
X127515800Y-92858400D01*
X127549133Y-92791733D01*
X127549133Y-92625067D01*
X127515800Y-92558400D01*
X127482467Y-92525067D01*
X127415800Y-92491733D01*
X127282467Y-92491733D01*
X127215800Y-92525067D01*
X127182467Y-92558400D01*
X127149133Y-92625067D01*
X91567167Y-88250662D02*
X91710024Y-88298281D01*
X91948120Y-88298281D01*
X92043358Y-88250662D01*
X92090977Y-88203043D01*
X92138596Y-88107805D01*
X92138596Y-88012567D01*
X92090977Y-87917329D01*
X92043358Y-87869710D01*
X91948120Y-87822090D01*
X91757643Y-87774471D01*
X91662405Y-87726852D01*
X91614786Y-87679233D01*
X91567167Y-87583995D01*
X91567167Y-87488757D01*
X91614786Y-87393519D01*
X91662405Y-87345900D01*
X91757643Y-87298281D01*
X91995739Y-87298281D01*
X92138596Y-87345900D01*
X92471929Y-87298281D02*
X92710024Y-88298281D01*
X92900501Y-87583995D01*
X93090977Y-88298281D01*
X93329072Y-87298281D01*
X94233834Y-88298281D02*
X93662405Y-88298281D01*
X93948119Y-88298281D02*
X93948119Y-87298281D01*
X93852881Y-87441138D01*
X93757643Y-87536376D01*
X93662405Y-87583995D01*
X79387795Y-86434681D02*
X79387795Y-87244205D01*
X79435414Y-87339443D01*
X79483033Y-87387062D01*
X79578271Y-87434681D01*
X79768748Y-87434681D01*
X79863986Y-87387062D01*
X79911605Y-87339443D01*
X79959224Y-87244205D01*
X79959224Y-86434681D01*
X80959224Y-87434681D02*
X80387795Y-87434681D01*
X80673509Y-87434681D02*
X80673509Y-86434681D01*
X80578271Y-86577538D01*
X80483033Y-86672776D01*
X80387795Y-86720395D01*
X120777095Y-86376381D02*
X120777095Y-87185905D01*
X120824714Y-87281143D01*
X120872333Y-87328762D01*
X120967571Y-87376381D01*
X121158048Y-87376381D01*
X121253286Y-87328762D01*
X121300905Y-87281143D01*
X121348524Y-87185905D01*
X121348524Y-86376381D01*
X122253286Y-86376381D02*
X122062809Y-86376381D01*
X121967571Y-86424000D01*
X121919952Y-86471619D01*
X121824714Y-86614476D01*
X121777095Y-86804952D01*
X121777095Y-87185905D01*
X121824714Y-87281143D01*
X121872333Y-87328762D01*
X121967571Y-87376381D01*
X122158048Y-87376381D01*
X122253286Y-87328762D01*
X122300905Y-87281143D01*
X122348524Y-87185905D01*
X122348524Y-86947810D01*
X122300905Y-86852571D01*
X122253286Y-86804952D01*
X122158048Y-86757333D01*
X121967571Y-86757333D01*
X121872333Y-86804952D01*
X121824714Y-86852571D01*
X121777095Y-86947810D01*
X96151795Y-50861981D02*
X96151795Y-51671505D01*
X96199414Y-51766743D01*
X96247033Y-51814362D01*
X96342271Y-51861981D01*
X96532748Y-51861981D01*
X96627986Y-51814362D01*
X96675605Y-51766743D01*
X96723224Y-51671505D01*
X96723224Y-50861981D01*
X97104176Y-50861981D02*
X97770843Y-50861981D01*
X97342271Y-51861981D01*
X96150381Y-46382095D02*
X96959905Y-46382095D01*
X97055143Y-46334476D01*
X97102762Y-46286857D01*
X97150381Y-46191619D01*
X97150381Y-46001142D01*
X97102762Y-45905904D01*
X97055143Y-45858285D01*
X96959905Y-45810666D01*
X96150381Y-45810666D01*
X97150381Y-44810666D02*
X97150381Y-45382095D01*
X97150381Y-45096381D02*
X96150381Y-45096381D01*
X96293238Y-45191619D01*
X96388476Y-45286857D01*
X96436095Y-45382095D01*
X97150381Y-43858285D02*
X97150381Y-44429714D01*
X97150381Y-44144000D02*
X96150381Y-44144000D01*
X96293238Y-44239238D01*
X96388476Y-44334476D01*
X96436095Y-44429714D01*
X103642318Y-77573645D02*
X103305600Y-77910363D01*
X103777005Y-76967554D02*
X103642318Y-77573645D01*
X104248410Y-77438959D01*
X104147395Y-78752157D02*
X103743333Y-78348096D01*
X103945364Y-78550126D02*
X104652471Y-77843019D01*
X104484112Y-77876691D01*
X104349425Y-77876691D01*
X104248410Y-77843019D01*
X77139895Y-103630481D02*
X77139895Y-104440005D01*
X77187514Y-104535243D01*
X77235133Y-104582862D01*
X77330371Y-104630481D01*
X77520848Y-104630481D01*
X77616086Y-104582862D01*
X77663705Y-104535243D01*
X77711324Y-104440005D01*
X77711324Y-103630481D01*
X78235133Y-104630481D02*
X78425609Y-104630481D01*
X78520848Y-104582862D01*
X78568467Y-104535243D01*
X78663705Y-104392386D01*
X78711324Y-104201910D01*
X78711324Y-103820957D01*
X78663705Y-103725719D01*
X78616086Y-103678100D01*
X78520848Y-103630481D01*
X78330371Y-103630481D01*
X78235133Y-103678100D01*
X78187514Y-103725719D01*
X78139895Y-103820957D01*
X78139895Y-104059052D01*
X78187514Y-104154290D01*
X78235133Y-104201910D01*
X78330371Y-104249529D01*
X78520848Y-104249529D01*
X78616086Y-104201910D01*
X78663705Y-104154290D01*
X78711324Y-104059052D01*
X68981581Y-77725566D02*
X68505390Y-78058900D01*
X68981581Y-78296995D02*
X67981581Y-78296995D01*
X67981581Y-77916042D01*
X68029200Y-77820804D01*
X68076819Y-77773185D01*
X68172057Y-77725566D01*
X68314914Y-77725566D01*
X68410152Y-77773185D01*
X68457771Y-77820804D01*
X68505390Y-77916042D01*
X68505390Y-78296995D01*
X67981581Y-77392233D02*
X67981581Y-76725566D01*
X68981581Y-77154138D01*
X78937381Y-49791857D02*
X78461190Y-50125191D01*
X78937381Y-50363286D02*
X77937381Y-50363286D01*
X77937381Y-49982333D01*
X77985000Y-49887095D01*
X78032619Y-49839476D01*
X78127857Y-49791857D01*
X78270714Y-49791857D01*
X78365952Y-49839476D01*
X78413571Y-49887095D01*
X78461190Y-49982333D01*
X78461190Y-50363286D01*
X78937381Y-48839476D02*
X78937381Y-49410905D01*
X78937381Y-49125191D02*
X77937381Y-49125191D01*
X78080238Y-49220429D01*
X78175476Y-49315667D01*
X78223095Y-49410905D01*
X78937381Y-47887095D02*
X78937381Y-48458524D01*
X78937381Y-48172810D02*
X77937381Y-48172810D01*
X78080238Y-48268048D01*
X78175476Y-48363286D01*
X78223095Y-48458524D01*
X67190881Y-71261195D02*
X66190881Y-71261195D01*
X66190881Y-71023100D01*
X66238500Y-70880242D01*
X66333738Y-70785004D01*
X66428976Y-70737385D01*
X66619452Y-70689766D01*
X66762310Y-70689766D01*
X66952786Y-70737385D01*
X67048024Y-70785004D01*
X67143262Y-70880242D01*
X67190881Y-71023100D01*
X67190881Y-71261195D01*
X66190881Y-69785004D02*
X66190881Y-70261195D01*
X66667071Y-70308814D01*
X66619452Y-70261195D01*
X66571833Y-70165957D01*
X66571833Y-69927861D01*
X66619452Y-69832623D01*
X66667071Y-69785004D01*
X66762310Y-69737385D01*
X67000405Y-69737385D01*
X67095643Y-69785004D01*
X67143262Y-69832623D01*
X67190881Y-69927861D01*
X67190881Y-70165957D01*
X67143262Y-70261195D01*
X67095643Y-70308814D01*
X88976295Y-51027081D02*
X88976295Y-51836605D01*
X89023914Y-51931843D01*
X89071533Y-51979462D01*
X89166771Y-52027081D01*
X89357248Y-52027081D01*
X89452486Y-51979462D01*
X89500105Y-51931843D01*
X89547724Y-51836605D01*
X89547724Y-51027081D01*
X89928676Y-51027081D02*
X90547724Y-51027081D01*
X90214390Y-51408033D01*
X90357248Y-51408033D01*
X90452486Y-51455652D01*
X90500105Y-51503271D01*
X90547724Y-51598510D01*
X90547724Y-51836605D01*
X90500105Y-51931843D01*
X90452486Y-51979462D01*
X90357248Y-52027081D01*
X90071533Y-52027081D01*
X89976295Y-51979462D01*
X89928676Y-51931843D01*
X75290443Y-79128881D02*
X74957109Y-78652690D01*
X74719014Y-79128881D02*
X74719014Y-78128881D01*
X75099967Y-78128881D01*
X75195205Y-78176500D01*
X75242824Y-78224119D01*
X75290443Y-78319357D01*
X75290443Y-78462214D01*
X75242824Y-78557452D01*
X75195205Y-78605071D01*
X75099967Y-78652690D01*
X74719014Y-78652690D01*
X76242824Y-79128881D02*
X75671395Y-79128881D01*
X75957109Y-79128881D02*
X75957109Y-78128881D01*
X75861871Y-78271738D01*
X75766633Y-78366976D01*
X75671395Y-78414595D01*
X76576157Y-78128881D02*
X77195205Y-78128881D01*
X76861871Y-78509833D01*
X77004729Y-78509833D01*
X77099967Y-78557452D01*
X77147586Y-78605071D01*
X77195205Y-78700310D01*
X77195205Y-78938405D01*
X77147586Y-79033643D01*
X77099967Y-79081262D01*
X77004729Y-79128881D01*
X76719014Y-79128881D01*
X76623776Y-79081262D01*
X76576157Y-79033643D01*
X66541662Y-84532719D02*
X66446424Y-84485100D01*
X66351186Y-84389862D01*
X66208329Y-84247005D01*
X66113090Y-84199386D01*
X66017852Y-84199386D01*
X66065471Y-84437481D02*
X65970233Y-84389862D01*
X65874995Y-84294624D01*
X65827376Y-84104148D01*
X65827376Y-83770814D01*
X65874995Y-83580338D01*
X65970233Y-83485100D01*
X66065471Y-83437481D01*
X66255948Y-83437481D01*
X66351186Y-83485100D01*
X66446424Y-83580338D01*
X66494043Y-83770814D01*
X66494043Y-84104148D01*
X66446424Y-84294624D01*
X66351186Y-84389862D01*
X66255948Y-84437481D01*
X66065471Y-84437481D01*
X67446424Y-84437481D02*
X66874995Y-84437481D01*
X67160709Y-84437481D02*
X67160709Y-83437481D01*
X67065471Y-83580338D01*
X66970233Y-83675576D01*
X66874995Y-83723195D01*
X104960488Y-67566089D02*
X104960488Y-67633432D01*
X104893144Y-67768119D01*
X104825801Y-67835463D01*
X104691113Y-67902807D01*
X104556426Y-67902807D01*
X104455411Y-67869135D01*
X104287053Y-67768120D01*
X104186037Y-67667104D01*
X104085022Y-67498745D01*
X104051350Y-67397730D01*
X104051350Y-67263043D01*
X104118694Y-67128356D01*
X104186037Y-67061012D01*
X104320724Y-66993669D01*
X104388068Y-66993669D01*
X104960488Y-66286562D02*
X104623770Y-66623280D01*
X104926815Y-66993669D01*
X104926815Y-66926326D01*
X104960487Y-66825310D01*
X105128846Y-66656951D01*
X105229861Y-66623279D01*
X105297205Y-66623279D01*
X105398221Y-66656952D01*
X105566579Y-66825310D01*
X105600251Y-66926326D01*
X105600251Y-66993669D01*
X105566579Y-67094684D01*
X105398220Y-67263043D01*
X105297205Y-67296715D01*
X105229861Y-67296715D01*
X118832334Y-86882243D02*
X118784715Y-86929862D01*
X118641858Y-86977481D01*
X118546620Y-86977481D01*
X118403762Y-86929862D01*
X118308524Y-86834624D01*
X118260905Y-86739386D01*
X118213286Y-86548910D01*
X118213286Y-86406052D01*
X118260905Y-86215576D01*
X118308524Y-86120338D01*
X118403762Y-86025100D01*
X118546620Y-85977481D01*
X118641858Y-85977481D01*
X118784715Y-86025100D01*
X118832334Y-86072719D01*
X119689477Y-85977481D02*
X119499000Y-85977481D01*
X119403762Y-86025100D01*
X119356143Y-86072719D01*
X119260905Y-86215576D01*
X119213286Y-86406052D01*
X119213286Y-86787005D01*
X119260905Y-86882243D01*
X119308524Y-86929862D01*
X119403762Y-86977481D01*
X119594239Y-86977481D01*
X119689477Y-86929862D01*
X119737096Y-86882243D01*
X119784715Y-86787005D01*
X119784715Y-86548910D01*
X119737096Y-86453671D01*
X119689477Y-86406052D01*
X119594239Y-86358433D01*
X119403762Y-86358433D01*
X119308524Y-86406052D01*
X119260905Y-86453671D01*
X119213286Y-86548910D01*
X127714143Y-78017666D02*
X127761762Y-78065285D01*
X127809381Y-78208142D01*
X127809381Y-78303380D01*
X127761762Y-78446238D01*
X127666524Y-78541476D01*
X127571286Y-78589095D01*
X127380810Y-78636714D01*
X127237952Y-78636714D01*
X127047476Y-78589095D01*
X126952238Y-78541476D01*
X126857000Y-78446238D01*
X126809381Y-78303380D01*
X126809381Y-78208142D01*
X126857000Y-78065285D01*
X126904619Y-78017666D01*
X127237952Y-77446238D02*
X127190333Y-77541476D01*
X127142714Y-77589095D01*
X127047476Y-77636714D01*
X126999857Y-77636714D01*
X126904619Y-77589095D01*
X126857000Y-77541476D01*
X126809381Y-77446238D01*
X126809381Y-77255761D01*
X126857000Y-77160523D01*
X126904619Y-77112904D01*
X126999857Y-77065285D01*
X127047476Y-77065285D01*
X127142714Y-77112904D01*
X127190333Y-77160523D01*
X127237952Y-77255761D01*
X127237952Y-77446238D01*
X127285571Y-77541476D01*
X127333190Y-77589095D01*
X127428429Y-77636714D01*
X127618905Y-77636714D01*
X127714143Y-77589095D01*
X127761762Y-77541476D01*
X127809381Y-77446238D01*
X127809381Y-77255761D01*
X127761762Y-77160523D01*
X127714143Y-77112904D01*
X127618905Y-77065285D01*
X127428429Y-77065285D01*
X127333190Y-77112904D01*
X127285571Y-77160523D01*
X127237952Y-77255761D01*
X118324334Y-64365143D02*
X118276715Y-64412762D01*
X118133858Y-64460381D01*
X118038620Y-64460381D01*
X117895762Y-64412762D01*
X117800524Y-64317524D01*
X117752905Y-64222286D01*
X117705286Y-64031810D01*
X117705286Y-63888952D01*
X117752905Y-63698476D01*
X117800524Y-63603238D01*
X117895762Y-63508000D01*
X118038620Y-63460381D01*
X118133858Y-63460381D01*
X118276715Y-63508000D01*
X118324334Y-63555619D01*
X118800524Y-64460381D02*
X118991000Y-64460381D01*
X119086239Y-64412762D01*
X119133858Y-64365143D01*
X119229096Y-64222286D01*
X119276715Y-64031810D01*
X119276715Y-63650857D01*
X119229096Y-63555619D01*
X119181477Y-63508000D01*
X119086239Y-63460381D01*
X118895762Y-63460381D01*
X118800524Y-63508000D01*
X118752905Y-63555619D01*
X118705286Y-63650857D01*
X118705286Y-63888952D01*
X118752905Y-63984190D01*
X118800524Y-64031810D01*
X118895762Y-64079429D01*
X119086239Y-64079429D01*
X119181477Y-64031810D01*
X119229096Y-63984190D01*
X119276715Y-63888952D01*
X91330543Y-48807643D02*
X91282924Y-48855262D01*
X91140067Y-48902881D01*
X91044829Y-48902881D01*
X90901971Y-48855262D01*
X90806733Y-48760024D01*
X90759114Y-48664786D01*
X90711495Y-48474310D01*
X90711495Y-48331452D01*
X90759114Y-48140976D01*
X90806733Y-48045738D01*
X90901971Y-47950500D01*
X91044829Y-47902881D01*
X91140067Y-47902881D01*
X91282924Y-47950500D01*
X91330543Y-47998119D01*
X92282924Y-48902881D02*
X91711495Y-48902881D01*
X91997209Y-48902881D02*
X91997209Y-47902881D01*
X91901971Y-48045738D01*
X91806733Y-48140976D01*
X91711495Y-48188595D01*
X92663876Y-47998119D02*
X92711495Y-47950500D01*
X92806733Y-47902881D01*
X93044829Y-47902881D01*
X93140067Y-47950500D01*
X93187686Y-47998119D01*
X93235305Y-48093357D01*
X93235305Y-48188595D01*
X93187686Y-48331452D01*
X92616257Y-48902881D01*
X93235305Y-48902881D01*
X94794343Y-50147457D02*
X94841962Y-50195076D01*
X94889581Y-50337933D01*
X94889581Y-50433171D01*
X94841962Y-50576029D01*
X94746724Y-50671267D01*
X94651486Y-50718886D01*
X94461010Y-50766505D01*
X94318152Y-50766505D01*
X94127676Y-50718886D01*
X94032438Y-50671267D01*
X93937200Y-50576029D01*
X93889581Y-50433171D01*
X93889581Y-50337933D01*
X93937200Y-50195076D01*
X93984819Y-50147457D01*
X94889581Y-49195076D02*
X94889581Y-49766505D01*
X94889581Y-49480791D02*
X93889581Y-49480791D01*
X94032438Y-49576029D01*
X94127676Y-49671267D01*
X94175295Y-49766505D01*
X94222914Y-48337933D02*
X94889581Y-48337933D01*
X93841962Y-48576029D02*
X94556248Y-48814124D01*
X94556248Y-48195076D01*
X108167443Y-58389757D02*
X108215062Y-58437376D01*
X108262681Y-58580233D01*
X108262681Y-58675471D01*
X108215062Y-58818329D01*
X108119824Y-58913567D01*
X108024586Y-58961186D01*
X107834110Y-59008805D01*
X107691252Y-59008805D01*
X107500776Y-58961186D01*
X107405538Y-58913567D01*
X107310300Y-58818329D01*
X107262681Y-58675471D01*
X107262681Y-58580233D01*
X107310300Y-58437376D01*
X107357919Y-58389757D01*
X107357919Y-58008805D02*
X107310300Y-57961186D01*
X107262681Y-57865948D01*
X107262681Y-57627852D01*
X107310300Y-57532614D01*
X107357919Y-57484995D01*
X107453157Y-57437376D01*
X107548395Y-57437376D01*
X107691252Y-57484995D01*
X108262681Y-58056424D01*
X108262681Y-57437376D01*
X107262681Y-56818329D02*
X107262681Y-56723090D01*
X107310300Y-56627852D01*
X107357919Y-56580233D01*
X107453157Y-56532614D01*
X107643633Y-56484995D01*
X107881729Y-56484995D01*
X108072205Y-56532614D01*
X108167443Y-56580233D01*
X108215062Y-56627852D01*
X108262681Y-56723090D01*
X108262681Y-56818329D01*
X108215062Y-56913567D01*
X108167443Y-56961186D01*
X108072205Y-57008805D01*
X107881729Y-57056424D01*
X107643633Y-57056424D01*
X107453157Y-57008805D01*
X107357919Y-56961186D01*
X107310300Y-56913567D01*
X107262681Y-56818329D01*
X93263981Y-106859295D02*
X92263981Y-106859295D01*
X92263981Y-106621200D01*
X92311600Y-106478342D01*
X92406838Y-106383104D01*
X92502076Y-106335485D01*
X92692552Y-106287866D01*
X92835410Y-106287866D01*
X93025886Y-106335485D01*
X93121124Y-106383104D01*
X93216362Y-106478342D01*
X93263981Y-106621200D01*
X93263981Y-106859295D01*
X92263981Y-105954533D02*
X92263981Y-105335485D01*
X92644933Y-105668819D01*
X92644933Y-105525961D01*
X92692552Y-105430723D01*
X92740171Y-105383104D01*
X92835410Y-105335485D01*
X93073505Y-105335485D01*
X93168743Y-105383104D01*
X93216362Y-105430723D01*
X93263981Y-105525961D01*
X93263981Y-105811676D01*
X93216362Y-105906914D01*
X93168743Y-105954533D01*
X92098834Y-77922381D02*
X91765500Y-77446190D01*
X91527405Y-77922381D02*
X91527405Y-76922381D01*
X91908358Y-76922381D01*
X92003596Y-76970000D01*
X92051215Y-77017619D01*
X92098834Y-77112857D01*
X92098834Y-77255714D01*
X92051215Y-77350952D01*
X92003596Y-77398571D01*
X91908358Y-77446190D01*
X91527405Y-77446190D01*
X92670262Y-77350952D02*
X92575024Y-77303333D01*
X92527405Y-77255714D01*
X92479786Y-77160476D01*
X92479786Y-77112857D01*
X92527405Y-77017619D01*
X92575024Y-76970000D01*
X92670262Y-76922381D01*
X92860739Y-76922381D01*
X92955977Y-76970000D01*
X93003596Y-77017619D01*
X93051215Y-77112857D01*
X93051215Y-77160476D01*
X93003596Y-77255714D01*
X92955977Y-77303333D01*
X92860739Y-77350952D01*
X92670262Y-77350952D01*
X92575024Y-77398571D01*
X92527405Y-77446190D01*
X92479786Y-77541429D01*
X92479786Y-77731905D01*
X92527405Y-77827143D01*
X92575024Y-77874762D01*
X92670262Y-77922381D01*
X92860739Y-77922381D01*
X92955977Y-77874762D01*
X93003596Y-77827143D01*
X93051215Y-77731905D01*
X93051215Y-77541429D01*
X93003596Y-77446190D01*
X92955977Y-77398571D01*
X92860739Y-77350952D01*
X92086134Y-80563981D02*
X91752800Y-80087790D01*
X91514705Y-80563981D02*
X91514705Y-79563981D01*
X91895658Y-79563981D01*
X91990896Y-79611600D01*
X92038515Y-79659219D01*
X92086134Y-79754457D01*
X92086134Y-79897314D01*
X92038515Y-79992552D01*
X91990896Y-80040171D01*
X91895658Y-80087790D01*
X91514705Y-80087790D01*
X92562324Y-80563981D02*
X92752800Y-80563981D01*
X92848039Y-80516362D01*
X92895658Y-80468743D01*
X92990896Y-80325886D01*
X93038515Y-80135410D01*
X93038515Y-79754457D01*
X92990896Y-79659219D01*
X92943277Y-79611600D01*
X92848039Y-79563981D01*
X92657562Y-79563981D01*
X92562324Y-79611600D01*
X92514705Y-79659219D01*
X92467086Y-79754457D01*
X92467086Y-79992552D01*
X92514705Y-80087790D01*
X92562324Y-80135410D01*
X92657562Y-80183029D01*
X92848039Y-80183029D01*
X92943277Y-80135410D01*
X92990896Y-80087790D01*
X93038515Y-79992552D01*
X92079843Y-79217781D02*
X91746509Y-78741590D01*
X91508414Y-79217781D02*
X91508414Y-78217781D01*
X91889367Y-78217781D01*
X91984605Y-78265400D01*
X92032224Y-78313019D01*
X92079843Y-78408257D01*
X92079843Y-78551114D01*
X92032224Y-78646352D01*
X91984605Y-78693971D01*
X91889367Y-78741590D01*
X91508414Y-78741590D01*
X93032224Y-79217781D02*
X92460795Y-79217781D01*
X92746509Y-79217781D02*
X92746509Y-78217781D01*
X92651271Y-78360638D01*
X92556033Y-78455876D01*
X92460795Y-78503495D01*
X93651271Y-78217781D02*
X93746510Y-78217781D01*
X93841748Y-78265400D01*
X93889367Y-78313019D01*
X93936986Y-78408257D01*
X93984605Y-78598733D01*
X93984605Y-78836829D01*
X93936986Y-79027305D01*
X93889367Y-79122543D01*
X93841748Y-79170162D01*
X93746510Y-79217781D01*
X93651271Y-79217781D01*
X93556033Y-79170162D01*
X93508414Y-79122543D01*
X93460795Y-79027305D01*
X93413176Y-78836829D01*
X93413176Y-78598733D01*
X93460795Y-78408257D01*
X93508414Y-78313019D01*
X93556033Y-78265400D01*
X93651271Y-78217781D01*
X71328043Y-84297781D02*
X70994709Y-83821590D01*
X70756614Y-84297781D02*
X70756614Y-83297781D01*
X71137567Y-83297781D01*
X71232805Y-83345400D01*
X71280424Y-83393019D01*
X71328043Y-83488257D01*
X71328043Y-83631114D01*
X71280424Y-83726352D01*
X71232805Y-83773971D01*
X71137567Y-83821590D01*
X70756614Y-83821590D01*
X72280424Y-84297781D02*
X71708995Y-84297781D01*
X71994709Y-84297781D02*
X71994709Y-83297781D01*
X71899471Y-83440638D01*
X71804233Y-83535876D01*
X71708995Y-83583495D01*
X72661376Y-83393019D02*
X72708995Y-83345400D01*
X72804233Y-83297781D01*
X73042329Y-83297781D01*
X73137567Y-83345400D01*
X73185186Y-83393019D01*
X73232805Y-83488257D01*
X73232805Y-83583495D01*
X73185186Y-83726352D01*
X72613757Y-84297781D01*
X73232805Y-84297781D01*
X97291567Y-92200481D02*
X97291567Y-92914767D01*
X97243947Y-93057624D01*
X97148709Y-93152862D01*
X97005852Y-93200481D01*
X96910614Y-93200481D01*
X97910614Y-92629052D02*
X97815376Y-92581433D01*
X97767757Y-92533814D01*
X97720138Y-92438576D01*
X97720138Y-92390957D01*
X97767757Y-92295719D01*
X97815376Y-92248100D01*
X97910614Y-92200481D01*
X98101091Y-92200481D01*
X98196329Y-92248100D01*
X98243948Y-92295719D01*
X98291567Y-92390957D01*
X98291567Y-92438576D01*
X98243948Y-92533814D01*
X98196329Y-92581433D01*
X98101091Y-92629052D01*
X97910614Y-92629052D01*
X97815376Y-92676671D01*
X97767757Y-92724290D01*
X97720138Y-92819529D01*
X97720138Y-93010005D01*
X97767757Y-93105243D01*
X97815376Y-93152862D01*
X97910614Y-93200481D01*
X98101091Y-93200481D01*
X98196329Y-93152862D01*
X98243948Y-93105243D01*
X98291567Y-93010005D01*
X98291567Y-92819529D01*
X98243948Y-92724290D01*
X98196329Y-92676671D01*
X98101091Y-92629052D01*
X111953777Y-54405281D02*
X111953777Y-55119567D01*
X111906157Y-55262424D01*
X111810919Y-55357662D01*
X111668062Y-55405281D01*
X111572824Y-55405281D01*
X112953777Y-55405281D02*
X112382348Y-55405281D01*
X112668062Y-55405281D02*
X112668062Y-54405281D01*
X112572824Y-54548138D01*
X112477586Y-54643376D01*
X112382348Y-54690995D01*
X113334729Y-54500519D02*
X113382348Y-54452900D01*
X113477586Y-54405281D01*
X113715682Y-54405281D01*
X113810920Y-54452900D01*
X113858539Y-54500519D01*
X113906158Y-54595757D01*
X113906158Y-54690995D01*
X113858539Y-54833852D01*
X113287110Y-55405281D01*
X113906158Y-55405281D01*
X122380477Y-79672381D02*
X122380477Y-80386667D01*
X122332857Y-80529524D01*
X122237619Y-80624762D01*
X122094762Y-80672381D01*
X121999524Y-80672381D01*
X123380477Y-80672381D02*
X122809048Y-80672381D01*
X123094762Y-80672381D02*
X123094762Y-79672381D01*
X122999524Y-79815238D01*
X122904286Y-79910476D01*
X122809048Y-79958095D01*
X124237620Y-80005714D02*
X124237620Y-80672381D01*
X123999524Y-79624762D02*
X123761429Y-80339048D01*
X124380477Y-80339048D01*
X114506477Y-56983381D02*
X114506477Y-57697667D01*
X114458857Y-57840524D01*
X114363619Y-57935762D01*
X114220762Y-57983381D01*
X114125524Y-57983381D01*
X115506477Y-57983381D02*
X114935048Y-57983381D01*
X115220762Y-57983381D02*
X115220762Y-56983381D01*
X115125524Y-57126238D01*
X115030286Y-57221476D01*
X114935048Y-57269095D01*
X116411239Y-56983381D02*
X115935048Y-56983381D01*
X115887429Y-57459571D01*
X115935048Y-57411952D01*
X116030286Y-57364333D01*
X116268382Y-57364333D01*
X116363620Y-57411952D01*
X116411239Y-57459571D01*
X116458858Y-57554810D01*
X116458858Y-57792905D01*
X116411239Y-57888143D01*
X116363620Y-57935762D01*
X116268382Y-57983381D01*
X116030286Y-57983381D01*
X115935048Y-57935762D01*
X115887429Y-57888143D01*
X99363281Y-80883023D02*
X100077567Y-80883023D01*
X100220424Y-80930643D01*
X100315662Y-81025881D01*
X100363281Y-81168738D01*
X100363281Y-81263976D01*
X100363281Y-79883023D02*
X100363281Y-80454452D01*
X100363281Y-80168738D02*
X99363281Y-80168738D01*
X99506138Y-80263976D01*
X99601376Y-80359214D01*
X99648995Y-80454452D01*
X99363281Y-79025880D02*
X99363281Y-79216357D01*
X99410900Y-79311595D01*
X99458519Y-79359214D01*
X99601376Y-79454452D01*
X99791852Y-79502071D01*
X100172805Y-79502071D01*
X100268043Y-79454452D01*
X100315662Y-79406833D01*
X100363281Y-79311595D01*
X100363281Y-79121118D01*
X100315662Y-79025880D01*
X100268043Y-78978261D01*
X100172805Y-78930642D01*
X99934710Y-78930642D01*
X99839471Y-78978261D01*
X99791852Y-79025880D01*
X99744233Y-79121118D01*
X99744233Y-79311595D01*
X99791852Y-79406833D01*
X99839471Y-79454452D01*
X99934710Y-79502071D01*
X98372634Y-77522343D02*
X98325015Y-77569962D01*
X98182158Y-77617581D01*
X98086920Y-77617581D01*
X97944062Y-77569962D01*
X97848824Y-77474724D01*
X97801205Y-77379486D01*
X97753586Y-77189010D01*
X97753586Y-77046152D01*
X97801205Y-76855676D01*
X97848824Y-76760438D01*
X97944062Y-76665200D01*
X98086920Y-76617581D01*
X98182158Y-76617581D01*
X98325015Y-76665200D01*
X98372634Y-76712819D01*
X99325015Y-77617581D02*
X98753586Y-77617581D01*
X99039300Y-77617581D02*
X99039300Y-76617581D01*
X98944062Y-76760438D01*
X98848824Y-76855676D01*
X98753586Y-76903295D01*
X98512334Y-75922143D02*
X98464715Y-75969762D01*
X98321858Y-76017381D01*
X98226620Y-76017381D01*
X98083762Y-75969762D01*
X97988524Y-75874524D01*
X97940905Y-75779286D01*
X97893286Y-75588810D01*
X97893286Y-75445952D01*
X97940905Y-75255476D01*
X97988524Y-75160238D01*
X98083762Y-75065000D01*
X98226620Y-75017381D01*
X98321858Y-75017381D01*
X98464715Y-75065000D01*
X98512334Y-75112619D01*
X98845667Y-75017381D02*
X99464715Y-75017381D01*
X99131381Y-75398333D01*
X99274239Y-75398333D01*
X99369477Y-75445952D01*
X99417096Y-75493571D01*
X99464715Y-75588810D01*
X99464715Y-75826905D01*
X99417096Y-75922143D01*
X99369477Y-75969762D01*
X99274239Y-76017381D01*
X98988524Y-76017381D01*
X98893286Y-75969762D01*
X98845667Y-75922143D01*
X99245000Y-73722667D02*
X99011666Y-73389333D01*
X98845000Y-73722667D02*
X98845000Y-73022667D01*
X99111666Y-73022667D01*
X99178333Y-73056000D01*
X99211666Y-73089333D01*
X99245000Y-73156000D01*
X99245000Y-73256000D01*
X99211666Y-73322667D01*
X99178333Y-73356000D01*
X99111666Y-73389333D01*
X98845000Y-73389333D01*
X99911666Y-73722667D02*
X99511666Y-73722667D01*
X99711666Y-73722667D02*
X99711666Y-73022667D01*
X99645000Y-73122667D01*
X99578333Y-73189333D01*
X99511666Y-73222667D01*
X100511667Y-73256000D02*
X100511667Y-73722667D01*
X100345000Y-72989333D02*
X100178333Y-73489333D01*
X100611667Y-73489333D01*
X103124143Y-86494857D02*
X103171762Y-86542476D01*
X103219381Y-86685333D01*
X103219381Y-86780571D01*
X103171762Y-86923429D01*
X103076524Y-87018667D01*
X102981286Y-87066286D01*
X102790810Y-87113905D01*
X102647952Y-87113905D01*
X102457476Y-87066286D01*
X102362238Y-87018667D01*
X102267000Y-86923429D01*
X102219381Y-86780571D01*
X102219381Y-86685333D01*
X102267000Y-86542476D01*
X102314619Y-86494857D01*
X102314619Y-86113905D02*
X102267000Y-86066286D01*
X102219381Y-85971048D01*
X102219381Y-85732952D01*
X102267000Y-85637714D01*
X102314619Y-85590095D01*
X102409857Y-85542476D01*
X102505095Y-85542476D01*
X102647952Y-85590095D01*
X103219381Y-86161524D01*
X103219381Y-85542476D01*
X102647952Y-84971048D02*
X102600333Y-85066286D01*
X102552714Y-85113905D01*
X102457476Y-85161524D01*
X102409857Y-85161524D01*
X102314619Y-85113905D01*
X102267000Y-85066286D01*
X102219381Y-84971048D01*
X102219381Y-84780571D01*
X102267000Y-84685333D01*
X102314619Y-84637714D01*
X102409857Y-84590095D01*
X102457476Y-84590095D01*
X102552714Y-84637714D01*
X102600333Y-84685333D01*
X102647952Y-84780571D01*
X102647952Y-84971048D01*
X102695571Y-85066286D01*
X102743190Y-85113905D01*
X102838429Y-85161524D01*
X103028905Y-85161524D01*
X103124143Y-85113905D01*
X103171762Y-85066286D01*
X103219381Y-84971048D01*
X103219381Y-84780571D01*
X103171762Y-84685333D01*
X103124143Y-84637714D01*
X103028905Y-84590095D01*
X102838429Y-84590095D01*
X102743190Y-84637714D01*
X102695571Y-84685333D01*
X102647952Y-84780571D01*
X65202381Y-52879523D02*
X65916667Y-52879523D01*
X66059524Y-52927143D01*
X66154762Y-53022381D01*
X66202381Y-53165238D01*
X66202381Y-53260476D01*
X66202381Y-51879523D02*
X66202381Y-52450952D01*
X66202381Y-52165238D02*
X65202381Y-52165238D01*
X65345238Y-52260476D01*
X65440476Y-52355714D01*
X65488095Y-52450952D01*
X65202381Y-51546190D02*
X65202381Y-50879523D01*
X66202381Y-51308095D01*
X102495505Y-92517981D02*
X102495505Y-93327505D01*
X102543124Y-93422743D01*
X102590743Y-93470362D01*
X102685981Y-93517981D01*
X102876458Y-93517981D01*
X102971696Y-93470362D01*
X103019315Y-93422743D01*
X103066934Y-93327505D01*
X103066934Y-92517981D01*
X104066934Y-93517981D02*
X103495505Y-93517981D01*
X103781219Y-93517981D02*
X103781219Y-92517981D01*
X103685981Y-92660838D01*
X103590743Y-92756076D01*
X103495505Y-92803695D01*
X104685981Y-92517981D02*
X104781220Y-92517981D01*
X104876458Y-92565600D01*
X104924077Y-92613219D01*
X104971696Y-92708457D01*
X105019315Y-92898933D01*
X105019315Y-93137029D01*
X104971696Y-93327505D01*
X104924077Y-93422743D01*
X104876458Y-93470362D01*
X104781220Y-93517981D01*
X104685981Y-93517981D01*
X104590743Y-93470362D01*
X104543124Y-93422743D01*
X104495505Y-93327505D01*
X104447886Y-93137029D01*
X104447886Y-92898933D01*
X104495505Y-92708457D01*
X104543124Y-92613219D01*
X104590743Y-92565600D01*
X104685981Y-92517981D01*
X121696243Y-85523343D02*
X121648624Y-85570962D01*
X121505767Y-85618581D01*
X121410529Y-85618581D01*
X121267671Y-85570962D01*
X121172433Y-85475724D01*
X121124814Y-85380486D01*
X121077195Y-85190010D01*
X121077195Y-85047152D01*
X121124814Y-84856676D01*
X121172433Y-84761438D01*
X121267671Y-84666200D01*
X121410529Y-84618581D01*
X121505767Y-84618581D01*
X121648624Y-84666200D01*
X121696243Y-84713819D01*
X122077195Y-84713819D02*
X122124814Y-84666200D01*
X122220052Y-84618581D01*
X122458148Y-84618581D01*
X122553386Y-84666200D01*
X122601005Y-84713819D01*
X122648624Y-84809057D01*
X122648624Y-84904295D01*
X122601005Y-85047152D01*
X122029576Y-85618581D01*
X122648624Y-85618581D01*
X123124814Y-85618581D02*
X123315290Y-85618581D01*
X123410529Y-85570962D01*
X123458148Y-85523343D01*
X123553386Y-85380486D01*
X123601005Y-85190010D01*
X123601005Y-84809057D01*
X123553386Y-84713819D01*
X123505767Y-84666200D01*
X123410529Y-84618581D01*
X123220052Y-84618581D01*
X123124814Y-84666200D01*
X123077195Y-84713819D01*
X123029576Y-84809057D01*
X123029576Y-85047152D01*
X123077195Y-85142390D01*
X123124814Y-85190010D01*
X123220052Y-85237629D01*
X123410529Y-85237629D01*
X123505767Y-85190010D01*
X123553386Y-85142390D01*
X123601005Y-85047152D01*
X114323905Y-60396381D02*
X114323905Y-59396381D01*
X114562000Y-59396381D01*
X114704858Y-59444000D01*
X114800096Y-59539238D01*
X114847715Y-59634476D01*
X114895334Y-59824952D01*
X114895334Y-59967810D01*
X114847715Y-60158286D01*
X114800096Y-60253524D01*
X114704858Y-60348762D01*
X114562000Y-60396381D01*
X114323905Y-60396381D01*
X115752477Y-59396381D02*
X115562000Y-59396381D01*
X115466762Y-59444000D01*
X115419143Y-59491619D01*
X115323905Y-59634476D01*
X115276286Y-59824952D01*
X115276286Y-60205905D01*
X115323905Y-60301143D01*
X115371524Y-60348762D01*
X115466762Y-60396381D01*
X115657239Y-60396381D01*
X115752477Y-60348762D01*
X115800096Y-60301143D01*
X115847715Y-60205905D01*
X115847715Y-59967810D01*
X115800096Y-59872571D01*
X115752477Y-59824952D01*
X115657239Y-59777333D01*
X115466762Y-59777333D01*
X115371524Y-59824952D01*
X115323905Y-59872571D01*
X115276286Y-59967810D01*
X123467905Y-60396381D02*
X123467905Y-59396381D01*
X123706000Y-59396381D01*
X123848858Y-59444000D01*
X123944096Y-59539238D01*
X123991715Y-59634476D01*
X124039334Y-59824952D01*
X124039334Y-59967810D01*
X123991715Y-60158286D01*
X123944096Y-60253524D01*
X123848858Y-60348762D01*
X123706000Y-60396381D01*
X123467905Y-60396381D01*
X124372667Y-59396381D02*
X125039334Y-59396381D01*
X124610762Y-60396381D01*
X121610381Y-66555857D02*
X121134190Y-66889191D01*
X121610381Y-67127286D02*
X120610381Y-67127286D01*
X120610381Y-66746333D01*
X120658000Y-66651095D01*
X120705619Y-66603476D01*
X120800857Y-66555857D01*
X120943714Y-66555857D01*
X121038952Y-66603476D01*
X121086571Y-66651095D01*
X121134190Y-66746333D01*
X121134190Y-67127286D01*
X121610381Y-65603476D02*
X121610381Y-66174905D01*
X121610381Y-65889191D02*
X120610381Y-65889191D01*
X120753238Y-65984429D01*
X120848476Y-66079667D01*
X120896095Y-66174905D01*
X120610381Y-64698714D02*
X120610381Y-65174905D01*
X121086571Y-65222524D01*
X121038952Y-65174905D01*
X120991333Y-65079667D01*
X120991333Y-64841571D01*
X121038952Y-64746333D01*
X121086571Y-64698714D01*
X121181810Y-64651095D01*
X121419905Y-64651095D01*
X121515143Y-64698714D01*
X121562762Y-64746333D01*
X121610381Y-64841571D01*
X121610381Y-65079667D01*
X121562762Y-65174905D01*
X121515143Y-65222524D01*
X123388381Y-66555857D02*
X122912190Y-66889191D01*
X123388381Y-67127286D02*
X122388381Y-67127286D01*
X122388381Y-66746333D01*
X122436000Y-66651095D01*
X122483619Y-66603476D01*
X122578857Y-66555857D01*
X122721714Y-66555857D01*
X122816952Y-66603476D01*
X122864571Y-66651095D01*
X122912190Y-66746333D01*
X122912190Y-67127286D01*
X123388381Y-65603476D02*
X123388381Y-66174905D01*
X123388381Y-65889191D02*
X122388381Y-65889191D01*
X122531238Y-65984429D01*
X122626476Y-66079667D01*
X122674095Y-66174905D01*
X122388381Y-64746333D02*
X122388381Y-64936810D01*
X122436000Y-65032048D01*
X122483619Y-65079667D01*
X122626476Y-65174905D01*
X122816952Y-65222524D01*
X123197905Y-65222524D01*
X123293143Y-65174905D01*
X123340762Y-65127286D01*
X123388381Y-65032048D01*
X123388381Y-64841571D01*
X123340762Y-64746333D01*
X123293143Y-64698714D01*
X123197905Y-64651095D01*
X122959810Y-64651095D01*
X122864571Y-64698714D01*
X122816952Y-64746333D01*
X122769333Y-64841571D01*
X122769333Y-65032048D01*
X122816952Y-65127286D01*
X122864571Y-65174905D01*
X122959810Y-65222524D01*
X94449995Y-100264981D02*
X94449995Y-101074505D01*
X94497614Y-101169743D01*
X94545233Y-101217362D01*
X94640471Y-101264981D01*
X94830948Y-101264981D01*
X94926186Y-101217362D01*
X94973805Y-101169743D01*
X95021424Y-101074505D01*
X95021424Y-100264981D01*
X95640471Y-100693552D02*
X95545233Y-100645933D01*
X95497614Y-100598314D01*
X95449995Y-100503076D01*
X95449995Y-100455457D01*
X95497614Y-100360219D01*
X95545233Y-100312600D01*
X95640471Y-100264981D01*
X95830948Y-100264981D01*
X95926186Y-100312600D01*
X95973805Y-100360219D01*
X96021424Y-100455457D01*
X96021424Y-100503076D01*
X95973805Y-100598314D01*
X95926186Y-100645933D01*
X95830948Y-100693552D01*
X95640471Y-100693552D01*
X95545233Y-100741171D01*
X95497614Y-100788790D01*
X95449995Y-100884029D01*
X95449995Y-101074505D01*
X95497614Y-101169743D01*
X95545233Y-101217362D01*
X95640471Y-101264981D01*
X95830948Y-101264981D01*
X95926186Y-101217362D01*
X95973805Y-101169743D01*
X96021424Y-101074505D01*
X96021424Y-100884029D01*
X95973805Y-100788790D01*
X95926186Y-100741171D01*
X95830948Y-100693552D01*
X113958227Y-62648223D02*
X114530647Y-63220643D01*
X114631662Y-63254315D01*
X114699005Y-63254315D01*
X114800020Y-63220643D01*
X114934708Y-63085955D01*
X114968380Y-62984940D01*
X114968380Y-62917597D01*
X114934708Y-62816582D01*
X114362288Y-62244162D01*
X114732677Y-62008460D02*
X114732677Y-61941116D01*
X114766349Y-61840101D01*
X114934708Y-61671742D01*
X115035723Y-61638070D01*
X115103067Y-61638070D01*
X115204082Y-61671742D01*
X115271425Y-61739085D01*
X115338769Y-61873772D01*
X115338769Y-62681895D01*
X115776502Y-62244162D01*
X101806477Y-82002381D02*
X101806477Y-82716667D01*
X101758857Y-82859524D01*
X101663619Y-82954762D01*
X101520762Y-83002381D01*
X101425524Y-83002381D01*
X102235048Y-82097619D02*
X102282667Y-82050000D01*
X102377905Y-82002381D01*
X102616001Y-82002381D01*
X102711239Y-82050000D01*
X102758858Y-82097619D01*
X102806477Y-82192857D01*
X102806477Y-82288095D01*
X102758858Y-82430952D01*
X102187429Y-83002381D01*
X102806477Y-83002381D01*
X103139810Y-82002381D02*
X103758858Y-82002381D01*
X103425524Y-82383333D01*
X103568382Y-82383333D01*
X103663620Y-82430952D01*
X103711239Y-82478571D01*
X103758858Y-82573810D01*
X103758858Y-82811905D01*
X103711239Y-82907143D01*
X103663620Y-82954762D01*
X103568382Y-83002381D01*
X103282667Y-83002381D01*
X103187429Y-82954762D01*
X103139810Y-82907143D01*
X105362477Y-79716381D02*
X105362477Y-80430667D01*
X105314857Y-80573524D01*
X105219619Y-80668762D01*
X105076762Y-80716381D01*
X104981524Y-80716381D01*
X105791048Y-79811619D02*
X105838667Y-79764000D01*
X105933905Y-79716381D01*
X106172001Y-79716381D01*
X106267239Y-79764000D01*
X106314858Y-79811619D01*
X106362477Y-79906857D01*
X106362477Y-80002095D01*
X106314858Y-80144952D01*
X105743429Y-80716381D01*
X106362477Y-80716381D01*
X107219620Y-80049714D02*
X107219620Y-80716381D01*
X106981524Y-79668762D02*
X106743429Y-80383048D01*
X107362477Y-80383048D01*
X106759477Y-86701381D02*
X106759477Y-87415667D01*
X106711857Y-87558524D01*
X106616619Y-87653762D01*
X106473762Y-87701381D01*
X106378524Y-87701381D01*
X107188048Y-86796619D02*
X107235667Y-86749000D01*
X107330905Y-86701381D01*
X107569001Y-86701381D01*
X107664239Y-86749000D01*
X107711858Y-86796619D01*
X107759477Y-86891857D01*
X107759477Y-86987095D01*
X107711858Y-87129952D01*
X107140429Y-87701381D01*
X107759477Y-87701381D01*
X108664239Y-86701381D02*
X108188048Y-86701381D01*
X108140429Y-87177571D01*
X108188048Y-87129952D01*
X108283286Y-87082333D01*
X108521382Y-87082333D01*
X108616620Y-87129952D01*
X108664239Y-87177571D01*
X108711858Y-87272810D01*
X108711858Y-87510905D01*
X108664239Y-87606143D01*
X108616620Y-87653762D01*
X108521382Y-87701381D01*
X108283286Y-87701381D01*
X108188048Y-87653762D01*
X108140429Y-87606143D01*
X109934477Y-86701381D02*
X109934477Y-87415667D01*
X109886857Y-87558524D01*
X109791619Y-87653762D01*
X109648762Y-87701381D01*
X109553524Y-87701381D01*
X110363048Y-86796619D02*
X110410667Y-86749000D01*
X110505905Y-86701381D01*
X110744001Y-86701381D01*
X110839239Y-86749000D01*
X110886858Y-86796619D01*
X110934477Y-86891857D01*
X110934477Y-86987095D01*
X110886858Y-87129952D01*
X110315429Y-87701381D01*
X110934477Y-87701381D01*
X111791620Y-86701381D02*
X111601143Y-86701381D01*
X111505905Y-86749000D01*
X111458286Y-86796619D01*
X111363048Y-86939476D01*
X111315429Y-87129952D01*
X111315429Y-87510905D01*
X111363048Y-87606143D01*
X111410667Y-87653762D01*
X111505905Y-87701381D01*
X111696382Y-87701381D01*
X111791620Y-87653762D01*
X111839239Y-87606143D01*
X111886858Y-87510905D01*
X111886858Y-87272810D01*
X111839239Y-87177571D01*
X111791620Y-87129952D01*
X111696382Y-87082333D01*
X111505905Y-87082333D01*
X111410667Y-87129952D01*
X111363048Y-87177571D01*
X111315429Y-87272810D01*
X72596477Y-105243381D02*
X72596477Y-105957667D01*
X72548857Y-106100524D01*
X72453619Y-106195762D01*
X72310762Y-106243381D01*
X72215524Y-106243381D01*
X73025048Y-105338619D02*
X73072667Y-105291000D01*
X73167905Y-105243381D01*
X73406001Y-105243381D01*
X73501239Y-105291000D01*
X73548858Y-105338619D01*
X73596477Y-105433857D01*
X73596477Y-105529095D01*
X73548858Y-105671952D01*
X72977429Y-106243381D01*
X73596477Y-106243381D01*
X74167905Y-105671952D02*
X74072667Y-105624333D01*
X74025048Y-105576714D01*
X73977429Y-105481476D01*
X73977429Y-105433857D01*
X74025048Y-105338619D01*
X74072667Y-105291000D01*
X74167905Y-105243381D01*
X74358382Y-105243381D01*
X74453620Y-105291000D01*
X74501239Y-105338619D01*
X74548858Y-105433857D01*
X74548858Y-105481476D01*
X74501239Y-105576714D01*
X74453620Y-105624333D01*
X74358382Y-105671952D01*
X74167905Y-105671952D01*
X74072667Y-105719571D01*
X74025048Y-105767190D01*
X73977429Y-105862429D01*
X73977429Y-106052905D01*
X74025048Y-106148143D01*
X74072667Y-106195762D01*
X74167905Y-106243381D01*
X74358382Y-106243381D01*
X74453620Y-106195762D01*
X74501239Y-106148143D01*
X74548858Y-106052905D01*
X74548858Y-105862429D01*
X74501239Y-105767190D01*
X74453620Y-105719571D01*
X74358382Y-105671952D01*
M02*
