M48
;DRILL file {KiCad 4.0.7-e2-6376~58~ubuntu16.04.1} date Mon Sep 25 15:42:22 2017
;FORMAT={-:-/ absolute / metric / decimal}
FMAT,2
METRIC,TZ
T1C0.400
T2C0.500
T3C0.762
T4C1.000
T5C3.200
%
G90
G05
M71
T1
X69.215Y-143.51
X69.215Y-146.939
X70.358Y-131.445
X70.358Y-138.176
X71.628Y-127.889
X71.628Y-137.033
X72.263Y-143.637
X72.39Y-125.857
X73.343Y-150.368
X73.952Y-145.72
X74.422Y-57.277
X74.803Y-152.4
X74.93Y-93.853
X74.93Y-145.669
X75.184Y-129.921
X75.692Y-55.372
X75.692Y-58.293
X75.819Y-144.653
X75.946Y-138.938
X75.946Y-145.796
X76.327Y-70.866
X76.962Y-137.414
X76.962Y-138.938
X77.089Y-166.497
X77.216Y-55.372
X77.216Y-129.921
X77.241Y-131.636
X78.232Y-101.219
X78.486Y-138.049
X78.486Y-140.843
X78.613Y-143.383
X78.613Y-150.876
X78.74Y-164.846
X78.867Y-144.272
X78.994Y-135.636
X79.121Y-60.579
X79.121Y-61.976
X79.121Y-65.913
X79.121Y-132.715
X79.159Y-149.53
X79.248Y-63.881
X79.35Y-150.444
X79.502Y-68.199
X80.124Y-155.562
X80.391Y-167.259
X80.531Y-147.002
X80.531Y-149.568
X80.556Y-154.203
X81.407Y-139.827
X81.407Y-151.003
X81.788Y-143.129
X81.788Y-167.132
X81.915Y-136.271
X81.915Y-144.653
X81.915Y-163.322
X82.042Y-150.495
X82.22Y-157.239
X82.423Y-141.478
X82.804Y-168.275
X83.185Y-63.881
X83.312Y-61.595
X83.312Y-66.04
X83.312Y-91.059
X83.439Y-68.199
X83.655Y-154.495
X83.693Y-60.579
X83.82Y-133.858
X84.328Y-170.053
X84.582Y-98.679
X84.582Y-135.128
X85.014Y-160.058
X85.471Y-168.021
X85.598Y-140.843
X85.979Y-146.304
X86.233Y-160.782
X86.36Y-124.333
X86.36Y-150.368
X86.474Y-50.914
X86.487Y-152.781
X86.741Y-161.417
X86.741Y-166.878
X87.503Y-143.764
X87.503Y-169.926
X87.897Y-58.306
X88.011Y-171.196
X88.138Y-129.413
X88.265Y-143.383
X88.392Y-73.533
X88.519Y-138.684
X88.646Y-71.12
X88.646Y-163.703
X88.773Y-168.783
X88.9Y-83.058
X89.154Y-162.052
X89.408Y-60.338
X89.408Y-62.992
X89.408Y-100.965
X89.662Y-66.167
X89.662Y-68.961
X89.789Y-143.51
X90.068Y-61.417
X90.297Y-111.252
X90.424Y-146.685
X90.932Y-140.97
X91.313Y-152.019
X91.915Y-102.68
X92.202Y-161.163
X92.456Y-43.688
X92.456Y-101.854
X92.71Y-46.355
X93.091Y-167.259
X93.345Y-93.853
X93.472Y-74.93
X93.98Y-47.625
X94.005Y-58.737
X94.031Y-57.76
X94.056Y-158.344
X94.336Y-55.474
X94.488Y-69.85
X94.996Y-43.18
X94.996Y-45.212
X95.123Y-49.403
X95.25Y-58.674
X95.631Y-141.732
X95.847Y-162.154
X95.885Y-142.875
X95.885Y-143.764
X95.885Y-165.735
X96.012Y-63.119
X96.012Y-158.496
X96.139Y-167.767
X96.393Y-46.99
X96.52Y-50.292
X97.79Y-166.878
X97.917Y-170.18
X98.171Y-49.403
X98.298Y-58.674
X98.298Y-154.051
X98.425Y-51.435
X98.425Y-73.406
X98.425Y-74.295
X98.463Y-55.016
X98.679Y-75.438
X99.06Y-158.496
X99.187Y-167.767
X99.314Y-171.958
X99.314Y-173.99
X99.822Y-147.32
X99.974Y-161.696
X100.254Y-58.826
X100.279Y-159.41
X100.305Y-158.433
X100.33Y-169.545
X100.838Y-142.24
X100.965Y-123.317
X101.219Y-49.911
X101.6Y-170.815
X101.854Y-115.316
X101.854Y-173.482
X102.108Y-56.007
X102.395Y-114.49
X102.997Y-65.151
X103.378Y-76.2
X103.886Y-70.485
X104.013Y-105.918
X104.242Y-155.753
X104.521Y-73.66
X104.648Y-148.209
X104.648Y-151.003
X104.902Y-116.205
X104.902Y-154.178
X104.902Y-156.832
X105.156Y-55.118
X105.41Y-134.112
X105.537Y-48.387
X105.664Y-53.467
X105.664Y-146.05
X105.791Y-78.486
X105.918Y-143.637
X106.045Y-73.787
X106.172Y-87.757
X106.299Y-45.974
X106.413Y-158.864
X106.807Y-47.244
X106.807Y-73.406
X107.569Y-50.292
X107.569Y-55.753
X107.823Y-64.389
X107.836Y-166.256
X107.95Y-66.802
X107.95Y-92.837
X108.077Y-56.388
X108.331Y-70.866
X108.712Y-76.327
X108.839Y-49.149
X109.296Y-57.112
X109.728Y-82.042
X109.728Y-118.491
X109.982Y-47.117
X110.49Y-83.312
X110.617Y-156.591
X110.655Y-62.674
X110.871Y-148.971
X110.998Y-126.111
X110.998Y-151.13
X110.998Y-155.575
X111.125Y-153.289
X111.506Y-48.895
X111.887Y-75.692
X112.09Y-59.931
X112.268Y-66.675
X112.395Y-53.848
X112.395Y-72.517
X112.395Y-80.899
X112.522Y-50.038
X112.522Y-74.041
X112.903Y-66.167
X112.903Y-77.343
X113.754Y-62.967
X113.779Y-67.602
X113.779Y-70.167
X113.919Y-49.911
X114.186Y-61.608
X114.808Y-148.971
X114.96Y-66.726
X115.062Y-153.289
X115.151Y-67.64
X115.189Y-84.455
X115.189Y-151.257
X115.189Y-155.194
X115.189Y-156.591
X115.316Y-81.534
X115.443Y-72.898
X115.57Y-52.324
X115.697Y-66.294
X115.697Y-73.787
X115.824Y-76.327
X115.824Y-79.121
X116.078Y-115.951
X117.069Y-85.534
X117.094Y-87.249
X117.094Y-161.798
X117.221Y-50.673
X117.348Y-78.232
X117.348Y-79.756
X117.983Y-146.304
X118.364Y-71.374
X118.364Y-78.232
X118.491Y-72.517
X118.618Y-158.877
X118.618Y-161.798
X119.126Y-87.249
X119.38Y-71.501
X119.38Y-123.317
X119.507Y-64.77
X119.888Y-159.893
X120.358Y-71.45
X120.968Y-66.802
X121.92Y-91.313
X122.047Y-73.533
X122.682Y-80.137
X122.682Y-89.281
X123.952Y-78.994
X123.952Y-85.725
X125.095Y-70.231
X125.095Y-73.66
T2
X67.31Y-46.99
X67.31Y-49.53
X67.31Y-52.07
X78.74Y-80.518
X81.28Y-80.518
X90.985Y-136.578
X92.329Y-137.922
X101.981Y-79.248
X103.325Y-80.592
X113.03Y-136.652
X115.57Y-136.652
X127.Y-165.1
X127.Y-167.64
X127.Y-170.18
T3
X67.45Y-57.518
X67.45Y-60.058
X67.45Y-62.598
X67.45Y-65.138
X75.07Y-82.918
X77.61Y-82.918
X80.15Y-82.918
X82.69Y-82.918
X85.23Y-82.918
X109.08Y-134.252
X111.62Y-134.252
X114.16Y-134.252
X116.7Y-134.252
X119.24Y-134.252
X126.86Y-152.032
X126.86Y-154.572
X126.86Y-157.112
X126.86Y-159.652
T4
X67.945Y-149.352
X67.945Y-151.892
X67.945Y-154.432
X67.945Y-156.972
X67.945Y-159.512
X67.945Y-162.052
X70.438Y-85.762
X71.12Y-134.62
X75.438Y-100.762
X76.2Y-106.426
X76.2Y-160.02
X78.74Y-162.56
X80.438Y-86.012
X83.82Y-132.08
X86.36Y-132.08
X86.36Y-134.62
X88.9Y-134.62
X96.52Y-127.
X96.52Y-137.16
X97.79Y-80.01
X97.79Y-90.17
X105.41Y-82.55
X107.95Y-82.55
X107.95Y-85.09
X110.49Y-85.09
X113.872Y-131.158
X115.57Y-54.61
X118.11Y-57.15
X118.11Y-110.744
X118.872Y-116.408
X123.19Y-82.55
X123.872Y-131.408
X126.365Y-55.118
X126.365Y-57.658
X126.365Y-60.198
X126.365Y-62.738
X126.365Y-65.278
X126.365Y-67.818
T5
X80.52Y-126.64
X80.52Y-171.64
X88.79Y-45.53
X88.79Y-90.53
X105.52Y-126.64
X105.52Y-171.64
X113.79Y-45.53
X113.79Y-90.53
T4
X68.59Y-108.39G85X70.59Y-108.39
G05
X68.59Y-114.39G85X70.59Y-114.39
G05
X74.29Y-112.39G85X74.29Y-110.39
G05
X120.02Y-104.78G85X120.02Y-106.78
G05
X125.72Y-102.78G85X123.72Y-102.78
G05
X125.72Y-108.78G85X123.72Y-108.78
G05
T0
M30
