G04 #@! TF.FileFunction,Soldermask,Bot*
%FSLAX46Y46*%
G04 Gerber Fmt 4.6, Leading zero omitted, Abs format (unit mm)*
G04 Created by KiCad (PCBNEW 4.0.7-e2-6376~58~ubuntu16.04.1) date Mon Sep 25 15:39:33 2017*
%MOMM*%
%LPD*%
G01*
G04 APERTURE LIST*
%ADD10C,0.100000*%
%ADD11R,2.100000X2.100000*%
%ADD12R,1.400000X1.600000*%
%ADD13R,2.400000X3.100000*%
%ADD14R,2.400000X2.700000*%
%ADD15R,1.000000X1.200000*%
%ADD16R,1.000000X2.400000*%
%ADD17R,2.400000X1.400000*%
%ADD18R,1.700000X1.100000*%
%ADD19R,1.250000X1.250000*%
%ADD20R,1.924000X1.924000*%
%ADD21C,2.000000*%
%ADD22R,1.400000X2.600000*%
%ADD23R,1.400000X1.800000*%
%ADD24C,6.000000*%
%ADD25C,1.400000*%
%ADD26C,1.924000*%
%ADD27R,3.900000X3.900000*%
%ADD28O,2.100000X2.100000*%
G04 APERTURE END LIST*
D10*
D11*
X118110000Y-110744000D03*
D12*
X88392000Y-137160000D03*
D10*
G36*
X88402700Y-139905619D02*
X87200619Y-141107700D01*
X86422802Y-140329883D01*
X87624883Y-139127802D01*
X88402700Y-139905619D01*
X88402700Y-139905619D01*
G37*
G36*
X87059198Y-138562117D02*
X85857117Y-139764198D01*
X85079300Y-138986381D01*
X86281381Y-137784300D01*
X87059198Y-138562117D01*
X87059198Y-138562117D01*
G37*
G36*
X81904300Y-135811381D02*
X83106381Y-134609300D01*
X83884198Y-135387117D01*
X82682117Y-136589198D01*
X81904300Y-135811381D01*
X81904300Y-135811381D01*
G37*
G36*
X83247802Y-137154883D02*
X84449883Y-135952802D01*
X85227700Y-136730619D01*
X84025619Y-137932700D01*
X83247802Y-137154883D01*
X83247802Y-137154883D01*
G37*
D11*
X83820000Y-132080000D03*
X86360000Y-132080000D03*
X86360000Y-134620000D03*
X88900000Y-134620000D03*
D12*
X69215000Y-143510000D03*
X69215000Y-146939000D03*
X86614000Y-159639000D03*
X88392000Y-157607000D03*
X86614000Y-157607000D03*
D13*
X109951000Y-173101000D03*
D14*
X109951000Y-160631000D03*
D13*
X109951000Y-168401000D03*
D14*
X121951000Y-160631000D03*
X121951000Y-166481000D03*
X121951000Y-170881000D03*
D15*
X112621000Y-170281000D03*
X114821000Y-170281000D03*
X118061000Y-170081000D03*
X113721000Y-170081000D03*
X115921000Y-170081000D03*
X117006000Y-170281000D03*
D16*
X120911000Y-173401000D03*
D17*
X115621000Y-159481000D03*
D18*
X92176600Y-160284200D03*
X92176600Y-158384200D03*
D19*
X127000000Y-165100000D03*
D20*
X102124000Y-146050000D03*
X104124000Y-146050000D03*
X102124000Y-143637000D03*
X104124000Y-143637000D03*
D21*
X113872000Y-131158000D03*
X123872000Y-131408000D03*
X118872000Y-116408000D03*
D20*
X87884000Y-150892000D03*
X87884000Y-152892000D03*
X90043000Y-150892000D03*
X90043000Y-152892000D03*
D11*
X96520000Y-137160000D03*
X76200000Y-160020000D03*
X71120000Y-134620000D03*
X78740000Y-162560000D03*
X96520000Y-127000000D03*
D20*
X92694000Y-167513000D03*
X90694000Y-167513000D03*
D22*
X87733000Y-172974000D03*
D23*
X86233000Y-170974000D03*
D22*
X84733000Y-172974000D03*
D24*
X105520000Y-126640000D03*
X80520000Y-171640000D03*
X105520000Y-171640000D03*
X80520000Y-126640000D03*
D25*
X92329000Y-137922000D03*
X90985497Y-136578497D03*
D26*
X126860300Y-159651700D03*
X126860300Y-157111700D03*
X126860300Y-154571700D03*
X126860300Y-152031700D03*
X119240300Y-134251700D03*
X116700300Y-134251700D03*
X114160300Y-134251700D03*
X111620300Y-134251700D03*
X109080300Y-134251700D03*
D27*
X124720000Y-108780000D03*
X124720000Y-102780000D03*
X120020000Y-105780000D03*
D11*
X67945000Y-149352000D03*
D28*
X67945000Y-151892000D03*
X67945000Y-154432000D03*
X67945000Y-156972000D03*
X67945000Y-159512000D03*
X67945000Y-162052000D03*
D19*
X113030000Y-136652000D03*
X115570000Y-136652000D03*
X127000000Y-167640000D03*
X127000000Y-170180000D03*
X67310000Y-46990000D03*
X67310000Y-49530000D03*
X78740000Y-80518000D03*
X81280000Y-80518000D03*
D11*
X126365000Y-67818000D03*
D28*
X126365000Y-65278000D03*
X126365000Y-62738000D03*
X126365000Y-60198000D03*
X126365000Y-57658000D03*
X126365000Y-55118000D03*
D27*
X69590000Y-108390000D03*
X69590000Y-114390000D03*
X74290000Y-111390000D03*
D26*
X67449700Y-57518300D03*
X67449700Y-60058300D03*
X67449700Y-62598300D03*
X67449700Y-65138300D03*
X75069700Y-82918300D03*
X77609700Y-82918300D03*
X80149700Y-82918300D03*
X82689700Y-82918300D03*
X85229700Y-82918300D03*
D25*
X101981000Y-79248000D03*
X103324503Y-80591503D03*
D24*
X113790000Y-90530000D03*
X88790000Y-45530000D03*
X113790000Y-45530000D03*
X88790000Y-90530000D03*
D22*
X106577000Y-44196000D03*
D23*
X108077000Y-46196000D03*
D22*
X109577000Y-44196000D03*
D20*
X101616000Y-49657000D03*
X103616000Y-49657000D03*
D11*
X97790000Y-90170000D03*
X115570000Y-54610000D03*
X123190000Y-82550000D03*
X118110000Y-57150000D03*
X97790000Y-80010000D03*
D20*
X104267000Y-66278000D03*
X104267000Y-64278000D03*
X106426000Y-66278000D03*
X106426000Y-64278000D03*
D21*
X80438000Y-86012000D03*
X70438000Y-85762000D03*
X75438000Y-100762000D03*
D20*
X92186000Y-73533000D03*
X90186000Y-73533000D03*
X92186000Y-71120000D03*
X90186000Y-71120000D03*
D19*
X67310000Y-52070000D03*
D18*
X102133400Y-56885800D03*
X102133400Y-58785800D03*
D13*
X84359000Y-44069000D03*
D14*
X84359000Y-56539000D03*
D13*
X84359000Y-48769000D03*
D14*
X72359000Y-56539000D03*
X72359000Y-50689000D03*
X72359000Y-46289000D03*
D15*
X81689000Y-46889000D03*
X79489000Y-46889000D03*
X76249000Y-47089000D03*
X80589000Y-47089000D03*
X78389000Y-47089000D03*
X77304000Y-46889000D03*
D16*
X73399000Y-43769000D03*
D17*
X78689000Y-57689000D03*
D12*
X107696000Y-59563000D03*
X105918000Y-59563000D03*
X107696000Y-57531000D03*
X125095000Y-70231000D03*
X125095000Y-73660000D03*
D11*
X105410000Y-82550000D03*
X107950000Y-82550000D03*
X107950000Y-85090000D03*
X110490000Y-85090000D03*
D10*
G36*
X112405700Y-81358619D02*
X111203619Y-82560700D01*
X110425802Y-81782883D01*
X111627883Y-80580802D01*
X112405700Y-81358619D01*
X112405700Y-81358619D01*
G37*
G36*
X111062198Y-80015117D02*
X109860117Y-81217198D01*
X109082300Y-80439381D01*
X110284381Y-79237300D01*
X111062198Y-80015117D01*
X111062198Y-80015117D01*
G37*
G36*
X105907300Y-77264381D02*
X107109381Y-76062300D01*
X107887198Y-76840117D01*
X106685117Y-78042198D01*
X105907300Y-77264381D01*
X105907300Y-77264381D01*
G37*
G36*
X107250802Y-78607883D02*
X108452883Y-77405802D01*
X109230700Y-78183619D01*
X108028619Y-79385700D01*
X107250802Y-78607883D01*
X107250802Y-78607883D01*
G37*
D12*
X105918000Y-80010000D03*
D11*
X76200000Y-106426000D03*
M02*
