G04 #@! TF.FileFunction,Soldermask,Top*
%FSLAX46Y46*%
G04 Gerber Fmt 4.6, Leading zero omitted, Abs format (unit mm)*
G04 Created by KiCad (PCBNEW 4.0.7-e2-6376~58~ubuntu16.04.1) date Mon Sep 25 15:39:33 2017*
%MOMM*%
%LPD*%
G01*
G04 APERTURE LIST*
%ADD10C,0.100000*%
%ADD11R,2.100000X2.100000*%
%ADD12R,1.030000X0.850000*%
%ADD13R,1.150000X1.700000*%
%ADD14R,1.700000X1.100000*%
%ADD15R,1.600000X1.600000*%
%ADD16R,1.400000X1.650000*%
%ADD17R,0.900000X0.750000*%
%ADD18R,1.250000X1.250000*%
%ADD19R,1.650000X1.400000*%
%ADD20C,2.000000*%
%ADD21R,1.100000X1.700000*%
%ADD22R,1.600000X1.300000*%
%ADD23R,1.300000X1.200000*%
%ADD24C,6.000000*%
%ADD25R,1.400000X1.400000*%
%ADD26O,1.150000X2.900000*%
%ADD27O,2.900000X1.150000*%
%ADD28R,1.500000X5.000000*%
%ADD29R,11.200000X9.800000*%
%ADD30C,1.400000*%
%ADD31O,1.400000X1.400000*%
%ADD32R,1.950000X1.000000*%
%ADD33C,1.924000*%
%ADD34R,2.840000X1.520000*%
%ADD35R,1.400000X1.924000*%
%ADD36R,1.400000X2.600000*%
%ADD37R,1.400000X1.800000*%
%ADD38R,3.900000X3.900000*%
%ADD39O,2.100000X2.100000*%
%ADD40R,1.300000X1.600000*%
%ADD41R,3.900000X2.000000*%
%ADD42R,2.900000X4.400000*%
G04 APERTURE END LIST*
D10*
D11*
X118110000Y-110744000D03*
X83820000Y-132080000D03*
X86360000Y-132080000D03*
X86360000Y-134620000D03*
X88900000Y-134620000D03*
D10*
G36*
X90065337Y-141049548D02*
X90701733Y-141685944D01*
X89358231Y-143029446D01*
X88721835Y-142393050D01*
X90065337Y-141049548D01*
X90065337Y-141049548D01*
G37*
G36*
X89499652Y-140483863D02*
X90136048Y-141120259D01*
X88792546Y-142463761D01*
X88156150Y-141827365D01*
X89499652Y-140483863D01*
X89499652Y-140483863D01*
G37*
G36*
X88933966Y-139918177D02*
X89570362Y-140554573D01*
X88226860Y-141898075D01*
X87590464Y-141261679D01*
X88933966Y-139918177D01*
X88933966Y-139918177D01*
G37*
G36*
X88368281Y-139352492D02*
X89004677Y-139988888D01*
X87661175Y-141332390D01*
X87024779Y-140695994D01*
X88368281Y-139352492D01*
X88368281Y-139352492D01*
G37*
G36*
X87802596Y-138786806D02*
X88438992Y-139423202D01*
X87095490Y-140766704D01*
X86459094Y-140130308D01*
X87802596Y-138786806D01*
X87802596Y-138786806D01*
G37*
G36*
X87236910Y-138221121D02*
X87873306Y-138857517D01*
X86529804Y-140201019D01*
X85893408Y-139564623D01*
X87236910Y-138221121D01*
X87236910Y-138221121D01*
G37*
G36*
X86671225Y-137655436D02*
X87307621Y-138291832D01*
X85964119Y-139635334D01*
X85327723Y-138998938D01*
X86671225Y-137655436D01*
X86671225Y-137655436D01*
G37*
G36*
X86105539Y-137089750D02*
X86741935Y-137726146D01*
X85398433Y-139069648D01*
X84762037Y-138433252D01*
X86105539Y-137089750D01*
X86105539Y-137089750D01*
G37*
G36*
X85539854Y-136524065D02*
X86176250Y-137160461D01*
X84832748Y-138503963D01*
X84196352Y-137867567D01*
X85539854Y-136524065D01*
X85539854Y-136524065D01*
G37*
G36*
X84974168Y-135958379D02*
X85610564Y-136594775D01*
X84267062Y-137938277D01*
X83630666Y-137301881D01*
X84974168Y-135958379D01*
X84974168Y-135958379D01*
G37*
G36*
X84408483Y-135392694D02*
X85044879Y-136029090D01*
X83701377Y-137372592D01*
X83064981Y-136736196D01*
X84408483Y-135392694D01*
X84408483Y-135392694D01*
G37*
G36*
X83842798Y-134827008D02*
X84479194Y-135463404D01*
X83135692Y-136806906D01*
X82499296Y-136170510D01*
X83842798Y-134827008D01*
X83842798Y-134827008D01*
G37*
G36*
X83277112Y-134261323D02*
X83913508Y-134897719D01*
X82570006Y-136241221D01*
X81933610Y-135604825D01*
X83277112Y-134261323D01*
X83277112Y-134261323D01*
G37*
G36*
X82711427Y-133695638D02*
X83347823Y-134332034D01*
X82004321Y-135675536D01*
X81367925Y-135039140D01*
X82711427Y-133695638D01*
X82711427Y-133695638D01*
G37*
G36*
X82145741Y-133129952D02*
X82782137Y-133766348D01*
X81438635Y-135109850D01*
X80802239Y-134473454D01*
X82145741Y-133129952D01*
X82145741Y-133129952D01*
G37*
G36*
X81580056Y-132564267D02*
X82216452Y-133200663D01*
X80872950Y-134544165D01*
X80236554Y-133907769D01*
X81580056Y-132564267D01*
X81580056Y-132564267D01*
G37*
G36*
X77549548Y-133200663D02*
X78185944Y-132564267D01*
X79529446Y-133907769D01*
X78893050Y-134544165D01*
X77549548Y-133200663D01*
X77549548Y-133200663D01*
G37*
G36*
X76983863Y-133766348D02*
X77620259Y-133129952D01*
X78963761Y-134473454D01*
X78327365Y-135109850D01*
X76983863Y-133766348D01*
X76983863Y-133766348D01*
G37*
G36*
X76418177Y-134332034D02*
X77054573Y-133695638D01*
X78398075Y-135039140D01*
X77761679Y-135675536D01*
X76418177Y-134332034D01*
X76418177Y-134332034D01*
G37*
G36*
X75852492Y-134897719D02*
X76488888Y-134261323D01*
X77832390Y-135604825D01*
X77195994Y-136241221D01*
X75852492Y-134897719D01*
X75852492Y-134897719D01*
G37*
G36*
X75286806Y-135463404D02*
X75923202Y-134827008D01*
X77266704Y-136170510D01*
X76630308Y-136806906D01*
X75286806Y-135463404D01*
X75286806Y-135463404D01*
G37*
G36*
X74721121Y-136029090D02*
X75357517Y-135392694D01*
X76701019Y-136736196D01*
X76064623Y-137372592D01*
X74721121Y-136029090D01*
X74721121Y-136029090D01*
G37*
G36*
X74155436Y-136594775D02*
X74791832Y-135958379D01*
X76135334Y-137301881D01*
X75498938Y-137938277D01*
X74155436Y-136594775D01*
X74155436Y-136594775D01*
G37*
G36*
X73589750Y-137160461D02*
X74226146Y-136524065D01*
X75569648Y-137867567D01*
X74933252Y-138503963D01*
X73589750Y-137160461D01*
X73589750Y-137160461D01*
G37*
G36*
X73024065Y-137726146D02*
X73660461Y-137089750D01*
X75003963Y-138433252D01*
X74367567Y-139069648D01*
X73024065Y-137726146D01*
X73024065Y-137726146D01*
G37*
G36*
X72458379Y-138291832D02*
X73094775Y-137655436D01*
X74438277Y-138998938D01*
X73801881Y-139635334D01*
X72458379Y-138291832D01*
X72458379Y-138291832D01*
G37*
G36*
X71892694Y-138857517D02*
X72529090Y-138221121D01*
X73872592Y-139564623D01*
X73236196Y-140201019D01*
X71892694Y-138857517D01*
X71892694Y-138857517D01*
G37*
G36*
X71327008Y-139423202D02*
X71963404Y-138786806D01*
X73306906Y-140130308D01*
X72670510Y-140766704D01*
X71327008Y-139423202D01*
X71327008Y-139423202D01*
G37*
G36*
X70761323Y-139988888D02*
X71397719Y-139352492D01*
X72741221Y-140695994D01*
X72104825Y-141332390D01*
X70761323Y-139988888D01*
X70761323Y-139988888D01*
G37*
G36*
X70195638Y-140554573D02*
X70832034Y-139918177D01*
X72175536Y-141261679D01*
X71539140Y-141898075D01*
X70195638Y-140554573D01*
X70195638Y-140554573D01*
G37*
G36*
X69629952Y-141120259D02*
X70266348Y-140483863D01*
X71609850Y-141827365D01*
X70973454Y-142463761D01*
X69629952Y-141120259D01*
X69629952Y-141120259D01*
G37*
G36*
X69064267Y-141685944D02*
X69700663Y-141049548D01*
X71044165Y-142393050D01*
X70407769Y-143029446D01*
X69064267Y-141685944D01*
X69064267Y-141685944D01*
G37*
G36*
X70407769Y-143736554D02*
X71044165Y-144372950D01*
X69700663Y-145716452D01*
X69064267Y-145080056D01*
X70407769Y-143736554D01*
X70407769Y-143736554D01*
G37*
G36*
X70973454Y-144302239D02*
X71609850Y-144938635D01*
X70266348Y-146282137D01*
X69629952Y-145645741D01*
X70973454Y-144302239D01*
X70973454Y-144302239D01*
G37*
G36*
X71539140Y-144867925D02*
X72175536Y-145504321D01*
X70832034Y-146847823D01*
X70195638Y-146211427D01*
X71539140Y-144867925D01*
X71539140Y-144867925D01*
G37*
G36*
X72104825Y-145433610D02*
X72741221Y-146070006D01*
X71397719Y-147413508D01*
X70761323Y-146777112D01*
X72104825Y-145433610D01*
X72104825Y-145433610D01*
G37*
G36*
X72670510Y-145999296D02*
X73306906Y-146635692D01*
X71963404Y-147979194D01*
X71327008Y-147342798D01*
X72670510Y-145999296D01*
X72670510Y-145999296D01*
G37*
G36*
X73236196Y-146564981D02*
X73872592Y-147201377D01*
X72529090Y-148544879D01*
X71892694Y-147908483D01*
X73236196Y-146564981D01*
X73236196Y-146564981D01*
G37*
G36*
X73801881Y-147130666D02*
X74438277Y-147767062D01*
X73094775Y-149110564D01*
X72458379Y-148474168D01*
X73801881Y-147130666D01*
X73801881Y-147130666D01*
G37*
G36*
X74367567Y-147696352D02*
X75003963Y-148332748D01*
X73660461Y-149676250D01*
X73024065Y-149039854D01*
X74367567Y-147696352D01*
X74367567Y-147696352D01*
G37*
G36*
X74933252Y-148262037D02*
X75569648Y-148898433D01*
X74226146Y-150241935D01*
X73589750Y-149605539D01*
X74933252Y-148262037D01*
X74933252Y-148262037D01*
G37*
G36*
X75498938Y-148827723D02*
X76135334Y-149464119D01*
X74791832Y-150807621D01*
X74155436Y-150171225D01*
X75498938Y-148827723D01*
X75498938Y-148827723D01*
G37*
G36*
X76064623Y-149393408D02*
X76701019Y-150029804D01*
X75357517Y-151373306D01*
X74721121Y-150736910D01*
X76064623Y-149393408D01*
X76064623Y-149393408D01*
G37*
G36*
X76630308Y-149959094D02*
X77266704Y-150595490D01*
X75923202Y-151938992D01*
X75286806Y-151302596D01*
X76630308Y-149959094D01*
X76630308Y-149959094D01*
G37*
G36*
X77195994Y-150524779D02*
X77832390Y-151161175D01*
X76488888Y-152504677D01*
X75852492Y-151868281D01*
X77195994Y-150524779D01*
X77195994Y-150524779D01*
G37*
G36*
X77761679Y-151090464D02*
X78398075Y-151726860D01*
X77054573Y-153070362D01*
X76418177Y-152433966D01*
X77761679Y-151090464D01*
X77761679Y-151090464D01*
G37*
G36*
X78327365Y-151656150D02*
X78963761Y-152292546D01*
X77620259Y-153636048D01*
X76983863Y-152999652D01*
X78327365Y-151656150D01*
X78327365Y-151656150D01*
G37*
G36*
X78893050Y-152221835D02*
X79529446Y-152858231D01*
X78185944Y-154201733D01*
X77549548Y-153565337D01*
X78893050Y-152221835D01*
X78893050Y-152221835D01*
G37*
G36*
X80236554Y-152858231D02*
X80872950Y-152221835D01*
X82216452Y-153565337D01*
X81580056Y-154201733D01*
X80236554Y-152858231D01*
X80236554Y-152858231D01*
G37*
G36*
X80802239Y-152292546D02*
X81438635Y-151656150D01*
X82782137Y-152999652D01*
X82145741Y-153636048D01*
X80802239Y-152292546D01*
X80802239Y-152292546D01*
G37*
G36*
X81367925Y-151726860D02*
X82004321Y-151090464D01*
X83347823Y-152433966D01*
X82711427Y-153070362D01*
X81367925Y-151726860D01*
X81367925Y-151726860D01*
G37*
G36*
X81933610Y-151161175D02*
X82570006Y-150524779D01*
X83913508Y-151868281D01*
X83277112Y-152504677D01*
X81933610Y-151161175D01*
X81933610Y-151161175D01*
G37*
G36*
X82499296Y-150595490D02*
X83135692Y-149959094D01*
X84479194Y-151302596D01*
X83842798Y-151938992D01*
X82499296Y-150595490D01*
X82499296Y-150595490D01*
G37*
G36*
X83064981Y-150029804D02*
X83701377Y-149393408D01*
X85044879Y-150736910D01*
X84408483Y-151373306D01*
X83064981Y-150029804D01*
X83064981Y-150029804D01*
G37*
G36*
X83630666Y-149464119D02*
X84267062Y-148827723D01*
X85610564Y-150171225D01*
X84974168Y-150807621D01*
X83630666Y-149464119D01*
X83630666Y-149464119D01*
G37*
G36*
X84196352Y-148898433D02*
X84832748Y-148262037D01*
X86176250Y-149605539D01*
X85539854Y-150241935D01*
X84196352Y-148898433D01*
X84196352Y-148898433D01*
G37*
G36*
X84762037Y-148332748D02*
X85398433Y-147696352D01*
X86741935Y-149039854D01*
X86105539Y-149676250D01*
X84762037Y-148332748D01*
X84762037Y-148332748D01*
G37*
G36*
X85327723Y-147767062D02*
X85964119Y-147130666D01*
X87307621Y-148474168D01*
X86671225Y-149110564D01*
X85327723Y-147767062D01*
X85327723Y-147767062D01*
G37*
G36*
X85893408Y-147201377D02*
X86529804Y-146564981D01*
X87873306Y-147908483D01*
X87236910Y-148544879D01*
X85893408Y-147201377D01*
X85893408Y-147201377D01*
G37*
G36*
X86459094Y-146635692D02*
X87095490Y-145999296D01*
X88438992Y-147342798D01*
X87802596Y-147979194D01*
X86459094Y-146635692D01*
X86459094Y-146635692D01*
G37*
G36*
X87024779Y-146070006D02*
X87661175Y-145433610D01*
X89004677Y-146777112D01*
X88368281Y-147413508D01*
X87024779Y-146070006D01*
X87024779Y-146070006D01*
G37*
G36*
X87590464Y-145504321D02*
X88226860Y-144867925D01*
X89570362Y-146211427D01*
X88933966Y-146847823D01*
X87590464Y-145504321D01*
X87590464Y-145504321D01*
G37*
G36*
X88156150Y-144938635D02*
X88792546Y-144302239D01*
X90136048Y-145645741D01*
X89499652Y-146282137D01*
X88156150Y-144938635D01*
X88156150Y-144938635D01*
G37*
G36*
X88721835Y-144372950D02*
X89358231Y-143736554D01*
X90701733Y-145080056D01*
X90065337Y-145716452D01*
X88721835Y-144372950D01*
X88721835Y-144372950D01*
G37*
D12*
X103360000Y-116090000D03*
X103360000Y-115140000D03*
X103360000Y-114190000D03*
X100680000Y-114190000D03*
X100680000Y-115140000D03*
X100680000Y-116090000D03*
D13*
X101645000Y-114490000D03*
X101645000Y-115790000D03*
X102395000Y-114490000D03*
X102395000Y-115790000D03*
D14*
X71247000Y-155128000D03*
X71247000Y-153228000D03*
X73279000Y-155128000D03*
X73279000Y-153228000D03*
D15*
X71036000Y-157226000D03*
X73236000Y-157226000D03*
X75100000Y-157226000D03*
X77300000Y-157226000D03*
D16*
X73491600Y-130378200D03*
X71491600Y-130378200D03*
D17*
X89539000Y-127127000D03*
X89539000Y-126477000D03*
X89539000Y-125827000D03*
X89539000Y-125177000D03*
X91589000Y-125177000D03*
X91589000Y-125827000D03*
X91589000Y-126477000D03*
X91589000Y-127127000D03*
D18*
X127000000Y-165100000D03*
D19*
X90043000Y-130318000D03*
X90043000Y-132318000D03*
D20*
X113872000Y-131158000D03*
X123872000Y-131408000D03*
X118872000Y-116408000D03*
D21*
X93025000Y-143764000D03*
X91125000Y-143764000D03*
D16*
X92091000Y-141859000D03*
X94091000Y-141859000D03*
X92091000Y-139954000D03*
X94091000Y-139954000D03*
D11*
X96520000Y-137160000D03*
X76200000Y-160020000D03*
X71120000Y-134620000D03*
X78740000Y-162560000D03*
X96520000Y-127000000D03*
D14*
X122936000Y-136586000D03*
X122936000Y-134686000D03*
D21*
X97856000Y-143510000D03*
X99756000Y-143510000D03*
X97856000Y-141478000D03*
X99756000Y-141478000D03*
X97856000Y-145288000D03*
X99756000Y-145288000D03*
D22*
X103520000Y-111290000D03*
X103520000Y-107990000D03*
D19*
X88265000Y-158385000D03*
X88265000Y-160385000D03*
X99695000Y-163338000D03*
X99695000Y-165338000D03*
X101600000Y-165243000D03*
X101600000Y-167243000D03*
D16*
X75073000Y-154813000D03*
X77073000Y-154813000D03*
D19*
X68453000Y-140319000D03*
X68453000Y-138319000D03*
D16*
X74184000Y-132334000D03*
X76184000Y-132334000D03*
D10*
G36*
X88281281Y-150248445D02*
X87114555Y-149081719D01*
X88104505Y-148091769D01*
X89271231Y-149258495D01*
X88281281Y-150248445D01*
X88281281Y-150248445D01*
G37*
G36*
X89695495Y-148834231D02*
X88528769Y-147667505D01*
X89518719Y-146677555D01*
X90685445Y-147844281D01*
X89695495Y-148834231D01*
X89695495Y-148834231D01*
G37*
D23*
X125111000Y-134686000D03*
X125111000Y-136586000D03*
X127111000Y-135636000D03*
D21*
X120462000Y-138684000D03*
X122362000Y-138684000D03*
D24*
X105520000Y-126640000D03*
X80520000Y-171640000D03*
X105520000Y-171640000D03*
X80520000Y-126640000D03*
D25*
X113064000Y-145023000D03*
X114764000Y-145023000D03*
X114764000Y-146723000D03*
X113064000Y-146723000D03*
X113064000Y-160323000D03*
X113064000Y-158623000D03*
X114764000Y-160323000D03*
X114764000Y-158623000D03*
X118164000Y-148423000D03*
X116464000Y-148423000D03*
X118164000Y-150123000D03*
X116464000Y-150123000D03*
X118164000Y-151823000D03*
X116464000Y-151823000D03*
X118164000Y-153523000D03*
X116464000Y-153523000D03*
X118164000Y-155223000D03*
X116464000Y-155223000D03*
X118164000Y-156923000D03*
D26*
X106164000Y-140873000D03*
X107264000Y-140873000D03*
X108364000Y-140873000D03*
X109464000Y-140873000D03*
X110564000Y-140873000D03*
X111664000Y-140873000D03*
X114164000Y-140873000D03*
X115264000Y-140873000D03*
X116364000Y-140873000D03*
X117464000Y-140873000D03*
X118564000Y-140873000D03*
D27*
X102264000Y-143973000D03*
X102264000Y-145073000D03*
X102264000Y-146173000D03*
X102264000Y-147273000D03*
X102264000Y-148373000D03*
X102264000Y-149473000D03*
X102264000Y-150573000D03*
X102264000Y-152473000D03*
X102264000Y-153573000D03*
X102264000Y-154673000D03*
X102264000Y-155773000D03*
X102264000Y-156873000D03*
X102264000Y-157973000D03*
X102264000Y-159073000D03*
X102264000Y-160173000D03*
X102264000Y-161273000D03*
D26*
X118564000Y-164473000D03*
X117464000Y-164473000D03*
X116364000Y-164473000D03*
X115264000Y-164473000D03*
X114164000Y-164473000D03*
X111664000Y-164473000D03*
X110564000Y-164473000D03*
X109464000Y-164473000D03*
X108364000Y-164473000D03*
X107264000Y-164473000D03*
X106164000Y-164473000D03*
D27*
X122164000Y-161273000D03*
X122164000Y-160173000D03*
X122164000Y-159073000D03*
X122164000Y-157973000D03*
X122164000Y-156873000D03*
X122164000Y-155773000D03*
X122164000Y-154673000D03*
X122164000Y-153573000D03*
X122164000Y-152473000D03*
X122164000Y-150573000D03*
X122164000Y-149473000D03*
X122164000Y-148373000D03*
X122164000Y-147273000D03*
X122164000Y-146173000D03*
X122164000Y-145073000D03*
X122164000Y-143973000D03*
D25*
X107964000Y-156923000D03*
X106264000Y-156923000D03*
X107964000Y-155223000D03*
X106264000Y-155223000D03*
X107964000Y-153523000D03*
X106264000Y-153523000D03*
X107964000Y-151823000D03*
X106264000Y-151823000D03*
X107964000Y-150123000D03*
X106264000Y-150123000D03*
X107964000Y-148423000D03*
X106264000Y-148423000D03*
X109664000Y-158623000D03*
X109664000Y-160323000D03*
X111364000Y-158623000D03*
X111364000Y-160323000D03*
X111364000Y-146723000D03*
X109664000Y-146723000D03*
X109664000Y-145023000D03*
X111364000Y-145023000D03*
X116464000Y-156923000D03*
D15*
X127520000Y-144740000D03*
X127520000Y-142540000D03*
D14*
X117475000Y-168971000D03*
X117475000Y-167071000D03*
X127520000Y-138690000D03*
X127520000Y-140590000D03*
D28*
X107620000Y-114915000D03*
X109320000Y-114915000D03*
X111020000Y-114915000D03*
X112720000Y-114915000D03*
X114420000Y-114915000D03*
D29*
X111020000Y-105765000D03*
D30*
X92329000Y-137922000D03*
X90985497Y-136578497D03*
D25*
X96012000Y-169926000D03*
X94012000Y-169926000D03*
X90412000Y-169926000D03*
X90412000Y-174326000D03*
X94012000Y-174326000D03*
X96012000Y-174326000D03*
D31*
X97663000Y-163957000D03*
D25*
X95813000Y-163957000D03*
X93963000Y-163957000D03*
X90263000Y-163957000D03*
X92113000Y-163957000D03*
X90263000Y-162107000D03*
X90263000Y-160257000D03*
X90263000Y-158407000D03*
X90263000Y-156557000D03*
X92113000Y-156557000D03*
X93963000Y-156557000D03*
X95813000Y-156557000D03*
X97663000Y-156557000D03*
X97663000Y-158407000D03*
X97663000Y-160257000D03*
X97663000Y-162107000D03*
D32*
X75471000Y-128651000D03*
X75471000Y-127381000D03*
X75471000Y-126111000D03*
X75471000Y-124841000D03*
X70071000Y-124841000D03*
X70071000Y-126111000D03*
X70071000Y-127381000D03*
X70071000Y-128651000D03*
D33*
X126860300Y-159651700D03*
X126860300Y-157111700D03*
X126860300Y-154571700D03*
X126860300Y-152031700D03*
X119240300Y-134251700D03*
X116700300Y-134251700D03*
X114160300Y-134251700D03*
X111620300Y-134251700D03*
X109080300Y-134251700D03*
D34*
X101587000Y-132715000D03*
X92977000Y-132715000D03*
D35*
X67437000Y-126111000D03*
X67437000Y-128143000D03*
D21*
X89613700Y-128625600D03*
X91513700Y-128625600D03*
D14*
X84709000Y-123510000D03*
X84709000Y-125410000D03*
X93192600Y-125249900D03*
X93192600Y-127149900D03*
X110270000Y-121440000D03*
X110270000Y-123340000D03*
D21*
X67630000Y-131038600D03*
X69530000Y-131038600D03*
X88326000Y-165227000D03*
X86426000Y-165227000D03*
D36*
X118975000Y-173101000D03*
D37*
X117475000Y-171101000D03*
D36*
X115975000Y-173101000D03*
D21*
X90490000Y-165989000D03*
X92390000Y-165989000D03*
X90490000Y-168148000D03*
X92390000Y-168148000D03*
D14*
X88773000Y-154874000D03*
X88773000Y-152974000D03*
X91186000Y-154874000D03*
X91186000Y-152974000D03*
D38*
X124720000Y-108780000D03*
X124720000Y-102780000D03*
X120020000Y-105780000D03*
D11*
X67945000Y-149352000D03*
D39*
X67945000Y-151892000D03*
X67945000Y-154432000D03*
X67945000Y-156972000D03*
X67945000Y-159512000D03*
X67945000Y-162052000D03*
D18*
X113030000Y-136652000D03*
X115570000Y-136652000D03*
X127000000Y-167640000D03*
X127000000Y-170180000D03*
D15*
X108120000Y-122390000D03*
X105920000Y-122390000D03*
X84539000Y-165227000D03*
X82339000Y-165227000D03*
D40*
X122320000Y-129240000D03*
X125620000Y-129240000D03*
D19*
X94107000Y-168005000D03*
X94107000Y-166005000D03*
D16*
X114020000Y-119140000D03*
X112020000Y-119140000D03*
X114020000Y-121640000D03*
X112020000Y-121640000D03*
X101020000Y-118640000D03*
X103020000Y-118640000D03*
X101020000Y-121390000D03*
X103020000Y-121390000D03*
D19*
X87122000Y-125492000D03*
X87122000Y-127492000D03*
D41*
X112320000Y-128140000D03*
X117720000Y-128140000D03*
D16*
X86725000Y-154305000D03*
X84725000Y-154305000D03*
X93361000Y-154305000D03*
X95361000Y-154305000D03*
X127270000Y-125890000D03*
X125270000Y-125890000D03*
D19*
X99568000Y-156829000D03*
X99568000Y-154829000D03*
D16*
X121523000Y-169037000D03*
X119523000Y-169037000D03*
X121523000Y-166878000D03*
X119523000Y-166878000D03*
X107172000Y-137541000D03*
X105172000Y-137541000D03*
D42*
X123450000Y-113670000D03*
X123450000Y-121670000D03*
X70860000Y-103500000D03*
X70860000Y-95500000D03*
D16*
X87138000Y-79629000D03*
X89138000Y-79629000D03*
X72787000Y-50292000D03*
X74787000Y-50292000D03*
X72787000Y-48133000D03*
X74787000Y-48133000D03*
D19*
X94742000Y-60341000D03*
X94742000Y-62341000D03*
D16*
X67040000Y-91280000D03*
X69040000Y-91280000D03*
X100949000Y-62865000D03*
X98949000Y-62865000D03*
X107585000Y-62865000D03*
X109585000Y-62865000D03*
D41*
X81990000Y-89030000D03*
X76590000Y-89030000D03*
D19*
X107188000Y-91678000D03*
X107188000Y-89678000D03*
D16*
X93290000Y-95780000D03*
X91290000Y-95780000D03*
X93290000Y-98530000D03*
X91290000Y-98530000D03*
X80290000Y-95530000D03*
X82290000Y-95530000D03*
X80290000Y-98030000D03*
X82290000Y-98030000D03*
D19*
X100203000Y-49165000D03*
X100203000Y-51165000D03*
D40*
X71990000Y-87930000D03*
X68690000Y-87930000D03*
D15*
X109771000Y-51943000D03*
X111971000Y-51943000D03*
X86190000Y-94780000D03*
X88390000Y-94780000D03*
D18*
X67310000Y-46990000D03*
X67310000Y-49530000D03*
X78740000Y-80518000D03*
X81280000Y-80518000D03*
D11*
X126365000Y-67818000D03*
D39*
X126365000Y-65278000D03*
X126365000Y-62738000D03*
X126365000Y-60198000D03*
X126365000Y-57658000D03*
X126365000Y-55118000D03*
D38*
X69590000Y-108390000D03*
X69590000Y-114390000D03*
X74290000Y-111390000D03*
D14*
X103124000Y-62296000D03*
X103124000Y-64196000D03*
X105537000Y-62296000D03*
X105537000Y-64196000D03*
D21*
X103820000Y-49022000D03*
X101920000Y-49022000D03*
X103820000Y-51181000D03*
X101920000Y-51181000D03*
D36*
X75335000Y-44069000D03*
D37*
X76835000Y-46069000D03*
D36*
X78335000Y-44069000D03*
D21*
X105984000Y-51943000D03*
X107884000Y-51943000D03*
X126680000Y-86131400D03*
X124780000Y-86131400D03*
D14*
X84040000Y-95730000D03*
X84040000Y-93830000D03*
X101117400Y-91920100D03*
X101117400Y-90020100D03*
X109601000Y-93660000D03*
X109601000Y-91760000D03*
D21*
X104696300Y-88544400D03*
X102796300Y-88544400D03*
D35*
X126873000Y-91059000D03*
X126873000Y-89027000D03*
D34*
X92723000Y-84455000D03*
X101333000Y-84455000D03*
D33*
X67449700Y-57518300D03*
X67449700Y-60058300D03*
X67449700Y-62598300D03*
X67449700Y-65138300D03*
X75069700Y-82918300D03*
X77609700Y-82918300D03*
X80149700Y-82918300D03*
X82689700Y-82918300D03*
X85229700Y-82918300D03*
D32*
X118839000Y-88519000D03*
X118839000Y-89789000D03*
X118839000Y-91059000D03*
X118839000Y-92329000D03*
X124239000Y-92329000D03*
X124239000Y-91059000D03*
X124239000Y-89789000D03*
X124239000Y-88519000D03*
D31*
X96647000Y-53213000D03*
D25*
X98497000Y-53213000D03*
X100347000Y-53213000D03*
X104047000Y-53213000D03*
X102197000Y-53213000D03*
X104047000Y-55063000D03*
X104047000Y-56913000D03*
X104047000Y-58763000D03*
X104047000Y-60613000D03*
X102197000Y-60613000D03*
X100347000Y-60613000D03*
X98497000Y-60613000D03*
X96647000Y-60613000D03*
X96647000Y-58763000D03*
X96647000Y-56913000D03*
X96647000Y-55063000D03*
X98298000Y-47244000D03*
X100298000Y-47244000D03*
X103898000Y-47244000D03*
X103898000Y-42844000D03*
X100298000Y-42844000D03*
X98298000Y-42844000D03*
D30*
X101981000Y-79248000D03*
X103324503Y-80591503D03*
D28*
X86690000Y-102255000D03*
X84990000Y-102255000D03*
X83290000Y-102255000D03*
X81590000Y-102255000D03*
X79890000Y-102255000D03*
D29*
X83290000Y-111405000D03*
D14*
X66790000Y-78480000D03*
X66790000Y-76580000D03*
X76835000Y-48199000D03*
X76835000Y-50099000D03*
D15*
X66790000Y-72430000D03*
X66790000Y-74630000D03*
D25*
X81246000Y-72147000D03*
X79546000Y-72147000D03*
X79546000Y-70447000D03*
X81246000Y-70447000D03*
X81246000Y-56847000D03*
X81246000Y-58547000D03*
X79546000Y-56847000D03*
X79546000Y-58547000D03*
X76146000Y-68747000D03*
X77846000Y-68747000D03*
X76146000Y-67047000D03*
X77846000Y-67047000D03*
X76146000Y-65347000D03*
X77846000Y-65347000D03*
X76146000Y-63647000D03*
X77846000Y-63647000D03*
X76146000Y-61947000D03*
X77846000Y-61947000D03*
X76146000Y-60247000D03*
D26*
X88146000Y-76297000D03*
X87046000Y-76297000D03*
X85946000Y-76297000D03*
X84846000Y-76297000D03*
X83746000Y-76297000D03*
X82646000Y-76297000D03*
X80146000Y-76297000D03*
X79046000Y-76297000D03*
X77946000Y-76297000D03*
X76846000Y-76297000D03*
X75746000Y-76297000D03*
D27*
X92046000Y-73197000D03*
X92046000Y-72097000D03*
X92046000Y-70997000D03*
X92046000Y-69897000D03*
X92046000Y-68797000D03*
X92046000Y-67697000D03*
X92046000Y-66597000D03*
X92046000Y-64697000D03*
X92046000Y-63597000D03*
X92046000Y-62497000D03*
X92046000Y-61397000D03*
X92046000Y-60297000D03*
X92046000Y-59197000D03*
X92046000Y-58097000D03*
X92046000Y-56997000D03*
X92046000Y-55897000D03*
D26*
X75746000Y-52697000D03*
X76846000Y-52697000D03*
X77946000Y-52697000D03*
X79046000Y-52697000D03*
X80146000Y-52697000D03*
X82646000Y-52697000D03*
X83746000Y-52697000D03*
X84846000Y-52697000D03*
X85946000Y-52697000D03*
X87046000Y-52697000D03*
X88146000Y-52697000D03*
D27*
X72146000Y-55897000D03*
X72146000Y-56997000D03*
X72146000Y-58097000D03*
X72146000Y-59197000D03*
X72146000Y-60297000D03*
X72146000Y-61397000D03*
X72146000Y-62497000D03*
X72146000Y-63597000D03*
X72146000Y-64697000D03*
X72146000Y-66597000D03*
X72146000Y-67697000D03*
X72146000Y-68797000D03*
X72146000Y-69897000D03*
X72146000Y-70997000D03*
X72146000Y-72097000D03*
X72146000Y-73197000D03*
D25*
X86346000Y-60247000D03*
X88046000Y-60247000D03*
X86346000Y-61947000D03*
X88046000Y-61947000D03*
X86346000Y-63647000D03*
X88046000Y-63647000D03*
X86346000Y-65347000D03*
X88046000Y-65347000D03*
X86346000Y-67047000D03*
X88046000Y-67047000D03*
X86346000Y-68747000D03*
X88046000Y-68747000D03*
X84646000Y-58547000D03*
X84646000Y-56847000D03*
X82946000Y-58547000D03*
X82946000Y-56847000D03*
X82946000Y-70447000D03*
X84646000Y-70447000D03*
X84646000Y-72147000D03*
X82946000Y-72147000D03*
X77846000Y-60247000D03*
D24*
X113790000Y-90530000D03*
X88790000Y-45530000D03*
X113790000Y-45530000D03*
X88790000Y-90530000D03*
D21*
X73848000Y-78486000D03*
X71948000Y-78486000D03*
D23*
X69199000Y-82484000D03*
X69199000Y-80584000D03*
X67199000Y-81534000D03*
D10*
G36*
X106028719Y-66921555D02*
X107195445Y-68088281D01*
X106205495Y-69078231D01*
X105038769Y-67911505D01*
X106028719Y-66921555D01*
X106028719Y-66921555D01*
G37*
G36*
X104614505Y-68335769D02*
X105781231Y-69502495D01*
X104791281Y-70492445D01*
X103624555Y-69325719D01*
X104614505Y-68335769D01*
X104614505Y-68335769D01*
G37*
D16*
X120126000Y-84836000D03*
X118126000Y-84836000D03*
D19*
X125857000Y-76851000D03*
X125857000Y-78851000D03*
D16*
X119237000Y-62357000D03*
X117237000Y-62357000D03*
D19*
X92710000Y-51927000D03*
X92710000Y-49927000D03*
X94615000Y-53832000D03*
X94615000Y-51832000D03*
X106045000Y-58785000D03*
X106045000Y-56785000D03*
D22*
X90790000Y-105880000D03*
X90790000Y-109180000D03*
D21*
X96454000Y-71882000D03*
X94554000Y-71882000D03*
X96454000Y-75692000D03*
X94554000Y-75692000D03*
X96454000Y-73660000D03*
X94554000Y-73660000D03*
D14*
X71374000Y-80584000D03*
X71374000Y-82484000D03*
D11*
X97790000Y-90170000D03*
X115570000Y-54610000D03*
X123190000Y-82550000D03*
X118110000Y-57150000D03*
X97790000Y-80010000D03*
D16*
X102219000Y-77216000D03*
X100219000Y-77216000D03*
X102219000Y-75311000D03*
X100219000Y-75311000D03*
D21*
X101285000Y-73406000D03*
X103185000Y-73406000D03*
D20*
X80438000Y-86012000D03*
X70438000Y-85762000D03*
X75438000Y-100762000D03*
D19*
X104267000Y-86852000D03*
X104267000Y-84852000D03*
D18*
X67310000Y-52070000D03*
D17*
X104771000Y-90043000D03*
X104771000Y-90693000D03*
X104771000Y-91343000D03*
X104771000Y-91993000D03*
X102721000Y-91993000D03*
X102721000Y-91343000D03*
X102721000Y-90693000D03*
X102721000Y-90043000D03*
D16*
X120818400Y-86791800D03*
X122818400Y-86791800D03*
D15*
X119210000Y-59944000D03*
X117010000Y-59944000D03*
X123274000Y-59944000D03*
X121074000Y-59944000D03*
D14*
X121031000Y-62042000D03*
X121031000Y-63942000D03*
X123063000Y-62042000D03*
X123063000Y-63942000D03*
D12*
X90950000Y-101080000D03*
X90950000Y-102030000D03*
X90950000Y-102980000D03*
X93630000Y-102980000D03*
X93630000Y-102030000D03*
X93630000Y-101080000D03*
D13*
X92665000Y-102680000D03*
X92665000Y-101380000D03*
X91915000Y-102680000D03*
X91915000Y-101380000D03*
D10*
G36*
X104244663Y-76120452D02*
X103608267Y-75484056D01*
X104951769Y-74140554D01*
X105588165Y-74776950D01*
X104244663Y-76120452D01*
X104244663Y-76120452D01*
G37*
G36*
X104810348Y-76686137D02*
X104173952Y-76049741D01*
X105517454Y-74706239D01*
X106153850Y-75342635D01*
X104810348Y-76686137D01*
X104810348Y-76686137D01*
G37*
G36*
X105376034Y-77251823D02*
X104739638Y-76615427D01*
X106083140Y-75271925D01*
X106719536Y-75908321D01*
X105376034Y-77251823D01*
X105376034Y-77251823D01*
G37*
G36*
X105941719Y-77817508D02*
X105305323Y-77181112D01*
X106648825Y-75837610D01*
X107285221Y-76474006D01*
X105941719Y-77817508D01*
X105941719Y-77817508D01*
G37*
G36*
X106507404Y-78383194D02*
X105871008Y-77746798D01*
X107214510Y-76403296D01*
X107850906Y-77039692D01*
X106507404Y-78383194D01*
X106507404Y-78383194D01*
G37*
G36*
X107073090Y-78948879D02*
X106436694Y-78312483D01*
X107780196Y-76968981D01*
X108416592Y-77605377D01*
X107073090Y-78948879D01*
X107073090Y-78948879D01*
G37*
G36*
X107638775Y-79514564D02*
X107002379Y-78878168D01*
X108345881Y-77534666D01*
X108982277Y-78171062D01*
X107638775Y-79514564D01*
X107638775Y-79514564D01*
G37*
G36*
X108204461Y-80080250D02*
X107568065Y-79443854D01*
X108911567Y-78100352D01*
X109547963Y-78736748D01*
X108204461Y-80080250D01*
X108204461Y-80080250D01*
G37*
G36*
X108770146Y-80645935D02*
X108133750Y-80009539D01*
X109477252Y-78666037D01*
X110113648Y-79302433D01*
X108770146Y-80645935D01*
X108770146Y-80645935D01*
G37*
G36*
X109335832Y-81211621D02*
X108699436Y-80575225D01*
X110042938Y-79231723D01*
X110679334Y-79868119D01*
X109335832Y-81211621D01*
X109335832Y-81211621D01*
G37*
G36*
X109901517Y-81777306D02*
X109265121Y-81140910D01*
X110608623Y-79797408D01*
X111245019Y-80433804D01*
X109901517Y-81777306D01*
X109901517Y-81777306D01*
G37*
G36*
X110467202Y-82342992D02*
X109830806Y-81706596D01*
X111174308Y-80363094D01*
X111810704Y-80999490D01*
X110467202Y-82342992D01*
X110467202Y-82342992D01*
G37*
G36*
X111032888Y-82908677D02*
X110396492Y-82272281D01*
X111739994Y-80928779D01*
X112376390Y-81565175D01*
X111032888Y-82908677D01*
X111032888Y-82908677D01*
G37*
G36*
X111598573Y-83474362D02*
X110962177Y-82837966D01*
X112305679Y-81494464D01*
X112942075Y-82130860D01*
X111598573Y-83474362D01*
X111598573Y-83474362D01*
G37*
G36*
X112164259Y-84040048D02*
X111527863Y-83403652D01*
X112871365Y-82060150D01*
X113507761Y-82696546D01*
X112164259Y-84040048D01*
X112164259Y-84040048D01*
G37*
G36*
X112729944Y-84605733D02*
X112093548Y-83969337D01*
X113437050Y-82625835D01*
X114073446Y-83262231D01*
X112729944Y-84605733D01*
X112729944Y-84605733D01*
G37*
G36*
X116760452Y-83969337D02*
X116124056Y-84605733D01*
X114780554Y-83262231D01*
X115416950Y-82625835D01*
X116760452Y-83969337D01*
X116760452Y-83969337D01*
G37*
G36*
X117326137Y-83403652D02*
X116689741Y-84040048D01*
X115346239Y-82696546D01*
X115982635Y-82060150D01*
X117326137Y-83403652D01*
X117326137Y-83403652D01*
G37*
G36*
X117891823Y-82837966D02*
X117255427Y-83474362D01*
X115911925Y-82130860D01*
X116548321Y-81494464D01*
X117891823Y-82837966D01*
X117891823Y-82837966D01*
G37*
G36*
X118457508Y-82272281D02*
X117821112Y-82908677D01*
X116477610Y-81565175D01*
X117114006Y-80928779D01*
X118457508Y-82272281D01*
X118457508Y-82272281D01*
G37*
G36*
X119023194Y-81706596D02*
X118386798Y-82342992D01*
X117043296Y-80999490D01*
X117679692Y-80363094D01*
X119023194Y-81706596D01*
X119023194Y-81706596D01*
G37*
G36*
X119588879Y-81140910D02*
X118952483Y-81777306D01*
X117608981Y-80433804D01*
X118245377Y-79797408D01*
X119588879Y-81140910D01*
X119588879Y-81140910D01*
G37*
G36*
X120154564Y-80575225D02*
X119518168Y-81211621D01*
X118174666Y-79868119D01*
X118811062Y-79231723D01*
X120154564Y-80575225D01*
X120154564Y-80575225D01*
G37*
G36*
X120720250Y-80009539D02*
X120083854Y-80645935D01*
X118740352Y-79302433D01*
X119376748Y-78666037D01*
X120720250Y-80009539D01*
X120720250Y-80009539D01*
G37*
G36*
X121285935Y-79443854D02*
X120649539Y-80080250D01*
X119306037Y-78736748D01*
X119942433Y-78100352D01*
X121285935Y-79443854D01*
X121285935Y-79443854D01*
G37*
G36*
X121851621Y-78878168D02*
X121215225Y-79514564D01*
X119871723Y-78171062D01*
X120508119Y-77534666D01*
X121851621Y-78878168D01*
X121851621Y-78878168D01*
G37*
G36*
X122417306Y-78312483D02*
X121780910Y-78948879D01*
X120437408Y-77605377D01*
X121073804Y-76968981D01*
X122417306Y-78312483D01*
X122417306Y-78312483D01*
G37*
G36*
X122982992Y-77746798D02*
X122346596Y-78383194D01*
X121003094Y-77039692D01*
X121639490Y-76403296D01*
X122982992Y-77746798D01*
X122982992Y-77746798D01*
G37*
G36*
X123548677Y-77181112D02*
X122912281Y-77817508D01*
X121568779Y-76474006D01*
X122205175Y-75837610D01*
X123548677Y-77181112D01*
X123548677Y-77181112D01*
G37*
G36*
X124114362Y-76615427D02*
X123477966Y-77251823D01*
X122134464Y-75908321D01*
X122770860Y-75271925D01*
X124114362Y-76615427D01*
X124114362Y-76615427D01*
G37*
G36*
X124680048Y-76049741D02*
X124043652Y-76686137D01*
X122700150Y-75342635D01*
X123336546Y-74706239D01*
X124680048Y-76049741D01*
X124680048Y-76049741D01*
G37*
G36*
X125245733Y-75484056D02*
X124609337Y-76120452D01*
X123265835Y-74776950D01*
X123902231Y-74140554D01*
X125245733Y-75484056D01*
X125245733Y-75484056D01*
G37*
G36*
X123902231Y-73433446D02*
X123265835Y-72797050D01*
X124609337Y-71453548D01*
X125245733Y-72089944D01*
X123902231Y-73433446D01*
X123902231Y-73433446D01*
G37*
G36*
X123336546Y-72867761D02*
X122700150Y-72231365D01*
X124043652Y-70887863D01*
X124680048Y-71524259D01*
X123336546Y-72867761D01*
X123336546Y-72867761D01*
G37*
G36*
X122770860Y-72302075D02*
X122134464Y-71665679D01*
X123477966Y-70322177D01*
X124114362Y-70958573D01*
X122770860Y-72302075D01*
X122770860Y-72302075D01*
G37*
G36*
X122205175Y-71736390D02*
X121568779Y-71099994D01*
X122912281Y-69756492D01*
X123548677Y-70392888D01*
X122205175Y-71736390D01*
X122205175Y-71736390D01*
G37*
G36*
X121639490Y-71170704D02*
X121003094Y-70534308D01*
X122346596Y-69190806D01*
X122982992Y-69827202D01*
X121639490Y-71170704D01*
X121639490Y-71170704D01*
G37*
G36*
X121073804Y-70605019D02*
X120437408Y-69968623D01*
X121780910Y-68625121D01*
X122417306Y-69261517D01*
X121073804Y-70605019D01*
X121073804Y-70605019D01*
G37*
G36*
X120508119Y-70039334D02*
X119871723Y-69402938D01*
X121215225Y-68059436D01*
X121851621Y-68695832D01*
X120508119Y-70039334D01*
X120508119Y-70039334D01*
G37*
G36*
X119942433Y-69473648D02*
X119306037Y-68837252D01*
X120649539Y-67493750D01*
X121285935Y-68130146D01*
X119942433Y-69473648D01*
X119942433Y-69473648D01*
G37*
G36*
X119376748Y-68907963D02*
X118740352Y-68271567D01*
X120083854Y-66928065D01*
X120720250Y-67564461D01*
X119376748Y-68907963D01*
X119376748Y-68907963D01*
G37*
G36*
X118811062Y-68342277D02*
X118174666Y-67705881D01*
X119518168Y-66362379D01*
X120154564Y-66998775D01*
X118811062Y-68342277D01*
X118811062Y-68342277D01*
G37*
G36*
X118245377Y-67776592D02*
X117608981Y-67140196D01*
X118952483Y-65796694D01*
X119588879Y-66433090D01*
X118245377Y-67776592D01*
X118245377Y-67776592D01*
G37*
G36*
X117679692Y-67210906D02*
X117043296Y-66574510D01*
X118386798Y-65231008D01*
X119023194Y-65867404D01*
X117679692Y-67210906D01*
X117679692Y-67210906D01*
G37*
G36*
X117114006Y-66645221D02*
X116477610Y-66008825D01*
X117821112Y-64665323D01*
X118457508Y-65301719D01*
X117114006Y-66645221D01*
X117114006Y-66645221D01*
G37*
G36*
X116548321Y-66079536D02*
X115911925Y-65443140D01*
X117255427Y-64099638D01*
X117891823Y-64736034D01*
X116548321Y-66079536D01*
X116548321Y-66079536D01*
G37*
G36*
X115982635Y-65513850D02*
X115346239Y-64877454D01*
X116689741Y-63533952D01*
X117326137Y-64170348D01*
X115982635Y-65513850D01*
X115982635Y-65513850D01*
G37*
G36*
X115416950Y-64948165D02*
X114780554Y-64311769D01*
X116124056Y-62968267D01*
X116760452Y-63604663D01*
X115416950Y-64948165D01*
X115416950Y-64948165D01*
G37*
G36*
X114073446Y-64311769D02*
X113437050Y-64948165D01*
X112093548Y-63604663D01*
X112729944Y-62968267D01*
X114073446Y-64311769D01*
X114073446Y-64311769D01*
G37*
G36*
X113507761Y-64877454D02*
X112871365Y-65513850D01*
X111527863Y-64170348D01*
X112164259Y-63533952D01*
X113507761Y-64877454D01*
X113507761Y-64877454D01*
G37*
G36*
X112942075Y-65443140D02*
X112305679Y-66079536D01*
X110962177Y-64736034D01*
X111598573Y-64099638D01*
X112942075Y-65443140D01*
X112942075Y-65443140D01*
G37*
G36*
X112376390Y-66008825D02*
X111739994Y-66645221D01*
X110396492Y-65301719D01*
X111032888Y-64665323D01*
X112376390Y-66008825D01*
X112376390Y-66008825D01*
G37*
G36*
X111810704Y-66574510D02*
X111174308Y-67210906D01*
X109830806Y-65867404D01*
X110467202Y-65231008D01*
X111810704Y-66574510D01*
X111810704Y-66574510D01*
G37*
G36*
X111245019Y-67140196D02*
X110608623Y-67776592D01*
X109265121Y-66433090D01*
X109901517Y-65796694D01*
X111245019Y-67140196D01*
X111245019Y-67140196D01*
G37*
G36*
X110679334Y-67705881D02*
X110042938Y-68342277D01*
X108699436Y-66998775D01*
X109335832Y-66362379D01*
X110679334Y-67705881D01*
X110679334Y-67705881D01*
G37*
G36*
X110113648Y-68271567D02*
X109477252Y-68907963D01*
X108133750Y-67564461D01*
X108770146Y-66928065D01*
X110113648Y-68271567D01*
X110113648Y-68271567D01*
G37*
G36*
X109547963Y-68837252D02*
X108911567Y-69473648D01*
X107568065Y-68130146D01*
X108204461Y-67493750D01*
X109547963Y-68837252D01*
X109547963Y-68837252D01*
G37*
G36*
X108982277Y-69402938D02*
X108345881Y-70039334D01*
X107002379Y-68695832D01*
X107638775Y-68059436D01*
X108982277Y-69402938D01*
X108982277Y-69402938D01*
G37*
G36*
X108416592Y-69968623D02*
X107780196Y-70605019D01*
X106436694Y-69261517D01*
X107073090Y-68625121D01*
X108416592Y-69968623D01*
X108416592Y-69968623D01*
G37*
G36*
X107850906Y-70534308D02*
X107214510Y-71170704D01*
X105871008Y-69827202D01*
X106507404Y-69190806D01*
X107850906Y-70534308D01*
X107850906Y-70534308D01*
G37*
G36*
X107285221Y-71099994D02*
X106648825Y-71736390D01*
X105305323Y-70392888D01*
X105941719Y-69756492D01*
X107285221Y-71099994D01*
X107285221Y-71099994D01*
G37*
G36*
X106719536Y-71665679D02*
X106083140Y-72302075D01*
X104739638Y-70958573D01*
X105376034Y-70322177D01*
X106719536Y-71665679D01*
X106719536Y-71665679D01*
G37*
G36*
X106153850Y-72231365D02*
X105517454Y-72867761D01*
X104173952Y-71524259D01*
X104810348Y-70887863D01*
X106153850Y-72231365D01*
X106153850Y-72231365D01*
G37*
G36*
X105588165Y-72797050D02*
X104951769Y-73433446D01*
X103608267Y-72089944D01*
X104244663Y-71453548D01*
X105588165Y-72797050D01*
X105588165Y-72797050D01*
G37*
D11*
X105410000Y-82550000D03*
X107950000Y-82550000D03*
X107950000Y-85090000D03*
X110490000Y-85090000D03*
X76200000Y-106426000D03*
M02*
