M48
;DRILL file {KiCad 4.0.7-e2-6376~58~ubuntu16.04.1} date Mon Oct 23 12:39:56 2017
;FORMAT={-:-/ absolute / metric / decimal}
FMAT,2
METRIC,TZ
T1C0.400
T2C0.500
T3C0.762
T4C1.000
T5C3.200
%
G90
G05
M71
T1
X139.141Y-96.368
X141.732Y-68.707
X142.24Y-105.283
X143.002Y-66.802
X143.002Y-69.723
X143.637Y-82.296
X144.526Y-66.802
X145.542Y-112.649
X146.431Y-72.009
X146.431Y-73.406
X146.431Y-77.343
X146.558Y-75.311
X146.812Y-79.629
X148.387Y-66.624
X150.495Y-75.311
X150.622Y-73.025
X150.622Y-77.47
X150.622Y-102.489
X150.749Y-79.629
X151.003Y-72.009
X151.892Y-110.109
X153.784Y-62.344
X154.508Y-70.46
X154.991Y-69.621
X155.702Y-84.963
X155.956Y-82.55
X156.21Y-94.488
X156.362Y-69.037
X156.718Y-71.679
X156.718Y-74.422
X156.718Y-112.395
X156.972Y-77.597
X156.972Y-80.391
X157.429Y-72.746
X157.607Y-122.682
X159.225Y-114.11
X159.766Y-55.118
X159.766Y-113.284
X160.02Y-57.785
X160.655Y-105.283
X160.782Y-86.36
X161.29Y-59.055
X161.519Y-78.105
X161.646Y-66.904
X161.798Y-81.28
X162.052Y-105.664
X162.306Y-54.61
X162.306Y-56.642
X162.433Y-60.833
X162.56Y-70.104
X163.703Y-58.42
X163.83Y-61.722
X164.389Y-73.762
X164.948Y-75.514
X165.481Y-60.833
X165.621Y-69.202
X165.735Y-62.865
X165.773Y-66.446
X166.395Y-94.894
X167.437Y-101.498
X168.529Y-61.341
X169.418Y-67.437
X170.485Y-84.125
X172.034Y-82.22
X172.847Y-59.817
X172.974Y-64.897
X173.609Y-57.404
X174.117Y-58.674
X174.117Y-92.011
X174.879Y-61.722
X174.93Y-85.166
X175.26Y-104.267
X175.489Y-72.288
X175.539Y-73.914
X175.832Y-100.647
X176.149Y-60.579
X176.428Y-70.256
X176.657Y-73.965
X176.975Y-99.758
X177.292Y-58.547
X177.419Y-78.689
X177.419Y-81.051
X177.495Y-100.508
X177.736Y-98.996
X178.752Y-89.535
X178.816Y-60.325
X178.816Y-98.234
X179.451Y-84.658
X179.578Y-80.391
X179.578Y-86.563
X179.705Y-65.278
X179.832Y-61.468
X180.149Y-87.185
X180.188Y-84.201
X180.772Y-82.906
X181.153Y-91.669
X181.229Y-61.341
X181.28Y-75.489
X181.585Y-83.49
X181.94Y-88.646
X182.194Y-82.728
X182.728Y-76.2
X182.88Y-63.754
X183.312Y-76.86
X184.048Y-90.856
X184.531Y-62.103
X184.683Y-92.507
X185.293Y-95.25
X185.75Y-81.229
X186.131Y-86.944
X186.411Y-80.823
X186.436Y-89.052
X186.766Y-81.661
X186.817Y-75.616
X187.503Y-88.087
X187.985Y-91.44
X189.001Y-80.289
X189.23Y-102.743
X189.255Y-93.751
X189.687Y-84.709
X189.789Y-100.635
X189.941Y-86.208
X190.297Y-77.597
X190.449Y-74.397
X191.237Y-82.067
X191.389Y-77.216
X191.719Y-82.779
X191.872Y-80.035
T2
X134.62Y-58.42
X134.62Y-60.96
X134.62Y-63.5
X146.05Y-91.948
X148.59Y-91.948
X170.942Y-86.157
X172.286Y-84.813
T3
X134.76Y-68.948
X134.76Y-71.488
X134.76Y-74.028
X134.76Y-76.568
X142.38Y-94.348
X144.92Y-94.348
X147.46Y-94.348
X150.Y-94.348
X152.54Y-94.348
T4
X137.748Y-97.192
X142.748Y-112.192
X143.51Y-117.856
X147.748Y-97.442
X167.64Y-86.36
X167.64Y-88.9
X167.64Y-91.44
X170.18Y-88.9
X170.18Y-91.44
X172.72Y-93.98
X172.72Y-96.52
X175.26Y-96.52
X175.26Y-99.06
X193.675Y-66.548
X193.675Y-69.088
X193.675Y-71.628
X193.675Y-74.168
X193.675Y-76.708
X193.675Y-79.248
T5
X156.1Y-56.96
X156.1Y-101.96
X181.1Y-56.96
X181.1Y-101.96
T4
X135.9Y-119.82G85X137.9Y-119.82
G05
X135.9Y-125.82G85X137.9Y-125.82
G05
X141.6Y-123.82G85X141.6Y-121.82
G05
T0
M30
