G04 #@! TF.FileFunction,Legend,Top*
%FSLAX46Y46*%
G04 Gerber Fmt 4.6, Leading zero omitted, Abs format (unit mm)*
G04 Created by KiCad (PCBNEW 4.0.7-e2-6376~58~ubuntu16.04.1) date Mon Oct 23 12:39:53 2017*
%MOMM*%
%LPD*%
G01*
G04 APERTURE LIST*
%ADD10C,0.100000*%
%ADD11C,0.120000*%
%ADD12C,0.150000*%
G04 APERTURE END LIST*
D10*
D11*
X133720000Y-116140000D02*
X136610000Y-116140000D01*
X142620000Y-116140000D02*
X139730000Y-116140000D01*
X143380000Y-105720000D02*
X139730000Y-105720000D01*
X132960000Y-105720000D02*
X136610000Y-105720000D01*
X143380000Y-105720000D02*
X143380000Y-115380000D01*
X143380000Y-115380000D02*
X142620000Y-116140000D01*
X133720000Y-116140000D02*
X132960000Y-115380000D01*
X132960000Y-115380000D02*
X132960000Y-105720000D01*
X155948000Y-90209000D02*
X154948000Y-90209000D01*
X154948000Y-91909000D02*
X155948000Y-91909000D01*
X141597000Y-60872000D02*
X140597000Y-60872000D01*
X140597000Y-62572000D02*
X141597000Y-62572000D01*
X141597000Y-58713000D02*
X140597000Y-58713000D01*
X140597000Y-60413000D02*
X141597000Y-60413000D01*
X162902000Y-73271000D02*
X162902000Y-72271000D01*
X161202000Y-72271000D02*
X161202000Y-73271000D01*
X135850000Y-101860000D02*
X134850000Y-101860000D01*
X134850000Y-103560000D02*
X135850000Y-103560000D01*
X166759000Y-75145000D02*
X167759000Y-75145000D01*
X167759000Y-73445000D02*
X166759000Y-73445000D01*
X177131600Y-74588000D02*
X176131600Y-74588000D01*
X176131600Y-76288000D02*
X177131600Y-76288000D01*
X149900000Y-97920000D02*
X149900000Y-99340000D01*
X143300000Y-97160000D02*
X143300000Y-99340000D01*
X143300000Y-103760000D02*
X143300000Y-101580000D01*
X149900000Y-103000000D02*
X149900000Y-101580000D01*
X143300000Y-97160000D02*
X149140000Y-97160000D01*
X149140000Y-97160000D02*
X149900000Y-97920000D01*
X149900000Y-103000000D02*
X149140000Y-103760000D01*
X149140000Y-103760000D02*
X143300000Y-103760000D01*
X173648000Y-101608000D02*
X173648000Y-102608000D01*
X175348000Y-102608000D02*
X175348000Y-101608000D01*
X159100000Y-108060000D02*
X160100000Y-108060000D01*
X160100000Y-106360000D02*
X159100000Y-106360000D01*
X159100000Y-110810000D02*
X160100000Y-110810000D01*
X160100000Y-109110000D02*
X159100000Y-109110000D01*
X149100000Y-106110000D02*
X148100000Y-106110000D01*
X148100000Y-107810000D02*
X149100000Y-107810000D01*
X149100000Y-108610000D02*
X148100000Y-108610000D01*
X148100000Y-110310000D02*
X149100000Y-110310000D01*
X168363000Y-62095000D02*
X168363000Y-61095000D01*
X166663000Y-61095000D02*
X166663000Y-62095000D01*
X139900000Y-100360000D02*
X139900000Y-98360000D01*
X139900000Y-98360000D02*
X136000000Y-98360000D01*
X139900000Y-100360000D02*
X136000000Y-100360000D01*
X179981000Y-64073000D02*
X179981000Y-62673000D01*
X179981000Y-62673000D02*
X177181000Y-62673000D01*
X179981000Y-64073000D02*
X177181000Y-64073000D01*
X156400000Y-106910000D02*
X156400000Y-105510000D01*
X156400000Y-105510000D02*
X153600000Y-105510000D01*
X156400000Y-106910000D02*
X153600000Y-106910000D01*
X135305000Y-59115000D02*
X135305000Y-57725000D01*
X135305000Y-59115000D02*
X135180000Y-59115000D01*
X135305000Y-57725000D02*
X135180000Y-57725000D01*
X135305000Y-59115000D02*
X135305000Y-59028276D01*
X135305000Y-57811724D02*
X135305000Y-57725000D01*
X134620000Y-59115000D02*
X133935000Y-59115000D01*
X133935000Y-59115000D02*
X133935000Y-58420000D01*
X135305000Y-61655000D02*
X135305000Y-60265000D01*
X135305000Y-61655000D02*
X135180000Y-61655000D01*
X135305000Y-60265000D02*
X135180000Y-60265000D01*
X135305000Y-61655000D02*
X135305000Y-61568276D01*
X135305000Y-60351724D02*
X135305000Y-60265000D01*
X134620000Y-61655000D02*
X133935000Y-61655000D01*
X133935000Y-61655000D02*
X133935000Y-60960000D01*
X146735000Y-92643000D02*
X146735000Y-91253000D01*
X146735000Y-92643000D02*
X146610000Y-92643000D01*
X146735000Y-91253000D02*
X146610000Y-91253000D01*
X146735000Y-92643000D02*
X146735000Y-92556276D01*
X146735000Y-91339724D02*
X146735000Y-91253000D01*
X146050000Y-92643000D02*
X145365000Y-92643000D01*
X145365000Y-92643000D02*
X145365000Y-91948000D01*
X149275000Y-92643000D02*
X149275000Y-91253000D01*
X149275000Y-92643000D02*
X149150000Y-92643000D01*
X149275000Y-91253000D02*
X149150000Y-91253000D01*
X149275000Y-92643000D02*
X149275000Y-92556276D01*
X149275000Y-91339724D02*
X149275000Y-91253000D01*
X148590000Y-92643000D02*
X147905000Y-92643000D01*
X147905000Y-92643000D02*
X147905000Y-91948000D01*
X195005000Y-65218000D02*
X192345000Y-65218000D01*
X195005000Y-77978000D02*
X195005000Y-65218000D01*
X192345000Y-77978000D02*
X192345000Y-65218000D01*
X195005000Y-77978000D02*
X192345000Y-77978000D01*
X195005000Y-79248000D02*
X195005000Y-80578000D01*
X195005000Y-80578000D02*
X193675000Y-80578000D01*
X141500000Y-124820000D02*
X141500000Y-133620000D01*
X141500000Y-133620000D02*
X132300000Y-133620000D01*
X138800000Y-118920000D02*
X141500000Y-118920000D01*
X141500000Y-118920000D02*
X141500000Y-120820000D01*
X132300000Y-133620000D02*
X132300000Y-118920000D01*
X132300000Y-118920000D02*
X134900000Y-118920000D01*
X169554000Y-75276000D02*
X169554000Y-74076000D01*
X171314000Y-74076000D02*
X171314000Y-75276000D01*
X171967000Y-75276000D02*
X171967000Y-74076000D01*
X173727000Y-74076000D02*
X173727000Y-75276000D01*
X169580000Y-59572000D02*
X170780000Y-59572000D01*
X170780000Y-61332000D02*
X169580000Y-61332000D01*
X169580000Y-61731000D02*
X170780000Y-61731000D01*
X170780000Y-63491000D02*
X169580000Y-63491000D01*
D12*
X146645000Y-53499000D02*
X146645000Y-58999000D01*
X146645000Y-58999000D02*
X141645000Y-58999000D01*
X141645000Y-58999000D02*
X141645000Y-53499000D01*
X141645000Y-53499000D02*
X146645000Y-53499000D01*
D11*
X174844000Y-64253000D02*
X173644000Y-64253000D01*
X173644000Y-62493000D02*
X174844000Y-62493000D01*
X192440000Y-96681400D02*
X193640000Y-96681400D01*
X193640000Y-98441400D02*
X192440000Y-98441400D01*
X152230000Y-105610000D02*
X152230000Y-106810000D01*
X150470000Y-106810000D02*
X150470000Y-105610000D01*
X169256600Y-102930400D02*
X169256600Y-104130400D01*
X167496600Y-104130400D02*
X167496600Y-102930400D01*
X177460800Y-103489200D02*
X177460800Y-104689200D01*
X175700800Y-104689200D02*
X175700800Y-103489200D01*
X170456300Y-99094400D02*
X171656300Y-99094400D01*
X171656300Y-100854400D02*
X170456300Y-100854400D01*
X161493000Y-93715000D02*
X167183000Y-93715000D01*
X167183000Y-93715000D02*
X167183000Y-98055000D01*
X167183000Y-98055000D02*
X161493000Y-98055000D01*
X161493000Y-98055000D02*
X161493000Y-97155000D01*
X162528000Y-95250000D02*
X162528000Y-96520000D01*
X162528000Y-96520000D02*
X166148000Y-96520000D01*
X166148000Y-96520000D02*
X166148000Y-95250000D01*
X166148000Y-95250000D02*
X162528000Y-95250000D01*
X164338000Y-95250000D02*
X164338000Y-96520000D01*
D12*
X137299700Y-53708300D02*
X157619700Y-53708300D01*
X162699700Y-91808300D02*
X162699700Y-58788300D01*
X137299700Y-96888300D02*
X157619700Y-96888300D01*
X132219700Y-58788300D02*
X132219700Y-91808300D01*
X137299700Y-96888300D02*
X132219700Y-91808300D01*
X157619700Y-96888300D02*
X162699700Y-91808300D01*
X157619700Y-53708300D02*
X162699700Y-58788300D01*
X132219700Y-58788300D02*
X137299700Y-53708300D01*
X186774000Y-99279000D02*
X186774000Y-99329000D01*
X190924000Y-99279000D02*
X190924000Y-99424000D01*
X190924000Y-104429000D02*
X190924000Y-104284000D01*
X186774000Y-104429000D02*
X186774000Y-104284000D01*
X186774000Y-99279000D02*
X190924000Y-99279000D01*
X186774000Y-104429000D02*
X190924000Y-104429000D01*
X186774000Y-99329000D02*
X185374000Y-99329000D01*
X163307000Y-63893000D02*
X163207000Y-64043000D01*
X163157000Y-64243000D02*
X163507000Y-63843000D01*
X172157000Y-63843000D02*
X172157000Y-72843000D01*
X172157000Y-72843000D02*
X163157000Y-72843000D01*
X163157000Y-72843000D02*
X163157000Y-63843000D01*
X163157000Y-63843000D02*
X172157000Y-63843000D01*
X165008000Y-57974000D02*
X166308000Y-57974000D01*
X166308000Y-57974000D02*
X166308000Y-59374000D01*
X171908000Y-59374000D02*
X171908000Y-53574000D01*
X171908000Y-53574000D02*
X164908000Y-53574000D01*
X164908000Y-53574000D02*
X164908000Y-59374000D01*
X164908000Y-59374000D02*
X171908000Y-59374000D01*
D11*
X171732366Y-84260783D02*
G75*
G03X170389551Y-85604351I-118615J-1224266D01*
G01*
X172838017Y-85366434D02*
G75*
G02X171494449Y-86709249I-1224266J-118615D01*
G01*
X155800000Y-118010000D02*
X155800000Y-116510000D01*
X155800000Y-116510000D02*
X154850000Y-116510000D01*
X154850000Y-116510000D02*
X154850000Y-111385000D01*
X145400000Y-118010000D02*
X145400000Y-116510000D01*
X145400000Y-116510000D02*
X146350000Y-116510000D01*
X146350000Y-116510000D02*
X146350000Y-115410000D01*
X134980000Y-88360000D02*
X134980000Y-89560000D01*
X133220000Y-89560000D02*
X133220000Y-88360000D01*
X143265000Y-61179000D02*
X143265000Y-59979000D01*
X145025000Y-59979000D02*
X145025000Y-61179000D01*
X133400000Y-86760000D02*
X134800000Y-86760000D01*
X134800000Y-86760000D02*
X134800000Y-83960000D01*
X133400000Y-86760000D02*
X133400000Y-83960000D01*
D12*
X139156000Y-66227000D02*
X139156000Y-63827000D01*
X139156000Y-63827000D02*
X141556000Y-63827000D01*
X157256000Y-63827000D02*
X159656000Y-63827000D01*
X159656000Y-63827000D02*
X159656000Y-66227000D01*
X157256000Y-88027000D02*
X159656000Y-88027000D01*
X159656000Y-88027000D02*
X159656000Y-85627000D01*
X139156000Y-85627000D02*
X139156000Y-88027000D01*
X139156000Y-88027000D02*
X141556000Y-88027000D01*
D11*
X139608000Y-89036000D02*
X140808000Y-89036000D01*
X140808000Y-90796000D02*
X139608000Y-90796000D01*
X134749000Y-91384000D02*
X134749000Y-92314000D01*
X134749000Y-94544000D02*
X134749000Y-93614000D01*
X134749000Y-94544000D02*
X136909000Y-94544000D01*
X134749000Y-91384000D02*
X136209000Y-91384000D01*
X175734600Y-82436600D02*
X174734600Y-82436600D01*
X174734600Y-84136600D02*
X175734600Y-84136600D01*
X186190000Y-94601400D02*
X187190000Y-94601400D01*
X187190000Y-92901400D02*
X186190000Y-92901400D01*
X194017000Y-89781000D02*
X194017000Y-88781000D01*
X192317000Y-88781000D02*
X192317000Y-89781000D01*
X189060200Y-79615400D02*
X190060200Y-79615400D01*
X190060200Y-77915400D02*
X189060200Y-77915400D01*
X159170000Y-61857000D02*
X159170000Y-62857000D01*
X160870000Y-62857000D02*
X160870000Y-61857000D01*
X161075000Y-63762000D02*
X161075000Y-64762000D01*
X162775000Y-64762000D02*
X162775000Y-63762000D01*
X172505000Y-68715000D02*
X172505000Y-69715000D01*
X174205000Y-69715000D02*
X174205000Y-68715000D01*
X159100000Y-116710000D02*
X157100000Y-116710000D01*
X157100000Y-116710000D02*
X157100000Y-120610000D01*
X159100000Y-116710000D02*
X159100000Y-120610000D01*
X162214000Y-82432000D02*
X163414000Y-82432000D01*
X163414000Y-84192000D02*
X162214000Y-84192000D01*
X162214000Y-86242000D02*
X163414000Y-86242000D01*
X163414000Y-88002000D02*
X162214000Y-88002000D01*
X162214000Y-84210000D02*
X163414000Y-84210000D01*
X163414000Y-85970000D02*
X162214000Y-85970000D01*
X137804000Y-93564000D02*
X137804000Y-92364000D01*
X139564000Y-92364000D02*
X139564000Y-93564000D01*
X171510000Y-87570000D02*
X168850000Y-87570000D01*
X171510000Y-87630000D02*
X171510000Y-87570000D01*
X168850000Y-87630000D02*
X168850000Y-87570000D01*
X171510000Y-87630000D02*
X168850000Y-87630000D01*
X171510000Y-88900000D02*
X171510000Y-90230000D01*
X171510000Y-90230000D02*
X170180000Y-90230000D01*
X166310000Y-90230000D02*
X168970000Y-90230000D01*
X166310000Y-90170000D02*
X166310000Y-90230000D01*
X168970000Y-90170000D02*
X168970000Y-90230000D01*
X166310000Y-90170000D02*
X168970000Y-90170000D01*
X166310000Y-88900000D02*
X166310000Y-87570000D01*
X166310000Y-87570000D02*
X167640000Y-87570000D01*
X168850000Y-92770000D02*
X171510000Y-92770000D01*
X168850000Y-92710000D02*
X168850000Y-92770000D01*
X171510000Y-92710000D02*
X171510000Y-92770000D01*
X168850000Y-92710000D02*
X171510000Y-92710000D01*
X168850000Y-91440000D02*
X168850000Y-90110000D01*
X168850000Y-90110000D02*
X170180000Y-90110000D01*
X166310000Y-87690000D02*
X168970000Y-87690000D01*
X166310000Y-87630000D02*
X166310000Y-87690000D01*
X168970000Y-87630000D02*
X168970000Y-87690000D01*
X166310000Y-87630000D02*
X168970000Y-87630000D01*
X166310000Y-86360000D02*
X166310000Y-85030000D01*
X166310000Y-85030000D02*
X167640000Y-85030000D01*
X166310000Y-92770000D02*
X168970000Y-92770000D01*
X166310000Y-92710000D02*
X166310000Y-92770000D01*
X168970000Y-92710000D02*
X168970000Y-92770000D01*
X166310000Y-92710000D02*
X168970000Y-92710000D01*
X166310000Y-91440000D02*
X166310000Y-90110000D01*
X166310000Y-90110000D02*
X167640000Y-90110000D01*
X173519200Y-89730200D02*
X173519200Y-88730200D01*
X171819200Y-88730200D02*
X171819200Y-89730200D01*
X174480600Y-86067000D02*
X175480600Y-86067000D01*
X175480600Y-84367000D02*
X174480600Y-84367000D01*
X177993600Y-81829800D02*
X176793600Y-81829800D01*
X176793600Y-80069800D02*
X177993600Y-80069800D01*
X165981000Y-98273500D02*
X164981000Y-98273500D01*
X164981000Y-99973500D02*
X165981000Y-99973500D01*
X135305000Y-64195000D02*
X135305000Y-62805000D01*
X135305000Y-64195000D02*
X135180000Y-64195000D01*
X135305000Y-62805000D02*
X135180000Y-62805000D01*
X135305000Y-64195000D02*
X135305000Y-64108276D01*
X135305000Y-62891724D02*
X135305000Y-62805000D01*
X134620000Y-64195000D02*
X133935000Y-64195000D01*
X133935000Y-64195000D02*
X133935000Y-63500000D01*
D12*
X170631000Y-101223000D02*
X170631000Y-101723000D01*
X169881000Y-101773000D02*
X170581000Y-101773000D01*
X169681000Y-103723000D02*
X172431000Y-103723000D01*
X172431000Y-103723000D02*
X172431000Y-101173000D01*
X172431000Y-101173000D02*
X169681000Y-101173000D01*
X169681000Y-101173000D02*
X169681000Y-103723000D01*
D11*
X190842000Y-97578800D02*
X190842000Y-96578800D01*
X189142000Y-96578800D02*
X189142000Y-97578800D01*
D12*
X190881000Y-66167000D02*
X191643000Y-65405000D01*
X190881000Y-65659000D02*
X191643000Y-64897000D01*
X190627000Y-65405000D02*
X191389000Y-64643000D01*
X189611000Y-64897000D02*
X189865000Y-64643000D01*
X189611000Y-65405000D02*
X190373000Y-64643000D01*
X189611000Y-65913000D02*
X190373000Y-65151000D01*
X190373000Y-65151000D02*
X190881000Y-64643000D01*
X189611000Y-66421000D02*
X190373000Y-65659000D01*
X189611000Y-66929000D02*
X190373000Y-66167000D01*
X189611000Y-67437000D02*
X190373000Y-66675000D01*
X190881000Y-66675000D02*
X191643000Y-65913000D01*
X189611000Y-67945000D02*
X190373000Y-67183000D01*
X190119000Y-67945000D02*
X190881000Y-67183000D01*
X190881000Y-67183000D02*
X191643000Y-66421000D01*
X190627000Y-67945000D02*
X191643000Y-66929000D01*
X191135000Y-67945000D02*
X191643000Y-67437000D01*
X188595000Y-67945000D02*
X189103000Y-67437000D01*
X188341000Y-67691000D02*
X188849000Y-67183000D01*
X187325000Y-67945000D02*
X187833000Y-67437000D01*
X187071000Y-67691000D02*
X187833000Y-66929000D01*
X187071000Y-67183000D02*
X187833000Y-66421000D01*
X187071000Y-66675000D02*
X187833000Y-65913000D01*
X187071000Y-66167000D02*
X187833000Y-65405000D01*
X187071000Y-65659000D02*
X187833000Y-64897000D01*
X186817000Y-65405000D02*
X187579000Y-64643000D01*
X186563000Y-65151000D02*
X187071000Y-64643000D01*
X193929000Y-63627000D02*
X194437000Y-64135000D01*
X193929000Y-63119000D02*
X194691000Y-63881000D01*
X193929000Y-62611000D02*
X194691000Y-63373000D01*
X194183000Y-60833000D02*
X194691000Y-61341000D01*
X193929000Y-61087000D02*
X194691000Y-61849000D01*
X193675000Y-61341000D02*
X194691000Y-62357000D01*
X193421000Y-61595000D02*
X193929000Y-62103000D01*
X193929000Y-62103000D02*
X194691000Y-62865000D01*
X193167000Y-61849000D02*
X193421000Y-62103000D01*
X192659000Y-61849000D02*
X193421000Y-62611000D01*
X192405000Y-62103000D02*
X192913000Y-62611000D01*
X192151000Y-61341000D02*
X192405000Y-61595000D01*
X191135000Y-60833000D02*
X192405000Y-62103000D01*
X190881000Y-61087000D02*
X191897000Y-62103000D01*
X190881000Y-61595000D02*
X191643000Y-62357000D01*
X190881000Y-62103000D02*
X191643000Y-62865000D01*
X190881000Y-62611000D02*
X191643000Y-63373000D01*
X190881000Y-63119000D02*
X191643000Y-63881000D01*
X190881000Y-63627000D02*
X191389000Y-64135000D01*
X189865000Y-60833000D02*
X190373000Y-61341000D01*
X189357000Y-60833000D02*
X190373000Y-61849000D01*
X189611000Y-61595000D02*
X190373000Y-62357000D01*
X188849000Y-60833000D02*
X189611000Y-61595000D01*
X189103000Y-61595000D02*
X188341000Y-60833000D01*
X190373000Y-62865000D02*
X189611000Y-62103000D01*
X189103000Y-62103000D02*
X189865000Y-62865000D01*
X187833000Y-60833000D02*
X188595000Y-61595000D01*
X188595000Y-62103000D02*
X189357000Y-62865000D01*
X187579000Y-61087000D02*
X188341000Y-61849000D01*
X187579000Y-61595000D02*
X188849000Y-62865000D01*
X187579000Y-62103000D02*
X188341000Y-62865000D01*
X187579000Y-62611000D02*
X188341000Y-63373000D01*
X187579000Y-63119000D02*
X188341000Y-63881000D01*
X187579000Y-63627000D02*
X188087000Y-64135000D01*
X186309000Y-63627000D02*
X186817000Y-64135000D01*
X186309000Y-63119000D02*
X187071000Y-63881000D01*
X185547000Y-62357000D02*
X185801000Y-62611000D01*
X186563000Y-60833000D02*
X187071000Y-61341000D01*
X186309000Y-61087000D02*
X187071000Y-61849000D01*
X186309000Y-61595000D02*
X187071000Y-62357000D01*
X186055000Y-61849000D02*
X187071000Y-62865000D01*
X185547000Y-61341000D02*
X185801000Y-61595000D01*
X186309000Y-62611000D02*
X187071000Y-63373000D01*
X184531000Y-60833000D02*
X186309000Y-62611000D01*
X184277000Y-61087000D02*
X185293000Y-62103000D01*
X184277000Y-61595000D02*
X185039000Y-62357000D01*
X184277000Y-62103000D02*
X185039000Y-62865000D01*
X184277000Y-62611000D02*
X185039000Y-63373000D01*
X184277000Y-63119000D02*
X185039000Y-63881000D01*
X184277000Y-63627000D02*
X184785000Y-64135000D01*
X183261000Y-60833000D02*
X183769000Y-61341000D01*
X182753000Y-60833000D02*
X183515000Y-61595000D01*
X182245000Y-60833000D02*
X183007000Y-61595000D01*
X181737000Y-60833000D02*
X182499000Y-61595000D01*
X182245000Y-61849000D02*
X181483000Y-61087000D01*
X181483000Y-62611000D02*
X181737000Y-62865000D01*
X181483000Y-62103000D02*
X182245000Y-62865000D01*
X182753000Y-62865000D02*
X181483000Y-61595000D01*
X183007000Y-62103000D02*
X183769000Y-62865000D01*
X182499000Y-62103000D02*
X183769000Y-63373000D01*
X183007000Y-63119000D02*
X183769000Y-63881000D01*
X182753000Y-63373000D02*
X183515000Y-64135000D01*
X182245000Y-63373000D02*
X183007000Y-64135000D01*
X181737000Y-63373000D02*
X182499000Y-64135000D01*
X181483000Y-63627000D02*
X181991000Y-64135000D01*
X191135000Y-68961000D02*
X191643000Y-68961000D01*
X191135000Y-69215000D02*
X191135000Y-68453000D01*
X191135000Y-68453000D02*
X191643000Y-68453000D01*
X191643000Y-68453000D02*
X191643000Y-69215000D01*
X190119000Y-69215000D02*
X190627000Y-69215000D01*
X189611000Y-69215000D02*
X189611000Y-68453000D01*
X193167000Y-61849000D02*
X193421000Y-61849000D01*
X193167000Y-62611000D02*
X193421000Y-62611000D01*
X192151000Y-62103000D02*
X192405000Y-62103000D01*
X192151000Y-61341000D02*
X192405000Y-61341000D01*
X189611000Y-64643000D02*
X191643000Y-64643000D01*
X191643000Y-64643000D02*
X191643000Y-67945000D01*
X191643000Y-67945000D02*
X189611000Y-67945000D01*
X190373000Y-65405000D02*
X190373000Y-67183000D01*
X190373000Y-67183000D02*
X190881000Y-67183000D01*
X190881000Y-67183000D02*
X190881000Y-65405000D01*
X190881000Y-65405000D02*
X190373000Y-65405000D01*
X189611000Y-67945000D02*
X189611000Y-64643000D01*
X188341000Y-67945000D02*
X188341000Y-67183000D01*
X188341000Y-67183000D02*
X189103000Y-67183000D01*
X189103000Y-67183000D02*
X189103000Y-67945000D01*
X189103000Y-67945000D02*
X188341000Y-67945000D01*
X187833000Y-64643000D02*
X187833000Y-67945000D01*
X187833000Y-67945000D02*
X187071000Y-67945000D01*
X187071000Y-67945000D02*
X187071000Y-65405000D01*
X187071000Y-65405000D02*
X186563000Y-65405000D01*
X186563000Y-65405000D02*
X186563000Y-64643000D01*
X186563000Y-64643000D02*
X187071000Y-64643000D01*
X187071000Y-64643000D02*
X187833000Y-64643000D01*
X191643000Y-61341000D02*
X192151000Y-61341000D01*
X192405000Y-61341000D02*
X192405000Y-61849000D01*
X192405000Y-61849000D02*
X192659000Y-61849000D01*
X191643000Y-62103000D02*
X192151000Y-62103000D01*
X192405000Y-62103000D02*
X192405000Y-62611000D01*
X192405000Y-62611000D02*
X192659000Y-62611000D01*
X190881000Y-60833000D02*
X191643000Y-60833000D01*
X191643000Y-60833000D02*
X191643000Y-61341000D01*
X192659000Y-61849000D02*
X193167000Y-61849000D01*
X193421000Y-61849000D02*
X193421000Y-61341000D01*
X193421000Y-61341000D02*
X193929000Y-61341000D01*
X193929000Y-61341000D02*
X193929000Y-60833000D01*
X193929000Y-60833000D02*
X194691000Y-60833000D01*
X194691000Y-60833000D02*
X194691000Y-64135000D01*
X194691000Y-64135000D02*
X193929000Y-64135000D01*
X193929000Y-64135000D02*
X193929000Y-62103000D01*
X193929000Y-62103000D02*
X193421000Y-62103000D01*
X193421000Y-62103000D02*
X193421000Y-62611000D01*
X193167000Y-62611000D02*
X192659000Y-62611000D01*
X191643000Y-62103000D02*
X191643000Y-64135000D01*
X191643000Y-64135000D02*
X190881000Y-64135000D01*
X190881000Y-60833000D02*
X190881000Y-64135000D01*
X188341000Y-61595000D02*
X188341000Y-62103000D01*
X188341000Y-62103000D02*
X189611000Y-62103000D01*
X189611000Y-62103000D02*
X189611000Y-61595000D01*
X189611000Y-61595000D02*
X188341000Y-61595000D01*
X187579000Y-64135000D02*
X187579000Y-60833000D01*
X187579000Y-60833000D02*
X190373000Y-60833000D01*
X190373000Y-60833000D02*
X190373000Y-62865000D01*
X190373000Y-62865000D02*
X188341000Y-62865000D01*
X188341000Y-62865000D02*
X188341000Y-64135000D01*
X188341000Y-64135000D02*
X187579000Y-64135000D01*
X185039000Y-62103000D02*
X185039000Y-64135000D01*
X185039000Y-64135000D02*
X184785000Y-64135000D01*
X184277000Y-64135000D02*
X184277000Y-60833000D01*
X184277000Y-60833000D02*
X185039000Y-60833000D01*
X185039000Y-60833000D02*
X185039000Y-61341000D01*
X185039000Y-61341000D02*
X185801000Y-61341000D01*
X185801000Y-61341000D02*
X185801000Y-61849000D01*
X185801000Y-61849000D02*
X186309000Y-61849000D01*
X186309000Y-61849000D02*
X186309000Y-60833000D01*
X186309000Y-60833000D02*
X187071000Y-60833000D01*
X187071000Y-60833000D02*
X187071000Y-64135000D01*
X187071000Y-64135000D02*
X186309000Y-64135000D01*
X186309000Y-64135000D02*
X186309000Y-62611000D01*
X186309000Y-62611000D02*
X185547000Y-62611000D01*
X185547000Y-62611000D02*
X185547000Y-62357000D01*
X185547000Y-62357000D02*
X185547000Y-62103000D01*
X185547000Y-62103000D02*
X185039000Y-62103000D01*
X184785000Y-64135000D02*
X184277000Y-64135000D01*
X183769000Y-60833000D02*
X183769000Y-61595000D01*
X183769000Y-61595000D02*
X182245000Y-61595000D01*
X182245000Y-61595000D02*
X182245000Y-62103000D01*
X182245000Y-62103000D02*
X183769000Y-62103000D01*
X183769000Y-62103000D02*
X183769000Y-64135000D01*
X183769000Y-64135000D02*
X181483000Y-64135000D01*
X181483000Y-64135000D02*
X181483000Y-63373000D01*
X181483000Y-63373000D02*
X183007000Y-63373000D01*
X183007000Y-63373000D02*
X183007000Y-62865000D01*
X183007000Y-62865000D02*
X181483000Y-62865000D01*
X181483000Y-62865000D02*
X181483000Y-60833000D01*
X181483000Y-60833000D02*
X183769000Y-60833000D01*
X193929000Y-59817000D02*
X194691000Y-59817000D01*
X194691000Y-59055000D02*
X193929000Y-59055000D01*
X193929000Y-59055000D02*
X193929000Y-60325000D01*
X193929000Y-60325000D02*
X194691000Y-60325000D01*
X193675000Y-60325000D02*
X192913000Y-60325000D01*
X192913000Y-60325000D02*
X192913000Y-59055000D01*
X192913000Y-59055000D02*
X193675000Y-59055000D01*
X191897000Y-59817000D02*
X192659000Y-59817000D01*
X191897000Y-60325000D02*
X191897000Y-59055000D01*
X191897000Y-59055000D02*
X192659000Y-59055000D01*
X192659000Y-59055000D02*
X192659000Y-60325000D01*
X190881000Y-60325000D02*
X190881000Y-59055000D01*
X190881000Y-59055000D02*
X191643000Y-59055000D01*
X191643000Y-59055000D02*
X191643000Y-59817000D01*
X191643000Y-59817000D02*
X190881000Y-59817000D01*
X190627000Y-59055000D02*
X189865000Y-59055000D01*
X189865000Y-59055000D02*
X189865000Y-59817000D01*
X189865000Y-59817000D02*
X190627000Y-59817000D01*
X190627000Y-59817000D02*
X190627000Y-60325000D01*
X190627000Y-60325000D02*
X189865000Y-60325000D01*
X189103000Y-59817000D02*
X189611000Y-60325000D01*
X188849000Y-59055000D02*
X189611000Y-59055000D01*
X189611000Y-59055000D02*
X189611000Y-59817000D01*
X189611000Y-59817000D02*
X188849000Y-59817000D01*
X188849000Y-59055000D02*
X188849000Y-60325000D01*
X188341000Y-59817000D02*
X188595000Y-59817000D01*
X187833000Y-59817000D02*
X188341000Y-59817000D01*
X187833000Y-59055000D02*
X188595000Y-59055000D01*
X187833000Y-59055000D02*
X187833000Y-60325000D01*
X187833000Y-60325000D02*
X188595000Y-60325000D01*
X187071000Y-59817000D02*
X187579000Y-60325000D01*
X186817000Y-59817000D02*
X187071000Y-59817000D01*
X187071000Y-59817000D02*
X187579000Y-59055000D01*
X186817000Y-59055000D02*
X186817000Y-60325000D01*
X186563000Y-59055000D02*
X185801000Y-59055000D01*
X185801000Y-59055000D02*
X185801000Y-60325000D01*
X185801000Y-60325000D02*
X186563000Y-60325000D01*
X185547000Y-59817000D02*
X184785000Y-59817000D01*
X184785000Y-60325000D02*
X184785000Y-59055000D01*
X184785000Y-59055000D02*
X185547000Y-59055000D01*
X185547000Y-59055000D02*
X185547000Y-60325000D01*
X184531000Y-59055000D02*
X184531000Y-60325000D01*
X183769000Y-59817000D02*
X184531000Y-59817000D01*
X183769000Y-59055000D02*
X183769000Y-60325000D01*
X194691000Y-58293000D02*
X193929000Y-58293000D01*
X193929000Y-58801000D02*
X193929000Y-57531000D01*
X193929000Y-57531000D02*
X194691000Y-57531000D01*
X194691000Y-57531000D02*
X194691000Y-58801000D01*
X193167000Y-58293000D02*
X193675000Y-58801000D01*
X192913000Y-58293000D02*
X193167000Y-58293000D01*
X193167000Y-58293000D02*
X193675000Y-57531000D01*
X192913000Y-57531000D02*
X192913000Y-58801000D01*
X191897000Y-58293000D02*
X192659000Y-58293000D01*
X191897000Y-57531000D02*
X191897000Y-58801000D01*
X191897000Y-58801000D02*
X192659000Y-58801000D01*
X192659000Y-58801000D02*
X192659000Y-58039000D01*
X192659000Y-58039000D02*
X192659000Y-57531000D01*
X192659000Y-57531000D02*
X191897000Y-57531000D01*
X191643000Y-58293000D02*
X190881000Y-58293000D01*
X190881000Y-58801000D02*
X190881000Y-57531000D01*
X190881000Y-57531000D02*
X191643000Y-57531000D01*
X191643000Y-57531000D02*
X191643000Y-58801000D01*
X189865000Y-57531000D02*
X189865000Y-58801000D01*
X189865000Y-58801000D02*
X190627000Y-58801000D01*
D11*
X183620000Y-70674000D02*
X183620000Y-72074000D01*
X183620000Y-72074000D02*
X186420000Y-72074000D01*
X183620000Y-70674000D02*
X186420000Y-70674000D01*
X187684000Y-70674000D02*
X187684000Y-72074000D01*
X187684000Y-72074000D02*
X190484000Y-72074000D01*
X187684000Y-70674000D02*
X190484000Y-70674000D01*
X187461000Y-75022000D02*
X187461000Y-73822000D01*
X189221000Y-73822000D02*
X189221000Y-75022000D01*
X189493000Y-75022000D02*
X189493000Y-73822000D01*
X191253000Y-73822000D02*
X191253000Y-75022000D01*
D12*
X158575000Y-115110000D02*
X160625000Y-115110000D01*
X157870000Y-111810000D02*
X160625000Y-111810000D01*
D11*
X171390000Y-95310000D02*
X174050000Y-95310000D01*
X171390000Y-95250000D02*
X171390000Y-95310000D01*
X174050000Y-95250000D02*
X174050000Y-95310000D01*
X171390000Y-95250000D02*
X174050000Y-95250000D01*
X171390000Y-93980000D02*
X171390000Y-92650000D01*
X171390000Y-92650000D02*
X172720000Y-92650000D01*
X173930000Y-97850000D02*
X176590000Y-97850000D01*
X173930000Y-97790000D02*
X173930000Y-97850000D01*
X176590000Y-97790000D02*
X176590000Y-97850000D01*
X173930000Y-97790000D02*
X176590000Y-97790000D01*
X173930000Y-96520000D02*
X173930000Y-95190000D01*
X173930000Y-95190000D02*
X175260000Y-95190000D01*
X171390000Y-97850000D02*
X174050000Y-97850000D01*
X171390000Y-97790000D02*
X171390000Y-97850000D01*
X174050000Y-97790000D02*
X174050000Y-97850000D01*
X171390000Y-97790000D02*
X174050000Y-97790000D01*
X171390000Y-96520000D02*
X171390000Y-95190000D01*
X171390000Y-95190000D02*
X172720000Y-95190000D01*
X173930000Y-100390000D02*
X176590000Y-100390000D01*
X173930000Y-100330000D02*
X173930000Y-100390000D01*
X176590000Y-100330000D02*
X176590000Y-100390000D01*
X173930000Y-100330000D02*
X176590000Y-100330000D01*
X173930000Y-99060000D02*
X173930000Y-97730000D01*
X173930000Y-97730000D02*
X175260000Y-97730000D01*
X142180000Y-119186000D02*
X144840000Y-119186000D01*
X142180000Y-119126000D02*
X142180000Y-119186000D01*
X144840000Y-119126000D02*
X144840000Y-119186000D01*
X142180000Y-119126000D02*
X144840000Y-119126000D01*
X142180000Y-117856000D02*
X142180000Y-116526000D01*
X142180000Y-116526000D02*
X143510000Y-116526000D01*
D12*
X177085445Y-85217000D02*
X177792552Y-85924107D01*
X184404000Y-77898445D02*
X185164140Y-78658585D01*
X191722555Y-85217000D02*
X190962415Y-84456860D01*
X184404000Y-92535555D02*
X183643860Y-91775415D01*
X177085445Y-85217000D02*
X177845585Y-84456860D01*
X184404000Y-92535555D02*
X185164140Y-91775415D01*
X191722555Y-85217000D02*
X190962415Y-85977140D01*
X184404000Y-77898445D02*
X183643860Y-78658585D01*
X177792552Y-85924107D02*
X177067767Y-86648891D01*
D11*
X184968852Y-95180408D02*
X176059307Y-86270862D01*
X176059307Y-86270862D02*
X172453062Y-89877107D01*
X172453062Y-89877107D02*
X181362608Y-98786652D01*
D12*
X144806943Y-107094257D02*
X144854562Y-107141876D01*
X144902181Y-107284733D01*
X144902181Y-107379971D01*
X144854562Y-107522829D01*
X144759324Y-107618067D01*
X144664086Y-107665686D01*
X144473610Y-107713305D01*
X144330752Y-107713305D01*
X144140276Y-107665686D01*
X144045038Y-107618067D01*
X143949800Y-107522829D01*
X143902181Y-107379971D01*
X143902181Y-107284733D01*
X143949800Y-107141876D01*
X143997419Y-107094257D01*
X144902181Y-106141876D02*
X144902181Y-106713305D01*
X144902181Y-106427591D02*
X143902181Y-106427591D01*
X144045038Y-106522829D01*
X144140276Y-106618067D01*
X144187895Y-106713305D01*
X143902181Y-105284733D02*
X143902181Y-105475210D01*
X143949800Y-105570448D01*
X143997419Y-105618067D01*
X144140276Y-105713305D01*
X144330752Y-105760924D01*
X144711705Y-105760924D01*
X144806943Y-105713305D01*
X144854562Y-105665686D01*
X144902181Y-105570448D01*
X144902181Y-105379971D01*
X144854562Y-105284733D01*
X144806943Y-105237114D01*
X144711705Y-105189495D01*
X144473610Y-105189495D01*
X144378371Y-105237114D01*
X144330752Y-105284733D01*
X144283133Y-105379971D01*
X144283133Y-105570448D01*
X144330752Y-105665686D01*
X144378371Y-105713305D01*
X144473610Y-105760924D01*
X143211429Y-117090952D02*
X143211429Y-116329047D01*
X143592381Y-116709999D02*
X142830476Y-116709999D01*
X155294034Y-93181443D02*
X155246415Y-93229062D01*
X155103558Y-93276681D01*
X155008320Y-93276681D01*
X154865462Y-93229062D01*
X154770224Y-93133824D01*
X154722605Y-93038586D01*
X154674986Y-92848110D01*
X154674986Y-92705252D01*
X154722605Y-92514776D01*
X154770224Y-92419538D01*
X154865462Y-92324300D01*
X155008320Y-92276681D01*
X155103558Y-92276681D01*
X155246415Y-92324300D01*
X155294034Y-92371919D01*
X155627367Y-92276681D02*
X156294034Y-92276681D01*
X155865462Y-93276681D01*
X137329943Y-62015643D02*
X137282324Y-62063262D01*
X137139467Y-62110881D01*
X137044229Y-62110881D01*
X136901371Y-62063262D01*
X136806133Y-61968024D01*
X136758514Y-61872786D01*
X136710895Y-61682310D01*
X136710895Y-61539452D01*
X136758514Y-61348976D01*
X136806133Y-61253738D01*
X136901371Y-61158500D01*
X137044229Y-61110881D01*
X137139467Y-61110881D01*
X137282324Y-61158500D01*
X137329943Y-61206119D01*
X138282324Y-62110881D02*
X137710895Y-62110881D01*
X137996609Y-62110881D02*
X137996609Y-61110881D01*
X137901371Y-61253738D01*
X137806133Y-61348976D01*
X137710895Y-61396595D01*
X138901371Y-61110881D02*
X138996610Y-61110881D01*
X139091848Y-61158500D01*
X139139467Y-61206119D01*
X139187086Y-61301357D01*
X139234705Y-61491833D01*
X139234705Y-61729929D01*
X139187086Y-61920405D01*
X139139467Y-62015643D01*
X139091848Y-62063262D01*
X138996610Y-62110881D01*
X138901371Y-62110881D01*
X138806133Y-62063262D01*
X138758514Y-62015643D01*
X138710895Y-61920405D01*
X138663276Y-61729929D01*
X138663276Y-61491833D01*
X138710895Y-61301357D01*
X138758514Y-61206119D01*
X138806133Y-61158500D01*
X138901371Y-61110881D01*
X137444243Y-59958243D02*
X137396624Y-60005862D01*
X137253767Y-60053481D01*
X137158529Y-60053481D01*
X137015671Y-60005862D01*
X136920433Y-59910624D01*
X136872814Y-59815386D01*
X136825195Y-59624910D01*
X136825195Y-59482052D01*
X136872814Y-59291576D01*
X136920433Y-59196338D01*
X137015671Y-59101100D01*
X137158529Y-59053481D01*
X137253767Y-59053481D01*
X137396624Y-59101100D01*
X137444243Y-59148719D01*
X138396624Y-60053481D02*
X137825195Y-60053481D01*
X138110909Y-60053481D02*
X138110909Y-59053481D01*
X138015671Y-59196338D01*
X137920433Y-59291576D01*
X137825195Y-59339195D01*
X139349005Y-60053481D02*
X138777576Y-60053481D01*
X139063290Y-60053481D02*
X139063290Y-59053481D01*
X138968052Y-59196338D01*
X138872814Y-59291576D01*
X138777576Y-59339195D01*
X162358343Y-76804757D02*
X162405962Y-76852376D01*
X162453581Y-76995233D01*
X162453581Y-77090471D01*
X162405962Y-77233329D01*
X162310724Y-77328567D01*
X162215486Y-77376186D01*
X162025010Y-77423805D01*
X161882152Y-77423805D01*
X161691676Y-77376186D01*
X161596438Y-77328567D01*
X161501200Y-77233329D01*
X161453581Y-77090471D01*
X161453581Y-76995233D01*
X161501200Y-76852376D01*
X161548819Y-76804757D01*
X162453581Y-75852376D02*
X162453581Y-76423805D01*
X162453581Y-76138091D02*
X161453581Y-76138091D01*
X161596438Y-76233329D01*
X161691676Y-76328567D01*
X161739295Y-76423805D01*
X161453581Y-75519043D02*
X161453581Y-74899995D01*
X161834533Y-75233329D01*
X161834533Y-75090471D01*
X161882152Y-74995233D01*
X161929771Y-74947614D01*
X162025010Y-74899995D01*
X162263105Y-74899995D01*
X162358343Y-74947614D01*
X162405962Y-74995233D01*
X162453581Y-75090471D01*
X162453581Y-75376186D01*
X162405962Y-75471424D01*
X162358343Y-75519043D01*
X138358643Y-103316043D02*
X138311024Y-103363662D01*
X138168167Y-103411281D01*
X138072929Y-103411281D01*
X137930071Y-103363662D01*
X137834833Y-103268424D01*
X137787214Y-103173186D01*
X137739595Y-102982710D01*
X137739595Y-102839852D01*
X137787214Y-102649376D01*
X137834833Y-102554138D01*
X137930071Y-102458900D01*
X138072929Y-102411281D01*
X138168167Y-102411281D01*
X138311024Y-102458900D01*
X138358643Y-102506519D01*
X139311024Y-103411281D02*
X138739595Y-103411281D01*
X139025309Y-103411281D02*
X139025309Y-102411281D01*
X138930071Y-102554138D01*
X138834833Y-102649376D01*
X138739595Y-102696995D01*
X140215786Y-102411281D02*
X139739595Y-102411281D01*
X139691976Y-102887471D01*
X139739595Y-102839852D01*
X139834833Y-102792233D01*
X140072929Y-102792233D01*
X140168167Y-102839852D01*
X140215786Y-102887471D01*
X140263405Y-102982710D01*
X140263405Y-103220805D01*
X140215786Y-103316043D01*
X140168167Y-103363662D01*
X140072929Y-103411281D01*
X139834833Y-103411281D01*
X139739595Y-103363662D01*
X139691976Y-103316043D01*
X163936443Y-74715643D02*
X163888824Y-74763262D01*
X163745967Y-74810881D01*
X163650729Y-74810881D01*
X163507871Y-74763262D01*
X163412633Y-74668024D01*
X163365014Y-74572786D01*
X163317395Y-74382310D01*
X163317395Y-74239452D01*
X163365014Y-74048976D01*
X163412633Y-73953738D01*
X163507871Y-73858500D01*
X163650729Y-73810881D01*
X163745967Y-73810881D01*
X163888824Y-73858500D01*
X163936443Y-73906119D01*
X164888824Y-74810881D02*
X164317395Y-74810881D01*
X164603109Y-74810881D02*
X164603109Y-73810881D01*
X164507871Y-73953738D01*
X164412633Y-74048976D01*
X164317395Y-74096595D01*
X165222157Y-73810881D02*
X165888824Y-73810881D01*
X165460252Y-74810881D01*
X175887143Y-74144143D02*
X175839524Y-74191762D01*
X175696667Y-74239381D01*
X175601429Y-74239381D01*
X175458571Y-74191762D01*
X175363333Y-74096524D01*
X175315714Y-74001286D01*
X175268095Y-73810810D01*
X175268095Y-73667952D01*
X175315714Y-73477476D01*
X175363333Y-73382238D01*
X175458571Y-73287000D01*
X175601429Y-73239381D01*
X175696667Y-73239381D01*
X175839524Y-73287000D01*
X175887143Y-73334619D01*
X176839524Y-74239381D02*
X176268095Y-74239381D01*
X176553809Y-74239381D02*
X176553809Y-73239381D01*
X176458571Y-73382238D01*
X176363333Y-73477476D01*
X176268095Y-73525095D01*
X177410952Y-73667952D02*
X177315714Y-73620333D01*
X177268095Y-73572714D01*
X177220476Y-73477476D01*
X177220476Y-73429857D01*
X177268095Y-73334619D01*
X177315714Y-73287000D01*
X177410952Y-73239381D01*
X177601429Y-73239381D01*
X177696667Y-73287000D01*
X177744286Y-73334619D01*
X177791905Y-73429857D01*
X177791905Y-73477476D01*
X177744286Y-73572714D01*
X177696667Y-73620333D01*
X177601429Y-73667952D01*
X177410952Y-73667952D01*
X177315714Y-73715571D01*
X177268095Y-73763190D01*
X177220476Y-73858429D01*
X177220476Y-74048905D01*
X177268095Y-74144143D01*
X177315714Y-74191762D01*
X177410952Y-74239381D01*
X177601429Y-74239381D01*
X177696667Y-74191762D01*
X177744286Y-74144143D01*
X177791905Y-74048905D01*
X177791905Y-73858429D01*
X177744286Y-73763190D01*
X177696667Y-73715571D01*
X177601429Y-73667952D01*
X152541243Y-100972857D02*
X152588862Y-101020476D01*
X152636481Y-101163333D01*
X152636481Y-101258571D01*
X152588862Y-101401429D01*
X152493624Y-101496667D01*
X152398386Y-101544286D01*
X152207910Y-101591905D01*
X152065052Y-101591905D01*
X151874576Y-101544286D01*
X151779338Y-101496667D01*
X151684100Y-101401429D01*
X151636481Y-101258571D01*
X151636481Y-101163333D01*
X151684100Y-101020476D01*
X151731719Y-100972857D01*
X152636481Y-100020476D02*
X152636481Y-100591905D01*
X152636481Y-100306191D02*
X151636481Y-100306191D01*
X151779338Y-100401429D01*
X151874576Y-100496667D01*
X151922195Y-100591905D01*
X152636481Y-99544286D02*
X152636481Y-99353810D01*
X152588862Y-99258571D01*
X152541243Y-99210952D01*
X152398386Y-99115714D01*
X152207910Y-99068095D01*
X151826957Y-99068095D01*
X151731719Y-99115714D01*
X151684100Y-99163333D01*
X151636481Y-99258571D01*
X151636481Y-99449048D01*
X151684100Y-99544286D01*
X151731719Y-99591905D01*
X151826957Y-99639524D01*
X152065052Y-99639524D01*
X152160290Y-99591905D01*
X152207910Y-99544286D01*
X152255529Y-99449048D01*
X152255529Y-99258571D01*
X152207910Y-99163333D01*
X152160290Y-99115714D01*
X152065052Y-99068095D01*
X150499048Y-97621429D02*
X151260953Y-97621429D01*
X150880001Y-98002381D02*
X150880001Y-97240476D01*
X176379143Y-101607857D02*
X176426762Y-101655476D01*
X176474381Y-101798333D01*
X176474381Y-101893571D01*
X176426762Y-102036429D01*
X176331524Y-102131667D01*
X176236286Y-102179286D01*
X176045810Y-102226905D01*
X175902952Y-102226905D01*
X175712476Y-102179286D01*
X175617238Y-102131667D01*
X175522000Y-102036429D01*
X175474381Y-101893571D01*
X175474381Y-101798333D01*
X175522000Y-101655476D01*
X175569619Y-101607857D01*
X175569619Y-101226905D02*
X175522000Y-101179286D01*
X175474381Y-101084048D01*
X175474381Y-100845952D01*
X175522000Y-100750714D01*
X175569619Y-100703095D01*
X175664857Y-100655476D01*
X175760095Y-100655476D01*
X175902952Y-100703095D01*
X176474381Y-101274524D01*
X176474381Y-100655476D01*
X176474381Y-99703095D02*
X176474381Y-100274524D01*
X176474381Y-99988810D02*
X175474381Y-99988810D01*
X175617238Y-100084048D01*
X175712476Y-100179286D01*
X175760095Y-100274524D01*
X162183843Y-107672143D02*
X162136224Y-107719762D01*
X161993367Y-107767381D01*
X161898129Y-107767381D01*
X161755271Y-107719762D01*
X161660033Y-107624524D01*
X161612414Y-107529286D01*
X161564795Y-107338810D01*
X161564795Y-107195952D01*
X161612414Y-107005476D01*
X161660033Y-106910238D01*
X161755271Y-106815000D01*
X161898129Y-106767381D01*
X161993367Y-106767381D01*
X162136224Y-106815000D01*
X162183843Y-106862619D01*
X162564795Y-106862619D02*
X162612414Y-106815000D01*
X162707652Y-106767381D01*
X162945748Y-106767381D01*
X163040986Y-106815000D01*
X163088605Y-106862619D01*
X163136224Y-106957857D01*
X163136224Y-107053095D01*
X163088605Y-107195952D01*
X162517176Y-107767381D01*
X163136224Y-107767381D01*
X163469557Y-106767381D02*
X164088605Y-106767381D01*
X163755271Y-107148333D01*
X163898129Y-107148333D01*
X163993367Y-107195952D01*
X164040986Y-107243571D01*
X164088605Y-107338810D01*
X164088605Y-107576905D01*
X164040986Y-107672143D01*
X163993367Y-107719762D01*
X163898129Y-107767381D01*
X163612414Y-107767381D01*
X163517176Y-107719762D01*
X163469557Y-107672143D01*
X162158443Y-110301043D02*
X162110824Y-110348662D01*
X161967967Y-110396281D01*
X161872729Y-110396281D01*
X161729871Y-110348662D01*
X161634633Y-110253424D01*
X161587014Y-110158186D01*
X161539395Y-109967710D01*
X161539395Y-109824852D01*
X161587014Y-109634376D01*
X161634633Y-109539138D01*
X161729871Y-109443900D01*
X161872729Y-109396281D01*
X161967967Y-109396281D01*
X162110824Y-109443900D01*
X162158443Y-109491519D01*
X162539395Y-109491519D02*
X162587014Y-109443900D01*
X162682252Y-109396281D01*
X162920348Y-109396281D01*
X163015586Y-109443900D01*
X163063205Y-109491519D01*
X163110824Y-109586757D01*
X163110824Y-109681995D01*
X163063205Y-109824852D01*
X162491776Y-110396281D01*
X163110824Y-110396281D01*
X163967967Y-109729614D02*
X163967967Y-110396281D01*
X163729871Y-109348662D02*
X163491776Y-110062948D01*
X164110824Y-110062948D01*
X147858243Y-105779843D02*
X147810624Y-105827462D01*
X147667767Y-105875081D01*
X147572529Y-105875081D01*
X147429671Y-105827462D01*
X147334433Y-105732224D01*
X147286814Y-105636986D01*
X147239195Y-105446510D01*
X147239195Y-105303652D01*
X147286814Y-105113176D01*
X147334433Y-105017938D01*
X147429671Y-104922700D01*
X147572529Y-104875081D01*
X147667767Y-104875081D01*
X147810624Y-104922700D01*
X147858243Y-104970319D01*
X148239195Y-104970319D02*
X148286814Y-104922700D01*
X148382052Y-104875081D01*
X148620148Y-104875081D01*
X148715386Y-104922700D01*
X148763005Y-104970319D01*
X148810624Y-105065557D01*
X148810624Y-105160795D01*
X148763005Y-105303652D01*
X148191576Y-105875081D01*
X148810624Y-105875081D01*
X149715386Y-104875081D02*
X149239195Y-104875081D01*
X149191576Y-105351271D01*
X149239195Y-105303652D01*
X149334433Y-105256033D01*
X149572529Y-105256033D01*
X149667767Y-105303652D01*
X149715386Y-105351271D01*
X149763005Y-105446510D01*
X149763005Y-105684605D01*
X149715386Y-105779843D01*
X149667767Y-105827462D01*
X149572529Y-105875081D01*
X149334433Y-105875081D01*
X149239195Y-105827462D01*
X149191576Y-105779843D01*
X144784843Y-109970843D02*
X144737224Y-110018462D01*
X144594367Y-110066081D01*
X144499129Y-110066081D01*
X144356271Y-110018462D01*
X144261033Y-109923224D01*
X144213414Y-109827986D01*
X144165795Y-109637510D01*
X144165795Y-109494652D01*
X144213414Y-109304176D01*
X144261033Y-109208938D01*
X144356271Y-109113700D01*
X144499129Y-109066081D01*
X144594367Y-109066081D01*
X144737224Y-109113700D01*
X144784843Y-109161319D01*
X145165795Y-109161319D02*
X145213414Y-109113700D01*
X145308652Y-109066081D01*
X145546748Y-109066081D01*
X145641986Y-109113700D01*
X145689605Y-109161319D01*
X145737224Y-109256557D01*
X145737224Y-109351795D01*
X145689605Y-109494652D01*
X145118176Y-110066081D01*
X145737224Y-110066081D01*
X146594367Y-109066081D02*
X146403890Y-109066081D01*
X146308652Y-109113700D01*
X146261033Y-109161319D01*
X146165795Y-109304176D01*
X146118176Y-109494652D01*
X146118176Y-109875605D01*
X146165795Y-109970843D01*
X146213414Y-110018462D01*
X146308652Y-110066081D01*
X146499129Y-110066081D01*
X146594367Y-110018462D01*
X146641986Y-109970843D01*
X146689605Y-109875605D01*
X146689605Y-109637510D01*
X146641986Y-109542271D01*
X146594367Y-109494652D01*
X146499129Y-109447033D01*
X146308652Y-109447033D01*
X146213414Y-109494652D01*
X146165795Y-109542271D01*
X146118176Y-109637510D01*
X166244543Y-62174357D02*
X166292162Y-62221976D01*
X166339781Y-62364833D01*
X166339781Y-62460071D01*
X166292162Y-62602929D01*
X166196924Y-62698167D01*
X166101686Y-62745786D01*
X165911210Y-62793405D01*
X165768352Y-62793405D01*
X165577876Y-62745786D01*
X165482638Y-62698167D01*
X165387400Y-62602929D01*
X165339781Y-62460071D01*
X165339781Y-62364833D01*
X165387400Y-62221976D01*
X165435019Y-62174357D01*
X165435019Y-61793405D02*
X165387400Y-61745786D01*
X165339781Y-61650548D01*
X165339781Y-61412452D01*
X165387400Y-61317214D01*
X165435019Y-61269595D01*
X165530257Y-61221976D01*
X165625495Y-61221976D01*
X165768352Y-61269595D01*
X166339781Y-61841024D01*
X166339781Y-61221976D01*
X165339781Y-60888643D02*
X165339781Y-60221976D01*
X166339781Y-60650548D01*
X133564405Y-99728281D02*
X133564405Y-98728281D01*
X133802500Y-98728281D01*
X133945358Y-98775900D01*
X134040596Y-98871138D01*
X134088215Y-98966376D01*
X134135834Y-99156852D01*
X134135834Y-99299710D01*
X134088215Y-99490186D01*
X134040596Y-99585424D01*
X133945358Y-99680662D01*
X133802500Y-99728281D01*
X133564405Y-99728281D01*
X135088215Y-99728281D02*
X134516786Y-99728281D01*
X134802500Y-99728281D02*
X134802500Y-98728281D01*
X134707262Y-98871138D01*
X134612024Y-98966376D01*
X134516786Y-99013995D01*
X177430205Y-65552581D02*
X177430205Y-64552581D01*
X177668300Y-64552581D01*
X177811158Y-64600200D01*
X177906396Y-64695438D01*
X177954015Y-64790676D01*
X178001634Y-64981152D01*
X178001634Y-65124010D01*
X177954015Y-65314486D01*
X177906396Y-65409724D01*
X177811158Y-65504962D01*
X177668300Y-65552581D01*
X177430205Y-65552581D01*
X178382586Y-64647819D02*
X178430205Y-64600200D01*
X178525443Y-64552581D01*
X178763539Y-64552581D01*
X178858777Y-64600200D01*
X178906396Y-64647819D01*
X178954015Y-64743057D01*
X178954015Y-64838295D01*
X178906396Y-64981152D01*
X178334967Y-65552581D01*
X178954015Y-65552581D01*
X155332205Y-108249981D02*
X155332205Y-107249981D01*
X155570300Y-107249981D01*
X155713158Y-107297600D01*
X155808396Y-107392838D01*
X155856015Y-107488076D01*
X155903634Y-107678552D01*
X155903634Y-107821410D01*
X155856015Y-108011886D01*
X155808396Y-108107124D01*
X155713158Y-108202362D01*
X155570300Y-108249981D01*
X155332205Y-108249981D01*
X156760777Y-107583314D02*
X156760777Y-108249981D01*
X156522681Y-107202362D02*
X156284586Y-107916648D01*
X156903634Y-107916648D01*
X132512381Y-58753333D02*
X133226667Y-58753333D01*
X133369524Y-58800953D01*
X133464762Y-58896191D01*
X133512381Y-59039048D01*
X133512381Y-59134286D01*
X133512381Y-57753333D02*
X133512381Y-58324762D01*
X133512381Y-58039048D02*
X132512381Y-58039048D01*
X132655238Y-58134286D01*
X132750476Y-58229524D01*
X132798095Y-58324762D01*
X132512381Y-61293333D02*
X133226667Y-61293333D01*
X133369524Y-61340953D01*
X133464762Y-61436191D01*
X133512381Y-61579048D01*
X133512381Y-61674286D01*
X132607619Y-60864762D02*
X132560000Y-60817143D01*
X132512381Y-60721905D01*
X132512381Y-60483809D01*
X132560000Y-60388571D01*
X132607619Y-60340952D01*
X132702857Y-60293333D01*
X132798095Y-60293333D01*
X132940952Y-60340952D01*
X133512381Y-60912381D01*
X133512381Y-60293333D01*
X143913267Y-91400381D02*
X143913267Y-92114667D01*
X143865647Y-92257524D01*
X143770409Y-92352762D01*
X143627552Y-92400381D01*
X143532314Y-92400381D01*
X144294219Y-91400381D02*
X144913267Y-91400381D01*
X144579933Y-91781333D01*
X144722791Y-91781333D01*
X144818029Y-91828952D01*
X144865648Y-91876571D01*
X144913267Y-91971810D01*
X144913267Y-92209905D01*
X144865648Y-92305143D01*
X144818029Y-92352762D01*
X144722791Y-92400381D01*
X144437076Y-92400381D01*
X144341838Y-92352762D01*
X144294219Y-92305143D01*
X150060067Y-91438481D02*
X150060067Y-92152767D01*
X150012447Y-92295624D01*
X149917209Y-92390862D01*
X149774352Y-92438481D01*
X149679114Y-92438481D01*
X150964829Y-91771814D02*
X150964829Y-92438481D01*
X150726733Y-91390862D02*
X150488638Y-92105148D01*
X151107686Y-92105148D01*
X193341667Y-81030381D02*
X193341667Y-81744667D01*
X193294047Y-81887524D01*
X193198809Y-81982762D01*
X193055952Y-82030381D01*
X192960714Y-82030381D01*
X193722619Y-81030381D02*
X194389286Y-81030381D01*
X193960714Y-82030381D01*
X132718277Y-117524281D02*
X132718277Y-118238567D01*
X132670657Y-118381424D01*
X132575419Y-118476662D01*
X132432562Y-118524281D01*
X132337324Y-118524281D01*
X133718277Y-118524281D02*
X133146848Y-118524281D01*
X133432562Y-118524281D02*
X133432562Y-117524281D01*
X133337324Y-117667138D01*
X133242086Y-117762376D01*
X133146848Y-117809995D01*
X134051610Y-117524281D02*
X134670658Y-117524281D01*
X134337324Y-117905233D01*
X134480182Y-117905233D01*
X134575420Y-117952852D01*
X134623039Y-118000471D01*
X134670658Y-118095710D01*
X134670658Y-118333805D01*
X134623039Y-118429043D01*
X134575420Y-118476662D01*
X134480182Y-118524281D01*
X134194467Y-118524281D01*
X134099229Y-118476662D01*
X134051610Y-118429043D01*
X171813481Y-77344566D02*
X171813481Y-77820757D01*
X170813481Y-77820757D01*
X170908719Y-77058852D02*
X170861100Y-77011233D01*
X170813481Y-76915995D01*
X170813481Y-76677899D01*
X170861100Y-76582661D01*
X170908719Y-76535042D01*
X171003957Y-76487423D01*
X171099195Y-76487423D01*
X171242052Y-76535042D01*
X171813481Y-77106471D01*
X171813481Y-76487423D01*
X174632881Y-77344566D02*
X174632881Y-77820757D01*
X173632881Y-77820757D01*
X173632881Y-77106471D02*
X173632881Y-76487423D01*
X174013833Y-76820757D01*
X174013833Y-76677899D01*
X174061452Y-76582661D01*
X174109071Y-76535042D01*
X174204310Y-76487423D01*
X174442405Y-76487423D01*
X174537643Y-76535042D01*
X174585262Y-76582661D01*
X174632881Y-76677899D01*
X174632881Y-76963614D01*
X174585262Y-77058852D01*
X174537643Y-77106471D01*
X172832734Y-60345581D02*
X172356543Y-60345581D01*
X172356543Y-59345581D01*
X173594639Y-59678914D02*
X173594639Y-60345581D01*
X173356543Y-59297962D02*
X173118448Y-60012248D01*
X173737496Y-60012248D01*
X172870834Y-61971181D02*
X172394643Y-61971181D01*
X172394643Y-60971181D01*
X173680358Y-60971181D02*
X173204167Y-60971181D01*
X173156548Y-61447371D01*
X173204167Y-61399752D01*
X173299405Y-61352133D01*
X173537501Y-61352133D01*
X173632739Y-61399752D01*
X173680358Y-61447371D01*
X173727977Y-61542610D01*
X173727977Y-61780705D01*
X173680358Y-61875943D01*
X173632739Y-61923562D01*
X173537501Y-61971181D01*
X173299405Y-61971181D01*
X173204167Y-61923562D01*
X173156548Y-61875943D01*
X139723905Y-55189381D02*
X139723905Y-54189381D01*
X140104858Y-54189381D01*
X140200096Y-54237000D01*
X140247715Y-54284619D01*
X140295334Y-54379857D01*
X140295334Y-54522714D01*
X140247715Y-54617952D01*
X140200096Y-54665571D01*
X140104858Y-54713190D01*
X139723905Y-54713190D01*
X141247715Y-55189381D02*
X140676286Y-55189381D01*
X140962000Y-55189381D02*
X140962000Y-54189381D01*
X140866762Y-54332238D01*
X140771524Y-54427476D01*
X140676286Y-54475095D01*
X174115434Y-65514481D02*
X173782100Y-65038290D01*
X173544005Y-65514481D02*
X173544005Y-64514481D01*
X173924958Y-64514481D01*
X174020196Y-64562100D01*
X174067815Y-64609719D01*
X174115434Y-64704957D01*
X174115434Y-64847814D01*
X174067815Y-64943052D01*
X174020196Y-64990671D01*
X173924958Y-65038290D01*
X173544005Y-65038290D01*
X175067815Y-65514481D02*
X174496386Y-65514481D01*
X174782100Y-65514481D02*
X174782100Y-64514481D01*
X174686862Y-64657338D01*
X174591624Y-64752576D01*
X174496386Y-64800195D01*
X193305134Y-96413581D02*
X192971800Y-95937390D01*
X192733705Y-96413581D02*
X192733705Y-95413581D01*
X193114658Y-95413581D01*
X193209896Y-95461200D01*
X193257515Y-95508819D01*
X193305134Y-95604057D01*
X193305134Y-95746914D01*
X193257515Y-95842152D01*
X193209896Y-95889771D01*
X193114658Y-95937390D01*
X192733705Y-95937390D01*
X193686086Y-95508819D02*
X193733705Y-95461200D01*
X193828943Y-95413581D01*
X194067039Y-95413581D01*
X194162277Y-95461200D01*
X194209896Y-95508819D01*
X194257515Y-95604057D01*
X194257515Y-95699295D01*
X194209896Y-95842152D01*
X193638467Y-96413581D01*
X194257515Y-96413581D01*
X151801534Y-104414581D02*
X151468200Y-103938390D01*
X151230105Y-104414581D02*
X151230105Y-103414581D01*
X151611058Y-103414581D01*
X151706296Y-103462200D01*
X151753915Y-103509819D01*
X151801534Y-103605057D01*
X151801534Y-103747914D01*
X151753915Y-103843152D01*
X151706296Y-103890771D01*
X151611058Y-103938390D01*
X151230105Y-103938390D01*
X152134867Y-103414581D02*
X152753915Y-103414581D01*
X152420581Y-103795533D01*
X152563439Y-103795533D01*
X152658677Y-103843152D01*
X152706296Y-103890771D01*
X152753915Y-103986010D01*
X152753915Y-104224105D01*
X152706296Y-104319343D01*
X152658677Y-104366962D01*
X152563439Y-104414581D01*
X152277724Y-104414581D01*
X152182486Y-104366962D01*
X152134867Y-104319343D01*
X168714681Y-106211666D02*
X168238490Y-106545000D01*
X168714681Y-106783095D02*
X167714681Y-106783095D01*
X167714681Y-106402142D01*
X167762300Y-106306904D01*
X167809919Y-106259285D01*
X167905157Y-106211666D01*
X168048014Y-106211666D01*
X168143252Y-106259285D01*
X168190871Y-106306904D01*
X168238490Y-106402142D01*
X168238490Y-106783095D01*
X168048014Y-105354523D02*
X168714681Y-105354523D01*
X167667062Y-105592619D02*
X168381348Y-105830714D01*
X168381348Y-105211666D01*
X174496434Y-105925881D02*
X174163100Y-105449690D01*
X173925005Y-105925881D02*
X173925005Y-104925881D01*
X174305958Y-104925881D01*
X174401196Y-104973500D01*
X174448815Y-105021119D01*
X174496434Y-105116357D01*
X174496434Y-105259214D01*
X174448815Y-105354452D01*
X174401196Y-105402071D01*
X174305958Y-105449690D01*
X173925005Y-105449690D01*
X175401196Y-104925881D02*
X174925005Y-104925881D01*
X174877386Y-105402071D01*
X174925005Y-105354452D01*
X175020243Y-105306833D01*
X175258339Y-105306833D01*
X175353577Y-105354452D01*
X175401196Y-105402071D01*
X175448815Y-105497310D01*
X175448815Y-105735405D01*
X175401196Y-105830643D01*
X175353577Y-105878262D01*
X175258339Y-105925881D01*
X175020243Y-105925881D01*
X174925005Y-105878262D01*
X174877386Y-105830643D01*
X168489334Y-100375981D02*
X168156000Y-99899790D01*
X167917905Y-100375981D02*
X167917905Y-99375981D01*
X168298858Y-99375981D01*
X168394096Y-99423600D01*
X168441715Y-99471219D01*
X168489334Y-99566457D01*
X168489334Y-99709314D01*
X168441715Y-99804552D01*
X168394096Y-99852171D01*
X168298858Y-99899790D01*
X167917905Y-99899790D01*
X169346477Y-99375981D02*
X169156000Y-99375981D01*
X169060762Y-99423600D01*
X169013143Y-99471219D01*
X168917905Y-99614076D01*
X168870286Y-99804552D01*
X168870286Y-100185505D01*
X168917905Y-100280743D01*
X168965524Y-100328362D01*
X169060762Y-100375981D01*
X169251239Y-100375981D01*
X169346477Y-100328362D01*
X169394096Y-100280743D01*
X169441715Y-100185505D01*
X169441715Y-99947410D01*
X169394096Y-99852171D01*
X169346477Y-99804552D01*
X169251239Y-99756933D01*
X169060762Y-99756933D01*
X168965524Y-99804552D01*
X168917905Y-99852171D01*
X168870286Y-99947410D01*
X192592466Y-104321733D02*
X192692466Y-104355067D01*
X192859133Y-104355067D01*
X192925800Y-104321733D01*
X192959133Y-104288400D01*
X192992466Y-104221733D01*
X192992466Y-104155067D01*
X192959133Y-104088400D01*
X192925800Y-104055067D01*
X192859133Y-104021733D01*
X192725800Y-103988400D01*
X192659133Y-103955067D01*
X192625800Y-103921733D01*
X192592466Y-103855067D01*
X192592466Y-103788400D01*
X192625800Y-103721733D01*
X192659133Y-103688400D01*
X192725800Y-103655067D01*
X192892466Y-103655067D01*
X192992466Y-103688400D01*
X193492467Y-103655067D02*
X193492467Y-104155067D01*
X193459133Y-104255067D01*
X193392467Y-104321733D01*
X193292467Y-104355067D01*
X193225800Y-104355067D01*
X194192466Y-104355067D02*
X193792466Y-104355067D01*
X193992466Y-104355067D02*
X193992466Y-103655067D01*
X193925800Y-103755067D01*
X193859133Y-103821733D01*
X193792466Y-103855067D01*
X194792467Y-103655067D02*
X194659133Y-103655067D01*
X194592467Y-103688400D01*
X194559133Y-103721733D01*
X194492467Y-103821733D01*
X194459133Y-103955067D01*
X194459133Y-104221733D01*
X194492467Y-104288400D01*
X194525800Y-104321733D01*
X194592467Y-104355067D01*
X194725800Y-104355067D01*
X194792467Y-104321733D01*
X194825800Y-104288400D01*
X194859133Y-104221733D01*
X194859133Y-104055067D01*
X194825800Y-103988400D01*
X194792467Y-103955067D01*
X194725800Y-103921733D01*
X194592467Y-103921733D01*
X194525800Y-103955067D01*
X194492467Y-103988400D01*
X194459133Y-104055067D01*
X158877167Y-99680662D02*
X159020024Y-99728281D01*
X159258120Y-99728281D01*
X159353358Y-99680662D01*
X159400977Y-99633043D01*
X159448596Y-99537805D01*
X159448596Y-99442567D01*
X159400977Y-99347329D01*
X159353358Y-99299710D01*
X159258120Y-99252090D01*
X159067643Y-99204471D01*
X158972405Y-99156852D01*
X158924786Y-99109233D01*
X158877167Y-99013995D01*
X158877167Y-98918757D01*
X158924786Y-98823519D01*
X158972405Y-98775900D01*
X159067643Y-98728281D01*
X159305739Y-98728281D01*
X159448596Y-98775900D01*
X159781929Y-98728281D02*
X160020024Y-99728281D01*
X160210501Y-99013995D01*
X160400977Y-99728281D01*
X160639072Y-98728281D01*
X161543834Y-99728281D02*
X160972405Y-99728281D01*
X161258119Y-99728281D02*
X161258119Y-98728281D01*
X161162881Y-98871138D01*
X161067643Y-98966376D01*
X160972405Y-99013995D01*
X146697795Y-97864681D02*
X146697795Y-98674205D01*
X146745414Y-98769443D01*
X146793033Y-98817062D01*
X146888271Y-98864681D01*
X147078748Y-98864681D01*
X147173986Y-98817062D01*
X147221605Y-98769443D01*
X147269224Y-98674205D01*
X147269224Y-97864681D01*
X148269224Y-98864681D02*
X147697795Y-98864681D01*
X147983509Y-98864681D02*
X147983509Y-97864681D01*
X147888271Y-98007538D01*
X147793033Y-98102776D01*
X147697795Y-98150395D01*
X188087095Y-97806381D02*
X188087095Y-98615905D01*
X188134714Y-98711143D01*
X188182333Y-98758762D01*
X188277571Y-98806381D01*
X188468048Y-98806381D01*
X188563286Y-98758762D01*
X188610905Y-98711143D01*
X188658524Y-98615905D01*
X188658524Y-97806381D01*
X189563286Y-97806381D02*
X189372809Y-97806381D01*
X189277571Y-97854000D01*
X189229952Y-97901619D01*
X189134714Y-98044476D01*
X189087095Y-98234952D01*
X189087095Y-98615905D01*
X189134714Y-98711143D01*
X189182333Y-98758762D01*
X189277571Y-98806381D01*
X189468048Y-98806381D01*
X189563286Y-98758762D01*
X189610905Y-98711143D01*
X189658524Y-98615905D01*
X189658524Y-98377810D01*
X189610905Y-98282571D01*
X189563286Y-98234952D01*
X189468048Y-98187333D01*
X189277571Y-98187333D01*
X189182333Y-98234952D01*
X189134714Y-98282571D01*
X189087095Y-98377810D01*
X163461795Y-62291981D02*
X163461795Y-63101505D01*
X163509414Y-63196743D01*
X163557033Y-63244362D01*
X163652271Y-63291981D01*
X163842748Y-63291981D01*
X163937986Y-63244362D01*
X163985605Y-63196743D01*
X164033224Y-63101505D01*
X164033224Y-62291981D01*
X164414176Y-62291981D02*
X165080843Y-62291981D01*
X164652271Y-63291981D01*
X163460381Y-57812095D02*
X164269905Y-57812095D01*
X164365143Y-57764476D01*
X164412762Y-57716857D01*
X164460381Y-57621619D01*
X164460381Y-57431142D01*
X164412762Y-57335904D01*
X164365143Y-57288285D01*
X164269905Y-57240666D01*
X163460381Y-57240666D01*
X164460381Y-56240666D02*
X164460381Y-56812095D01*
X164460381Y-56526381D02*
X163460381Y-56526381D01*
X163603238Y-56621619D01*
X163698476Y-56716857D01*
X163746095Y-56812095D01*
X164460381Y-55288285D02*
X164460381Y-55859714D01*
X164460381Y-55574000D02*
X163460381Y-55574000D01*
X163603238Y-55669238D01*
X163698476Y-55764476D01*
X163746095Y-55859714D01*
X169267645Y-84495482D02*
X169604363Y-84832200D01*
X168661554Y-84360795D02*
X169267645Y-84495482D01*
X169132959Y-83889390D01*
X170446157Y-83990405D02*
X170042096Y-84394467D01*
X170244126Y-84192436D02*
X169537019Y-83485329D01*
X169570691Y-83653688D01*
X169570691Y-83788375D01*
X169537019Y-83889390D01*
X144449895Y-115060481D02*
X144449895Y-115870005D01*
X144497514Y-115965243D01*
X144545133Y-116012862D01*
X144640371Y-116060481D01*
X144830848Y-116060481D01*
X144926086Y-116012862D01*
X144973705Y-115965243D01*
X145021324Y-115870005D01*
X145021324Y-115060481D01*
X145545133Y-116060481D02*
X145735609Y-116060481D01*
X145830848Y-116012862D01*
X145878467Y-115965243D01*
X145973705Y-115822386D01*
X146021324Y-115631910D01*
X146021324Y-115250957D01*
X145973705Y-115155719D01*
X145926086Y-115108100D01*
X145830848Y-115060481D01*
X145640371Y-115060481D01*
X145545133Y-115108100D01*
X145497514Y-115155719D01*
X145449895Y-115250957D01*
X145449895Y-115489052D01*
X145497514Y-115584290D01*
X145545133Y-115631910D01*
X145640371Y-115679529D01*
X145830848Y-115679529D01*
X145926086Y-115631910D01*
X145973705Y-115584290D01*
X146021324Y-115489052D01*
X136291581Y-89155566D02*
X135815390Y-89488900D01*
X136291581Y-89726995D02*
X135291581Y-89726995D01*
X135291581Y-89346042D01*
X135339200Y-89250804D01*
X135386819Y-89203185D01*
X135482057Y-89155566D01*
X135624914Y-89155566D01*
X135720152Y-89203185D01*
X135767771Y-89250804D01*
X135815390Y-89346042D01*
X135815390Y-89726995D01*
X135291581Y-88822233D02*
X135291581Y-88155566D01*
X136291581Y-88584138D01*
X146247381Y-61221857D02*
X145771190Y-61555191D01*
X146247381Y-61793286D02*
X145247381Y-61793286D01*
X145247381Y-61412333D01*
X145295000Y-61317095D01*
X145342619Y-61269476D01*
X145437857Y-61221857D01*
X145580714Y-61221857D01*
X145675952Y-61269476D01*
X145723571Y-61317095D01*
X145771190Y-61412333D01*
X145771190Y-61793286D01*
X146247381Y-60269476D02*
X146247381Y-60840905D01*
X146247381Y-60555191D02*
X145247381Y-60555191D01*
X145390238Y-60650429D01*
X145485476Y-60745667D01*
X145533095Y-60840905D01*
X146247381Y-59317095D02*
X146247381Y-59888524D01*
X146247381Y-59602810D02*
X145247381Y-59602810D01*
X145390238Y-59698048D01*
X145485476Y-59793286D01*
X145533095Y-59888524D01*
X134500881Y-82691195D02*
X133500881Y-82691195D01*
X133500881Y-82453100D01*
X133548500Y-82310242D01*
X133643738Y-82215004D01*
X133738976Y-82167385D01*
X133929452Y-82119766D01*
X134072310Y-82119766D01*
X134262786Y-82167385D01*
X134358024Y-82215004D01*
X134453262Y-82310242D01*
X134500881Y-82453100D01*
X134500881Y-82691195D01*
X133500881Y-81215004D02*
X133500881Y-81691195D01*
X133977071Y-81738814D01*
X133929452Y-81691195D01*
X133881833Y-81595957D01*
X133881833Y-81357861D01*
X133929452Y-81262623D01*
X133977071Y-81215004D01*
X134072310Y-81167385D01*
X134310405Y-81167385D01*
X134405643Y-81215004D01*
X134453262Y-81262623D01*
X134500881Y-81357861D01*
X134500881Y-81595957D01*
X134453262Y-81691195D01*
X134405643Y-81738814D01*
X156286295Y-62457081D02*
X156286295Y-63266605D01*
X156333914Y-63361843D01*
X156381533Y-63409462D01*
X156476771Y-63457081D01*
X156667248Y-63457081D01*
X156762486Y-63409462D01*
X156810105Y-63361843D01*
X156857724Y-63266605D01*
X156857724Y-62457081D01*
X157238676Y-62457081D02*
X157857724Y-62457081D01*
X157524390Y-62838033D01*
X157667248Y-62838033D01*
X157762486Y-62885652D01*
X157810105Y-62933271D01*
X157857724Y-63028510D01*
X157857724Y-63266605D01*
X157810105Y-63361843D01*
X157762486Y-63409462D01*
X157667248Y-63457081D01*
X157381533Y-63457081D01*
X157286295Y-63409462D01*
X157238676Y-63361843D01*
X142600443Y-90558881D02*
X142267109Y-90082690D01*
X142029014Y-90558881D02*
X142029014Y-89558881D01*
X142409967Y-89558881D01*
X142505205Y-89606500D01*
X142552824Y-89654119D01*
X142600443Y-89749357D01*
X142600443Y-89892214D01*
X142552824Y-89987452D01*
X142505205Y-90035071D01*
X142409967Y-90082690D01*
X142029014Y-90082690D01*
X143552824Y-90558881D02*
X142981395Y-90558881D01*
X143267109Y-90558881D02*
X143267109Y-89558881D01*
X143171871Y-89701738D01*
X143076633Y-89796976D01*
X142981395Y-89844595D01*
X143886157Y-89558881D02*
X144505205Y-89558881D01*
X144171871Y-89939833D01*
X144314729Y-89939833D01*
X144409967Y-89987452D01*
X144457586Y-90035071D01*
X144505205Y-90130310D01*
X144505205Y-90368405D01*
X144457586Y-90463643D01*
X144409967Y-90511262D01*
X144314729Y-90558881D01*
X144029014Y-90558881D01*
X143933776Y-90511262D01*
X143886157Y-90463643D01*
X133851662Y-95962719D02*
X133756424Y-95915100D01*
X133661186Y-95819862D01*
X133518329Y-95677005D01*
X133423090Y-95629386D01*
X133327852Y-95629386D01*
X133375471Y-95867481D02*
X133280233Y-95819862D01*
X133184995Y-95724624D01*
X133137376Y-95534148D01*
X133137376Y-95200814D01*
X133184995Y-95010338D01*
X133280233Y-94915100D01*
X133375471Y-94867481D01*
X133565948Y-94867481D01*
X133661186Y-94915100D01*
X133756424Y-95010338D01*
X133804043Y-95200814D01*
X133804043Y-95534148D01*
X133756424Y-95724624D01*
X133661186Y-95819862D01*
X133565948Y-95867481D01*
X133375471Y-95867481D01*
X134756424Y-95867481D02*
X134184995Y-95867481D01*
X134470709Y-95867481D02*
X134470709Y-94867481D01*
X134375471Y-95010338D01*
X134280233Y-95105576D01*
X134184995Y-95153195D01*
X174412375Y-85125485D02*
X174364756Y-85173104D01*
X174221899Y-85220723D01*
X174126661Y-85220723D01*
X173983803Y-85173104D01*
X173888565Y-85077866D01*
X173840946Y-84982628D01*
X173793327Y-84792152D01*
X173793327Y-84649294D01*
X173840946Y-84458818D01*
X173888565Y-84363580D01*
X173983803Y-84268342D01*
X174126661Y-84220723D01*
X174221899Y-84220723D01*
X174364756Y-84268342D01*
X174412375Y-84315961D01*
X175317137Y-84220723D02*
X174840946Y-84220723D01*
X174793327Y-84696913D01*
X174840946Y-84649294D01*
X174936184Y-84601675D01*
X175174280Y-84601675D01*
X175269518Y-84649294D01*
X175317137Y-84696913D01*
X175364756Y-84792152D01*
X175364756Y-85030247D01*
X175317137Y-85125485D01*
X175269518Y-85173104D01*
X175174280Y-85220723D01*
X174936184Y-85220723D01*
X174840946Y-85173104D01*
X174793327Y-85125485D01*
X186396334Y-95797643D02*
X186348715Y-95845262D01*
X186205858Y-95892881D01*
X186110620Y-95892881D01*
X185967762Y-95845262D01*
X185872524Y-95750024D01*
X185824905Y-95654786D01*
X185777286Y-95464310D01*
X185777286Y-95321452D01*
X185824905Y-95130976D01*
X185872524Y-95035738D01*
X185967762Y-94940500D01*
X186110620Y-94892881D01*
X186205858Y-94892881D01*
X186348715Y-94940500D01*
X186396334Y-94988119D01*
X187253477Y-94892881D02*
X187063000Y-94892881D01*
X186967762Y-94940500D01*
X186920143Y-94988119D01*
X186824905Y-95130976D01*
X186777286Y-95321452D01*
X186777286Y-95702405D01*
X186824905Y-95797643D01*
X186872524Y-95845262D01*
X186967762Y-95892881D01*
X187158239Y-95892881D01*
X187253477Y-95845262D01*
X187301096Y-95797643D01*
X187348715Y-95702405D01*
X187348715Y-95464310D01*
X187301096Y-95369071D01*
X187253477Y-95321452D01*
X187158239Y-95273833D01*
X186967762Y-95273833D01*
X186872524Y-95321452D01*
X186824905Y-95369071D01*
X186777286Y-95464310D01*
X195024143Y-89447666D02*
X195071762Y-89495285D01*
X195119381Y-89638142D01*
X195119381Y-89733380D01*
X195071762Y-89876238D01*
X194976524Y-89971476D01*
X194881286Y-90019095D01*
X194690810Y-90066714D01*
X194547952Y-90066714D01*
X194357476Y-90019095D01*
X194262238Y-89971476D01*
X194167000Y-89876238D01*
X194119381Y-89733380D01*
X194119381Y-89638142D01*
X194167000Y-89495285D01*
X194214619Y-89447666D01*
X194547952Y-88876238D02*
X194500333Y-88971476D01*
X194452714Y-89019095D01*
X194357476Y-89066714D01*
X194309857Y-89066714D01*
X194214619Y-89019095D01*
X194167000Y-88971476D01*
X194119381Y-88876238D01*
X194119381Y-88685761D01*
X194167000Y-88590523D01*
X194214619Y-88542904D01*
X194309857Y-88495285D01*
X194357476Y-88495285D01*
X194452714Y-88542904D01*
X194500333Y-88590523D01*
X194547952Y-88685761D01*
X194547952Y-88876238D01*
X194595571Y-88971476D01*
X194643190Y-89019095D01*
X194738429Y-89066714D01*
X194928905Y-89066714D01*
X195024143Y-89019095D01*
X195071762Y-88971476D01*
X195119381Y-88876238D01*
X195119381Y-88685761D01*
X195071762Y-88590523D01*
X195024143Y-88542904D01*
X194928905Y-88495285D01*
X194738429Y-88495285D01*
X194643190Y-88542904D01*
X194595571Y-88590523D01*
X194547952Y-88685761D01*
X189647534Y-80773543D02*
X189599915Y-80821162D01*
X189457058Y-80868781D01*
X189361820Y-80868781D01*
X189218962Y-80821162D01*
X189123724Y-80725924D01*
X189076105Y-80630686D01*
X189028486Y-80440210D01*
X189028486Y-80297352D01*
X189076105Y-80106876D01*
X189123724Y-80011638D01*
X189218962Y-79916400D01*
X189361820Y-79868781D01*
X189457058Y-79868781D01*
X189599915Y-79916400D01*
X189647534Y-79964019D01*
X190123724Y-80868781D02*
X190314200Y-80868781D01*
X190409439Y-80821162D01*
X190457058Y-80773543D01*
X190552296Y-80630686D01*
X190599915Y-80440210D01*
X190599915Y-80059257D01*
X190552296Y-79964019D01*
X190504677Y-79916400D01*
X190409439Y-79868781D01*
X190218962Y-79868781D01*
X190123724Y-79916400D01*
X190076105Y-79964019D01*
X190028486Y-80059257D01*
X190028486Y-80297352D01*
X190076105Y-80392590D01*
X190123724Y-80440210D01*
X190218962Y-80487829D01*
X190409439Y-80487829D01*
X190504677Y-80440210D01*
X190552296Y-80392590D01*
X190599915Y-80297352D01*
X158640543Y-60237643D02*
X158592924Y-60285262D01*
X158450067Y-60332881D01*
X158354829Y-60332881D01*
X158211971Y-60285262D01*
X158116733Y-60190024D01*
X158069114Y-60094786D01*
X158021495Y-59904310D01*
X158021495Y-59761452D01*
X158069114Y-59570976D01*
X158116733Y-59475738D01*
X158211971Y-59380500D01*
X158354829Y-59332881D01*
X158450067Y-59332881D01*
X158592924Y-59380500D01*
X158640543Y-59428119D01*
X159592924Y-60332881D02*
X159021495Y-60332881D01*
X159307209Y-60332881D02*
X159307209Y-59332881D01*
X159211971Y-59475738D01*
X159116733Y-59570976D01*
X159021495Y-59618595D01*
X159973876Y-59428119D02*
X160021495Y-59380500D01*
X160116733Y-59332881D01*
X160354829Y-59332881D01*
X160450067Y-59380500D01*
X160497686Y-59428119D01*
X160545305Y-59523357D01*
X160545305Y-59618595D01*
X160497686Y-59761452D01*
X159926257Y-60332881D01*
X160545305Y-60332881D01*
X162104343Y-61577457D02*
X162151962Y-61625076D01*
X162199581Y-61767933D01*
X162199581Y-61863171D01*
X162151962Y-62006029D01*
X162056724Y-62101267D01*
X161961486Y-62148886D01*
X161771010Y-62196505D01*
X161628152Y-62196505D01*
X161437676Y-62148886D01*
X161342438Y-62101267D01*
X161247200Y-62006029D01*
X161199581Y-61863171D01*
X161199581Y-61767933D01*
X161247200Y-61625076D01*
X161294819Y-61577457D01*
X162199581Y-60625076D02*
X162199581Y-61196505D01*
X162199581Y-60910791D02*
X161199581Y-60910791D01*
X161342438Y-61006029D01*
X161437676Y-61101267D01*
X161485295Y-61196505D01*
X161532914Y-59767933D02*
X162199581Y-59767933D01*
X161151962Y-60006029D02*
X161866248Y-60244124D01*
X161866248Y-59625076D01*
X175477443Y-69819757D02*
X175525062Y-69867376D01*
X175572681Y-70010233D01*
X175572681Y-70105471D01*
X175525062Y-70248329D01*
X175429824Y-70343567D01*
X175334586Y-70391186D01*
X175144110Y-70438805D01*
X175001252Y-70438805D01*
X174810776Y-70391186D01*
X174715538Y-70343567D01*
X174620300Y-70248329D01*
X174572681Y-70105471D01*
X174572681Y-70010233D01*
X174620300Y-69867376D01*
X174667919Y-69819757D01*
X174667919Y-69438805D02*
X174620300Y-69391186D01*
X174572681Y-69295948D01*
X174572681Y-69057852D01*
X174620300Y-68962614D01*
X174667919Y-68914995D01*
X174763157Y-68867376D01*
X174858395Y-68867376D01*
X175001252Y-68914995D01*
X175572681Y-69486424D01*
X175572681Y-68867376D01*
X174572681Y-68248329D02*
X174572681Y-68153090D01*
X174620300Y-68057852D01*
X174667919Y-68010233D01*
X174763157Y-67962614D01*
X174953633Y-67914995D01*
X175191729Y-67914995D01*
X175382205Y-67962614D01*
X175477443Y-68010233D01*
X175525062Y-68057852D01*
X175572681Y-68153090D01*
X175572681Y-68248329D01*
X175525062Y-68343567D01*
X175477443Y-68391186D01*
X175382205Y-68438805D01*
X175191729Y-68486424D01*
X174953633Y-68486424D01*
X174763157Y-68438805D01*
X174667919Y-68391186D01*
X174620300Y-68343567D01*
X174572681Y-68248329D01*
X160573981Y-118289295D02*
X159573981Y-118289295D01*
X159573981Y-118051200D01*
X159621600Y-117908342D01*
X159716838Y-117813104D01*
X159812076Y-117765485D01*
X160002552Y-117717866D01*
X160145410Y-117717866D01*
X160335886Y-117765485D01*
X160431124Y-117813104D01*
X160526362Y-117908342D01*
X160573981Y-118051200D01*
X160573981Y-118289295D01*
X159573981Y-117384533D02*
X159573981Y-116765485D01*
X159954933Y-117098819D01*
X159954933Y-116955961D01*
X160002552Y-116860723D01*
X160050171Y-116813104D01*
X160145410Y-116765485D01*
X160383505Y-116765485D01*
X160478743Y-116813104D01*
X160526362Y-116860723D01*
X160573981Y-116955961D01*
X160573981Y-117241676D01*
X160526362Y-117336914D01*
X160478743Y-117384533D01*
X159408834Y-89352381D02*
X159075500Y-88876190D01*
X158837405Y-89352381D02*
X158837405Y-88352381D01*
X159218358Y-88352381D01*
X159313596Y-88400000D01*
X159361215Y-88447619D01*
X159408834Y-88542857D01*
X159408834Y-88685714D01*
X159361215Y-88780952D01*
X159313596Y-88828571D01*
X159218358Y-88876190D01*
X158837405Y-88876190D01*
X159980262Y-88780952D02*
X159885024Y-88733333D01*
X159837405Y-88685714D01*
X159789786Y-88590476D01*
X159789786Y-88542857D01*
X159837405Y-88447619D01*
X159885024Y-88400000D01*
X159980262Y-88352381D01*
X160170739Y-88352381D01*
X160265977Y-88400000D01*
X160313596Y-88447619D01*
X160361215Y-88542857D01*
X160361215Y-88590476D01*
X160313596Y-88685714D01*
X160265977Y-88733333D01*
X160170739Y-88780952D01*
X159980262Y-88780952D01*
X159885024Y-88828571D01*
X159837405Y-88876190D01*
X159789786Y-88971429D01*
X159789786Y-89161905D01*
X159837405Y-89257143D01*
X159885024Y-89304762D01*
X159980262Y-89352381D01*
X160170739Y-89352381D01*
X160265977Y-89304762D01*
X160313596Y-89257143D01*
X160361215Y-89161905D01*
X160361215Y-88971429D01*
X160313596Y-88876190D01*
X160265977Y-88828571D01*
X160170739Y-88780952D01*
X159396134Y-91993981D02*
X159062800Y-91517790D01*
X158824705Y-91993981D02*
X158824705Y-90993981D01*
X159205658Y-90993981D01*
X159300896Y-91041600D01*
X159348515Y-91089219D01*
X159396134Y-91184457D01*
X159396134Y-91327314D01*
X159348515Y-91422552D01*
X159300896Y-91470171D01*
X159205658Y-91517790D01*
X158824705Y-91517790D01*
X159872324Y-91993981D02*
X160062800Y-91993981D01*
X160158039Y-91946362D01*
X160205658Y-91898743D01*
X160300896Y-91755886D01*
X160348515Y-91565410D01*
X160348515Y-91184457D01*
X160300896Y-91089219D01*
X160253277Y-91041600D01*
X160158039Y-90993981D01*
X159967562Y-90993981D01*
X159872324Y-91041600D01*
X159824705Y-91089219D01*
X159777086Y-91184457D01*
X159777086Y-91422552D01*
X159824705Y-91517790D01*
X159872324Y-91565410D01*
X159967562Y-91613029D01*
X160158039Y-91613029D01*
X160253277Y-91565410D01*
X160300896Y-91517790D01*
X160348515Y-91422552D01*
X159389843Y-90647781D02*
X159056509Y-90171590D01*
X158818414Y-90647781D02*
X158818414Y-89647781D01*
X159199367Y-89647781D01*
X159294605Y-89695400D01*
X159342224Y-89743019D01*
X159389843Y-89838257D01*
X159389843Y-89981114D01*
X159342224Y-90076352D01*
X159294605Y-90123971D01*
X159199367Y-90171590D01*
X158818414Y-90171590D01*
X160342224Y-90647781D02*
X159770795Y-90647781D01*
X160056509Y-90647781D02*
X160056509Y-89647781D01*
X159961271Y-89790638D01*
X159866033Y-89885876D01*
X159770795Y-89933495D01*
X160961271Y-89647781D02*
X161056510Y-89647781D01*
X161151748Y-89695400D01*
X161199367Y-89743019D01*
X161246986Y-89838257D01*
X161294605Y-90028733D01*
X161294605Y-90266829D01*
X161246986Y-90457305D01*
X161199367Y-90552543D01*
X161151748Y-90600162D01*
X161056510Y-90647781D01*
X160961271Y-90647781D01*
X160866033Y-90600162D01*
X160818414Y-90552543D01*
X160770795Y-90457305D01*
X160723176Y-90266829D01*
X160723176Y-90028733D01*
X160770795Y-89838257D01*
X160818414Y-89743019D01*
X160866033Y-89695400D01*
X160961271Y-89647781D01*
X138638043Y-95727781D02*
X138304709Y-95251590D01*
X138066614Y-95727781D02*
X138066614Y-94727781D01*
X138447567Y-94727781D01*
X138542805Y-94775400D01*
X138590424Y-94823019D01*
X138638043Y-94918257D01*
X138638043Y-95061114D01*
X138590424Y-95156352D01*
X138542805Y-95203971D01*
X138447567Y-95251590D01*
X138066614Y-95251590D01*
X139590424Y-95727781D02*
X139018995Y-95727781D01*
X139304709Y-95727781D02*
X139304709Y-94727781D01*
X139209471Y-94870638D01*
X139114233Y-94965876D01*
X139018995Y-95013495D01*
X139971376Y-94823019D02*
X140018995Y-94775400D01*
X140114233Y-94727781D01*
X140352329Y-94727781D01*
X140447567Y-94775400D01*
X140495186Y-94823019D01*
X140542805Y-94918257D01*
X140542805Y-95013495D01*
X140495186Y-95156352D01*
X139923757Y-95727781D01*
X140542805Y-95727781D01*
X169681567Y-90930481D02*
X169681567Y-91644767D01*
X169633947Y-91787624D01*
X169538709Y-91882862D01*
X169395852Y-91930481D01*
X169300614Y-91930481D01*
X170300614Y-91359052D02*
X170205376Y-91311433D01*
X170157757Y-91263814D01*
X170110138Y-91168576D01*
X170110138Y-91120957D01*
X170157757Y-91025719D01*
X170205376Y-90978100D01*
X170300614Y-90930481D01*
X170491091Y-90930481D01*
X170586329Y-90978100D01*
X170633948Y-91025719D01*
X170681567Y-91120957D01*
X170681567Y-91168576D01*
X170633948Y-91263814D01*
X170586329Y-91311433D01*
X170491091Y-91359052D01*
X170300614Y-91359052D01*
X170205376Y-91406671D01*
X170157757Y-91454290D01*
X170110138Y-91549529D01*
X170110138Y-91740005D01*
X170157757Y-91835243D01*
X170205376Y-91882862D01*
X170300614Y-91930481D01*
X170491091Y-91930481D01*
X170586329Y-91882862D01*
X170633948Y-91835243D01*
X170681567Y-91740005D01*
X170681567Y-91549529D01*
X170633948Y-91454290D01*
X170586329Y-91406671D01*
X170491091Y-91359052D01*
X164023777Y-88695281D02*
X164023777Y-89409567D01*
X163976157Y-89552424D01*
X163880919Y-89647662D01*
X163738062Y-89695281D01*
X163642824Y-89695281D01*
X165023777Y-89695281D02*
X164452348Y-89695281D01*
X164738062Y-89695281D02*
X164738062Y-88695281D01*
X164642824Y-88838138D01*
X164547586Y-88933376D01*
X164452348Y-88980995D01*
X165404729Y-88790519D02*
X165452348Y-88742900D01*
X165547586Y-88695281D01*
X165785682Y-88695281D01*
X165880920Y-88742900D01*
X165928539Y-88790519D01*
X165976158Y-88885757D01*
X165976158Y-88980995D01*
X165928539Y-89123852D01*
X165357110Y-89695281D01*
X165976158Y-89695281D01*
X169370477Y-88562381D02*
X169370477Y-89276667D01*
X169322857Y-89419524D01*
X169227619Y-89514762D01*
X169084762Y-89562381D01*
X168989524Y-89562381D01*
X170370477Y-89562381D02*
X169799048Y-89562381D01*
X170084762Y-89562381D02*
X170084762Y-88562381D01*
X169989524Y-88705238D01*
X169894286Y-88800476D01*
X169799048Y-88848095D01*
X171227620Y-88895714D02*
X171227620Y-89562381D01*
X170989524Y-88514762D02*
X170751429Y-89229048D01*
X171370477Y-89229048D01*
X164036477Y-86193381D02*
X164036477Y-86907667D01*
X163988857Y-87050524D01*
X163893619Y-87145762D01*
X163750762Y-87193381D01*
X163655524Y-87193381D01*
X165036477Y-87193381D02*
X164465048Y-87193381D01*
X164750762Y-87193381D02*
X164750762Y-86193381D01*
X164655524Y-86336238D01*
X164560286Y-86431476D01*
X164465048Y-86479095D01*
X165941239Y-86193381D02*
X165465048Y-86193381D01*
X165417429Y-86669571D01*
X165465048Y-86621952D01*
X165560286Y-86574333D01*
X165798382Y-86574333D01*
X165893620Y-86621952D01*
X165941239Y-86669571D01*
X165988858Y-86764810D01*
X165988858Y-87002905D01*
X165941239Y-87098143D01*
X165893620Y-87145762D01*
X165798382Y-87193381D01*
X165560286Y-87193381D01*
X165465048Y-87145762D01*
X165417429Y-87098143D01*
X169213281Y-92313023D02*
X169927567Y-92313023D01*
X170070424Y-92360643D01*
X170165662Y-92455881D01*
X170213281Y-92598738D01*
X170213281Y-92693976D01*
X170213281Y-91313023D02*
X170213281Y-91884452D01*
X170213281Y-91598738D02*
X169213281Y-91598738D01*
X169356138Y-91693976D01*
X169451376Y-91789214D01*
X169498995Y-91884452D01*
X169213281Y-90455880D02*
X169213281Y-90646357D01*
X169260900Y-90741595D01*
X169308519Y-90789214D01*
X169451376Y-90884452D01*
X169641852Y-90932071D01*
X170022805Y-90932071D01*
X170118043Y-90884452D01*
X170165662Y-90836833D01*
X170213281Y-90741595D01*
X170213281Y-90551118D01*
X170165662Y-90455880D01*
X170118043Y-90408261D01*
X170022805Y-90360642D01*
X169784710Y-90360642D01*
X169689471Y-90408261D01*
X169641852Y-90455880D01*
X169594233Y-90551118D01*
X169594233Y-90741595D01*
X169641852Y-90836833D01*
X169689471Y-90884452D01*
X169784710Y-90932071D01*
X172975543Y-92076566D02*
X173023162Y-92124185D01*
X173070781Y-92267042D01*
X173070781Y-92362280D01*
X173023162Y-92505138D01*
X172927924Y-92600376D01*
X172832686Y-92647995D01*
X172642210Y-92695614D01*
X172499352Y-92695614D01*
X172308876Y-92647995D01*
X172213638Y-92600376D01*
X172118400Y-92505138D01*
X172070781Y-92362280D01*
X172070781Y-92267042D01*
X172118400Y-92124185D01*
X172166019Y-92076566D01*
X173070781Y-91124185D02*
X173070781Y-91695614D01*
X173070781Y-91409900D02*
X172070781Y-91409900D01*
X172213638Y-91505138D01*
X172308876Y-91600376D01*
X172356495Y-91695614D01*
X172273934Y-85828143D02*
X172226315Y-85875762D01*
X172083458Y-85923381D01*
X171988220Y-85923381D01*
X171845362Y-85875762D01*
X171750124Y-85780524D01*
X171702505Y-85685286D01*
X171654886Y-85494810D01*
X171654886Y-85351952D01*
X171702505Y-85161476D01*
X171750124Y-85066238D01*
X171845362Y-84971000D01*
X171988220Y-84923381D01*
X172083458Y-84923381D01*
X172226315Y-84971000D01*
X172273934Y-85018619D01*
X172607267Y-84923381D02*
X173226315Y-84923381D01*
X172892981Y-85304333D01*
X173035839Y-85304333D01*
X173131077Y-85351952D01*
X173178696Y-85399571D01*
X173226315Y-85494810D01*
X173226315Y-85732905D01*
X173178696Y-85828143D01*
X173131077Y-85875762D01*
X173035839Y-85923381D01*
X172750124Y-85923381D01*
X172654886Y-85875762D01*
X172607267Y-85828143D01*
X174403600Y-81266467D02*
X174170266Y-80933133D01*
X174003600Y-81266467D02*
X174003600Y-80566467D01*
X174270266Y-80566467D01*
X174336933Y-80599800D01*
X174370266Y-80633133D01*
X174403600Y-80699800D01*
X174403600Y-80799800D01*
X174370266Y-80866467D01*
X174336933Y-80899800D01*
X174270266Y-80933133D01*
X174003600Y-80933133D01*
X175070266Y-81266467D02*
X174670266Y-81266467D01*
X174870266Y-81266467D02*
X174870266Y-80566467D01*
X174803600Y-80666467D01*
X174736933Y-80733133D01*
X174670266Y-80766467D01*
X175670267Y-80799800D02*
X175670267Y-81266467D01*
X175503600Y-80533133D02*
X175336933Y-81033133D01*
X175770267Y-81033133D01*
X164838143Y-97980643D02*
X164790524Y-98028262D01*
X164647667Y-98075881D01*
X164552429Y-98075881D01*
X164409571Y-98028262D01*
X164314333Y-97933024D01*
X164266714Y-97837786D01*
X164219095Y-97647310D01*
X164219095Y-97504452D01*
X164266714Y-97313976D01*
X164314333Y-97218738D01*
X164409571Y-97123500D01*
X164552429Y-97075881D01*
X164647667Y-97075881D01*
X164790524Y-97123500D01*
X164838143Y-97171119D01*
X165219095Y-97171119D02*
X165266714Y-97123500D01*
X165361952Y-97075881D01*
X165600048Y-97075881D01*
X165695286Y-97123500D01*
X165742905Y-97171119D01*
X165790524Y-97266357D01*
X165790524Y-97361595D01*
X165742905Y-97504452D01*
X165171476Y-98075881D01*
X165790524Y-98075881D01*
X166361952Y-97504452D02*
X166266714Y-97456833D01*
X166219095Y-97409214D01*
X166171476Y-97313976D01*
X166171476Y-97266357D01*
X166219095Y-97171119D01*
X166266714Y-97123500D01*
X166361952Y-97075881D01*
X166552429Y-97075881D01*
X166647667Y-97123500D01*
X166695286Y-97171119D01*
X166742905Y-97266357D01*
X166742905Y-97313976D01*
X166695286Y-97409214D01*
X166647667Y-97456833D01*
X166552429Y-97504452D01*
X166361952Y-97504452D01*
X166266714Y-97552071D01*
X166219095Y-97599690D01*
X166171476Y-97694929D01*
X166171476Y-97885405D01*
X166219095Y-97980643D01*
X166266714Y-98028262D01*
X166361952Y-98075881D01*
X166552429Y-98075881D01*
X166647667Y-98028262D01*
X166695286Y-97980643D01*
X166742905Y-97885405D01*
X166742905Y-97694929D01*
X166695286Y-97599690D01*
X166647667Y-97552071D01*
X166552429Y-97504452D01*
X132512381Y-64309523D02*
X133226667Y-64309523D01*
X133369524Y-64357143D01*
X133464762Y-64452381D01*
X133512381Y-64595238D01*
X133512381Y-64690476D01*
X133512381Y-63309523D02*
X133512381Y-63880952D01*
X133512381Y-63595238D02*
X132512381Y-63595238D01*
X132655238Y-63690476D01*
X132750476Y-63785714D01*
X132798095Y-63880952D01*
X132512381Y-62976190D02*
X132512381Y-62309523D01*
X133512381Y-62738095D01*
X169805505Y-103947981D02*
X169805505Y-104757505D01*
X169853124Y-104852743D01*
X169900743Y-104900362D01*
X169995981Y-104947981D01*
X170186458Y-104947981D01*
X170281696Y-104900362D01*
X170329315Y-104852743D01*
X170376934Y-104757505D01*
X170376934Y-103947981D01*
X171376934Y-104947981D02*
X170805505Y-104947981D01*
X171091219Y-104947981D02*
X171091219Y-103947981D01*
X170995981Y-104090838D01*
X170900743Y-104186076D01*
X170805505Y-104233695D01*
X171995981Y-103947981D02*
X172091220Y-103947981D01*
X172186458Y-103995600D01*
X172234077Y-104043219D01*
X172281696Y-104138457D01*
X172329315Y-104328933D01*
X172329315Y-104567029D01*
X172281696Y-104757505D01*
X172234077Y-104852743D01*
X172186458Y-104900362D01*
X172091220Y-104947981D01*
X171995981Y-104947981D01*
X171900743Y-104900362D01*
X171853124Y-104852743D01*
X171805505Y-104757505D01*
X171757886Y-104567029D01*
X171757886Y-104328933D01*
X171805505Y-104138457D01*
X171853124Y-104043219D01*
X171900743Y-103995600D01*
X171995981Y-103947981D01*
X191974743Y-98242357D02*
X192022362Y-98289976D01*
X192069981Y-98432833D01*
X192069981Y-98528071D01*
X192022362Y-98670929D01*
X191927124Y-98766167D01*
X191831886Y-98813786D01*
X191641410Y-98861405D01*
X191498552Y-98861405D01*
X191308076Y-98813786D01*
X191212838Y-98766167D01*
X191117600Y-98670929D01*
X191069981Y-98528071D01*
X191069981Y-98432833D01*
X191117600Y-98289976D01*
X191165219Y-98242357D01*
X191165219Y-97861405D02*
X191117600Y-97813786D01*
X191069981Y-97718548D01*
X191069981Y-97480452D01*
X191117600Y-97385214D01*
X191165219Y-97337595D01*
X191260457Y-97289976D01*
X191355695Y-97289976D01*
X191498552Y-97337595D01*
X192069981Y-97909024D01*
X192069981Y-97289976D01*
X192069981Y-96813786D02*
X192069981Y-96623310D01*
X192022362Y-96528071D01*
X191974743Y-96480452D01*
X191831886Y-96385214D01*
X191641410Y-96337595D01*
X191260457Y-96337595D01*
X191165219Y-96385214D01*
X191117600Y-96432833D01*
X191069981Y-96528071D01*
X191069981Y-96718548D01*
X191117600Y-96813786D01*
X191165219Y-96861405D01*
X191260457Y-96909024D01*
X191498552Y-96909024D01*
X191593790Y-96861405D01*
X191641410Y-96813786D01*
X191689029Y-96718548D01*
X191689029Y-96528071D01*
X191641410Y-96432833D01*
X191593790Y-96385214D01*
X191498552Y-96337595D01*
X181633905Y-71826381D02*
X181633905Y-70826381D01*
X181872000Y-70826381D01*
X182014858Y-70874000D01*
X182110096Y-70969238D01*
X182157715Y-71064476D01*
X182205334Y-71254952D01*
X182205334Y-71397810D01*
X182157715Y-71588286D01*
X182110096Y-71683524D01*
X182014858Y-71778762D01*
X181872000Y-71826381D01*
X181633905Y-71826381D01*
X183062477Y-70826381D02*
X182872000Y-70826381D01*
X182776762Y-70874000D01*
X182729143Y-70921619D01*
X182633905Y-71064476D01*
X182586286Y-71254952D01*
X182586286Y-71635905D01*
X182633905Y-71731143D01*
X182681524Y-71778762D01*
X182776762Y-71826381D01*
X182967239Y-71826381D01*
X183062477Y-71778762D01*
X183110096Y-71731143D01*
X183157715Y-71635905D01*
X183157715Y-71397810D01*
X183110096Y-71302571D01*
X183062477Y-71254952D01*
X182967239Y-71207333D01*
X182776762Y-71207333D01*
X182681524Y-71254952D01*
X182633905Y-71302571D01*
X182586286Y-71397810D01*
X190777905Y-71826381D02*
X190777905Y-70826381D01*
X191016000Y-70826381D01*
X191158858Y-70874000D01*
X191254096Y-70969238D01*
X191301715Y-71064476D01*
X191349334Y-71254952D01*
X191349334Y-71397810D01*
X191301715Y-71588286D01*
X191254096Y-71683524D01*
X191158858Y-71778762D01*
X191016000Y-71826381D01*
X190777905Y-71826381D01*
X191682667Y-70826381D02*
X192349334Y-70826381D01*
X191920762Y-71826381D01*
X188920381Y-77985857D02*
X188444190Y-78319191D01*
X188920381Y-78557286D02*
X187920381Y-78557286D01*
X187920381Y-78176333D01*
X187968000Y-78081095D01*
X188015619Y-78033476D01*
X188110857Y-77985857D01*
X188253714Y-77985857D01*
X188348952Y-78033476D01*
X188396571Y-78081095D01*
X188444190Y-78176333D01*
X188444190Y-78557286D01*
X188920381Y-77033476D02*
X188920381Y-77604905D01*
X188920381Y-77319191D02*
X187920381Y-77319191D01*
X188063238Y-77414429D01*
X188158476Y-77509667D01*
X188206095Y-77604905D01*
X187920381Y-76128714D02*
X187920381Y-76604905D01*
X188396571Y-76652524D01*
X188348952Y-76604905D01*
X188301333Y-76509667D01*
X188301333Y-76271571D01*
X188348952Y-76176333D01*
X188396571Y-76128714D01*
X188491810Y-76081095D01*
X188729905Y-76081095D01*
X188825143Y-76128714D01*
X188872762Y-76176333D01*
X188920381Y-76271571D01*
X188920381Y-76509667D01*
X188872762Y-76604905D01*
X188825143Y-76652524D01*
X190698381Y-77985857D02*
X190222190Y-78319191D01*
X190698381Y-78557286D02*
X189698381Y-78557286D01*
X189698381Y-78176333D01*
X189746000Y-78081095D01*
X189793619Y-78033476D01*
X189888857Y-77985857D01*
X190031714Y-77985857D01*
X190126952Y-78033476D01*
X190174571Y-78081095D01*
X190222190Y-78176333D01*
X190222190Y-78557286D01*
X190698381Y-77033476D02*
X190698381Y-77604905D01*
X190698381Y-77319191D02*
X189698381Y-77319191D01*
X189841238Y-77414429D01*
X189936476Y-77509667D01*
X189984095Y-77604905D01*
X189698381Y-76176333D02*
X189698381Y-76366810D01*
X189746000Y-76462048D01*
X189793619Y-76509667D01*
X189936476Y-76604905D01*
X190126952Y-76652524D01*
X190507905Y-76652524D01*
X190603143Y-76604905D01*
X190650762Y-76557286D01*
X190698381Y-76462048D01*
X190698381Y-76271571D01*
X190650762Y-76176333D01*
X190603143Y-76128714D01*
X190507905Y-76081095D01*
X190269810Y-76081095D01*
X190174571Y-76128714D01*
X190126952Y-76176333D01*
X190079333Y-76271571D01*
X190079333Y-76462048D01*
X190126952Y-76557286D01*
X190174571Y-76604905D01*
X190269810Y-76652524D01*
X161759995Y-111694981D02*
X161759995Y-112504505D01*
X161807614Y-112599743D01*
X161855233Y-112647362D01*
X161950471Y-112694981D01*
X162140948Y-112694981D01*
X162236186Y-112647362D01*
X162283805Y-112599743D01*
X162331424Y-112504505D01*
X162331424Y-111694981D01*
X162950471Y-112123552D02*
X162855233Y-112075933D01*
X162807614Y-112028314D01*
X162759995Y-111933076D01*
X162759995Y-111885457D01*
X162807614Y-111790219D01*
X162855233Y-111742600D01*
X162950471Y-111694981D01*
X163140948Y-111694981D01*
X163236186Y-111742600D01*
X163283805Y-111790219D01*
X163331424Y-111885457D01*
X163331424Y-111933076D01*
X163283805Y-112028314D01*
X163236186Y-112075933D01*
X163140948Y-112123552D01*
X162950471Y-112123552D01*
X162855233Y-112171171D01*
X162807614Y-112218790D01*
X162759995Y-112314029D01*
X162759995Y-112504505D01*
X162807614Y-112599743D01*
X162855233Y-112647362D01*
X162950471Y-112694981D01*
X163140948Y-112694981D01*
X163236186Y-112647362D01*
X163283805Y-112599743D01*
X163331424Y-112504505D01*
X163331424Y-112314029D01*
X163283805Y-112218790D01*
X163236186Y-112171171D01*
X163140948Y-112123552D01*
X169116477Y-93432381D02*
X169116477Y-94146667D01*
X169068857Y-94289524D01*
X168973619Y-94384762D01*
X168830762Y-94432381D01*
X168735524Y-94432381D01*
X169545048Y-93527619D02*
X169592667Y-93480000D01*
X169687905Y-93432381D01*
X169926001Y-93432381D01*
X170021239Y-93480000D01*
X170068858Y-93527619D01*
X170116477Y-93622857D01*
X170116477Y-93718095D01*
X170068858Y-93860952D01*
X169497429Y-94432381D01*
X170116477Y-94432381D01*
X170449810Y-93432381D02*
X171068858Y-93432381D01*
X170735524Y-93813333D01*
X170878382Y-93813333D01*
X170973620Y-93860952D01*
X171021239Y-93908571D01*
X171068858Y-94003810D01*
X171068858Y-94241905D01*
X171021239Y-94337143D01*
X170973620Y-94384762D01*
X170878382Y-94432381D01*
X170592667Y-94432381D01*
X170497429Y-94384762D01*
X170449810Y-94337143D01*
X172672477Y-93686381D02*
X172672477Y-94400667D01*
X172624857Y-94543524D01*
X172529619Y-94638762D01*
X172386762Y-94686381D01*
X172291524Y-94686381D01*
X173101048Y-93781619D02*
X173148667Y-93734000D01*
X173243905Y-93686381D01*
X173482001Y-93686381D01*
X173577239Y-93734000D01*
X173624858Y-93781619D01*
X173672477Y-93876857D01*
X173672477Y-93972095D01*
X173624858Y-94114952D01*
X173053429Y-94686381D01*
X173672477Y-94686381D01*
X174529620Y-94019714D02*
X174529620Y-94686381D01*
X174291524Y-93638762D02*
X174053429Y-94353048D01*
X174672477Y-94353048D01*
X171529477Y-98131381D02*
X171529477Y-98845667D01*
X171481857Y-98988524D01*
X171386619Y-99083762D01*
X171243762Y-99131381D01*
X171148524Y-99131381D01*
X171958048Y-98226619D02*
X172005667Y-98179000D01*
X172100905Y-98131381D01*
X172339001Y-98131381D01*
X172434239Y-98179000D01*
X172481858Y-98226619D01*
X172529477Y-98321857D01*
X172529477Y-98417095D01*
X172481858Y-98559952D01*
X171910429Y-99131381D01*
X172529477Y-99131381D01*
X173434239Y-98131381D02*
X172958048Y-98131381D01*
X172910429Y-98607571D01*
X172958048Y-98559952D01*
X173053286Y-98512333D01*
X173291382Y-98512333D01*
X173386620Y-98559952D01*
X173434239Y-98607571D01*
X173481858Y-98702810D01*
X173481858Y-98940905D01*
X173434239Y-99036143D01*
X173386620Y-99083762D01*
X173291382Y-99131381D01*
X173053286Y-99131381D01*
X172958048Y-99083762D01*
X172910429Y-99036143D01*
X174704477Y-100671381D02*
X174704477Y-101385667D01*
X174656857Y-101528524D01*
X174561619Y-101623762D01*
X174418762Y-101671381D01*
X174323524Y-101671381D01*
X175133048Y-100766619D02*
X175180667Y-100719000D01*
X175275905Y-100671381D01*
X175514001Y-100671381D01*
X175609239Y-100719000D01*
X175656858Y-100766619D01*
X175704477Y-100861857D01*
X175704477Y-100957095D01*
X175656858Y-101099952D01*
X175085429Y-101671381D01*
X175704477Y-101671381D01*
X176561620Y-100671381D02*
X176371143Y-100671381D01*
X176275905Y-100719000D01*
X176228286Y-100766619D01*
X176133048Y-100909476D01*
X176085429Y-101099952D01*
X176085429Y-101480905D01*
X176133048Y-101576143D01*
X176180667Y-101623762D01*
X176275905Y-101671381D01*
X176466382Y-101671381D01*
X176561620Y-101623762D01*
X176609239Y-101576143D01*
X176656858Y-101480905D01*
X176656858Y-101242810D01*
X176609239Y-101147571D01*
X176561620Y-101099952D01*
X176466382Y-101052333D01*
X176275905Y-101052333D01*
X176180667Y-101099952D01*
X176133048Y-101147571D01*
X176085429Y-101242810D01*
X139906477Y-116673381D02*
X139906477Y-117387667D01*
X139858857Y-117530524D01*
X139763619Y-117625762D01*
X139620762Y-117673381D01*
X139525524Y-117673381D01*
X140335048Y-116768619D02*
X140382667Y-116721000D01*
X140477905Y-116673381D01*
X140716001Y-116673381D01*
X140811239Y-116721000D01*
X140858858Y-116768619D01*
X140906477Y-116863857D01*
X140906477Y-116959095D01*
X140858858Y-117101952D01*
X140287429Y-117673381D01*
X140906477Y-117673381D01*
X141477905Y-117101952D02*
X141382667Y-117054333D01*
X141335048Y-117006714D01*
X141287429Y-116911476D01*
X141287429Y-116863857D01*
X141335048Y-116768619D01*
X141382667Y-116721000D01*
X141477905Y-116673381D01*
X141668382Y-116673381D01*
X141763620Y-116721000D01*
X141811239Y-116768619D01*
X141858858Y-116863857D01*
X141858858Y-116911476D01*
X141811239Y-117006714D01*
X141763620Y-117054333D01*
X141668382Y-117101952D01*
X141477905Y-117101952D01*
X141382667Y-117149571D01*
X141335048Y-117197190D01*
X141287429Y-117292429D01*
X141287429Y-117482905D01*
X141335048Y-117578143D01*
X141382667Y-117625762D01*
X141477905Y-117673381D01*
X141668382Y-117673381D01*
X141763620Y-117625762D01*
X141811239Y-117578143D01*
X141858858Y-117482905D01*
X141858858Y-117292429D01*
X141811239Y-117197190D01*
X141763620Y-117149571D01*
X141668382Y-117101952D01*
X178386858Y-80277354D02*
X178959278Y-80849774D01*
X179060293Y-80883446D01*
X179127636Y-80883446D01*
X179228651Y-80849774D01*
X179363339Y-80715086D01*
X179397011Y-80614071D01*
X179397011Y-80546728D01*
X179363339Y-80445713D01*
X178790919Y-79873293D01*
X179161308Y-79637591D02*
X179161308Y-79570247D01*
X179194980Y-79469232D01*
X179363339Y-79300873D01*
X179464354Y-79267201D01*
X179531698Y-79267201D01*
X179632713Y-79300873D01*
X179700056Y-79368216D01*
X179767400Y-79502903D01*
X179767400Y-80311026D01*
X180205133Y-79873293D01*
X181184147Y-89947817D02*
X180847429Y-90284535D01*
X181318834Y-89341726D02*
X181184147Y-89947817D01*
X181790239Y-89813131D01*
X181924926Y-90082504D02*
X181992269Y-90082504D01*
X182093284Y-90116176D01*
X182261644Y-90284535D01*
X182295315Y-90385551D01*
X182295315Y-90452894D01*
X182261644Y-90553909D01*
X182194300Y-90621253D01*
X182059613Y-90688596D01*
X181251491Y-90688596D01*
X181689224Y-91126329D01*
M02*
